<svg id="Capa_1" data-name="Capa 1" xmlns="http://www.w3.org/2000/svg" xmlns:xlink="http://www.w3.org/1999/xlink" width="1441.67" height="941.4" viewBox="0 0 1441.67 941.4"><defs><style>.cls-1{font-size:80px;fill:#2a55ff;}.cls-1,.cls-8{font-family:DMSans-Regular, DM Sans;}.cls-2{letter-spacing:-0.03em;}.cls-3{letter-spacing:-0.02em;}.cls-4{letter-spacing:-0.02em;}.cls-5{letter-spacing:-0.01em;}.cls-6{letter-spacing:-0.01em;}.cls-7{letter-spacing:0em;}.cls-8{font-size:50px;fill:#757575;}.cls-9{letter-spacing:-0.02em;}.cls-10{letter-spacing:-0.01em;}.cls-11{letter-spacing:0em;}.cls-12{letter-spacing:-0.02em;}.cls-13{letter-spacing:-0.01em;}.cls-14{opacity:0.24;}.cls-15{fill:url(#Degradado_sin_nombre_41);}.cls-16{fill:#fff;}.cls-17{fill:url(#Degradado_sin_nombre_73);}.cls-18{fill:url(#Degradado_sin_nombre_37);}</style><linearGradient id="Degradado_sin_nombre_41" x1="660.75" y1="735.61" x2="660.75" y2="414.29" gradientTransform="matrix(1, 0.37, 0, 1, 0, -283.66)" gradientUnits="userSpaceOnUse"><stop offset="0" stop-color="#6a041d"/><stop offset="0.06" stop-color="#7c0427"/><stop offset="0.2" stop-color="#a4023c"/><stop offset="0.35" stop-color="#c5024e"/><stop offset="0.5" stop-color="#de015c"/><stop offset="0.65" stop-color="#f10066"/><stop offset="0.82" stop-color="#fb006c"/><stop offset="1" stop-color="#ff006e"/></linearGradient><linearGradient id="Degradado_sin_nombre_73" x1="1295.38" y1="763.67" x2="1295.38" y2="436.58" gradientTransform="matrix(1, -0.35, 0, 1, 0, 392.54)" gradientUnits="userSpaceOnUse"><stop offset="0" stop-color="#00487c"/><stop offset="1" stop-color="#2a8eff"/></linearGradient><linearGradient id="Degradado_sin_nombre_37" x1="735.54" y1="689.57" x2="735.54" y2="383.9" gradientUnits="userSpaceOnUse"><stop offset="0" stop-color="#388659"/><stop offset="0.03" stop-color="#3d8a54"/><stop offset="0.2" stop-color="#5ea236"/><stop offset="0.39" stop-color="#77b61e"/><stop offset="0.58" stop-color="#8ac30d"/><stop offset="0.78" stop-color="#94cb03"/><stop offset="1" stop-color="#98ce00"/></linearGradient></defs><title>banner2</title><text class="cls-1" transform="translate(131.82 68)"><tspan class="cls-2">R</tspan><tspan x="45.04" y="0">esuel</tspan><tspan class="cls-3" x="239.59" y="0">v</tspan><tspan x="279.27" y="0">e eje</tspan><tspan class="cls-4" x="456.39" y="0">r</tspan><tspan x="483.91" y="0">cicios m</tspan><tspan class="cls-5" x="793.51" y="0">at</tspan><tspan x="865.51" y="0">em</tspan><tspan class="cls-6" x="982.62" y="0">รก</tspan><tspan x="1024.78" y="0">ticos </tspan><tspan x="311.76" y="96">mientras ju</tspan><tspan class="cls-7" x="723.35" y="96">e</tspan><tspan x="768.63" y="96">gas</tspan></text><text class="cls-8" transform="translate(298.34 841.98)">Di<tspan class="cls-9" x="46.75" y="0">f</tspan><tspan x="62.4" y="0">e</tspan><tspan class="cls-4" x="90.85" y="0">r</tspan><tspan x="108.05" y="0">en</tspan><tspan class="cls-10" x="165.1" y="0">t</tspan><tspan x="183.75" y="0">es modos de ju</tspan><tspan class="cls-11" x="537.84" y="0">e</tspan><tspan class="cls-12" x="566.14" y="0">g</tspan><tspan x="592.74" y="0">o pra</tspan><tspan class="cls-13" x="712.19" y="0">c</tspan><tspan x="739.99" y="0">ticar</tspan><tspan x="214.35" y="60">solo o con ami</tspan><tspan class="cls-12" x="549.44" y="60">g</tspan><tspan x="576.04" y="60">os</tspan></text><path class="cls-14" d="M756.33,714.38l-161.7-46.2a16,16,0,0,1-3.79-29.13l87.61-52.15a16,16,0,0,1,13.7-1.27l160.35,59c13.42,4.93,14.13,23.64,1.13,29.57l-86.26,39.4A16,16,0,0,1,756.33,714.38Z" transform="translate(-239.17 -35.1)"/><path class="cls-14" d="M1115.5,640.2l186.81-63.89a16,16,0,0,1,16.76,4.1l56.52,59.28a16,16,0,0,1-7.29,26.46l-166.51,46.33a16,16,0,0,1-11.93-1.36L1113,669.4A16,16,0,0,1,1115.5,640.2Z" transform="translate(-239.17 -35.1)"/><path class="cls-15" d="M751.9,716.05,569.6,662.74c-5.85-1.71-10.6-10.27-10.6-19.1V368.53c0-8.84,4.75-14.61,10.6-12.9l182.3,53.31c5.85,1.71,10.6,10.26,10.6,19.1V703.15C762.5,712,757.75,717.76,751.9,716.05Z" transform="translate(-239.17 -35.1)"/><path class="cls-16" d="M660.75,438.8c-35.51-10.38-64.3,24.64-64.3,78.23s28.79,105.46,64.3,115.84,64.3-24.64,64.3-78.23S696.26,449.19,660.75,438.8Zm37.51,153.67s-12.39,12.4-30.09-20.83l2.65,35.51-19.47-5.69,3.54-35s-16.82,21.79-29.21,6.15c0,0-10.62-17.8,0-30.73,0,0-11.51-22.06-4.42-29.34,0,0,8.85-13.44,31,15.74,0,0-24.78-44.65-8.85-61.36,0,0,11.51-10,17.71,15.86,0,0,4.42-14.74,12.39-11.07,0,0,25.67,19.53-2.66,60.67,0,0,23-14.64,31,5,0,0,5.31,14.91-5.31,23.83C696.49,561.23,706.23,582.77,698.26,592.47Z" transform="translate(-239.17 -35.1)"/><path class="cls-17" d="M1391.66,665.39l-192.55,47.9c-6.26,1.56-11.34-4.34-11.34-13.18v-275c0-8.84,5.08-17.26,11.34-18.82l192.55-47.9c6.26-1.56,11.34,4.34,11.34,13.18v275C1403,655.4,1397.92,663.83,1391.66,665.39Z" transform="translate(-239.17 -35.1)"/><path class="cls-16" d="M1338.65,601.9l-4,1V575.81c-.88-8.6-5.74-13.06-5.74-13.06l-17.22-23.42c-4.85-5.72,0-15.74,0-15.74l18.1-32.84a26.17,26.17,0,0,0,4.42-14.95V449.35l4-1c4.42-2.35,4.86-9.39,4.86-9.39,0-7.56-4.86-8.24-4.86-8.24l-85.2,21.2c-5.74,2.69-5.3,10.13-5.3,10.13,0,6.3,4.42,7.09,4.42,7.09l4-.36V496.5c1.32,6.59,4,9.71,4,9.71l19.43,26.65c3.53,5.42,0,13.86,0,13.86l-18.1,33.47a32.36,32.36,0,0,0-5.3,15.17v27.07l-4,1a13,13,0,0,0-4.42,9.92c0,6.92,5.3,7.49,5.3,7.49l86.08-21.41c4-4.14,4-10.44,4-10.44C1343.07,603.32,1338.65,601.9,1338.65,601.9ZM1322.32,606,1268,619.47V594.28l22.07-41.38s7.51-16.35-.88-33.16L1268,491.64V465.83l54.3-13.51v25.81L1302,515.93s-10.15,22.05.44,36.41l19.87,27.8Z" transform="translate(-239.17 -35.1)"/><rect class="cls-18" x="582.75" y="383.9" width="305.58" height="305.67" rx="16"/><path class="cls-16" d="M1044.61,486.09H904.81A15.87,15.87,0,0,0,889,501.92V641.76a15.88,15.88,0,0,0,15.82,15.83h139.8a15.88,15.88,0,0,0,15.82-15.83V501.92A15.87,15.87,0,0,0,1044.61,486.09ZM927.89,545.45a21.77,21.77,0,1,1,21.76-21.76A21.76,21.76,0,0,1,927.89,545.45Zm46.82,48.16a21.77,21.77,0,1,1,21.76-21.77A21.77,21.77,0,0,1,974.71,593.61Zm43.52,43.53A21.77,21.77,0,1,1,1040,615.37,21.77,21.77,0,0,1,1018.23,637.14Z" transform="translate(-239.17 -35.1)"/></svg>