<svg id="Capa_1" data-name="Capa 1" xmlns="http://www.w3.org/2000/svg" xmlns:xlink="http://www.w3.org/1999/xlink" width="1197.82" height="903.74" viewBox="0 0 1197.82 903.74"><defs><style>.cls-1{fill:#2a55ff;}.cls-2{fill:#757575;}.cls-3{opacity:0.24;}.cls-4{fill:url(#Degradado_sin_nombre_41);}.cls-5{fill:#fff;}.cls-6{fill:url(#Degradado_sin_nombre_73);}.cls-7{fill:url(#Degradado_sin_nombre_37);}</style><linearGradient id="Degradado_sin_nombre_41" x1="660.75" y1="735.61" x2="660.75" y2="414.29" gradientTransform="matrix(1, 0.37, 0, 1, 0, -283.66)" gradientUnits="userSpaceOnUse"><stop offset="0" stop-color="#6a041d"/><stop offset="0.06" stop-color="#7c0427"/><stop offset="0.2" stop-color="#a4023c"/><stop offset="0.35" stop-color="#c5024e"/><stop offset="0.5" stop-color="#de015c"/><stop offset="0.65" stop-color="#f10066"/><stop offset="0.82" stop-color="#fb006c"/><stop offset="1" stop-color="#ff006e"/></linearGradient><linearGradient id="Degradado_sin_nombre_73" x1="1295.38" y1="763.67" x2="1295.38" y2="436.58" gradientTransform="matrix(1, -0.35, 0, 1, 0, 392.54)" gradientUnits="userSpaceOnUse"><stop offset="0" stop-color="#00487c"/><stop offset="1" stop-color="#2a8eff"/></linearGradient><linearGradient id="Degradado_sin_nombre_37" x1="597.81" y1="679.73" x2="597.81" y2="374.07" gradientUnits="userSpaceOnUse"><stop offset="0" stop-color="#388659"/><stop offset="0.03" stop-color="#3d8a54"/><stop offset="0.2" stop-color="#5ea236"/><stop offset="0.39" stop-color="#77b61e"/><stop offset="0.58" stop-color="#8ac30d"/><stop offset="0.78" stop-color="#94cb03"/><stop offset="1" stop-color="#98ce00"/></linearGradient></defs><title>banner2</title><path class="cls-1" d="M376.9,103.1v-56H395a23.19,23.19,0,0,1,10.72,2.16,14,14,0,0,1,6.16,5.92,17.37,17.37,0,0,1,2,8.32A16.68,16.68,0,0,1,411,73a15.31,15.31,0,0,1-8.84,6l12.24,24.08H406.5L395.14,80H383.62V103.1Zm6.72-28.4H394.5q6.48,0,9.44-3.12a11.13,11.13,0,0,0,3-8A10.63,10.63,0,0,0,404,55.7q-2.91-2.93-9.56-2.92h-10.8Z" transform="translate(-376.9 -44.94)"/><path class="cls-1" d="M439.38,104.06a19.5,19.5,0,0,1-10.08-2.6,18.48,18.48,0,0,1-6.92-7.24,22.63,22.63,0,0,1-2.52-11,23,23,0,0,1,2.48-10.92,18.06,18.06,0,0,1,6.92-7.28,20,20,0,0,1,10.28-2.6,18.57,18.57,0,0,1,10,2.6,17.55,17.55,0,0,1,6.44,6.84A19.17,19.17,0,0,1,458.18,81c0,.59,0,1.17,0,1.76s0,1.25,0,2H426.5a15.63,15.63,0,0,0,2.12,7.56,12.48,12.48,0,0,0,10.76,6,12,12,0,0,0,7-1.92,10.93,10.93,0,0,0,4.08-5.2h6.64a17.84,17.84,0,0,1-6.12,9.16Q446.43,104.07,439.38,104.06Zm0-35.92a13.4,13.4,0,0,0-8.52,2.92,11.8,11.8,0,0,0-4.28,8.52h25a11.34,11.34,0,0,0-3.68-8.4A12.32,12.32,0,0,0,439.38,68.14Z" transform="translate(-376.9 -44.94)"/><path class="cls-1" d="M482.26,104.06a19,19,0,0,1-11.84-3.6,14,14,0,0,1-5.52-9.76h6.88a9.49,9.49,0,0,0,3.32,5.4,10.81,10.81,0,0,0,7.24,2.28q4.25,0,6.24-1.8a5.59,5.59,0,0,0,2-4.28q0-3.6-2.6-4.8a34.48,34.48,0,0,0-7.32-2.16,41.63,41.63,0,0,1-6.4-1.84,14.52,14.52,0,0,1-5.36-3.4,7.93,7.93,0,0,1-2.16-5.8,10.69,10.69,0,0,1,3.88-8.52q3.88-3.31,10.52-3.32a16.3,16.3,0,0,1,10.36,3.16,12.65,12.65,0,0,1,4.68,9h-6.64a6.92,6.92,0,0,0-2.6-4.76,9.28,9.28,0,0,0-5.88-1.72,8.93,8.93,0,0,0-5.56,1.52,4.81,4.81,0,0,0-2,4,4.16,4.16,0,0,0,2.52,3.76,26.92,26.92,0,0,0,6.84,2.32,59.58,59.58,0,0,1,7,2,13.2,13.2,0,0,1,5.44,3.44q2.12,2.28,2.12,6.6a10.84,10.84,0,0,1-4,8.84Q489.3,104.06,482.26,104.06Z" transform="translate(-376.9 -44.94)"/><path class="cls-1" d="M521.54,104.06q-7,0-11.2-4.28t-4.16-13.16V63.42h6.72V85.9q0,12.41,10.16,12.4a11.15,11.15,0,0,0,8.6-3.72q3.4-3.72,3.4-10.6V63.42h6.72V103.1H535.7L535.22,96a13.8,13.8,0,0,1-5.48,5.92A15.77,15.77,0,0,1,521.54,104.06Z" transform="translate(-376.9 -44.94)"/><path class="cls-1" d="M570.66,104.06a19.45,19.45,0,0,1-10.08-2.6,18.48,18.48,0,0,1-6.92-7.24,22.63,22.63,0,0,1-2.52-11,23,23,0,0,1,2.48-10.92,18,18,0,0,1,6.92-7.28,20,20,0,0,1,10.28-2.6,18.57,18.57,0,0,1,10,2.6,17.55,17.55,0,0,1,6.44,6.84A19.29,19.29,0,0,1,589.46,81c0,.59,0,1.17,0,1.76s0,1.25,0,2h-31.6a15.63,15.63,0,0,0,2.12,7.56,12.51,12.51,0,0,0,4.72,4.52,12.65,12.65,0,0,0,6,1.52,12,12,0,0,0,7-1.92,10.93,10.93,0,0,0,4.08-5.2h6.64a18,18,0,0,1-6.12,9.16Q577.71,104.07,570.66,104.06Zm0-35.92a13.4,13.4,0,0,0-8.52,2.92,11.77,11.77,0,0,0-4.28,8.52h25a11.37,11.37,0,0,0-3.68-8.4A12.32,12.32,0,0,0,570.66,68.14Z" transform="translate(-376.9 -44.94)"/><path class="cls-1" d="M598.34,103.1V45.5h6.72v57.6Z" transform="translate(-376.9 -44.94)"/><path class="cls-1" d="M627.54,103.1l-15-39.68h7l11.92,33.2,12-33.2h6.88l-15,39.68Z" transform="translate(-376.9 -44.94)"/><path class="cls-1" d="M673.62,104.06a19.45,19.45,0,0,1-10.08-2.6,18.48,18.48,0,0,1-6.92-7.24,22.63,22.63,0,0,1-2.52-11,23,23,0,0,1,2.48-10.92,18,18,0,0,1,6.92-7.28,20,20,0,0,1,10.28-2.6,18.57,18.57,0,0,1,10,2.6,17.55,17.55,0,0,1,6.44,6.84A19.29,19.29,0,0,1,692.42,81c0,.59,0,1.17,0,1.76s0,1.25,0,2h-31.6a15.63,15.63,0,0,0,2.12,7.56,12.51,12.51,0,0,0,4.72,4.52,12.65,12.65,0,0,0,6,1.52,12,12,0,0,0,7-1.92,10.93,10.93,0,0,0,4.08-5.2h6.64a18,18,0,0,1-6.12,9.16Q680.67,104.07,673.62,104.06Zm0-35.92a13.4,13.4,0,0,0-8.52,2.92,11.77,11.77,0,0,0-4.28,8.52h25a11.37,11.37,0,0,0-3.68-8.4A12.32,12.32,0,0,0,673.62,68.14Z" transform="translate(-376.9 -44.94)"/><path class="cls-1" d="M740.34,104.06a19.45,19.45,0,0,1-10.08-2.6,18.41,18.41,0,0,1-6.92-7.24,22.63,22.63,0,0,1-2.52-11,22.91,22.91,0,0,1,2.48-10.92,18,18,0,0,1,6.92-7.28,20,20,0,0,1,10.28-2.6,18.57,18.57,0,0,1,10,2.6,17.62,17.62,0,0,1,6.44,6.84A19.29,19.29,0,0,1,759.14,81c0,.59,0,1.17,0,1.76s0,1.25,0,2h-31.6a15.52,15.52,0,0,0,2.12,7.56,12.44,12.44,0,0,0,4.72,4.52,12.62,12.62,0,0,0,6,1.52,12,12,0,0,0,7-1.92,11.05,11.05,0,0,0,4.08-5.2H758a18,18,0,0,1-6.12,9.16Q747.37,104.07,740.34,104.06Zm0-35.92a13.4,13.4,0,0,0-8.52,2.92,11.77,11.77,0,0,0-4.28,8.52h25a11.37,11.37,0,0,0-3.68-8.4A12.34,12.34,0,0,0,740.34,68.14Z" transform="translate(-376.9 -44.94)"/><path class="cls-1" d="M760.26,120.7v-5.76h3.12a6.11,6.11,0,0,0,4.28-1.24q1.32-1.24,1.32-4.2V63.42h6.72v46.24q0,5.76-2.88,8.4t-8.4,2.64Zm12.16-66.08a4.53,4.53,0,0,1-3.28-1.32A4.43,4.43,0,0,1,767.78,50a4.2,4.2,0,0,1,1.36-3.2,4.62,4.62,0,0,1,3.28-1.28,4.49,4.49,0,0,1,3.24,1.28A4.27,4.27,0,0,1,777,50a4.51,4.51,0,0,1-1.32,3.32A4.4,4.4,0,0,1,772.42,54.62Z" transform="translate(-376.9 -44.94)"/><path class="cls-1" d="M805.22,104.06a19.45,19.45,0,0,1-10.08-2.6,18.41,18.41,0,0,1-6.92-7.24,22.63,22.63,0,0,1-2.52-11,22.91,22.91,0,0,1,2.48-10.92,18,18,0,0,1,6.92-7.28,20,20,0,0,1,10.28-2.6,18.57,18.57,0,0,1,10,2.6,17.62,17.62,0,0,1,6.44,6.84A19.29,19.29,0,0,1,824,81c0,.59,0,1.17,0,1.76s0,1.25,0,2h-31.6a15.52,15.52,0,0,0,2.12,7.56,12.44,12.44,0,0,0,4.72,4.52,12.62,12.62,0,0,0,6,1.52,12,12,0,0,0,7-1.92,11.05,11.05,0,0,0,4.08-5.2h6.64a18,18,0,0,1-6.12,9.16Q812.25,104.07,805.22,104.06Zm0-35.92a13.4,13.4,0,0,0-8.52,2.92,11.77,11.77,0,0,0-4.28,8.52h25a11.37,11.37,0,0,0-3.68-8.4A12.34,12.34,0,0,0,805.22,68.14Z" transform="translate(-376.9 -44.94)"/><path class="cls-1" d="M832.89,103.1V63.42H839l.56,7.6a14.48,14.48,0,0,1,5.6-6.24,17.34,17.34,0,0,1,9.28-2.32v7h-1.84a16.59,16.59,0,0,0-6.48,1.24,9.92,9.92,0,0,0-4.72,4.2,16,16,0,0,0-1.76,8.16v20Z" transform="translate(-376.9 -44.94)"/><path class="cls-1" d="M878.65,104.06a20.15,20.15,0,0,1-10.2-2.6,18.74,18.74,0,0,1-7.12-7.28,22.16,22.16,0,0,1-2.6-10.92,22.16,22.16,0,0,1,2.6-10.92,18.74,18.74,0,0,1,7.12-7.28,20.15,20.15,0,0,1,10.2-2.6,19,19,0,0,1,11.88,3.68A16,16,0,0,1,896.65,76h-6.88a8.81,8.81,0,0,0-3.92-5.72,13,13,0,0,0-7.28-2,12.43,12.43,0,0,0-11.12,6.72,17.21,17.21,0,0,0-1.84,8.32,17.21,17.21,0,0,0,1.84,8.32,12.89,12.89,0,0,0,4.8,5.08,12.36,12.36,0,0,0,6.32,1.72,13,13,0,0,0,7.28-2,8.83,8.83,0,0,0,3.92-5.8h6.88a15.87,15.87,0,0,1-6.08,9.76A18.91,18.91,0,0,1,878.65,104.06Z" transform="translate(-376.9 -44.94)"/><path class="cls-1" d="M910.09,54.62A4.51,4.51,0,0,1,905.45,50a4.27,4.27,0,0,1,1.32-3.2,4.89,4.89,0,0,1,6.6,0,4.2,4.2,0,0,1,1.36,3.2,4.43,4.43,0,0,1-1.36,3.32A4.53,4.53,0,0,1,910.09,54.62Zm-3.36,48.48V63.42h6.72V103.1Z" transform="translate(-376.9 -44.94)"/><path class="cls-1" d="M943.37,104.06a20.15,20.15,0,0,1-10.2-2.6,18.74,18.74,0,0,1-7.12-7.28,22.16,22.16,0,0,1-2.6-10.92,22.16,22.16,0,0,1,2.6-10.92,18.74,18.74,0,0,1,7.12-7.28,20.15,20.15,0,0,1,10.2-2.6,19,19,0,0,1,11.88,3.68A16,16,0,0,1,961.37,76h-6.88a8.81,8.81,0,0,0-3.92-5.72,13,13,0,0,0-7.28-2,12.43,12.43,0,0,0-11.12,6.72,17.21,17.21,0,0,0-1.84,8.32,17.21,17.21,0,0,0,1.84,8.32,12.89,12.89,0,0,0,4.8,5.08,12.36,12.36,0,0,0,6.32,1.72,13,13,0,0,0,7.28-2,8.83,8.83,0,0,0,3.92-5.8h6.88a15.87,15.87,0,0,1-6.08,9.76A18.91,18.91,0,0,1,943.37,104.06Z" transform="translate(-376.9 -44.94)"/><path class="cls-1" d="M974.81,54.62A4.51,4.51,0,0,1,970.17,50a4.27,4.27,0,0,1,1.32-3.2,4.89,4.89,0,0,1,6.6,0,4.2,4.2,0,0,1,1.36,3.2,4.43,4.43,0,0,1-1.36,3.32A4.53,4.53,0,0,1,974.81,54.62Zm-3.36,48.48V63.42h6.72V103.1Z" transform="translate(-376.9 -44.94)"/><path class="cls-1" d="M1007.93,104.06a19.94,19.94,0,0,1-10.08-2.56,18.6,18.6,0,0,1-7.08-7.24,22.34,22.34,0,0,1-2.6-11,22,22,0,0,1,2.64-11A18.73,18.73,0,0,1,998,65a20.16,20.16,0,0,1,10.12-2.56A19.88,19.88,0,0,1,1018.17,65a18.47,18.47,0,0,1,7.08,7.24,22.23,22.23,0,0,1,2.6,11,22,22,0,0,1-2.64,11,18.66,18.66,0,0,1-7.16,7.24A20.11,20.11,0,0,1,1007.93,104.06Zm0-5.76a12.72,12.72,0,0,0,6.4-1.68,12.44,12.44,0,0,0,4.8-5,17.09,17.09,0,0,0,1.84-8.32,17.44,17.44,0,0,0-1.8-8.32,12.23,12.23,0,0,0-4.76-5,12.59,12.59,0,0,0-6.32-1.68,12.78,12.78,0,0,0-6.4,1.68,12.58,12.58,0,0,0-4.8,5,17.21,17.21,0,0,0-1.84,8.32,17.21,17.21,0,0,0,1.84,8.32,12.69,12.69,0,0,0,4.76,5A12.39,12.39,0,0,0,1007.93,98.3Z" transform="translate(-376.9 -44.94)"/><path class="cls-1" d="M1052.41,104.06a19,19,0,0,1-11.84-3.6,14.08,14.08,0,0,1-5.52-9.76h6.88a9.54,9.54,0,0,0,3.32,5.4,10.81,10.81,0,0,0,7.24,2.28q4.24,0,6.24-1.8a5.56,5.56,0,0,0,2-4.28c0-2.4-.86-4-2.6-4.8a34.48,34.48,0,0,0-7.32-2.16,42,42,0,0,1-6.4-1.84,14.52,14.52,0,0,1-5.36-3.4,7.93,7.93,0,0,1-2.16-5.8,10.72,10.72,0,0,1,3.88-8.52q3.88-3.31,10.52-3.32a16.28,16.28,0,0,1,10.36,3.16,12.58,12.58,0,0,1,4.68,9h-6.64a6.88,6.88,0,0,0-2.6-4.76,9.24,9.24,0,0,0-5.88-1.72,8.93,8.93,0,0,0-5.56,1.52,4.84,4.84,0,0,0-2,4,4.16,4.16,0,0,0,2.52,3.76,26.92,26.92,0,0,0,6.84,2.32,59,59,0,0,1,7,2,13.13,13.13,0,0,1,5.44,3.44c1.42,1.52,2.12,3.72,2.12,6.6a10.82,10.82,0,0,1-4,8.84Q1059.46,104.06,1052.41,104.06Z" transform="translate(-376.9 -44.94)"/><path class="cls-1" d="M1098.41,103.1V63.42h6.08l.48,5.76a13.46,13.46,0,0,1,5.12-5,14.76,14.76,0,0,1,7.2-1.76,16.23,16.23,0,0,1,8.12,1.92,12.59,12.59,0,0,1,5.24,5.84,15.29,15.29,0,0,1,5.72-5.68,15.61,15.61,0,0,1,7.88-2.08q7.13,0,11.36,4.28t4.24,13.16v23.2h-6.64V80.62c0-4.11-.82-7.2-2.48-9.28a8.55,8.55,0,0,0-7.12-3.12,10,10,0,0,0-8,3.72q-3.15,3.72-3.16,10.6V103.1h-6.72V80.62c0-4.11-.82-7.2-2.48-9.28a8.55,8.55,0,0,0-7.12-3.12,9.94,9.94,0,0,0-7.88,3.72q-3.15,3.72-3.16,10.6V103.1Z" transform="translate(-376.9 -44.94)"/><path class="cls-1" d="M1183.21,104.06a18,18,0,0,1-8.24-1.68,11.46,11.46,0,0,1-4.88-4.48,12,12,0,0,1-1.6-6.08,10.79,10.79,0,0,1,4.64-9.36q4.63-3.28,12.64-3.28h10.72V78.7c0-3.47-.91-6.09-2.72-7.88a9.9,9.9,0,0,0-7.28-2.68,11.6,11.6,0,0,0-6.76,2,8.6,8.6,0,0,0-3.56,5.72h-6.88a12.75,12.75,0,0,1,2.92-7.28,16.33,16.33,0,0,1,6.28-4.52,20.7,20.7,0,0,1,8-1.56q8.33,0,12.52,4.44t4.2,11.8v24.4h-6l-.4-7.12a15.71,15.71,0,0,1-4.92,5.72A14.45,14.45,0,0,1,1183.21,104.06Zm1-5.68a11,11,0,0,0,6.6-2,12.77,12.77,0,0,0,4.2-5.2,16.17,16.17,0,0,0,1.44-6.72v-.08h-10.16c-3.95,0-6.73.68-8.36,2a6.35,6.35,0,0,0-2.44,5.08,6.15,6.15,0,0,0,2.28,5A9.89,9.89,0,0,0,1184.25,98.38Z" transform="translate(-376.9 -44.94)"/><path class="cls-1" d="M1227.85,103.1q-5.44,0-8.56-2.64t-3.12-9.52V69.1h-6.88V63.42h6.88l.88-9.52h5.84v9.52h11.68V69.1h-11.68V90.94q0,3.77,1.52,5.08t5.36,1.32h4.16v5.76Z" transform="translate(-376.9 -44.94)"/><path class="cls-1" d="M1259.85,104.06a19.45,19.45,0,0,1-10.08-2.6,18.48,18.48,0,0,1-6.92-7.24,22.63,22.63,0,0,1-2.52-11,23,23,0,0,1,2.48-10.92,18,18,0,0,1,6.92-7.28,20,20,0,0,1,10.28-2.6,18.57,18.57,0,0,1,10,2.6,17.55,17.55,0,0,1,6.44,6.84,19.29,19.29,0,0,1,2.24,9.12c0,.59,0,1.17,0,1.76s0,1.25,0,2H1247a15.63,15.63,0,0,0,2.12,7.56,12.51,12.51,0,0,0,4.72,4.52,12.65,12.65,0,0,0,6,1.52,12,12,0,0,0,7-1.92,10.93,10.93,0,0,0,4.08-5.2h6.64a18,18,0,0,1-6.12,9.16Q1266.9,104.07,1259.85,104.06Zm0-35.92a13.4,13.4,0,0,0-8.52,2.92,11.77,11.77,0,0,0-4.28,8.52h25a11.37,11.37,0,0,0-3.68-8.4A12.32,12.32,0,0,0,1259.85,68.14Z" transform="translate(-376.9 -44.94)"/><path class="cls-1" d="M1287.53,103.1V63.42h6.08l.48,5.76a13.46,13.46,0,0,1,5.12-5,14.71,14.71,0,0,1,7.2-1.76,16.26,16.26,0,0,1,8.12,1.92,12.65,12.65,0,0,1,5.24,5.84,15.22,15.22,0,0,1,5.72-5.68,15.58,15.58,0,0,1,7.88-2.08q7.13,0,11.36,4.28T1349,79.9v23.2h-6.64V80.62q0-6.16-2.48-9.28a8.56,8.56,0,0,0-7.12-3.12,10,10,0,0,0-8,3.72q-3.16,3.72-3.16,10.6V103.1h-6.72V80.62q0-6.16-2.48-9.28a8.56,8.56,0,0,0-7.12-3.12,9.92,9.92,0,0,0-7.88,3.72q-3.17,3.72-3.16,10.6V103.1Z" transform="translate(-376.9 -44.94)"/><path class="cls-1" d="M1372.33,104.06a18,18,0,0,1-8.24-1.68,11.34,11.34,0,0,1-4.88-4.48,12,12,0,0,1-1.6-6.08,10.77,10.77,0,0,1,4.64-9.36q4.63-3.28,12.64-3.28h10.72V78.7c0-3.47-.91-6.09-2.72-7.88a9.92,9.92,0,0,0-7.28-2.68,11.58,11.58,0,0,0-6.76,2,8.6,8.6,0,0,0-3.56,5.72h-6.88a12.68,12.68,0,0,1,2.92-7.28,16.33,16.33,0,0,1,6.28-4.52,20.63,20.63,0,0,1,8-1.56q8.31,0,12.52,4.44t4.2,11.8v24.4h-6l-.4-7.12a15.71,15.71,0,0,1-4.92,5.72A14.45,14.45,0,0,1,1372.33,104.06Zm1-5.68a11,11,0,0,0,6.6-2,12.77,12.77,0,0,0,4.2-5.2,16.17,16.17,0,0,0,1.44-6.72v-.08h-10.16q-5.92,0-8.36,2a6.35,6.35,0,0,0-2.44,5.08,6.15,6.15,0,0,0,2.28,5A9.87,9.87,0,0,0,1373.37,98.38Zm.16-38.24v-5l16.8-10.16v5.84Z" transform="translate(-376.9 -44.94)"/><path class="cls-1" d="M1417,103.1q-5.45,0-8.56-2.64t-3.12-9.52V69.1h-6.88V63.42h6.88l.88-9.52H1412v9.52h11.68V69.1H1412V90.94c0,2.51.5,4.2,1.52,5.08s2.8,1.32,5.36,1.32h4.16v5.76Z" transform="translate(-376.9 -44.94)"/><path class="cls-1" d="M1436.33,54.62a4.51,4.51,0,0,1-4.64-4.64,4.27,4.27,0,0,1,1.32-3.2,4.58,4.58,0,0,1,3.32-1.28,4.63,4.63,0,0,1,3.28,1.28A4.23,4.23,0,0,1,1441,50a4.46,4.46,0,0,1-1.36,3.32A4.54,4.54,0,0,1,1436.33,54.62ZM1433,103.1V63.42h6.72V103.1Z" transform="translate(-376.9 -44.94)"/><path class="cls-1" d="M1469.61,104.06a20.1,20.1,0,0,1-10.2-2.6,18.6,18.6,0,0,1-7.12-7.28,22.05,22.05,0,0,1-2.6-10.92,22.05,22.05,0,0,1,2.6-10.92,18.6,18.6,0,0,1,7.12-7.28,20.1,20.1,0,0,1,10.2-2.6,19.09,19.09,0,0,1,11.88,3.68,16.08,16.08,0,0,1,6.12,9.84h-6.88a8.85,8.85,0,0,0-3.92-5.72,13,13,0,0,0-7.28-2,12.59,12.59,0,0,0-6.32,1.68,12.44,12.44,0,0,0-4.8,5,17.09,17.09,0,0,0-1.84,8.32,17.09,17.09,0,0,0,1.84,8.32,12.75,12.75,0,0,0,4.8,5.08,12.33,12.33,0,0,0,6.32,1.72,13,13,0,0,0,7.28-2,8.87,8.87,0,0,0,3.92-5.8h6.88a15.91,15.91,0,0,1-6.08,9.76A19,19,0,0,1,1469.61,104.06Z" transform="translate(-376.9 -44.94)"/><path class="cls-1" d="M1515.05,104.06A19.88,19.88,0,0,1,1505,101.5a18.47,18.47,0,0,1-7.08-7.24,22.23,22.23,0,0,1-2.6-11,22,22,0,0,1,2.64-11,18.66,18.66,0,0,1,7.16-7.24,21.2,21.2,0,0,1,20.2,0,18.6,18.6,0,0,1,7.08,7.24,22.34,22.34,0,0,1,2.6,11,22,22,0,0,1-2.64,11,18.73,18.73,0,0,1-7.16,7.24A20.16,20.16,0,0,1,1515.05,104.06Zm0-5.76a12.78,12.78,0,0,0,6.4-1.68,12.58,12.58,0,0,0,4.8-5,17.21,17.21,0,0,0,1.84-8.32,17.44,17.44,0,0,0-1.8-8.32,12.29,12.29,0,0,0-4.76-5,12.88,12.88,0,0,0-12.72,0,12.44,12.44,0,0,0-4.8,5,17.09,17.09,0,0,0-1.84,8.32,17.09,17.09,0,0,0,1.84,8.32,12.56,12.56,0,0,0,4.76,5A12.37,12.37,0,0,0,1515.05,98.3Z" transform="translate(-376.9 -44.94)"/><path class="cls-1" d="M1559.53,104.06a18.94,18.94,0,0,1-11.84-3.6,14,14,0,0,1-5.52-9.76h6.88a9.44,9.44,0,0,0,3.32,5.4,10.79,10.79,0,0,0,7.24,2.28q4.23,0,6.24-1.8a5.59,5.59,0,0,0,2-4.28q0-3.6-2.6-4.8a34.85,34.85,0,0,0-7.32-2.16,41.31,41.31,0,0,1-6.4-1.84,14.44,14.44,0,0,1-5.36-3.4,7.93,7.93,0,0,1-2.16-5.8,10.69,10.69,0,0,1,3.88-8.52q3.87-3.31,10.52-3.32a16.32,16.32,0,0,1,10.36,3.16,12.65,12.65,0,0,1,4.68,9h-6.64a7,7,0,0,0-2.6-4.76,9.28,9.28,0,0,0-5.88-1.72,8.91,8.91,0,0,0-5.56,1.52,4.81,4.81,0,0,0-2,4,4.16,4.16,0,0,0,2.52,3.76,26.92,26.92,0,0,0,6.84,2.32,60.13,60.13,0,0,1,7,2,13.26,13.26,0,0,1,5.44,3.44q2.12,2.28,2.12,6.6a10.87,10.87,0,0,1-4,8.84Q1566.57,104.06,1559.53,104.06Z" transform="translate(-376.9 -44.94)"/><path class="cls-1" d="M688.26,199.1V159.42h6.08l.48,5.76a13.46,13.46,0,0,1,5.12-5,14.71,14.71,0,0,1,7.2-1.76,16.26,16.26,0,0,1,8.12,1.92,12.65,12.65,0,0,1,5.24,5.84,15.22,15.22,0,0,1,5.72-5.68,15.58,15.58,0,0,1,7.88-2.08q7.13,0,11.36,4.28t4.24,13.16v23.2h-6.64V176.62q0-6.17-2.48-9.28a8.56,8.56,0,0,0-7.12-3.12,10,10,0,0,0-8,3.72q-3.16,3.72-3.16,10.6V199.1h-6.72V176.62q0-6.17-2.48-9.28a8.56,8.56,0,0,0-7.12-3.12,9.92,9.92,0,0,0-7.88,3.72q-3.17,3.72-3.16,10.6V199.1Z" transform="translate(-376.9 -44.94)"/><path class="cls-1" d="M763.94,150.62A4.51,4.51,0,0,1,759.3,146a4.27,4.27,0,0,1,1.32-3.2,4.89,4.89,0,0,1,6.6,0,4.2,4.2,0,0,1,1.36,3.2,4.43,4.43,0,0,1-1.36,3.32A4.54,4.54,0,0,1,763.94,150.62Zm-3.36,48.48V159.42h6.72V199.1Z" transform="translate(-376.9 -44.94)"/><path class="cls-1" d="M796.82,200.06a19.45,19.45,0,0,1-10.08-2.6,18.48,18.48,0,0,1-6.92-7.24,22.63,22.63,0,0,1-2.52-11,23,23,0,0,1,2.48-10.92,18,18,0,0,1,6.92-7.28,20,20,0,0,1,10.28-2.6,18.57,18.57,0,0,1,10,2.6,17.55,17.55,0,0,1,6.44,6.84,19.29,19.29,0,0,1,2.24,9.12c0,.59,0,1.17,0,1.76s0,1.25,0,2h-31.6a15.63,15.63,0,0,0,2.12,7.56,12.51,12.51,0,0,0,4.72,4.52,12.65,12.65,0,0,0,6,1.52,12,12,0,0,0,7-1.92,10.93,10.93,0,0,0,4.08-5.2h6.64a18,18,0,0,1-6.12,9.16Q803.87,200.07,796.82,200.06Zm0-35.92a13.4,13.4,0,0,0-8.52,2.92,11.77,11.77,0,0,0-4.28,8.52h25a11.37,11.37,0,0,0-3.68-8.4A12.32,12.32,0,0,0,796.82,164.14Z" transform="translate(-376.9 -44.94)"/><path class="cls-1" d="M824.5,199.1V159.42h6.08l.4,7.12a14.39,14.39,0,0,1,5.52-5.92,15.55,15.55,0,0,1,8.16-2.16q7,0,11.24,4.28t4.2,13.16v23.2h-6.72V176.62q0-12.41-10.24-12.4a11,11,0,0,0-8.52,3.72q-3.4,3.72-3.4,10.6V199.1Z" transform="translate(-376.9 -44.94)"/><path class="cls-1" d="M885.94,199.1q-5.45,0-8.56-2.64t-3.12-9.52V165.1h-6.88v-5.68h6.88l.88-9.52H881v9.52h11.68v5.68H881v21.84c0,2.51.5,4.2,1.52,5.08s2.8,1.32,5.36,1.32H892v5.76Z" transform="translate(-376.9 -44.94)"/><path class="cls-1" d="M901.22,199.1V159.42h6.08l.56,7.6a14.36,14.36,0,0,1,5.6-6.24,17.32,17.32,0,0,1,9.28-2.32v7H920.9a16.52,16.52,0,0,0-6.48,1.24,9.83,9.83,0,0,0-4.72,4.2c-1.18,2-1.76,4.69-1.76,8.16v20Z" transform="translate(-376.9 -44.94)"/><path class="cls-1" d="M943.46,200.06a18,18,0,0,1-8.24-1.68,11.34,11.34,0,0,1-4.88-4.48,12,12,0,0,1-1.6-6.08,10.77,10.77,0,0,1,4.64-9.36q4.64-3.28,12.64-3.28h10.72v-.48c0-3.47-.91-6.09-2.72-7.88a9.92,9.92,0,0,0-7.28-2.68,11.56,11.56,0,0,0-6.76,2,8.56,8.56,0,0,0-3.56,5.72h-6.88a12.68,12.68,0,0,1,2.92-7.28,16.33,16.33,0,0,1,6.28-4.52,20.63,20.63,0,0,1,8-1.56q8.31,0,12.52,4.44t4.2,11.8v24.4h-6l-.4-7.12a15.71,15.71,0,0,1-4.92,5.72A14.47,14.47,0,0,1,943.46,200.06Zm1-5.68a11,11,0,0,0,6.6-2,12.77,12.77,0,0,0,4.2-5.2,16.17,16.17,0,0,0,1.44-6.72v-.08H946.58q-5.93,0-8.36,2a6.35,6.35,0,0,0-2.44,5.08,6.15,6.15,0,0,0,2.28,5A9.87,9.87,0,0,0,944.5,194.38Z" transform="translate(-376.9 -44.94)"/><path class="cls-1" d="M988.73,200.06a19,19,0,0,1-11.84-3.6,14,14,0,0,1-5.51-9.76h6.87a9.54,9.54,0,0,0,3.32,5.4,10.81,10.81,0,0,0,7.24,2.28q4.25,0,6.24-1.8a5.56,5.56,0,0,0,2-4.28q0-3.6-2.59-4.8a34.79,34.79,0,0,0-7.33-2.16,42,42,0,0,1-6.4-1.84,14.4,14.4,0,0,1-5.35-3.4,7.89,7.89,0,0,1-2.17-5.8,10.72,10.72,0,0,1,3.88-8.52q3.88-3.32,10.52-3.32A16.28,16.28,0,0,1,998,161.62a12.58,12.58,0,0,1,4.68,9H996a6.91,6.91,0,0,0-2.59-4.76,9.29,9.29,0,0,0-5.89-1.72,8.93,8.93,0,0,0-5.56,1.52,4.84,4.84,0,0,0-2,4,4.16,4.16,0,0,0,2.52,3.76,27,27,0,0,0,6.85,2.32,60.13,60.13,0,0,1,7,2,13.16,13.16,0,0,1,5.43,3.44c1.42,1.52,2.12,3.72,2.12,6.6a10.82,10.82,0,0,1-4,8.84Q995.78,200.06,988.73,200.06Z" transform="translate(-376.9 -44.94)"/><path class="cls-1" d="M1027,216.7v-5.76h3.12a6.18,6.18,0,0,0,4.29-1.24c.87-.83,1.32-2.23,1.32-4.2V159.42h6.72v46.24q0,5.76-2.88,8.4c-1.92,1.76-4.73,2.64-8.41,2.64Zm12.16-66.08a4.54,4.54,0,0,1-3.28-1.32,4.45,4.45,0,0,1-1.35-3.32,4.22,4.22,0,0,1,1.35-3.2,4.63,4.63,0,0,1,3.28-1.28,4.5,4.5,0,0,1,3.25,1.28,4.31,4.31,0,0,1,1.32,3.2,4.55,4.55,0,0,1-1.32,3.32A4.41,4.41,0,0,1,1039.13,150.62Z" transform="translate(-376.9 -44.94)"/><path class="cls-1" d="M1068.57,200.06q-7,0-11.2-4.28t-4.16-13.16v-23.2h6.72V181.9q0,12.4,10.16,12.4a11.13,11.13,0,0,0,8.6-3.72q3.4-3.72,3.4-10.6V159.42h6.72V199.1h-6.08l-.48-7.12a13.74,13.74,0,0,1-5.48,5.92A15.74,15.74,0,0,1,1068.57,200.06Z" transform="translate(-376.9 -44.94)"/><path class="cls-1" d="M1117.69,200.06a19.5,19.5,0,0,1-10.08-2.6,18.48,18.48,0,0,1-6.92-7.24,22.63,22.63,0,0,1-2.52-11,23,23,0,0,1,2.48-10.92,18.06,18.06,0,0,1,6.92-7.28,20,20,0,0,1,10.28-2.6,18.57,18.57,0,0,1,10,2.6,17.55,17.55,0,0,1,6.44,6.84,19.17,19.17,0,0,1,2.24,9.12c0,.59,0,1.17,0,1.76s0,1.25,0,2h-31.6a15.63,15.63,0,0,0,2.12,7.56,12.48,12.48,0,0,0,10.76,6,12,12,0,0,0,7-1.92,10.93,10.93,0,0,0,4.08-5.2h6.64a17.84,17.84,0,0,1-6.12,9.16Q1124.74,200.07,1117.69,200.06Zm0-35.92a13.4,13.4,0,0,0-8.52,2.92,11.8,11.8,0,0,0-4.28,8.52h25a11.34,11.34,0,0,0-3.68-8.4A12.32,12.32,0,0,0,1117.69,164.14Z" transform="translate(-376.9 -44.94)"/><path class="cls-1" d="M1160.81,186.62a20.38,20.38,0,0,1-6.16-.88l-4,3.76a7.92,7.92,0,0,0,2.2,1.08,23.76,23.76,0,0,0,3.8.8c1.65.24,4,.49,7,.76q8,.56,11.44,3.68a10.51,10.51,0,0,1,3.44,8.16,12.47,12.47,0,0,1-1.88,6.56,14,14,0,0,1-5.76,5.12,21.76,21.76,0,0,1-10,2,29.89,29.89,0,0,1-9.52-1.4,13.91,13.91,0,0,1-6.48-4.24,10.92,10.92,0,0,1-2.32-7.16,11.58,11.58,0,0,1,1.2-4.84,13,13,0,0,1,4.48-4.92,16.71,16.71,0,0,1-3-1.56,15.94,15.94,0,0,1-2.28-1.88v-1.84l6.8-6.72a13.19,13.19,0,0,1-4.72-10.56,14.09,14.09,0,0,1,1.84-7.12,13.22,13.22,0,0,1,5.36-5.08,18,18,0,0,1,8.56-1.88,19.18,19.18,0,0,1,6.24,1h14.64v5l-7.44.32a13.31,13.31,0,0,1,2.32,7.76,13.83,13.83,0,0,1-1.88,7.12,13.48,13.48,0,0,1-5.36,5.08A17.76,17.76,0,0,1,1160.81,186.62Zm-11.68,17.6a6.46,6.46,0,0,0,3.36,6,16.52,16.52,0,0,0,8.4,2,13.33,13.33,0,0,0,8-2.16,6.76,6.76,0,0,0,3-5.76,5.78,5.78,0,0,0-2.08-4.44c-1.39-1.25-3.94-2-7.68-2.2q-4.39-.32-7.6-.8a9.85,9.85,0,0,0-4.32,3.8A8.22,8.22,0,0,0,1149.13,204.22Zm11.68-23.12a9.89,9.89,0,0,0,6.76-2.2,8,8,0,0,0,2.52-6.36,7.89,7.89,0,0,0-2.52-6.28,9.89,9.89,0,0,0-6.76-2.2,10,10,0,0,0-6.84,2.2,7.89,7.89,0,0,0-2.52,6.28,8,8,0,0,0,2.52,6.36A10,10,0,0,0,1160.81,181.1Z" transform="translate(-376.9 -44.94)"/><path class="cls-1" d="M1202.49,200.06a18,18,0,0,1-8.24-1.68,11.4,11.4,0,0,1-4.88-4.48,12,12,0,0,1-1.6-6.08,10.79,10.79,0,0,1,4.64-9.36q4.63-3.28,12.64-3.28h10.72v-.48c0-3.47-.91-6.09-2.72-7.88a9.9,9.9,0,0,0-7.28-2.68,11.58,11.58,0,0,0-6.76,2,8.6,8.6,0,0,0-3.56,5.72h-6.88a12.75,12.75,0,0,1,2.92-7.28,16.33,16.33,0,0,1,6.28-4.52,20.67,20.67,0,0,1,8-1.56q8.32,0,12.52,4.44t4.2,11.8v24.4h-6l-.4-7.12a15.71,15.71,0,0,1-4.92,5.72A14.45,14.45,0,0,1,1202.49,200.06Zm1-5.68a11,11,0,0,0,6.6-2,12.77,12.77,0,0,0,4.2-5.2,16.17,16.17,0,0,0,1.44-6.72v-.08h-10.16c-3.95,0-6.73.68-8.36,2a6.35,6.35,0,0,0-2.44,5.08,6.15,6.15,0,0,0,2.28,5A9.89,9.89,0,0,0,1203.53,194.38Z" transform="translate(-376.9 -44.94)"/><path class="cls-1" d="M1247.77,200.06a19,19,0,0,1-11.84-3.6,14,14,0,0,1-5.52-9.76h6.88a9.49,9.49,0,0,0,3.32,5.4,10.81,10.81,0,0,0,7.24,2.28q4.25,0,6.24-1.8a5.59,5.59,0,0,0,2-4.28q0-3.6-2.6-4.8a34.48,34.48,0,0,0-7.32-2.16,41.63,41.63,0,0,1-6.4-1.84,14.52,14.52,0,0,1-5.36-3.4,7.93,7.93,0,0,1-2.16-5.8,10.69,10.69,0,0,1,3.88-8.52q3.88-3.32,10.52-3.32a16.3,16.3,0,0,1,10.36,3.16,12.65,12.65,0,0,1,4.68,9h-6.64a6.92,6.92,0,0,0-2.6-4.76,9.28,9.28,0,0,0-5.88-1.72,8.93,8.93,0,0,0-5.56,1.52,4.81,4.81,0,0,0-2,4,4.16,4.16,0,0,0,2.52,3.76,26.92,26.92,0,0,0,6.84,2.32,59.58,59.58,0,0,1,7,2,13.2,13.2,0,0,1,5.44,3.44q2.12,2.28,2.12,6.6a10.84,10.84,0,0,1-4,8.84Q1254.81,200.06,1247.77,200.06Z" transform="translate(-376.9 -44.94)"/><path class="cls-2" d="M541.21,877.08v-35H552q9.24,0,13.62,4.7t4.38,12.9q0,8.05-4.38,12.73T552,877.08Zm4.2-3.5h6.45a16.75,16.75,0,0,0,8.12-1.67,9.59,9.59,0,0,0,4.33-4.8,19.4,19.4,0,0,0,1.3-7.43,19.9,19.9,0,0,0-1.3-7.55,9.69,9.69,0,0,0-4.33-4.85,16.62,16.62,0,0,0-8.12-1.7h-6.45Z" transform="translate(-376.9 -44.94)"/><path class="cls-2" d="M578.31,846.78a2.81,2.81,0,0,1-2.9-2.9,2.68,2.68,0,0,1,.82-2,3.05,3.05,0,0,1,4.12,0,2.64,2.64,0,0,1,.86,2,2.77,2.77,0,0,1-.86,2.08A2.81,2.81,0,0,1,578.31,846.78Zm-2.1,30.3v-24.8h4.2v24.8Z" transform="translate(-376.9 -44.94)"/><path class="cls-2" d="M589.05,877.08V855.83H585.3v-3.55h3.75V848q0-3.6,1.8-5.25a7.51,7.51,0,0,1,5.25-1.65h2.5v3.6h-1.85a3.82,3.82,0,0,0-2.7.78,3.55,3.55,0,0,0-.8,2.62v4.2h6.1v3.55h-6.1v21.25Z" transform="translate(-376.9 -44.94)"/><path class="cls-2" d="M614.5,877.68a12.21,12.21,0,0,1-6.3-1.62,11.56,11.56,0,0,1-4.32-4.53,14.12,14.12,0,0,1-1.58-6.85,14.39,14.39,0,0,1,1.55-6.82,11.3,11.3,0,0,1,4.33-4.55,12.41,12.41,0,0,1,6.42-1.63,11.55,11.55,0,0,1,6.23,1.63,11,11,0,0,1,4,4.27,12,12,0,0,1,1.4,5.7c0,.37,0,.74,0,1.1s0,.79,0,1.25H606.45a9.8,9.8,0,0,0,1.33,4.73,7.81,7.81,0,0,0,6.72,3.77,7.48,7.48,0,0,0,4.35-1.2,6.81,6.81,0,0,0,2.55-3.25h4.15a10.87,10.87,0,0,1-11,8Zm0-22.45a8.36,8.36,0,0,0-5.32,1.83,7.38,7.38,0,0,0-2.68,5.32h15.6a7.08,7.08,0,0,0-2.3-5.25A7.74,7.74,0,0,0,614.5,855.23Z" transform="translate(-376.9 -44.94)"/><path class="cls-2" d="M631.8,877.08v-24.8h3.8L636,857a9.09,9.09,0,0,1,3.5-3.9,10.92,10.92,0,0,1,5.8-1.45v4.4H644.1a10.37,10.37,0,0,0-4.05.78,6.22,6.22,0,0,0-2.95,2.62,10.06,10.06,0,0,0-1.1,5.1v12.5Z" transform="translate(-376.9 -44.94)"/><path class="cls-2" d="M660.15,877.68a12.21,12.21,0,0,1-6.3-1.62,11.56,11.56,0,0,1-4.32-4.53,14.12,14.12,0,0,1-1.58-6.85,14.39,14.39,0,0,1,1.55-6.82,11.3,11.3,0,0,1,4.33-4.55,12.41,12.41,0,0,1,6.42-1.63,11.55,11.55,0,0,1,6.23,1.63,11,11,0,0,1,4,4.27,12,12,0,0,1,1.4,5.7c0,.37,0,.74,0,1.1s0,.79,0,1.25H652.1a9.8,9.8,0,0,0,1.33,4.73,7.81,7.81,0,0,0,6.72,3.77,7.48,7.48,0,0,0,4.35-1.2,6.81,6.81,0,0,0,2.55-3.25h4.15a10.87,10.87,0,0,1-11.05,8Zm0-22.45a8.36,8.36,0,0,0-5.32,1.83,7.38,7.38,0,0,0-2.68,5.32h15.6a7.08,7.08,0,0,0-2.3-5.25A7.74,7.74,0,0,0,660.15,855.23Z" transform="translate(-376.9 -44.94)"/><path class="cls-2" d="M677.45,877.08v-24.8h3.8l.25,4.45A9,9,0,0,1,685,853a9.72,9.72,0,0,1,5.1-1.35,9.41,9.41,0,0,1,7,2.68q2.63,2.67,2.62,8.22v14.5h-4.2V863q0-7.74-6.4-7.75a6.9,6.9,0,0,0-5.32,2.33,9.46,9.46,0,0,0-2.13,6.62v12.85Z" transform="translate(-376.9 -44.94)"/><path class="cls-2" d="M715.85,877.08a8,8,0,0,1-5.35-1.65q-1.95-1.65-2-5.95V855.83h-4.3v-3.55h4.3l.55-5.95h3.65v5.95h7.3v3.55h-7.3v13.65c0,1.57.32,2.63,1,3.18a5.19,5.19,0,0,0,3.35.82h2.6v3.6Z" transform="translate(-376.9 -44.94)"/><path class="cls-2" d="M735.85,877.68a12.21,12.21,0,0,1-6.3-1.62,11.56,11.56,0,0,1-4.32-4.53,14.12,14.12,0,0,1-1.58-6.85,14.39,14.39,0,0,1,1.55-6.82,11.3,11.3,0,0,1,4.33-4.55,12.41,12.41,0,0,1,6.42-1.63,11.55,11.55,0,0,1,6.23,1.63,11,11,0,0,1,4,4.27,12,12,0,0,1,1.4,5.7c0,.37,0,.74,0,1.1s0,.79,0,1.25H727.8a9.69,9.69,0,0,0,1.33,4.73,7.81,7.81,0,0,0,6.72,3.77,7.48,7.48,0,0,0,4.35-1.2,6.81,6.81,0,0,0,2.55-3.25h4.15a10.87,10.87,0,0,1-11,8Zm0-22.45a8.36,8.36,0,0,0-5.32,1.83,7.38,7.38,0,0,0-2.68,5.32h15.6a7.08,7.08,0,0,0-2.3-5.25A7.74,7.74,0,0,0,735.85,855.23Z" transform="translate(-376.9 -44.94)"/><path class="cls-2" d="M762.65,877.68a11.85,11.85,0,0,1-7.4-2.25,8.74,8.74,0,0,1-3.45-6.1h4.3a6,6,0,0,0,2.08,3.38,6.73,6.73,0,0,0,4.52,1.42,5.7,5.7,0,0,0,3.9-1.12,3.49,3.49,0,0,0,1.25-2.68,3,3,0,0,0-1.62-3,21.75,21.75,0,0,0-4.58-1.35,25.07,25.07,0,0,1-4-1.15,9.06,9.06,0,0,1-3.35-2.12,5,5,0,0,1-1.35-3.63,6.68,6.68,0,0,1,2.43-5.32,9.77,9.77,0,0,1,6.57-2.08,10.21,10.21,0,0,1,6.48,2,7.88,7.88,0,0,1,2.92,5.62H767.2a4.37,4.37,0,0,0-1.62-3,5.82,5.82,0,0,0-3.68-1.08,5.55,5.55,0,0,0-3.47.95,3,3,0,0,0-1.23,2.5,2.6,2.6,0,0,0,1.58,2.35,16.73,16.73,0,0,0,4.27,1.45,37.88,37.88,0,0,1,4.38,1.23,8.3,8.3,0,0,1,3.4,2.15,5.84,5.84,0,0,1,1.32,4.12,6.8,6.8,0,0,1-2.52,5.53A10.49,10.49,0,0,1,762.65,877.68Z" transform="translate(-376.9 -44.94)"/><path class="cls-2" d="M791.4,877.08v-24.8h3.8l.3,3.6a8.5,8.5,0,0,1,3.2-3.1,9.2,9.2,0,0,1,4.5-1.1,10.18,10.18,0,0,1,5.08,1.2,8,8,0,0,1,3.27,3.65,9.53,9.53,0,0,1,3.58-3.55,9.78,9.78,0,0,1,4.92-1.3,9.56,9.56,0,0,1,7.1,2.68q2.65,2.67,2.65,8.22v14.5h-4.15V863a9.22,9.22,0,0,0-1.55-5.8,5.35,5.35,0,0,0-4.45-2,6.24,6.24,0,0,0-5,2.33,9.93,9.93,0,0,0-2,6.62v12.85h-4.2V863a9.22,9.22,0,0,0-1.55-5.8,5.35,5.35,0,0,0-4.45-2,6.18,6.18,0,0,0-4.92,2.33,9.93,9.93,0,0,0-2,6.62v12.85Z" transform="translate(-376.9 -44.94)"/><path class="cls-2" d="M847.45,877.68a12.45,12.45,0,0,1-6.3-1.6,11.44,11.44,0,0,1-4.42-4.52,15.23,15.23,0,0,1,0-13.75,11.68,11.68,0,0,1,4.48-4.53,13.24,13.24,0,0,1,12.62,0,11.63,11.63,0,0,1,4.43,4.53,14,14,0,0,1,1.62,6.87,13.76,13.76,0,0,1-1.65,6.88,11.63,11.63,0,0,1-4.47,4.52A12.62,12.62,0,0,1,847.45,877.68Zm0-3.6a8,8,0,0,0,4-1.05,7.88,7.88,0,0,0,3-3.15,10.67,10.67,0,0,0,1.15-5.2,10.93,10.93,0,0,0-1.12-5.2,7.7,7.7,0,0,0-3-3.15,7.87,7.87,0,0,0-4-1.05,8,8,0,0,0-4,1.05,7.88,7.88,0,0,0-3,3.15,12.33,12.33,0,0,0,0,10.4,7.9,7.9,0,0,0,3,3.15A7.7,7.7,0,0,0,847.45,874.08Z" transform="translate(-376.9 -44.94)"/><path class="cls-2" d="M877,877.68a12.06,12.06,0,0,1-6.47-1.7,11.49,11.49,0,0,1-4.3-4.65,14.32,14.32,0,0,1-1.53-6.7,14.06,14.06,0,0,1,1.55-6.67,11.63,11.63,0,0,1,4.3-4.6,12.22,12.22,0,0,1,6.5-1.68,11.38,11.38,0,0,1,5.4,1.25,9.05,9.05,0,0,1,3.65,3.5V841.08h4.2v36h-3.8l-.4-4.1a11.53,11.53,0,0,1-3.45,3.25A10.2,10.2,0,0,1,877,877.68Zm.45-3.65a8.38,8.38,0,0,0,4.43-1.17,8.07,8.07,0,0,0,3-3.28,11.75,11.75,0,0,0,0-9.8,8,8,0,0,0-3-3.27,8.29,8.29,0,0,0-4.43-1.18,8.15,8.15,0,0,0-4.37,1.18,7.91,7.91,0,0,0-3,3.27,11.66,11.66,0,0,0,0,9.8,7.94,7.94,0,0,0,3,3.28A8.24,8.24,0,0,0,877.45,874Z" transform="translate(-376.9 -44.94)"/><path class="cls-2" d="M908.45,877.68a12.45,12.45,0,0,1-6.3-1.6,11.44,11.44,0,0,1-4.42-4.52,15.23,15.23,0,0,1,0-13.75,11.68,11.68,0,0,1,4.48-4.53,13.24,13.24,0,0,1,12.62,0,11.63,11.63,0,0,1,4.43,4.53,14,14,0,0,1,1.62,6.87,13.76,13.76,0,0,1-1.65,6.88,11.63,11.63,0,0,1-4.47,4.52A12.62,12.62,0,0,1,908.45,877.68Zm0-3.6a8,8,0,0,0,4-1.05,7.88,7.88,0,0,0,3-3.15,10.67,10.67,0,0,0,1.15-5.2,10.93,10.93,0,0,0-1.12-5.2,7.7,7.7,0,0,0-3-3.15,7.87,7.87,0,0,0-4-1.05,8,8,0,0,0-4,1.05,7.88,7.88,0,0,0-3,3.15,12.33,12.33,0,0,0,0,10.4,7.9,7.9,0,0,0,3,3.15A7.7,7.7,0,0,0,908.45,874.08Z" transform="translate(-376.9 -44.94)"/><path class="cls-2" d="M936.25,877.68a11.85,11.85,0,0,1-7.4-2.25,8.74,8.74,0,0,1-3.45-6.1h4.3a6,6,0,0,0,2.07,3.38,6.77,6.77,0,0,0,4.53,1.42,5.7,5.7,0,0,0,3.9-1.12,3.49,3.49,0,0,0,1.25-2.68,3,3,0,0,0-1.63-3,21.45,21.45,0,0,0-4.57-1.35,25.07,25.07,0,0,1-4-1.15,9.06,9.06,0,0,1-3.35-2.12,5,5,0,0,1-1.35-3.63,6.7,6.7,0,0,1,2.42-5.32,9.81,9.81,0,0,1,6.58-2.08,10.17,10.17,0,0,1,6.47,2,7.86,7.86,0,0,1,2.93,5.62H940.8a4.34,4.34,0,0,0-1.63-3,5.77,5.77,0,0,0-3.67-1.08,5.61,5.61,0,0,0-3.48.95,3,3,0,0,0-1.22,2.5,2.58,2.58,0,0,0,1.58,2.35,16.6,16.6,0,0,0,4.27,1.45,37.15,37.15,0,0,1,4.37,1.23,8.17,8.17,0,0,1,3.4,2.15,5.8,5.8,0,0,1,1.33,4.12,6.8,6.8,0,0,1-2.52,5.53A10.49,10.49,0,0,1,936.25,877.68Z" transform="translate(-376.9 -44.94)"/><path class="cls-2" d="M976.25,877.68a12.12,12.12,0,0,1-6.48-1.7,11.55,11.55,0,0,1-4.3-4.65,14.44,14.44,0,0,1-1.52-6.7A14.06,14.06,0,0,1,965.5,858a11.63,11.63,0,0,1,4.3-4.6,12.22,12.22,0,0,1,6.5-1.68,11.38,11.38,0,0,1,5.4,1.25,9.05,9.05,0,0,1,3.65,3.5V841.08h4.2v36h-3.8l-.4-4.1a11.53,11.53,0,0,1-3.45,3.25A10.2,10.2,0,0,1,976.25,877.68Zm.45-3.65a8.38,8.38,0,0,0,4.43-1.17,8.07,8.07,0,0,0,3-3.28,11.75,11.75,0,0,0,0-9.8,8,8,0,0,0-3-3.27,8.29,8.29,0,0,0-4.43-1.18,8.15,8.15,0,0,0-4.37,1.18,7.91,7.91,0,0,0-3,3.27,11.66,11.66,0,0,0,0,9.8,7.94,7.94,0,0,0,3,3.28A8.24,8.24,0,0,0,976.7,874Z" transform="translate(-376.9 -44.94)"/><path class="cls-2" d="M1007.55,877.68a12.16,12.16,0,0,1-6.3-1.62,11.66,11.66,0,0,1-4.33-4.53,14.23,14.23,0,0,1-1.57-6.85,14.39,14.39,0,0,1,1.55-6.82,11.24,11.24,0,0,1,4.33-4.55,12.41,12.41,0,0,1,6.42-1.63,11.55,11.55,0,0,1,6.23,1.63,11,11,0,0,1,4,4.27,12.08,12.08,0,0,1,1.4,5.7c0,.37,0,.74,0,1.1s0,.79,0,1.25H999.5a9.69,9.69,0,0,0,1.33,4.73,7.81,7.81,0,0,0,6.72,3.77,7.53,7.53,0,0,0,4.35-1.2,6.81,6.81,0,0,0,2.55-3.25h4.15a10.87,10.87,0,0,1-11.05,8Zm0-22.45a8.36,8.36,0,0,0-5.32,1.83,7.31,7.31,0,0,0-2.68,5.32h15.6a7.12,7.12,0,0,0-2.3-5.25A7.74,7.74,0,0,0,1007.55,855.23Z" transform="translate(-376.9 -44.94)"/><path class="cls-2" d="M1033.25,888.08v-3.6h2a3.85,3.85,0,0,0,2.67-.77,3.5,3.5,0,0,0,.83-2.63v-28.8h4.2v28.9q0,3.6-1.8,5.25a7.51,7.51,0,0,1-5.25,1.65Zm7.6-41.3a2.84,2.84,0,0,1-2-.82,2.76,2.76,0,0,1-.85-2.08,2.63,2.63,0,0,1,.85-2,2.9,2.9,0,0,1,2-.8,2.8,2.8,0,0,1,2,.8,2.69,2.69,0,0,1,.83,2,2.82,2.82,0,0,1-.83,2.08A2.74,2.74,0,0,1,1040.85,846.78Z" transform="translate(-376.9 -44.94)"/><path class="cls-2" d="M1059.25,877.68a9.32,9.32,0,0,1-7-2.67q-2.6-2.68-2.6-8.23v-14.5h4.2v14.05q0,7.75,6.35,7.75a6.94,6.94,0,0,0,5.37-2.32q2.13-2.32,2.13-6.63V852.28h4.2v24.8h-3.8l-.3-4.45a8.63,8.63,0,0,1-3.43,3.7A9.82,9.82,0,0,1,1059.25,877.68Z" transform="translate(-376.9 -44.94)"/><path class="cls-2" d="M1090,877.68a12.16,12.16,0,0,1-6.3-1.62,11.59,11.59,0,0,1-4.33-4.53,14.12,14.12,0,0,1-1.57-6.85,14.27,14.27,0,0,1,1.55-6.82,11.22,11.22,0,0,1,4.32-4.55,12.44,12.44,0,0,1,6.43-1.63,11.51,11.51,0,0,1,6.22,1.63,11,11,0,0,1,4,4.27,12.08,12.08,0,0,1,1.4,5.7c0,.37,0,.74,0,1.1s0,.79,0,1.25H1081.9a9.8,9.8,0,0,0,1.32,4.73,7.81,7.81,0,0,0,6.73,3.77,7.53,7.53,0,0,0,4.35-1.2,6.87,6.87,0,0,0,2.55-3.25H1101a10.89,10.89,0,0,1-11,8Zm0-22.45a8.39,8.39,0,0,0-5.33,1.83,7.34,7.34,0,0,0-2.67,5.32h15.6a7.12,7.12,0,0,0-2.3-5.25A7.74,7.74,0,0,0,1090,855.23Z" transform="translate(-376.9 -44.94)"/><path class="cls-2" d="M1116.9,869.28a12.66,12.66,0,0,1-3.85-.55l-2.5,2.35a4.74,4.74,0,0,0,1.37.68,14.86,14.86,0,0,0,2.38.5c1,.15,2.48.31,4.35.47,3.33.24,5.71,1,7.15,2.3a6.57,6.57,0,0,1,2.15,5.1,7.75,7.75,0,0,1-1.18,4.1,8.66,8.66,0,0,1-3.6,3.2,13.44,13.44,0,0,1-6.22,1.25,18.68,18.68,0,0,1-6-.87,8.63,8.63,0,0,1-4-2.65,6.85,6.85,0,0,1-1.45-4.48,7.24,7.24,0,0,1,.75-3,8.12,8.12,0,0,1,2.8-3.08,10.26,10.26,0,0,1-1.88-1,9.46,9.46,0,0,1-1.42-1.18v-1.15l4.25-4.2a8.2,8.2,0,0,1-3-6.6,8.76,8.76,0,0,1,1.15-4.45,8.15,8.15,0,0,1,3.35-3.17,11.25,11.25,0,0,1,5.35-1.18,12,12,0,0,1,3.9.6H1130v3.15l-4.65.2a8.38,8.38,0,0,1,1.45,4.85,8.54,8.54,0,0,1-1.18,4.45,8.36,8.36,0,0,1-3.35,3.18A11.1,11.1,0,0,1,1116.9,869.28Zm-7.3,11a4,4,0,0,0,2.1,3.73,10.35,10.35,0,0,0,5.25,1.22,8.33,8.33,0,0,0,5-1.35,4.23,4.23,0,0,0,1.88-3.6,3.64,3.64,0,0,0-1.3-2.77c-.87-.79-2.47-1.24-4.8-1.38-1.84-.13-3.42-.3-4.75-.5a6.16,6.16,0,0,0-2.7,2.38A5,5,0,0,0,1109.6,880.28Zm7.3-14.45a6.18,6.18,0,0,0,4.22-1.37,5,5,0,0,0,1.58-4,4.91,4.91,0,0,0-1.58-3.92,6.18,6.18,0,0,0-4.22-1.38,6.27,6.27,0,0,0-4.28,1.38,4.91,4.91,0,0,0-1.57,3.92,5,5,0,0,0,1.57,4A6.27,6.27,0,0,0,1116.9,865.83Z" transform="translate(-376.9 -44.94)"/><path class="cls-2" d="M1145,877.68a12.4,12.4,0,0,1-6.3-1.6,11.53,11.53,0,0,1-4.43-4.52,14,14,0,0,1-1.62-6.88,13.75,13.75,0,0,1,1.65-6.87,11.73,11.73,0,0,1,4.47-4.53,12.7,12.7,0,0,1,6.33-1.6,12.56,12.56,0,0,1,6.3,1.6,11.6,11.6,0,0,1,4.42,4.53,15.23,15.23,0,0,1,0,13.75,11.59,11.59,0,0,1-4.48,4.52A12.55,12.55,0,0,1,1145,877.68Zm0-3.6a8,8,0,0,0,4-1.05,7.88,7.88,0,0,0,3-3.15,10.78,10.78,0,0,0,1.15-5.2,10.93,10.93,0,0,0-1.13-5.2,7.68,7.68,0,0,0-3-3.15,8,8,0,0,0-8,0,7.75,7.75,0,0,0-3,3.15,12.33,12.33,0,0,0,0,10.4,7.88,7.88,0,0,0,3,3.15A7.77,7.77,0,0,0,1145,874.08Z" transform="translate(-376.9 -44.94)"/><path class="cls-2" d="M1176.55,888.08v-35.8h3.8l.4,4.1a11.77,11.77,0,0,1,3.42-3.25,10.3,10.3,0,0,1,5.68-1.45,12.08,12.08,0,0,1,6.45,1.7,11.68,11.68,0,0,1,4.27,4.65,15.39,15.39,0,0,1,0,13.38,11.42,11.42,0,0,1-4.3,4.6,12.25,12.25,0,0,1-6.47,1.67,11.41,11.41,0,0,1-5.43-1.25,8.61,8.61,0,0,1-3.62-3.5v15.15Zm12.8-14.05a8.24,8.24,0,0,0,4.4-1.17,8.36,8.36,0,0,0,3-3.28,11.46,11.46,0,0,0,0-9.8,8.33,8.33,0,0,0-3-3.27,8.31,8.31,0,0,0-11.8,3.27,11.46,11.46,0,0,0,0,9.8,8,8,0,0,0,7.4,4.45Z" transform="translate(-376.9 -44.94)"/><path class="cls-2" d="M1208,877.08v-24.8h3.8l.35,4.75a9,9,0,0,1,3.5-3.9,10.9,10.9,0,0,1,5.8-1.45v4.4h-1.15a10.3,10.3,0,0,0-4,.78,6.13,6.13,0,0,0-3,2.62,10,10,0,0,0-1.1,5.1v12.5Z" transform="translate(-376.9 -44.94)"/><path class="cls-2" d="M1234.35,877.68a11.21,11.21,0,0,1-5.15-1,7.06,7.06,0,0,1-3-2.8,7.47,7.47,0,0,1-1-3.8,6.73,6.73,0,0,1,2.9-5.85,13.49,13.49,0,0,1,7.9-2h6.7v-.3a6.63,6.63,0,0,0-1.7-4.92,6.2,6.2,0,0,0-4.55-1.68,7.23,7.23,0,0,0-4.23,1.23A5.39,5.39,0,0,0,1230,860h-4.3a7.93,7.93,0,0,1,1.82-4.55,10.21,10.21,0,0,1,3.93-2.82,12.88,12.88,0,0,1,5-1q5.19,0,7.82,2.78a10.29,10.29,0,0,1,2.63,7.37v15.25h-3.75l-.25-4.45a9.92,9.92,0,0,1-3.08,3.58A9,9,0,0,1,1234.35,877.68Zm.65-3.55a6.78,6.78,0,0,0,4.12-1.25,7.93,7.93,0,0,0,2.63-3.25,10.1,10.1,0,0,0,.9-4.2v0h-6.35q-3.71,0-5.23,1.28a4,4,0,0,0-1.52,3.17A3.85,3.85,0,0,0,1231,873,6.18,6.18,0,0,0,1235,874.13Z" transform="translate(-376.9 -44.94)"/><path class="cls-2" d="M1264.54,877.68a12.57,12.57,0,0,1-6.37-1.62,11.73,11.73,0,0,1-4.45-4.55,15.19,15.19,0,0,1,0-13.65,11.66,11.66,0,0,1,4.45-4.55,12.48,12.48,0,0,1,6.37-1.63A11.94,11.94,0,0,1,1272,854a10,10,0,0,1,3.82,6.15h-4.29a5.51,5.51,0,0,0-2.46-3.57,8.08,8.08,0,0,0-4.54-1.28,7.77,7.77,0,0,0-7,4.2,12.43,12.43,0,0,0,0,10.4,8.09,8.09,0,0,0,3,3.18,7.75,7.75,0,0,0,4,1.07,8.07,8.07,0,0,0,4.54-1.27,5.54,5.54,0,0,0,2.46-3.63h4.29a9.91,9.91,0,0,1-3.79,6.1A11.85,11.85,0,0,1,1264.54,877.68Z" transform="translate(-376.9 -44.94)"/><path class="cls-2" d="M1290.75,877.08a8,8,0,0,1-5.35-1.65q-2-1.65-2-5.95V855.83h-4.3v-3.55h4.3l.55-5.95h3.65v5.95h7.3v3.55h-7.3v13.65c0,1.57.31,2.63.95,3.18a5.17,5.17,0,0,0,3.35.82h2.6v3.6Z" transform="translate(-376.9 -44.94)"/><path class="cls-2" d="M1302.85,846.78a2.81,2.81,0,0,1-2.9-2.9,2.68,2.68,0,0,1,.82-2,3.07,3.07,0,0,1,4.13,0,2.67,2.67,0,0,1,.85,2,2.8,2.8,0,0,1-.85,2.08A2.84,2.84,0,0,1,1302.85,846.78Zm-2.1,30.3v-24.8h4.2v24.8Z" transform="translate(-376.9 -44.94)"/><path class="cls-2" d="M1323.65,877.68a12.58,12.58,0,0,1-6.38-1.62,11.73,11.73,0,0,1-4.45-4.55,15.19,15.19,0,0,1,0-13.65,11.66,11.66,0,0,1,4.45-4.55,12.49,12.49,0,0,1,6.38-1.63,11.93,11.93,0,0,1,7.42,2.3,10.08,10.08,0,0,1,3.83,6.15h-4.3a5.53,5.53,0,0,0-2.45-3.57,8.14,8.14,0,0,0-4.55-1.28,7.87,7.87,0,0,0-3.95,1.05,7.75,7.75,0,0,0-3,3.15,12.33,12.33,0,0,0,0,10.4,8,8,0,0,0,3,3.18,7.69,7.69,0,0,0,3.95,1.07,8.13,8.13,0,0,0,4.55-1.27,5.56,5.56,0,0,0,2.45-3.63h4.3a9.92,9.92,0,0,1-3.8,6.1A11.84,11.84,0,0,1,1323.65,877.68Z" transform="translate(-376.9 -44.94)"/><path class="cls-2" d="M1349,877.68a11.21,11.21,0,0,1-5.15-1,7.06,7.06,0,0,1-3-2.8,7.47,7.47,0,0,1-1-3.8,6.73,6.73,0,0,1,2.9-5.85,13.49,13.49,0,0,1,7.9-2h6.7v-.3a6.63,6.63,0,0,0-1.7-4.92,6.2,6.2,0,0,0-4.55-1.68,7.23,7.23,0,0,0-4.23,1.23,5.39,5.39,0,0,0-2.22,3.57h-4.3a7.93,7.93,0,0,1,1.82-4.55,10.21,10.21,0,0,1,3.93-2.82,12.88,12.88,0,0,1,5-1q5.19,0,7.82,2.78a10.29,10.29,0,0,1,2.63,7.37v15.25h-3.75l-.25-4.45a9.92,9.92,0,0,1-3.08,3.58A9,9,0,0,1,1349,877.68Zm.65-3.55a6.78,6.78,0,0,0,4.12-1.25,7.93,7.93,0,0,0,2.63-3.25,10.1,10.1,0,0,0,.9-4.2v0H1351q-3.71,0-5.23,1.28a4,4,0,0,0-1.52,3.17,3.85,3.85,0,0,0,1.42,3.13A6.18,6.18,0,0,0,1349.65,874.13Z" transform="translate(-376.9 -44.94)"/><path class="cls-2" d="M1367.79,877.08v-24.8h3.8l.35,4.75a9.09,9.09,0,0,1,3.5-3.9,10.93,10.93,0,0,1,5.81-1.45v4.4h-1.16a10.37,10.37,0,0,0-4,.78,6.22,6.22,0,0,0-3,2.62,10.06,10.06,0,0,0-1.09,5.1v12.5Z" transform="translate(-376.9 -44.94)"/><path class="cls-2" d="M764.8,937.68a11.85,11.85,0,0,1-7.4-2.25,8.78,8.78,0,0,1-3.45-6.1h4.3a6,6,0,0,0,2.08,3.38,6.73,6.73,0,0,0,4.52,1.42,5.7,5.7,0,0,0,3.9-1.12,3.49,3.49,0,0,0,1.25-2.68,3,3,0,0,0-1.62-3A21.75,21.75,0,0,0,763.8,926a25.07,25.07,0,0,1-4-1.15,9.06,9.06,0,0,1-3.35-2.12,5,5,0,0,1-1.35-3.63,6.68,6.68,0,0,1,2.43-5.32,9.77,9.77,0,0,1,6.57-2.08,10.21,10.21,0,0,1,6.48,2,7.88,7.88,0,0,1,2.92,5.62h-4.15a4.33,4.33,0,0,0-1.62-3,5.82,5.82,0,0,0-3.68-1.08,5.55,5.55,0,0,0-3.47.95,3,3,0,0,0-1.23,2.5,2.6,2.6,0,0,0,1.58,2.35,16.73,16.73,0,0,0,4.27,1.45,37.88,37.88,0,0,1,4.38,1.23,8.3,8.3,0,0,1,3.4,2.15A5.84,5.84,0,0,1,774.3,930a6.8,6.8,0,0,1-2.52,5.53A10.49,10.49,0,0,1,764.8,937.68Z" transform="translate(-376.9 -44.94)"/><path class="cls-2" d="M791.6,937.68a12.45,12.45,0,0,1-6.3-1.6,11.51,11.51,0,0,1-4.42-4.52,15.23,15.23,0,0,1,0-13.75,11.68,11.68,0,0,1,4.48-4.53,13.24,13.24,0,0,1,12.62,0,11.63,11.63,0,0,1,4.43,4.53,14,14,0,0,1,1.62,6.87,13.76,13.76,0,0,1-1.65,6.88,11.63,11.63,0,0,1-4.47,4.52A12.59,12.59,0,0,1,791.6,937.68Zm0-3.6a8,8,0,0,0,4-1.05,7.88,7.88,0,0,0,3-3.15,10.67,10.67,0,0,0,1.15-5.2,10.93,10.93,0,0,0-1.12-5.2,7.7,7.7,0,0,0-3-3.15,7.87,7.87,0,0,0-3.95-1.05,8,8,0,0,0-4,1.05,7.88,7.88,0,0,0-3,3.15,12.33,12.33,0,0,0,0,10.4,7.9,7.9,0,0,0,3,3.15A7.7,7.7,0,0,0,791.6,934.08Z" transform="translate(-376.9 -44.94)"/><path class="cls-2" d="M809.9,937.08v-36h4.2v36Z" transform="translate(-376.9 -44.94)"/><path class="cls-2" d="M832.3,937.68a12.45,12.45,0,0,1-6.3-1.6,11.44,11.44,0,0,1-4.42-4.52,15.23,15.23,0,0,1,0-13.75,11.68,11.68,0,0,1,4.48-4.53,13.24,13.24,0,0,1,12.62,0,11.63,11.63,0,0,1,4.43,4.53,14,14,0,0,1,1.62,6.87,13.76,13.76,0,0,1-1.65,6.88,11.63,11.63,0,0,1-4.47,4.52A12.62,12.62,0,0,1,832.3,937.68Zm0-3.6a8,8,0,0,0,4-1.05,7.88,7.88,0,0,0,3-3.15,10.67,10.67,0,0,0,1.15-5.2,10.93,10.93,0,0,0-1.12-5.2,7.7,7.7,0,0,0-3-3.15,7.87,7.87,0,0,0-4-1.05,8,8,0,0,0-4,1.05,7.88,7.88,0,0,0-3,3.15,12.33,12.33,0,0,0,0,10.4,7.9,7.9,0,0,0,3,3.15A7.7,7.7,0,0,0,832.3,934.08Z" transform="translate(-376.9 -44.94)"/><path class="cls-2" d="M875.15,937.68a12.45,12.45,0,0,1-6.3-1.6,11.44,11.44,0,0,1-4.42-4.52,15.23,15.23,0,0,1,0-13.75,11.68,11.68,0,0,1,4.48-4.53,13.24,13.24,0,0,1,12.62,0,11.63,11.63,0,0,1,4.43,4.53,14,14,0,0,1,1.62,6.87,13.76,13.76,0,0,1-1.65,6.88,11.63,11.63,0,0,1-4.47,4.52A12.62,12.62,0,0,1,875.15,937.68Zm0-3.6a8,8,0,0,0,4-1.05,7.88,7.88,0,0,0,3-3.15,10.67,10.67,0,0,0,1.15-5.2,10.93,10.93,0,0,0-1.12-5.2,7.7,7.7,0,0,0-3-3.15,7.87,7.87,0,0,0-4-1.05,8,8,0,0,0-4,1.05,7.88,7.88,0,0,0-3,3.15,12.33,12.33,0,0,0,0,10.4,7.9,7.9,0,0,0,3,3.15A7.7,7.7,0,0,0,875.15,934.08Z" transform="translate(-376.9 -44.94)"/><path class="cls-2" d="M918.1,937.68a12.55,12.55,0,0,1-6.37-1.62,11.75,11.75,0,0,1-4.46-4.55,15.19,15.19,0,0,1,0-13.65,11.68,11.68,0,0,1,4.46-4.55,12.45,12.45,0,0,1,6.37-1.63,11.91,11.91,0,0,1,7.42,2.3,10,10,0,0,1,3.83,6.15h-4.3a5.5,5.5,0,0,0-2.45-3.57,8.14,8.14,0,0,0-4.55-1.28,7.77,7.77,0,0,0-6.95,4.2,12.33,12.33,0,0,0,0,10.4,8.09,8.09,0,0,0,3,3.18,7.69,7.69,0,0,0,3.95,1.07,8.13,8.13,0,0,0,4.55-1.27,5.52,5.52,0,0,0,2.45-3.63h4.3a9.92,9.92,0,0,1-3.8,6.1A11.82,11.82,0,0,1,918.1,937.68Z" transform="translate(-376.9 -44.94)"/><path class="cls-2" d="M946.5,937.68a12.45,12.45,0,0,1-6.3-1.6,11.53,11.53,0,0,1-4.43-4.52,14,14,0,0,1-1.62-6.88,13.75,13.75,0,0,1,1.65-6.87,11.73,11.73,0,0,1,4.47-4.53,12.72,12.72,0,0,1,6.33-1.6,12.56,12.56,0,0,1,6.3,1.6,11.54,11.54,0,0,1,4.42,4.53,15.23,15.23,0,0,1,0,13.75,11.59,11.59,0,0,1-4.48,4.52A12.55,12.55,0,0,1,946.5,937.68Zm0-3.6a8,8,0,0,0,4-1.05,7.88,7.88,0,0,0,3-3.15,10.67,10.67,0,0,0,1.15-5.2,10.93,10.93,0,0,0-1.13-5.2,7.68,7.68,0,0,0-3-3.15,7.87,7.87,0,0,0-3.95-1.05,8,8,0,0,0-4,1.05,7.88,7.88,0,0,0-3,3.15,12.33,12.33,0,0,0,0,10.4,8,8,0,0,0,3,3.15A7.77,7.77,0,0,0,946.5,934.08Z" transform="translate(-376.9 -44.94)"/><path class="cls-2" d="M964.8,937.08v-24.8h3.8l.25,4.45a9,9,0,0,1,3.45-3.7,9.72,9.72,0,0,1,5.1-1.35,9.4,9.4,0,0,1,7,2.68q2.63,2.67,2.63,8.22v14.5h-4.2V923q0-7.74-6.4-7.75a6.9,6.9,0,0,0-5.32,2.33,9.46,9.46,0,0,0-2.13,6.62v12.85Z" transform="translate(-376.9 -44.94)"/><path class="cls-2" d="M1014.9,937.68a11.24,11.24,0,0,1-5.15-1,7.12,7.12,0,0,1-3-2.8,7.47,7.47,0,0,1-1-3.8,6.75,6.75,0,0,1,2.9-5.85,13.51,13.51,0,0,1,7.9-2h6.7v-.3a6.63,6.63,0,0,0-1.7-4.92,6.18,6.18,0,0,0-4.55-1.68,7.27,7.27,0,0,0-4.23,1.23,5.39,5.39,0,0,0-2.22,3.57h-4.3a8,8,0,0,1,1.82-4.55,10.21,10.21,0,0,1,3.93-2.82,12.92,12.92,0,0,1,5-1c3.47,0,6.07.93,7.82,2.78a10.29,10.29,0,0,1,2.63,7.37v15.25h-3.75l-.25-4.45a9.92,9.92,0,0,1-3.08,3.58A9,9,0,0,1,1014.9,937.68Zm.65-3.55a6.78,6.78,0,0,0,4.12-1.25,7.93,7.93,0,0,0,2.63-3.25,10.1,10.1,0,0,0,.9-4.2v0h-6.35q-3.71,0-5.23,1.28a4,4,0,0,0-1.52,3.17,3.85,3.85,0,0,0,1.42,3.13A6.2,6.2,0,0,0,1015.55,934.13Z" transform="translate(-376.9 -44.94)"/><path class="cls-2" d="M1033.7,937.08v-24.8h3.8l.3,3.6a8.43,8.43,0,0,1,3.2-3.1,9.2,9.2,0,0,1,4.5-1.1,10.14,10.14,0,0,1,5.07,1.2,7.92,7.92,0,0,1,3.28,3.65,9.51,9.51,0,0,1,3.57-3.55,9.85,9.85,0,0,1,4.93-1.3,9.58,9.58,0,0,1,7.1,2.68c1.76,1.78,2.65,4.52,2.65,8.22v14.5H1068V923a9.22,9.22,0,0,0-1.55-5.8,5.36,5.36,0,0,0-4.45-2,6.27,6.27,0,0,0-5,2.33,10,10,0,0,0-2,6.62v12.85h-4.2V923a9.22,9.22,0,0,0-1.55-5.8,5.36,5.36,0,0,0-4.45-2,6.22,6.22,0,0,0-4.93,2.33,10,10,0,0,0-2,6.62v12.85Z" transform="translate(-376.9 -44.94)"/><path class="cls-2" d="M1081,906.78a2.81,2.81,0,0,1-2.9-2.9,2.68,2.68,0,0,1,.82-2,3.07,3.07,0,0,1,4.13,0,2.67,2.67,0,0,1,.85,2,2.8,2.8,0,0,1-.85,2.08A2.84,2.84,0,0,1,1081,906.78Zm-2.1,30.3v-24.8h4.2v24.8Z" transform="translate(-376.9 -44.94)"/><path class="cls-2" d="M1100.2,929.28a12.66,12.66,0,0,1-3.85-.55l-2.5,2.35a4.74,4.74,0,0,0,1.37.68,14.86,14.86,0,0,0,2.38.5c1,.15,2.48.31,4.35.47,3.33.24,5.71,1,7.15,2.3a6.57,6.57,0,0,1,2.15,5.1,7.75,7.75,0,0,1-1.18,4.1,8.66,8.66,0,0,1-3.6,3.2,13.44,13.44,0,0,1-6.22,1.25,18.68,18.68,0,0,1-6-.87,8.63,8.63,0,0,1-4-2.65,6.85,6.85,0,0,1-1.45-4.48,7.24,7.24,0,0,1,.75-3,8.12,8.12,0,0,1,2.8-3.08,10.26,10.26,0,0,1-1.88-1,9.46,9.46,0,0,1-1.42-1.18v-1.15l4.25-4.2a8.2,8.2,0,0,1-3-6.6,8.76,8.76,0,0,1,1.15-4.45,8.15,8.15,0,0,1,3.35-3.17,11.25,11.25,0,0,1,5.35-1.18,12,12,0,0,1,3.9.6h9.15v3.15l-4.65.2a8.38,8.38,0,0,1,1.45,4.85,8.54,8.54,0,0,1-1.18,4.45,8.36,8.36,0,0,1-3.35,3.18A11.1,11.1,0,0,1,1100.2,929.28Zm-7.3,11A4,4,0,0,0,1095,944a10.35,10.35,0,0,0,5.25,1.22,8.33,8.33,0,0,0,5-1.35,4.23,4.23,0,0,0,1.88-3.6,3.64,3.64,0,0,0-1.3-2.77c-.87-.79-2.47-1.24-4.8-1.38-1.84-.13-3.42-.3-4.75-.5a6.16,6.16,0,0,0-2.7,2.38A5,5,0,0,0,1092.9,940.28Zm7.3-14.45a6.18,6.18,0,0,0,4.22-1.37,5,5,0,0,0,1.58-4,4.91,4.91,0,0,0-1.58-3.92,6.18,6.18,0,0,0-4.22-1.38,6.27,6.27,0,0,0-4.28,1.38,4.91,4.91,0,0,0-1.57,3.92,5,5,0,0,0,1.57,4A6.27,6.27,0,0,0,1100.2,925.83Z" transform="translate(-376.9 -44.94)"/><path class="cls-2" d="M1128.3,937.68a12.4,12.4,0,0,1-6.3-1.6,11.53,11.53,0,0,1-4.43-4.52,14,14,0,0,1-1.62-6.88,13.75,13.75,0,0,1,1.65-6.87,11.73,11.73,0,0,1,4.47-4.53,12.7,12.7,0,0,1,6.33-1.6,12.56,12.56,0,0,1,6.3,1.6,11.6,11.6,0,0,1,4.42,4.53,15.23,15.23,0,0,1,0,13.75,11.59,11.59,0,0,1-4.48,4.52A12.55,12.55,0,0,1,1128.3,937.68Zm0-3.6a8,8,0,0,0,4-1.05,7.88,7.88,0,0,0,3-3.15,10.78,10.78,0,0,0,1.15-5.2,10.93,10.93,0,0,0-1.13-5.2,7.68,7.68,0,0,0-3-3.15,8,8,0,0,0-7.95,0,7.75,7.75,0,0,0-3,3.15,12.33,12.33,0,0,0,0,10.4,7.88,7.88,0,0,0,3,3.15A7.77,7.77,0,0,0,1128.3,934.08Z" transform="translate(-376.9 -44.94)"/><path class="cls-2" d="M1156.1,937.68a11.83,11.83,0,0,1-7.4-2.25,8.74,8.74,0,0,1-3.45-6.1h4.3a5.88,5.88,0,0,0,2.07,3.38,6.77,6.77,0,0,0,4.53,1.42,5.73,5.73,0,0,0,3.9-1.12,3.49,3.49,0,0,0,1.25-2.68,3,3,0,0,0-1.63-3,21.63,21.63,0,0,0-4.57-1.35,24.78,24.78,0,0,1-4-1.15,9,9,0,0,1-3.35-2.12,5,5,0,0,1-1.35-3.63,6.7,6.7,0,0,1,2.42-5.32,9.81,9.81,0,0,1,6.58-2.08,10.17,10.17,0,0,1,6.47,2,7.86,7.86,0,0,1,2.93,5.62h-4.15a4.34,4.34,0,0,0-1.63-3,5.77,5.77,0,0,0-3.67-1.08,5.61,5.61,0,0,0-3.48.95,3,3,0,0,0-1.22,2.5,2.59,2.59,0,0,0,1.57,2.35,16.82,16.82,0,0,0,4.28,1.45,37.15,37.15,0,0,1,4.37,1.23,8.23,8.23,0,0,1,3.4,2.15,5.8,5.8,0,0,1,1.33,4.12,6.78,6.78,0,0,1-2.53,5.53A10.44,10.44,0,0,1,1156.1,937.68Z" transform="translate(-376.9 -44.94)"/><path class="cls-3" d="M756.33,714.38l-161.7-46.2a16,16,0,0,1-3.79-29.13l87.61-52.15a16,16,0,0,1,13.7-1.27l160.35,59c13.42,4.93,14.13,23.64,1.13,29.57l-86.26,39.4A16,16,0,0,1,756.33,714.38Z" transform="translate(-376.9 -44.94)"/><path class="cls-3" d="M1115.5,640.2l186.81-63.89a16,16,0,0,1,16.76,4.1l56.52,59.28a16,16,0,0,1-7.29,26.46l-166.51,46.33a16,16,0,0,1-11.93-1.36L1113,669.4A16,16,0,0,1,1115.5,640.2Z" transform="translate(-376.9 -44.94)"/><path class="cls-4" d="M751.9,716.05,569.6,662.74c-5.85-1.71-10.6-10.27-10.6-19.1V368.53c0-8.84,4.75-14.61,10.6-12.9l182.3,53.31c5.85,1.71,10.6,10.26,10.6,19.1V703.15C762.5,712,757.75,717.76,751.9,716.05Z" transform="translate(-376.9 -44.94)"/><path class="cls-5" d="M660.75,438.8c-35.51-10.38-64.3,24.64-64.3,78.23s28.79,105.46,64.3,115.84,64.3-24.64,64.3-78.23S696.26,449.19,660.75,438.8Zm37.51,153.67s-12.39,12.4-30.09-20.83l2.65,35.51-19.47-5.69,3.54-35s-16.82,21.79-29.21,6.15c0,0-10.62-17.8,0-30.73,0,0-11.51-22.06-4.42-29.34,0,0,8.85-13.44,31,15.74,0,0-24.78-44.65-8.85-61.36,0,0,11.51-10,17.71,15.86,0,0,4.42-14.74,12.39-11.07,0,0,25.67,19.53-2.66,60.67,0,0,23-14.64,31,5,0,0,5.31,14.91-5.31,23.83C696.49,561.23,706.23,582.77,698.26,592.47Z" transform="translate(-376.9 -44.94)"/><path class="cls-6" d="M1391.66,665.39l-192.55,47.9c-6.26,1.56-11.34-4.34-11.34-13.18v-275c0-8.84,5.08-17.26,11.34-18.82l192.55-47.9c6.26-1.56,11.34,4.34,11.34,13.18v275C1403,655.4,1397.92,663.83,1391.66,665.39Z" transform="translate(-376.9 -44.94)"/><path class="cls-5" d="M1338.65,601.9l-4,1V575.81c-.88-8.6-5.74-13.06-5.74-13.06l-17.22-23.42c-4.85-5.72,0-15.74,0-15.74l18.1-32.84a26.17,26.17,0,0,0,4.42-14.95V449.35l4-1c4.42-2.35,4.86-9.39,4.86-9.39,0-7.56-4.86-8.24-4.86-8.24l-85.2,21.2c-5.74,2.69-5.3,10.13-5.3,10.13,0,6.3,4.42,7.09,4.42,7.09l4-.36V496.5c1.32,6.59,4,9.71,4,9.71l19.43,26.65c3.53,5.42,0,13.86,0,13.86l-18.1,33.47a32.36,32.36,0,0,0-5.3,15.17v27.07l-4,1a13,13,0,0,0-4.42,9.92c0,6.92,5.3,7.49,5.3,7.49l86.08-21.41c4-4.14,4-10.44,4-10.44C1343.07,603.32,1338.65,601.9,1338.65,601.9ZM1322.32,606,1268,619.47V594.28l22.07-41.38s7.51-16.35-.88-33.16L1268,491.64V465.83l54.3-13.51v25.81L1302,515.93s-10.15,22.05.44,36.41l19.87,27.8Z" transform="translate(-376.9 -44.94)"/><rect class="cls-7" x="445.02" y="374.07" width="305.58" height="305.67" rx="16"/><path class="cls-5" d="M1044.61,486.09H904.81A15.87,15.87,0,0,0,889,501.92V641.76a15.88,15.88,0,0,0,15.82,15.83h139.8a15.88,15.88,0,0,0,15.82-15.83V501.92A15.87,15.87,0,0,0,1044.61,486.09ZM927.89,545.45a21.77,21.77,0,1,1,21.76-21.76A21.76,21.76,0,0,1,927.89,545.45Zm46.82,48.16a21.77,21.77,0,1,1,21.76-21.77A21.77,21.77,0,0,1,974.71,593.61Zm43.52,43.53A21.77,21.77,0,1,1,1040,615.37,21.77,21.77,0,0,1,1018.23,637.14Z" transform="translate(-376.9 -44.94)"/></svg>