<svg id="Capa_1" data-name="Capa 1" xmlns="http://www.w3.org/2000/svg" xmlns:xlink="http://www.w3.org/1999/xlink" width="1197.82" height="911.53" viewBox="0 0 1197.82 911.53"><defs><style>.cls-1{fill:#2a55ff;}.cls-2{opacity:0.24;}.cls-3{fill:url(#Degradado_sin_nombre_41);}.cls-4{fill:#fff;}.cls-5{fill:url(#Degradado_sin_nombre_73);}.cls-6{fill:url(#Degradado_sin_nombre_37);}.cls-7{fill:#757575;}</style><linearGradient id="Degradado_sin_nombre_41" x1="660.75" y1="735.61" x2="660.75" y2="414.29" gradientTransform="matrix(1, 0.37, 0, 1, 0, -283.66)" gradientUnits="userSpaceOnUse"><stop offset="0" stop-color="#6a041d"/><stop offset="0.06" stop-color="#7c0427"/><stop offset="0.2" stop-color="#a4023c"/><stop offset="0.35" stop-color="#c5024e"/><stop offset="0.5" stop-color="#de015c"/><stop offset="0.65" stop-color="#f10066"/><stop offset="0.82" stop-color="#fb006c"/><stop offset="1" stop-color="#ff006e"/></linearGradient><linearGradient id="Degradado_sin_nombre_73" x1="1295.38" y1="763.67" x2="1295.38" y2="436.58" gradientTransform="matrix(1, -0.35, 0, 1, 0, 392.54)" gradientUnits="userSpaceOnUse"><stop offset="0" stop-color="#00487c"/><stop offset="1" stop-color="#2a8eff"/></linearGradient><linearGradient id="Degradado_sin_nombre_37" x1="597.81" y1="679.73" x2="597.81" y2="374.07" gradientUnits="userSpaceOnUse"><stop offset="0" stop-color="#388659"/><stop offset="0.03" stop-color="#3d8a54"/><stop offset="0.2" stop-color="#5ea236"/><stop offset="0.39" stop-color="#77b61e"/><stop offset="0.58" stop-color="#8ac30d"/><stop offset="0.78" stop-color="#94cb03"/><stop offset="1" stop-color="#98ce00"/></linearGradient></defs><title>banner2</title><path class="cls-1" d="M376.9,103.1v-56H395a23.19,23.19,0,0,1,10.72,2.16,14,14,0,0,1,6.16,5.92,17.37,17.37,0,0,1,2,8.32A16.68,16.68,0,0,1,411,73a15.31,15.31,0,0,1-8.84,6l12.24,24.08H406.5L395.14,80H383.62V103.1Zm6.72-28.4H394.5q6.48,0,9.44-3.12a11.13,11.13,0,0,0,3-8A10.63,10.63,0,0,0,404,55.7q-2.91-2.93-9.56-2.92h-10.8Z" transform="translate(-376.9 -44.94)"/><path class="cls-1" d="M439.38,104.06a19.5,19.5,0,0,1-10.08-2.6,18.48,18.48,0,0,1-6.92-7.24,22.63,22.63,0,0,1-2.52-11,23,23,0,0,1,2.48-10.92,18.06,18.06,0,0,1,6.92-7.28,20,20,0,0,1,10.28-2.6,18.57,18.57,0,0,1,10,2.6,17.55,17.55,0,0,1,6.44,6.84A19.17,19.17,0,0,1,458.18,81c0,.59,0,1.17,0,1.76s0,1.25,0,2H426.5a15.63,15.63,0,0,0,2.12,7.56,12.48,12.48,0,0,0,10.76,6,12,12,0,0,0,7-1.92,10.93,10.93,0,0,0,4.08-5.2h6.64a17.84,17.84,0,0,1-6.12,9.16Q446.43,104.07,439.38,104.06Zm0-35.92a13.4,13.4,0,0,0-8.52,2.92,11.8,11.8,0,0,0-4.28,8.52h25a11.34,11.34,0,0,0-3.68-8.4A12.32,12.32,0,0,0,439.38,68.14Z" transform="translate(-376.9 -44.94)"/><path class="cls-1" d="M482.26,104.06a19,19,0,0,1-11.84-3.6,14,14,0,0,1-5.52-9.76h6.88a9.49,9.49,0,0,0,3.32,5.4,10.81,10.81,0,0,0,7.24,2.28q4.25,0,6.24-1.8a5.59,5.59,0,0,0,2-4.28q0-3.6-2.6-4.8a34.48,34.48,0,0,0-7.32-2.16,41.63,41.63,0,0,1-6.4-1.84,14.52,14.52,0,0,1-5.36-3.4,7.93,7.93,0,0,1-2.16-5.8,10.69,10.69,0,0,1,3.88-8.52q3.88-3.31,10.52-3.32a16.3,16.3,0,0,1,10.36,3.16,12.65,12.65,0,0,1,4.68,9h-6.64a6.92,6.92,0,0,0-2.6-4.76,9.28,9.28,0,0,0-5.88-1.72,8.93,8.93,0,0,0-5.56,1.52,4.81,4.81,0,0,0-2,4,4.16,4.16,0,0,0,2.52,3.76,26.92,26.92,0,0,0,6.84,2.32,59.58,59.58,0,0,1,7,2,13.2,13.2,0,0,1,5.44,3.44q2.12,2.28,2.12,6.6a10.84,10.84,0,0,1-4,8.84Q489.3,104.06,482.26,104.06Z" transform="translate(-376.9 -44.94)"/><path class="cls-1" d="M521.54,104.06q-7,0-11.2-4.28t-4.16-13.16V63.42h6.72V85.9q0,12.41,10.16,12.4a11.15,11.15,0,0,0,8.6-3.72q3.4-3.72,3.4-10.6V63.42h6.72V103.1H535.7L535.22,96a13.8,13.8,0,0,1-5.48,5.92A15.77,15.77,0,0,1,521.54,104.06Z" transform="translate(-376.9 -44.94)"/><path class="cls-1" d="M570.66,104.06a19.45,19.45,0,0,1-10.08-2.6,18.48,18.48,0,0,1-6.92-7.24,22.63,22.63,0,0,1-2.52-11,23,23,0,0,1,2.48-10.92,18,18,0,0,1,6.92-7.28,20,20,0,0,1,10.28-2.6,18.57,18.57,0,0,1,10,2.6,17.55,17.55,0,0,1,6.44,6.84A19.29,19.29,0,0,1,589.46,81c0,.59,0,1.17,0,1.76s0,1.25,0,2h-31.6a15.63,15.63,0,0,0,2.12,7.56,12.51,12.51,0,0,0,4.72,4.52,12.65,12.65,0,0,0,6,1.52,12,12,0,0,0,7-1.92,10.93,10.93,0,0,0,4.08-5.2h6.64a18,18,0,0,1-6.12,9.16Q577.71,104.07,570.66,104.06Zm0-35.92a13.4,13.4,0,0,0-8.52,2.92,11.77,11.77,0,0,0-4.28,8.52h25a11.37,11.37,0,0,0-3.68-8.4A12.32,12.32,0,0,0,570.66,68.14Z" transform="translate(-376.9 -44.94)"/><path class="cls-1" d="M598.34,103.1V45.5h6.72v57.6Z" transform="translate(-376.9 -44.94)"/><path class="cls-1" d="M627.54,103.1l-15-39.68h7l11.92,33.2,12-33.2h6.88l-15,39.68Z" transform="translate(-376.9 -44.94)"/><path class="cls-1" d="M673.62,104.06a19.45,19.45,0,0,1-10.08-2.6,18.48,18.48,0,0,1-6.92-7.24,22.63,22.63,0,0,1-2.52-11,23,23,0,0,1,2.48-10.92,18,18,0,0,1,6.92-7.28,20,20,0,0,1,10.28-2.6,18.57,18.57,0,0,1,10,2.6,17.55,17.55,0,0,1,6.44,6.84A19.29,19.29,0,0,1,692.42,81c0,.59,0,1.17,0,1.76s0,1.25,0,2h-31.6a15.63,15.63,0,0,0,2.12,7.56,12.51,12.51,0,0,0,4.72,4.52,12.65,12.65,0,0,0,6,1.52,12,12,0,0,0,7-1.92,10.93,10.93,0,0,0,4.08-5.2h6.64a18,18,0,0,1-6.12,9.16Q680.67,104.07,673.62,104.06Zm0-35.92a13.4,13.4,0,0,0-8.52,2.92,11.77,11.77,0,0,0-4.28,8.52h25a11.37,11.37,0,0,0-3.68-8.4A12.32,12.32,0,0,0,673.62,68.14Z" transform="translate(-376.9 -44.94)"/><path class="cls-1" d="M740.34,104.06a19.45,19.45,0,0,1-10.08-2.6,18.41,18.41,0,0,1-6.92-7.24,22.63,22.63,0,0,1-2.52-11,22.91,22.91,0,0,1,2.48-10.92,18,18,0,0,1,6.92-7.28,20,20,0,0,1,10.28-2.6,18.57,18.57,0,0,1,10,2.6,17.62,17.62,0,0,1,6.44,6.84A19.29,19.29,0,0,1,759.14,81c0,.59,0,1.17,0,1.76s0,1.25,0,2h-31.6a15.52,15.52,0,0,0,2.12,7.56,12.44,12.44,0,0,0,4.72,4.52,12.62,12.62,0,0,0,6,1.52,12,12,0,0,0,7-1.92,11.05,11.05,0,0,0,4.08-5.2H758a18,18,0,0,1-6.12,9.16Q747.37,104.07,740.34,104.06Zm0-35.92a13.4,13.4,0,0,0-8.52,2.92,11.77,11.77,0,0,0-4.28,8.52h25a11.37,11.37,0,0,0-3.68-8.4A12.34,12.34,0,0,0,740.34,68.14Z" transform="translate(-376.9 -44.94)"/><path class="cls-1" d="M760.26,120.7v-5.76h3.12a6.11,6.11,0,0,0,4.28-1.24q1.32-1.24,1.32-4.2V63.42h6.72v46.24q0,5.76-2.88,8.4t-8.4,2.64Zm12.16-66.08a4.53,4.53,0,0,1-3.28-1.32A4.43,4.43,0,0,1,767.78,50a4.2,4.2,0,0,1,1.36-3.2,4.62,4.62,0,0,1,3.28-1.28,4.49,4.49,0,0,1,3.24,1.28A4.27,4.27,0,0,1,777,50a4.51,4.51,0,0,1-1.32,3.32A4.4,4.4,0,0,1,772.42,54.62Z" transform="translate(-376.9 -44.94)"/><path class="cls-1" d="M805.22,104.06a19.45,19.45,0,0,1-10.08-2.6,18.41,18.41,0,0,1-6.92-7.24,22.63,22.63,0,0,1-2.52-11,22.91,22.91,0,0,1,2.48-10.92,18,18,0,0,1,6.92-7.28,20,20,0,0,1,10.28-2.6,18.57,18.57,0,0,1,10,2.6,17.62,17.62,0,0,1,6.44,6.84A19.29,19.29,0,0,1,824,81c0,.59,0,1.17,0,1.76s0,1.25,0,2h-31.6a15.52,15.52,0,0,0,2.12,7.56,12.44,12.44,0,0,0,4.72,4.52,12.62,12.62,0,0,0,6,1.52,12,12,0,0,0,7-1.92,11.05,11.05,0,0,0,4.08-5.2h6.64a18,18,0,0,1-6.12,9.16Q812.25,104.07,805.22,104.06Zm0-35.92a13.4,13.4,0,0,0-8.52,2.92,11.77,11.77,0,0,0-4.28,8.52h25a11.37,11.37,0,0,0-3.68-8.4A12.34,12.34,0,0,0,805.22,68.14Z" transform="translate(-376.9 -44.94)"/><path class="cls-1" d="M832.89,103.1V63.42H839l.56,7.6a14.48,14.48,0,0,1,5.6-6.24,17.34,17.34,0,0,1,9.28-2.32v7h-1.84a16.59,16.59,0,0,0-6.48,1.24,9.92,9.92,0,0,0-4.72,4.2,16,16,0,0,0-1.76,8.16v20Z" transform="translate(-376.9 -44.94)"/><path class="cls-1" d="M878.65,104.06a20.15,20.15,0,0,1-10.2-2.6,18.74,18.74,0,0,1-7.12-7.28,22.16,22.16,0,0,1-2.6-10.92,22.16,22.16,0,0,1,2.6-10.92,18.74,18.74,0,0,1,7.12-7.28,20.15,20.15,0,0,1,10.2-2.6,19,19,0,0,1,11.88,3.68A16,16,0,0,1,896.65,76h-6.88a8.81,8.81,0,0,0-3.92-5.72,13,13,0,0,0-7.28-2,12.43,12.43,0,0,0-11.12,6.72,17.21,17.21,0,0,0-1.84,8.32,17.21,17.21,0,0,0,1.84,8.32,12.89,12.89,0,0,0,4.8,5.08,12.36,12.36,0,0,0,6.32,1.72,13,13,0,0,0,7.28-2,8.83,8.83,0,0,0,3.92-5.8h6.88a15.87,15.87,0,0,1-6.08,9.76A18.91,18.91,0,0,1,878.65,104.06Z" transform="translate(-376.9 -44.94)"/><path class="cls-1" d="M910.09,54.62A4.51,4.51,0,0,1,905.45,50a4.27,4.27,0,0,1,1.32-3.2,4.89,4.89,0,0,1,6.6,0,4.2,4.2,0,0,1,1.36,3.2,4.43,4.43,0,0,1-1.36,3.32A4.53,4.53,0,0,1,910.09,54.62Zm-3.36,48.48V63.42h6.72V103.1Z" transform="translate(-376.9 -44.94)"/><path class="cls-1" d="M943.37,104.06a20.15,20.15,0,0,1-10.2-2.6,18.74,18.74,0,0,1-7.12-7.28,22.16,22.16,0,0,1-2.6-10.92,22.16,22.16,0,0,1,2.6-10.92,18.74,18.74,0,0,1,7.12-7.28,20.15,20.15,0,0,1,10.2-2.6,19,19,0,0,1,11.88,3.68A16,16,0,0,1,961.37,76h-6.88a8.81,8.81,0,0,0-3.92-5.72,13,13,0,0,0-7.28-2,12.43,12.43,0,0,0-11.12,6.72,17.21,17.21,0,0,0-1.84,8.32,17.21,17.21,0,0,0,1.84,8.32,12.89,12.89,0,0,0,4.8,5.08,12.36,12.36,0,0,0,6.32,1.72,13,13,0,0,0,7.28-2,8.83,8.83,0,0,0,3.92-5.8h6.88a15.87,15.87,0,0,1-6.08,9.76A18.91,18.91,0,0,1,943.37,104.06Z" transform="translate(-376.9 -44.94)"/><path class="cls-1" d="M974.81,54.62A4.51,4.51,0,0,1,970.17,50a4.27,4.27,0,0,1,1.32-3.2,4.89,4.89,0,0,1,6.6,0,4.2,4.2,0,0,1,1.36,3.2,4.43,4.43,0,0,1-1.36,3.32A4.53,4.53,0,0,1,974.81,54.62Zm-3.36,48.48V63.42h6.72V103.1Z" transform="translate(-376.9 -44.94)"/><path class="cls-1" d="M1007.93,104.06a19.94,19.94,0,0,1-10.08-2.56,18.6,18.6,0,0,1-7.08-7.24,22.34,22.34,0,0,1-2.6-11,22,22,0,0,1,2.64-11A18.73,18.73,0,0,1,998,65a20.16,20.16,0,0,1,10.12-2.56A19.88,19.88,0,0,1,1018.17,65a18.47,18.47,0,0,1,7.08,7.24,22.23,22.23,0,0,1,2.6,11,22,22,0,0,1-2.64,11,18.66,18.66,0,0,1-7.16,7.24A20.11,20.11,0,0,1,1007.93,104.06Zm0-5.76a12.72,12.72,0,0,0,6.4-1.68,12.44,12.44,0,0,0,4.8-5,17.09,17.09,0,0,0,1.84-8.32,17.44,17.44,0,0,0-1.8-8.32,12.23,12.23,0,0,0-4.76-5,12.59,12.59,0,0,0-6.32-1.68,12.78,12.78,0,0,0-6.4,1.68,12.58,12.58,0,0,0-4.8,5,17.21,17.21,0,0,0-1.84,8.32,17.21,17.21,0,0,0,1.84,8.32,12.69,12.69,0,0,0,4.76,5A12.39,12.39,0,0,0,1007.93,98.3Z" transform="translate(-376.9 -44.94)"/><path class="cls-1" d="M1052.41,104.06a19,19,0,0,1-11.84-3.6,14.08,14.08,0,0,1-5.52-9.76h6.88a9.54,9.54,0,0,0,3.32,5.4,10.81,10.81,0,0,0,7.24,2.28q4.24,0,6.24-1.8a5.56,5.56,0,0,0,2-4.28c0-2.4-.86-4-2.6-4.8a34.48,34.48,0,0,0-7.32-2.16,42,42,0,0,1-6.4-1.84,14.52,14.52,0,0,1-5.36-3.4,7.93,7.93,0,0,1-2.16-5.8,10.72,10.72,0,0,1,3.88-8.52q3.88-3.31,10.52-3.32a16.28,16.28,0,0,1,10.36,3.16,12.58,12.58,0,0,1,4.68,9h-6.64a6.88,6.88,0,0,0-2.6-4.76,9.24,9.24,0,0,0-5.88-1.72,8.93,8.93,0,0,0-5.56,1.52,4.84,4.84,0,0,0-2,4,4.16,4.16,0,0,0,2.52,3.76,26.92,26.92,0,0,0,6.84,2.32,59,59,0,0,1,7,2,13.13,13.13,0,0,1,5.44,3.44c1.42,1.52,2.12,3.72,2.12,6.6a10.82,10.82,0,0,1-4,8.84Q1059.46,104.06,1052.41,104.06Z" transform="translate(-376.9 -44.94)"/><path class="cls-1" d="M1098.41,103.1V63.42h6.08l.48,5.76a13.46,13.46,0,0,1,5.12-5,14.76,14.76,0,0,1,7.2-1.76,16.23,16.23,0,0,1,8.12,1.92,12.59,12.59,0,0,1,5.24,5.84,15.29,15.29,0,0,1,5.72-5.68,15.61,15.61,0,0,1,7.88-2.08q7.13,0,11.36,4.28t4.24,13.16v23.2h-6.64V80.62c0-4.11-.82-7.2-2.48-9.28a8.55,8.55,0,0,0-7.12-3.12,10,10,0,0,0-8,3.72q-3.15,3.72-3.16,10.6V103.1h-6.72V80.62c0-4.11-.82-7.2-2.48-9.28a8.55,8.55,0,0,0-7.12-3.12,9.94,9.94,0,0,0-7.88,3.72q-3.15,3.72-3.16,10.6V103.1Z" transform="translate(-376.9 -44.94)"/><path class="cls-1" d="M1183.21,104.06a18,18,0,0,1-8.24-1.68,11.46,11.46,0,0,1-4.88-4.48,12,12,0,0,1-1.6-6.08,10.79,10.79,0,0,1,4.64-9.36q4.63-3.28,12.64-3.28h10.72V78.7c0-3.47-.91-6.09-2.72-7.88a9.9,9.9,0,0,0-7.28-2.68,11.6,11.6,0,0,0-6.76,2,8.6,8.6,0,0,0-3.56,5.72h-6.88a12.75,12.75,0,0,1,2.92-7.28,16.33,16.33,0,0,1,6.28-4.52,20.7,20.7,0,0,1,8-1.56q8.33,0,12.52,4.44t4.2,11.8v24.4h-6l-.4-7.12a15.71,15.71,0,0,1-4.92,5.72A14.45,14.45,0,0,1,1183.21,104.06Zm1-5.68a11,11,0,0,0,6.6-2,12.77,12.77,0,0,0,4.2-5.2,16.17,16.17,0,0,0,1.44-6.72v-.08h-10.16c-3.95,0-6.73.68-8.36,2a6.35,6.35,0,0,0-2.44,5.08,6.15,6.15,0,0,0,2.28,5A9.89,9.89,0,0,0,1184.25,98.38Z" transform="translate(-376.9 -44.94)"/><path class="cls-1" d="M1227.85,103.1q-5.44,0-8.56-2.64t-3.12-9.52V69.1h-6.88V63.42h6.88l.88-9.52h5.84v9.52h11.68V69.1h-11.68V90.94q0,3.77,1.52,5.08t5.36,1.32h4.16v5.76Z" transform="translate(-376.9 -44.94)"/><path class="cls-1" d="M1259.85,104.06a19.45,19.45,0,0,1-10.08-2.6,18.48,18.48,0,0,1-6.92-7.24,22.63,22.63,0,0,1-2.52-11,23,23,0,0,1,2.48-10.92,18,18,0,0,1,6.92-7.28,20,20,0,0,1,10.28-2.6,18.57,18.57,0,0,1,10,2.6,17.55,17.55,0,0,1,6.44,6.84,19.29,19.29,0,0,1,2.24,9.12c0,.59,0,1.17,0,1.76s0,1.25,0,2H1247a15.63,15.63,0,0,0,2.12,7.56,12.51,12.51,0,0,0,4.72,4.52,12.65,12.65,0,0,0,6,1.52,12,12,0,0,0,7-1.92,10.93,10.93,0,0,0,4.08-5.2h6.64a18,18,0,0,1-6.12,9.16Q1266.9,104.07,1259.85,104.06Zm0-35.92a13.4,13.4,0,0,0-8.52,2.92,11.77,11.77,0,0,0-4.28,8.52h25a11.37,11.37,0,0,0-3.68-8.4A12.32,12.32,0,0,0,1259.85,68.14Z" transform="translate(-376.9 -44.94)"/><path class="cls-1" d="M1287.53,103.1V63.42h6.08l.48,5.76a13.46,13.46,0,0,1,5.12-5,14.71,14.71,0,0,1,7.2-1.76,16.26,16.26,0,0,1,8.12,1.92,12.65,12.65,0,0,1,5.24,5.84,15.22,15.22,0,0,1,5.72-5.68,15.58,15.58,0,0,1,7.88-2.08q7.13,0,11.36,4.28T1349,79.9v23.2h-6.64V80.62q0-6.16-2.48-9.28a8.56,8.56,0,0,0-7.12-3.12,10,10,0,0,0-8,3.72q-3.16,3.72-3.16,10.6V103.1h-6.72V80.62q0-6.16-2.48-9.28a8.56,8.56,0,0,0-7.12-3.12,9.92,9.92,0,0,0-7.88,3.72q-3.17,3.72-3.16,10.6V103.1Z" transform="translate(-376.9 -44.94)"/><path class="cls-1" d="M1372.33,104.06a18,18,0,0,1-8.24-1.68,11.34,11.34,0,0,1-4.88-4.48,12,12,0,0,1-1.6-6.08,10.77,10.77,0,0,1,4.64-9.36q4.63-3.28,12.64-3.28h10.72V78.7c0-3.47-.91-6.09-2.72-7.88a9.92,9.92,0,0,0-7.28-2.68,11.58,11.58,0,0,0-6.76,2,8.6,8.6,0,0,0-3.56,5.72h-6.88a12.68,12.68,0,0,1,2.92-7.28,16.33,16.33,0,0,1,6.28-4.52,20.63,20.63,0,0,1,8-1.56q8.31,0,12.52,4.44t4.2,11.8v24.4h-6l-.4-7.12a15.71,15.71,0,0,1-4.92,5.72A14.45,14.45,0,0,1,1372.33,104.06Zm1-5.68a11,11,0,0,0,6.6-2,12.77,12.77,0,0,0,4.2-5.2,16.17,16.17,0,0,0,1.44-6.72v-.08h-10.16q-5.92,0-8.36,2a6.35,6.35,0,0,0-2.44,5.08,6.15,6.15,0,0,0,2.28,5A9.87,9.87,0,0,0,1373.37,98.38Zm.16-38.24v-5l16.8-10.16v5.84Z" transform="translate(-376.9 -44.94)"/><path class="cls-1" d="M1417,103.1q-5.45,0-8.56-2.64t-3.12-9.52V69.1h-6.88V63.42h6.88l.88-9.52H1412v9.52h11.68V69.1H1412V90.94c0,2.51.5,4.2,1.52,5.08s2.8,1.32,5.36,1.32h4.16v5.76Z" transform="translate(-376.9 -44.94)"/><path class="cls-1" d="M1436.33,54.62a4.51,4.51,0,0,1-4.64-4.64,4.27,4.27,0,0,1,1.32-3.2,4.58,4.58,0,0,1,3.32-1.28,4.63,4.63,0,0,1,3.28,1.28A4.23,4.23,0,0,1,1441,50a4.46,4.46,0,0,1-1.36,3.32A4.54,4.54,0,0,1,1436.33,54.62ZM1433,103.1V63.42h6.72V103.1Z" transform="translate(-376.9 -44.94)"/><path class="cls-1" d="M1469.61,104.06a20.1,20.1,0,0,1-10.2-2.6,18.6,18.6,0,0,1-7.12-7.28,22.05,22.05,0,0,1-2.6-10.92,22.05,22.05,0,0,1,2.6-10.92,18.6,18.6,0,0,1,7.12-7.28,20.1,20.1,0,0,1,10.2-2.6,19.09,19.09,0,0,1,11.88,3.68,16.08,16.08,0,0,1,6.12,9.84h-6.88a8.85,8.85,0,0,0-3.92-5.72,13,13,0,0,0-7.28-2,12.59,12.59,0,0,0-6.32,1.68,12.44,12.44,0,0,0-4.8,5,17.09,17.09,0,0,0-1.84,8.32,17.09,17.09,0,0,0,1.84,8.32,12.75,12.75,0,0,0,4.8,5.08,12.33,12.33,0,0,0,6.32,1.72,13,13,0,0,0,7.28-2,8.87,8.87,0,0,0,3.92-5.8h6.88a15.91,15.91,0,0,1-6.08,9.76A19,19,0,0,1,1469.61,104.06Z" transform="translate(-376.9 -44.94)"/><path class="cls-1" d="M1515.05,104.06A19.88,19.88,0,0,1,1505,101.5a18.47,18.47,0,0,1-7.08-7.24,22.23,22.23,0,0,1-2.6-11,22,22,0,0,1,2.64-11,18.66,18.66,0,0,1,7.16-7.24,21.2,21.2,0,0,1,20.2,0,18.6,18.6,0,0,1,7.08,7.24,22.34,22.34,0,0,1,2.6,11,22,22,0,0,1-2.64,11,18.73,18.73,0,0,1-7.16,7.24A20.16,20.16,0,0,1,1515.05,104.06Zm0-5.76a12.78,12.78,0,0,0,6.4-1.68,12.58,12.58,0,0,0,4.8-5,17.21,17.21,0,0,0,1.84-8.32,17.44,17.44,0,0,0-1.8-8.32,12.29,12.29,0,0,0-4.76-5,12.88,12.88,0,0,0-12.72,0,12.44,12.44,0,0,0-4.8,5,17.09,17.09,0,0,0-1.84,8.32,17.09,17.09,0,0,0,1.84,8.32,12.56,12.56,0,0,0,4.76,5A12.37,12.37,0,0,0,1515.05,98.3Z" transform="translate(-376.9 -44.94)"/><path class="cls-1" d="M1559.53,104.06a18.94,18.94,0,0,1-11.84-3.6,14,14,0,0,1-5.52-9.76h6.88a9.44,9.44,0,0,0,3.32,5.4,10.79,10.79,0,0,0,7.24,2.28q4.23,0,6.24-1.8a5.59,5.59,0,0,0,2-4.28q0-3.6-2.6-4.8a34.85,34.85,0,0,0-7.32-2.16,41.31,41.31,0,0,1-6.4-1.84,14.44,14.44,0,0,1-5.36-3.4,7.93,7.93,0,0,1-2.16-5.8,10.69,10.69,0,0,1,3.88-8.52q3.87-3.31,10.52-3.32a16.32,16.32,0,0,1,10.36,3.16,12.65,12.65,0,0,1,4.68,9h-6.64a7,7,0,0,0-2.6-4.76,9.28,9.28,0,0,0-5.88-1.72,8.91,8.91,0,0,0-5.56,1.52,4.81,4.81,0,0,0-2,4,4.16,4.16,0,0,0,2.52,3.76,26.92,26.92,0,0,0,6.84,2.32,60.13,60.13,0,0,1,7,2,13.26,13.26,0,0,1,5.44,3.44q2.12,2.28,2.12,6.6a10.87,10.87,0,0,1-4,8.84Q1566.57,104.06,1559.53,104.06Z" transform="translate(-376.9 -44.94)"/><path class="cls-1" d="M688.26,199.1V159.42h6.08l.48,5.76a13.46,13.46,0,0,1,5.12-5,14.71,14.71,0,0,1,7.2-1.76,16.26,16.26,0,0,1,8.12,1.92,12.65,12.65,0,0,1,5.24,5.84,15.22,15.22,0,0,1,5.72-5.68,15.58,15.58,0,0,1,7.88-2.08q7.13,0,11.36,4.28t4.24,13.16v23.2h-6.64V176.62q0-6.17-2.48-9.28a8.56,8.56,0,0,0-7.12-3.12,10,10,0,0,0-8,3.72q-3.16,3.72-3.16,10.6V199.1h-6.72V176.62q0-6.17-2.48-9.28a8.56,8.56,0,0,0-7.12-3.12,9.92,9.92,0,0,0-7.88,3.72q-3.17,3.72-3.16,10.6V199.1Z" transform="translate(-376.9 -44.94)"/><path class="cls-1" d="M763.94,150.62A4.51,4.51,0,0,1,759.3,146a4.27,4.27,0,0,1,1.32-3.2,4.89,4.89,0,0,1,6.6,0,4.2,4.2,0,0,1,1.36,3.2,4.43,4.43,0,0,1-1.36,3.32A4.54,4.54,0,0,1,763.94,150.62Zm-3.36,48.48V159.42h6.72V199.1Z" transform="translate(-376.9 -44.94)"/><path class="cls-1" d="M796.82,200.06a19.45,19.45,0,0,1-10.08-2.6,18.48,18.48,0,0,1-6.92-7.24,22.63,22.63,0,0,1-2.52-11,23,23,0,0,1,2.48-10.92,18,18,0,0,1,6.92-7.28,20,20,0,0,1,10.28-2.6,18.57,18.57,0,0,1,10,2.6,17.55,17.55,0,0,1,6.44,6.84,19.29,19.29,0,0,1,2.24,9.12c0,.59,0,1.17,0,1.76s0,1.25,0,2h-31.6a15.63,15.63,0,0,0,2.12,7.56,12.51,12.51,0,0,0,4.72,4.52,12.65,12.65,0,0,0,6,1.52,12,12,0,0,0,7-1.92,10.93,10.93,0,0,0,4.08-5.2h6.64a18,18,0,0,1-6.12,9.16Q803.87,200.07,796.82,200.06Zm0-35.92a13.4,13.4,0,0,0-8.52,2.92,11.77,11.77,0,0,0-4.28,8.52h25a11.37,11.37,0,0,0-3.68-8.4A12.32,12.32,0,0,0,796.82,164.14Z" transform="translate(-376.9 -44.94)"/><path class="cls-1" d="M824.5,199.1V159.42h6.08l.4,7.12a14.39,14.39,0,0,1,5.52-5.92,15.55,15.55,0,0,1,8.16-2.16q7,0,11.24,4.28t4.2,13.16v23.2h-6.72V176.62q0-12.41-10.24-12.4a11,11,0,0,0-8.52,3.72q-3.4,3.72-3.4,10.6V199.1Z" transform="translate(-376.9 -44.94)"/><path class="cls-1" d="M885.94,199.1q-5.45,0-8.56-2.64t-3.12-9.52V165.1h-6.88v-5.68h6.88l.88-9.52H881v9.52h11.68v5.68H881v21.84c0,2.51.5,4.2,1.52,5.08s2.8,1.32,5.36,1.32H892v5.76Z" transform="translate(-376.9 -44.94)"/><path class="cls-1" d="M901.22,199.1V159.42h6.08l.56,7.6a14.36,14.36,0,0,1,5.6-6.24,17.32,17.32,0,0,1,9.28-2.32v7H920.9a16.52,16.52,0,0,0-6.48,1.24,9.83,9.83,0,0,0-4.72,4.2c-1.18,2-1.76,4.69-1.76,8.16v20Z" transform="translate(-376.9 -44.94)"/><path class="cls-1" d="M943.46,200.06a18,18,0,0,1-8.24-1.68,11.34,11.34,0,0,1-4.88-4.48,12,12,0,0,1-1.6-6.08,10.77,10.77,0,0,1,4.64-9.36q4.64-3.28,12.64-3.28h10.72v-.48c0-3.47-.91-6.09-2.72-7.88a9.92,9.92,0,0,0-7.28-2.68,11.56,11.56,0,0,0-6.76,2,8.56,8.56,0,0,0-3.56,5.72h-6.88a12.68,12.68,0,0,1,2.92-7.28,16.33,16.33,0,0,1,6.28-4.52,20.63,20.63,0,0,1,8-1.56q8.31,0,12.52,4.44t4.2,11.8v24.4h-6l-.4-7.12a15.71,15.71,0,0,1-4.92,5.72A14.47,14.47,0,0,1,943.46,200.06Zm1-5.68a11,11,0,0,0,6.6-2,12.77,12.77,0,0,0,4.2-5.2,16.17,16.17,0,0,0,1.44-6.72v-.08H946.58q-5.93,0-8.36,2a6.35,6.35,0,0,0-2.44,5.08,6.15,6.15,0,0,0,2.28,5A9.87,9.87,0,0,0,944.5,194.38Z" transform="translate(-376.9 -44.94)"/><path class="cls-1" d="M988.73,200.06a19,19,0,0,1-11.84-3.6,14,14,0,0,1-5.51-9.76h6.87a9.54,9.54,0,0,0,3.32,5.4,10.81,10.81,0,0,0,7.24,2.28q4.25,0,6.24-1.8a5.56,5.56,0,0,0,2-4.28q0-3.6-2.59-4.8a34.79,34.79,0,0,0-7.33-2.16,42,42,0,0,1-6.4-1.84,14.4,14.4,0,0,1-5.35-3.4,7.89,7.89,0,0,1-2.17-5.8,10.72,10.72,0,0,1,3.88-8.52q3.88-3.32,10.52-3.32A16.28,16.28,0,0,1,998,161.62a12.58,12.58,0,0,1,4.68,9H996a6.91,6.91,0,0,0-2.59-4.76,9.29,9.29,0,0,0-5.89-1.72,8.93,8.93,0,0,0-5.56,1.52,4.84,4.84,0,0,0-2,4,4.16,4.16,0,0,0,2.52,3.76,27,27,0,0,0,6.85,2.32,60.13,60.13,0,0,1,7,2,13.16,13.16,0,0,1,5.43,3.44c1.42,1.52,2.12,3.72,2.12,6.6a10.82,10.82,0,0,1-4,8.84Q995.78,200.06,988.73,200.06Z" transform="translate(-376.9 -44.94)"/><path class="cls-1" d="M1027,216.7v-5.76h3.12a6.18,6.18,0,0,0,4.29-1.24c.87-.83,1.32-2.23,1.32-4.2V159.42h6.72v46.24q0,5.76-2.88,8.4c-1.92,1.76-4.73,2.64-8.41,2.64Zm12.16-66.08a4.54,4.54,0,0,1-3.28-1.32,4.45,4.45,0,0,1-1.35-3.32,4.22,4.22,0,0,1,1.35-3.2,4.63,4.63,0,0,1,3.28-1.28,4.5,4.5,0,0,1,3.25,1.28,4.31,4.31,0,0,1,1.32,3.2,4.55,4.55,0,0,1-1.32,3.32A4.41,4.41,0,0,1,1039.13,150.62Z" transform="translate(-376.9 -44.94)"/><path class="cls-1" d="M1068.57,200.06q-7,0-11.2-4.28t-4.16-13.16v-23.2h6.72V181.9q0,12.4,10.16,12.4a11.13,11.13,0,0,0,8.6-3.72q3.4-3.72,3.4-10.6V159.42h6.72V199.1h-6.08l-.48-7.12a13.74,13.74,0,0,1-5.48,5.92A15.74,15.74,0,0,1,1068.57,200.06Z" transform="translate(-376.9 -44.94)"/><path class="cls-1" d="M1117.69,200.06a19.5,19.5,0,0,1-10.08-2.6,18.48,18.48,0,0,1-6.92-7.24,22.63,22.63,0,0,1-2.52-11,23,23,0,0,1,2.48-10.92,18.06,18.06,0,0,1,6.92-7.28,20,20,0,0,1,10.28-2.6,18.57,18.57,0,0,1,10,2.6,17.55,17.55,0,0,1,6.44,6.84,19.17,19.17,0,0,1,2.24,9.12c0,.59,0,1.17,0,1.76s0,1.25,0,2h-31.6a15.63,15.63,0,0,0,2.12,7.56,12.48,12.48,0,0,0,10.76,6,12,12,0,0,0,7-1.92,10.93,10.93,0,0,0,4.08-5.2h6.64a17.84,17.84,0,0,1-6.12,9.16Q1124.74,200.07,1117.69,200.06Zm0-35.92a13.4,13.4,0,0,0-8.52,2.92,11.8,11.8,0,0,0-4.28,8.52h25a11.34,11.34,0,0,0-3.68-8.4A12.32,12.32,0,0,0,1117.69,164.14Z" transform="translate(-376.9 -44.94)"/><path class="cls-1" d="M1160.81,186.62a20.38,20.38,0,0,1-6.16-.88l-4,3.76a7.92,7.92,0,0,0,2.2,1.08,23.76,23.76,0,0,0,3.8.8c1.65.24,4,.49,7,.76q8,.56,11.44,3.68a10.51,10.51,0,0,1,3.44,8.16,12.47,12.47,0,0,1-1.88,6.56,14,14,0,0,1-5.76,5.12,21.76,21.76,0,0,1-10,2,29.89,29.89,0,0,1-9.52-1.4,13.91,13.91,0,0,1-6.48-4.24,10.92,10.92,0,0,1-2.32-7.16,11.58,11.58,0,0,1,1.2-4.84,13,13,0,0,1,4.48-4.92,16.71,16.71,0,0,1-3-1.56,15.94,15.94,0,0,1-2.28-1.88v-1.84l6.8-6.72a13.19,13.19,0,0,1-4.72-10.56,14.09,14.09,0,0,1,1.84-7.12,13.22,13.22,0,0,1,5.36-5.08,18,18,0,0,1,8.56-1.88,19.18,19.18,0,0,1,6.24,1h14.64v5l-7.44.32a13.31,13.31,0,0,1,2.32,7.76,13.83,13.83,0,0,1-1.88,7.12,13.48,13.48,0,0,1-5.36,5.08A17.76,17.76,0,0,1,1160.81,186.62Zm-11.68,17.6a6.46,6.46,0,0,0,3.36,6,16.52,16.52,0,0,0,8.4,2,13.33,13.33,0,0,0,8-2.16,6.76,6.76,0,0,0,3-5.76,5.78,5.78,0,0,0-2.08-4.44c-1.39-1.25-3.94-2-7.68-2.2q-4.39-.32-7.6-.8a9.85,9.85,0,0,0-4.32,3.8A8.22,8.22,0,0,0,1149.13,204.22Zm11.68-23.12a9.89,9.89,0,0,0,6.76-2.2,8,8,0,0,0,2.52-6.36,7.89,7.89,0,0,0-2.52-6.28,9.89,9.89,0,0,0-6.76-2.2,10,10,0,0,0-6.84,2.2,7.89,7.89,0,0,0-2.52,6.28,8,8,0,0,0,2.52,6.36A10,10,0,0,0,1160.81,181.1Z" transform="translate(-376.9 -44.94)"/><path class="cls-1" d="M1202.49,200.06a18,18,0,0,1-8.24-1.68,11.4,11.4,0,0,1-4.88-4.48,12,12,0,0,1-1.6-6.08,10.79,10.79,0,0,1,4.64-9.36q4.63-3.28,12.64-3.28h10.72v-.48c0-3.47-.91-6.09-2.72-7.88a9.9,9.9,0,0,0-7.28-2.68,11.58,11.58,0,0,0-6.76,2,8.6,8.6,0,0,0-3.56,5.72h-6.88a12.75,12.75,0,0,1,2.92-7.28,16.33,16.33,0,0,1,6.28-4.52,20.67,20.67,0,0,1,8-1.56q8.32,0,12.52,4.44t4.2,11.8v24.4h-6l-.4-7.12a15.71,15.71,0,0,1-4.92,5.72A14.45,14.45,0,0,1,1202.49,200.06Zm1-5.68a11,11,0,0,0,6.6-2,12.77,12.77,0,0,0,4.2-5.2,16.17,16.17,0,0,0,1.44-6.72v-.08h-10.16c-3.95,0-6.73.68-8.36,2a6.35,6.35,0,0,0-2.44,5.08,6.15,6.15,0,0,0,2.28,5A9.89,9.89,0,0,0,1203.53,194.38Z" transform="translate(-376.9 -44.94)"/><path class="cls-1" d="M1247.77,200.06a19,19,0,0,1-11.84-3.6,14,14,0,0,1-5.52-9.76h6.88a9.49,9.49,0,0,0,3.32,5.4,10.81,10.81,0,0,0,7.24,2.28q4.25,0,6.24-1.8a5.59,5.59,0,0,0,2-4.28q0-3.6-2.6-4.8a34.48,34.48,0,0,0-7.32-2.16,41.63,41.63,0,0,1-6.4-1.84,14.52,14.52,0,0,1-5.36-3.4,7.93,7.93,0,0,1-2.16-5.8,10.69,10.69,0,0,1,3.88-8.52q3.88-3.32,10.52-3.32a16.3,16.3,0,0,1,10.36,3.16,12.65,12.65,0,0,1,4.68,9h-6.64a6.92,6.92,0,0,0-2.6-4.76,9.28,9.28,0,0,0-5.88-1.72,8.93,8.93,0,0,0-5.56,1.52,4.81,4.81,0,0,0-2,4,4.16,4.16,0,0,0,2.52,3.76,26.92,26.92,0,0,0,6.84,2.32,59.58,59.58,0,0,1,7,2,13.2,13.2,0,0,1,5.44,3.44q2.12,2.28,2.12,6.6a10.84,10.84,0,0,1-4,8.84Q1254.81,200.06,1247.77,200.06Z" transform="translate(-376.9 -44.94)"/><path class="cls-2" d="M756.33,714.38l-161.7-46.2a16,16,0,0,1-3.79-29.13l87.61-52.15a16,16,0,0,1,13.7-1.27l160.35,59c13.42,4.93,14.13,23.64,1.13,29.57l-86.26,39.4A16,16,0,0,1,756.33,714.38Z" transform="translate(-376.9 -44.94)"/><path class="cls-2" d="M1115.5,640.2l186.81-63.89a16,16,0,0,1,16.76,4.1l56.52,59.28a16,16,0,0,1-7.29,26.46l-166.51,46.33a16,16,0,0,1-11.93-1.36L1113,669.4A16,16,0,0,1,1115.5,640.2Z" transform="translate(-376.9 -44.94)"/><path class="cls-3" d="M751.9,716.05,569.6,662.74c-5.85-1.71-10.6-10.27-10.6-19.1V368.53c0-8.84,4.75-14.61,10.6-12.9l182.3,53.31c5.85,1.71,10.6,10.26,10.6,19.1V703.15C762.5,712,757.75,717.76,751.9,716.05Z" transform="translate(-376.9 -44.94)"/><path class="cls-4" d="M660.75,438.8c-35.51-10.38-64.3,24.64-64.3,78.23s28.79,105.46,64.3,115.84,64.3-24.64,64.3-78.23S696.26,449.19,660.75,438.8Zm37.51,153.67s-12.39,12.4-30.09-20.83l2.65,35.51-19.47-5.69,3.54-35s-16.82,21.79-29.21,6.15c0,0-10.62-17.8,0-30.73,0,0-11.51-22.06-4.42-29.34,0,0,8.85-13.44,31,15.74,0,0-24.78-44.65-8.85-61.36,0,0,11.51-10,17.71,15.86,0,0,4.42-14.74,12.39-11.07,0,0,25.67,19.53-2.66,60.67,0,0,23-14.64,31,5,0,0,5.31,14.91-5.31,23.83C696.49,561.23,706.23,582.77,698.26,592.47Z" transform="translate(-376.9 -44.94)"/><path class="cls-5" d="M1391.66,665.39l-192.55,47.9c-6.26,1.56-11.34-4.34-11.34-13.18v-275c0-8.84,5.08-17.26,11.34-18.82l192.55-47.9c6.26-1.56,11.34,4.34,11.34,13.18v275C1403,655.4,1397.92,663.83,1391.66,665.39Z" transform="translate(-376.9 -44.94)"/><path class="cls-4" d="M1338.65,601.9l-4,1V575.81c-.88-8.6-5.74-13.06-5.74-13.06l-17.22-23.42c-4.85-5.72,0-15.74,0-15.74l18.1-32.84a26.17,26.17,0,0,0,4.42-14.95V449.35l4-1c4.42-2.35,4.86-9.39,4.86-9.39,0-7.56-4.86-8.24-4.86-8.24l-85.2,21.2c-5.74,2.69-5.3,10.13-5.3,10.13,0,6.3,4.42,7.09,4.42,7.09l4-.36V496.5c1.32,6.59,4,9.71,4,9.71l19.43,26.65c3.53,5.42,0,13.86,0,13.86l-18.1,33.47a32.36,32.36,0,0,0-5.3,15.17v27.07l-4,1a13,13,0,0,0-4.42,9.92c0,6.92,5.3,7.49,5.3,7.49l86.08-21.41c4-4.14,4-10.44,4-10.44C1343.07,603.32,1338.65,601.9,1338.65,601.9ZM1322.32,606,1268,619.47V594.28l22.07-41.38s7.51-16.35-.88-33.16L1268,491.64V465.83l54.3-13.51v25.81L1302,515.93s-10.15,22.05.44,36.41l19.87,27.8Z" transform="translate(-376.9 -44.94)"/><rect class="cls-6" x="445.02" y="374.07" width="305.58" height="305.67" rx="16"/><path class="cls-4" d="M1044.61,486.09H904.81A15.87,15.87,0,0,0,889,501.92V641.76a15.88,15.88,0,0,0,15.82,15.83h139.8a15.88,15.88,0,0,0,15.82-15.83V501.92A15.87,15.87,0,0,0,1044.61,486.09ZM927.89,545.45a21.77,21.77,0,1,1,21.76-21.76A21.76,21.76,0,0,1,927.89,545.45Zm46.82,48.16a21.77,21.77,0,1,1,21.76-21.77A21.77,21.77,0,0,1,974.71,593.61Zm43.52,43.53A21.77,21.77,0,1,1,1040,615.37,21.77,21.77,0,0,1,1018.23,637.14Z" transform="translate(-376.9 -44.94)"/><path class="cls-7" d="M598.11,882V845.6h11.18q9.62,0,14.17,4.89T628,863.9q0,8.39-4.55,13.24T609.29,882Zm4.37-3.64h6.71a17.51,17.51,0,0,0,8.45-1.74,10,10,0,0,0,4.49-5,20.08,20.08,0,0,0,1.36-7.73,20.58,20.58,0,0,0-1.36-7.85,10.07,10.07,0,0,0-4.49-5,17.26,17.26,0,0,0-8.45-1.77h-6.71Z" transform="translate(-376.9 -44.94)"/><path class="cls-7" d="M636.69,850.49a2.92,2.92,0,0,1-2.15-.86,2.89,2.89,0,0,1-.86-2.16,2.76,2.76,0,0,1,.86-2.08,3,3,0,0,1,2.15-.83,3,3,0,0,1,2.14.83,2.78,2.78,0,0,1,.88,2.08,2.91,2.91,0,0,1-.88,2.16A3,3,0,0,1,636.69,850.49ZM634.51,882V856.21h4.37V882Z" transform="translate(-376.9 -44.94)"/><path class="cls-7" d="M647.87,882V859.9H644v-3.69h3.9v-4.47q0-3.75,1.88-5.46a7.76,7.76,0,0,1,5.46-1.72h2.6v3.74h-1.93a4,4,0,0,0-2.81.81,3.73,3.73,0,0,0-.83,2.73v4.37h6.35v3.69h-6.35V882Z" transform="translate(-376.9 -44.94)"/><path class="cls-7" d="M674.34,882.62a12.61,12.61,0,0,1-6.55-1.69,11.91,11.91,0,0,1-4.5-4.7,16.32,16.32,0,0,1,0-14.22,11.73,11.73,0,0,1,4.49-4.74,13.06,13.06,0,0,1,6.69-1.69,12.11,12.11,0,0,1,6.47,1.69,11.54,11.54,0,0,1,4.19,4.45,12.5,12.5,0,0,1,1.45,5.93c0,.38,0,.76,0,1.14s0,.82,0,1.3H666a10,10,0,0,0,1.38,4.92,8,8,0,0,0,3.07,2.93,8.15,8.15,0,0,0,3.92,1,7.8,7.8,0,0,0,4.53-1.25,7.14,7.14,0,0,0,2.65-3.38h4.31a11.29,11.29,0,0,1-11.49,8.32Zm0-23.34a8.77,8.77,0,0,0-5.54,1.89,7.67,7.67,0,0,0-2.78,5.54h16.23a7.42,7.42,0,0,0-2.4-5.46A8,8,0,0,0,674.34,859.28Z" transform="translate(-376.9 -44.94)"/><path class="cls-7" d="M692.33,882V856.21h4l.36,4.94a9.39,9.39,0,0,1,3.64-4.06,11.33,11.33,0,0,1,6-1.51v4.58h-1.19a10.8,10.8,0,0,0-4.22.81,6.31,6.31,0,0,0-3.06,2.73,10.3,10.3,0,0,0-1.15,5.3v13Z" transform="translate(-376.9 -44.94)"/><path class="cls-7" d="M721.82,882.62a12.62,12.62,0,0,1-6.56-1.69,12,12,0,0,1-4.49-4.7,14.64,14.64,0,0,1-1.64-7.13,15,15,0,0,1,1.61-7.09,11.68,11.68,0,0,1,4.5-4.74,13,13,0,0,1,6.68-1.69,12.15,12.15,0,0,1,6.48,1.69,11.52,11.52,0,0,1,4.18,4.45,12.51,12.51,0,0,1,1.46,5.93q0,.57,0,1.14c0,.38,0,.82,0,1.3H713.44a10.26,10.26,0,0,0,1.38,4.92,8.11,8.11,0,0,0,3.07,2.93,8.19,8.19,0,0,0,3.93,1,7.74,7.74,0,0,0,4.52-1.25A7.08,7.08,0,0,0,729,874.3h4.32a11.31,11.31,0,0,1-11.49,8.32Zm0-23.34a8.75,8.75,0,0,0-5.54,1.89,7.67,7.67,0,0,0-2.78,5.54h16.22a7.37,7.37,0,0,0-2.39-5.46A8,8,0,0,0,721.82,859.28Z" transform="translate(-376.9 -44.94)"/><path class="cls-7" d="M739.81,882V856.21h4l.26,4.63a9.32,9.32,0,0,1,3.59-3.85,10.08,10.08,0,0,1,5.3-1.41,9.77,9.77,0,0,1,7.31,2.79q2.73,2.77,2.73,8.55V882h-4.37V867.39q0-8.07-6.66-8.06a7.14,7.14,0,0,0-5.53,2.42c-1.48,1.61-2.21,3.91-2.21,6.89V882Z" transform="translate(-376.9 -44.94)"/><path class="cls-7" d="M779.74,882a8.31,8.31,0,0,1-5.56-1.72q-2-1.71-2-6.18V859.9h-4.47v-3.69h4.47l.57-6.19h3.8v6.19h7.59v3.69h-7.59v14.2q0,2.45,1,3.3a5.39,5.39,0,0,0,3.48.86h2.71V882Z" transform="translate(-376.9 -44.94)"/><path class="cls-7" d="M800.54,882.62a12.61,12.61,0,0,1-6.55-1.69,12,12,0,0,1-4.5-4.7,16.41,16.41,0,0,1,0-14.22,11.68,11.68,0,0,1,4.5-4.74,13,13,0,0,1,6.68-1.69,12.11,12.11,0,0,1,6.47,1.69,11.47,11.47,0,0,1,4.19,4.45,12.5,12.5,0,0,1,1.45,5.93c0,.38,0,.76,0,1.14s0,.82,0,1.3H792.17a10.15,10.15,0,0,0,1.38,4.92,8,8,0,0,0,3.07,2.93,8.18,8.18,0,0,0,3.92,1,7.77,7.77,0,0,0,4.53-1.25,7.14,7.14,0,0,0,2.65-3.38H812a11.32,11.32,0,0,1-11.5,8.32Zm0-23.34a8.72,8.72,0,0,0-5.53,1.89,7.68,7.68,0,0,0-2.79,5.54h16.23a7.41,7.41,0,0,0-2.39-5.46A8,8,0,0,0,800.54,859.28Z" transform="translate(-376.9 -44.94)"/><path class="cls-7" d="M828.41,882.62a12.3,12.3,0,0,1-7.69-2.34,9.11,9.11,0,0,1-3.59-6.34h4.47a6.21,6.21,0,0,0,2.16,3.51,7,7,0,0,0,4.71,1.48,5.92,5.92,0,0,0,4-1.17,3.62,3.62,0,0,0,1.3-2.78,3.08,3.08,0,0,0-1.69-3.12,22.06,22.06,0,0,0-4.75-1.4,27.25,27.25,0,0,1-4.17-1.2,9.57,9.57,0,0,1-3.48-2.21,5.13,5.13,0,0,1-1.4-3.77,7,7,0,0,1,2.52-5.54,10.16,10.16,0,0,1,6.84-2.16,10.61,10.61,0,0,1,6.73,2.06,8.17,8.17,0,0,1,3,5.85h-4.31a4.55,4.55,0,0,0-1.69-3.1,6.1,6.1,0,0,0-3.83-1.11,5.83,5.83,0,0,0-3.61,1,3.13,3.13,0,0,0-1.27,2.6,2.71,2.71,0,0,0,1.63,2.45,17.89,17.89,0,0,0,4.45,1.51,38.28,38.28,0,0,1,4.55,1.27,8.57,8.57,0,0,1,3.54,2.24,6.09,6.09,0,0,1,1.37,4.29,7,7,0,0,1-2.62,5.74A10.9,10.9,0,0,1,828.41,882.62Z" transform="translate(-376.9 -44.94)"/><path class="cls-7" d="M858.31,882V856.21h4l.31,3.74a8.72,8.72,0,0,1,3.33-3.22,9.54,9.54,0,0,1,4.68-1.15,10.56,10.56,0,0,1,5.27,1.25,8.19,8.19,0,0,1,3.41,3.8,9.84,9.84,0,0,1,3.72-3.69,10.16,10.16,0,0,1,5.12-1.36,9.88,9.88,0,0,1,7.38,2.79q2.76,2.77,2.76,8.55V882h-4.32V867.39c0-2.67-.53-4.68-1.61-6a5.54,5.54,0,0,0-4.63-2,6.47,6.47,0,0,0-5.17,2.42q-2.06,2.41-2,6.89V882H876.1V867.39q0-4-1.61-6a5.56,5.56,0,0,0-4.63-2,6.42,6.42,0,0,0-5.12,2.42q-2.06,2.41-2.06,6.89V882Z" transform="translate(-376.9 -44.94)"/><path class="cls-7" d="M916.61,882.62a13,13,0,0,1-6.56-1.66,12,12,0,0,1-4.6-4.71,14.54,14.54,0,0,1-1.69-7.15,14.28,14.28,0,0,1,1.72-7.15,12.14,12.14,0,0,1,4.65-4.7,13.11,13.11,0,0,1,6.58-1.67,13,13,0,0,1,6.55,1.67,12,12,0,0,1,4.6,4.7,14.48,14.48,0,0,1,1.69,7.15,14.33,14.33,0,0,1-1.71,7.15,12.19,12.19,0,0,1-4.66,4.71A13.07,13.07,0,0,1,916.61,882.62Zm0-3.74a8.29,8.29,0,0,0,4.16-1.09,8.18,8.18,0,0,0,3.12-3.28,13,13,0,0,0,0-10.81,8,8,0,0,0-3.09-3.28,8.16,8.16,0,0,0-4.11-1.09,8.07,8.07,0,0,0-7.28,4.37,12.77,12.77,0,0,0,0,10.81,8.25,8.25,0,0,0,3.09,3.28A8.06,8.06,0,0,0,916.61,878.88Z" transform="translate(-376.9 -44.94)"/><path class="cls-7" d="M947.34,882.62a12.73,12.73,0,0,1-6.74-1.76,12.07,12.07,0,0,1-4.47-4.84,14.94,14.94,0,0,1-1.58-7,14.53,14.53,0,0,1,1.61-6.94,12,12,0,0,1,4.47-4.78,12.77,12.77,0,0,1,6.76-1.75,11.89,11.89,0,0,1,5.62,1.3,9.42,9.42,0,0,1,3.79,3.64v-16h4.37V882h-3.95l-.42-4.26a12.22,12.22,0,0,1-3.59,3.38A10.68,10.68,0,0,1,947.34,882.62Zm.47-3.79a8.71,8.71,0,0,0,4.6-1.22,8.44,8.44,0,0,0,3.12-3.41,12.15,12.15,0,0,0,0-10.19,8.44,8.44,0,0,0-3.12-3.41,8.71,8.71,0,0,0-4.6-1.22,8.58,8.58,0,0,0-4.55,1.22,8.3,8.3,0,0,0-3.12,3.41,12.15,12.15,0,0,0,0,10.19,8.3,8.3,0,0,0,3.12,3.41A8.58,8.58,0,0,0,947.81,878.83Z" transform="translate(-376.9 -44.94)"/><path class="cls-7" d="M980,882.62a13,13,0,0,1-6.55-1.66,12,12,0,0,1-4.6-4.71,14.43,14.43,0,0,1-1.69-7.15,14.28,14.28,0,0,1,1.72-7.15,12.14,12.14,0,0,1,4.65-4.7,13.11,13.11,0,0,1,6.58-1.67,13,13,0,0,1,6.55,1.67,12,12,0,0,1,4.6,4.7A14.48,14.48,0,0,1,993,869.1a14.33,14.33,0,0,1-1.71,7.15,12.19,12.19,0,0,1-4.66,4.71A13.1,13.1,0,0,1,980,882.62Zm0-3.74a8.3,8.3,0,0,0,4.17-1.09,8.18,8.18,0,0,0,3.12-3.28,13,13,0,0,0,0-10.81,8,8,0,0,0-3.09-3.28,8.18,8.18,0,0,0-11.39,3.28,12.77,12.77,0,0,0,0,10.81,8.25,8.25,0,0,0,3.09,3.28A8,8,0,0,0,980,878.88Z" transform="translate(-376.9 -44.94)"/><path class="cls-7" d="M1009,882.62a12.33,12.33,0,0,1-7.7-2.34,9.11,9.11,0,0,1-3.59-6.34h4.47a6.21,6.21,0,0,0,2.16,3.51,7,7,0,0,0,4.71,1.48,6,6,0,0,0,4.06-1.17,3.65,3.65,0,0,0,1.3-2.78,3.1,3.1,0,0,0-1.69-3.12,22.35,22.35,0,0,0-4.76-1.4,26.82,26.82,0,0,1-4.16-1.2,9.52,9.52,0,0,1-3.49-2.21,5.17,5.17,0,0,1-1.4-3.77,7,7,0,0,1,2.52-5.54,10.16,10.16,0,0,1,6.84-2.16,10.59,10.59,0,0,1,6.73,2.06,8.22,8.22,0,0,1,3,5.85h-4.32a4.52,4.52,0,0,0-1.69-3.1,6.09,6.09,0,0,0-3.82-1.11,5.86,5.86,0,0,0-3.62,1,3.13,3.13,0,0,0-1.27,2.6,2.72,2.72,0,0,0,1.64,2.45,17.66,17.66,0,0,0,4.44,1.51,37.76,37.76,0,0,1,4.55,1.27,8.57,8.57,0,0,1,3.54,2.24,6,6,0,0,1,1.38,4.29,7,7,0,0,1-2.63,5.74A10.85,10.85,0,0,1,1009,882.62Z" transform="translate(-376.9 -44.94)"/><path class="cls-7" d="M1050.56,882.62a12.73,12.73,0,0,1-6.74-1.76,12.07,12.07,0,0,1-4.47-4.84,14.94,14.94,0,0,1-1.58-7,14.53,14.53,0,0,1,1.61-6.94,12,12,0,0,1,4.47-4.78,12.77,12.77,0,0,1,6.76-1.75,11.82,11.82,0,0,1,5.61,1.3,9.39,9.39,0,0,1,3.8,3.64v-16h4.37V882h-4l-.42-4.26a12.22,12.22,0,0,1-3.59,3.38A10.68,10.68,0,0,1,1050.56,882.62Zm.47-3.79a8.71,8.71,0,0,0,4.6-1.22,8.44,8.44,0,0,0,3.12-3.41,12.15,12.15,0,0,0,0-10.19,8.44,8.44,0,0,0-3.12-3.41,9.21,9.21,0,0,0-9.16,0,8.35,8.35,0,0,0-3.11,3.41,12.15,12.15,0,0,0,0,10.19,8.35,8.35,0,0,0,3.11,3.41A8.64,8.64,0,0,0,1051,878.83Z" transform="translate(-376.9 -44.94)"/><path class="cls-7" d="M1083.11,882.62a12.58,12.58,0,0,1-6.55-1.69,11.91,11.91,0,0,1-4.5-4.7,14.75,14.75,0,0,1-1.64-7.13A15,15,0,0,1,1072,862a11.82,11.82,0,0,1,4.5-4.74,13.05,13.05,0,0,1,6.68-1.69,12.12,12.12,0,0,1,6.48,1.69,11.44,11.44,0,0,1,4.18,4.45,12.51,12.51,0,0,1,1.46,5.93q0,.57,0,1.14c0,.38,0,.82,0,1.3h-20.54a10,10,0,0,0,1.38,4.92,8,8,0,0,0,3.06,2.93,8.19,8.19,0,0,0,3.93,1,7.74,7.74,0,0,0,4.52-1.25,7.1,7.1,0,0,0,2.66-3.38h4.31a11.31,11.31,0,0,1-11.49,8.32Zm0-23.34a8.75,8.75,0,0,0-5.54,1.89,7.67,7.67,0,0,0-2.78,5.54H1091a7.37,7.37,0,0,0-2.39-5.46A8,8,0,0,0,1083.11,859.28Z" transform="translate(-376.9 -44.94)"/><path class="cls-7" d="M1109.84,893.44V889.7h2a4,4,0,0,0,2.79-.81,3.64,3.64,0,0,0,.85-2.73V856.21h4.37v30q0,3.75-1.87,5.46a7.79,7.79,0,0,1-5.46,1.72Zm7.9-43a3,3,0,0,1-2.13-.86,2.88,2.88,0,0,1-.89-2.16,2.75,2.75,0,0,1,.89-2.08,3,3,0,0,1,2.13-.83,3,3,0,0,1,2.11.83,2.79,2.79,0,0,1,.85,2.08,2.92,2.92,0,0,1-3,3Z" transform="translate(-376.9 -44.94)"/><path class="cls-7" d="M1136.88,882.62a9.64,9.64,0,0,1-7.28-2.78q-2.71-2.77-2.71-8.55V856.21h4.37v14.61q0,8.05,6.6,8.06a7.24,7.24,0,0,0,5.59-2.42c1.48-1.61,2.21-3.91,2.21-6.89V856.21H1150V882h-4l-.31-4.63a9.06,9.06,0,0,1-3.56,3.85A10.23,10.23,0,0,1,1136.88,882.62Z" transform="translate(-376.9 -44.94)"/><path class="cls-7" d="M1168.8,882.62a12.61,12.61,0,0,1-6.55-1.69,11.91,11.91,0,0,1-4.5-4.7,16.41,16.41,0,0,1,0-14.22,11.73,11.73,0,0,1,4.49-4.74,13.09,13.09,0,0,1,6.69-1.69,12.11,12.11,0,0,1,6.47,1.69,11.47,11.47,0,0,1,4.19,4.45,12.5,12.5,0,0,1,1.45,5.93c0,.38,0,.76,0,1.14s0,.82,0,1.3h-20.54a10.15,10.15,0,0,0,1.38,4.92,8,8,0,0,0,3.07,2.93,8.18,8.18,0,0,0,3.92,1,7.77,7.77,0,0,0,4.53-1.25,7.14,7.14,0,0,0,2.65-3.38h4.31a11.29,11.29,0,0,1-11.49,8.32Zm0-23.34a8.77,8.77,0,0,0-5.54,1.89,7.67,7.67,0,0,0-2.78,5.54h16.23a7.42,7.42,0,0,0-2.4-5.46A8,8,0,0,0,1168.8,859.28Z" transform="translate(-376.9 -44.94)"/><path class="cls-7" d="M1196.83,873.89a13.33,13.33,0,0,1-4-.57l-2.6,2.44a5,5,0,0,0,1.43.7,14.44,14.44,0,0,0,2.47.52c1.07.16,2.58.32,4.52.5q5.2.36,7.44,2.39a6.82,6.82,0,0,1,2.23,5.3,8.22,8.22,0,0,1-1.22,4.27,9,9,0,0,1-3.74,3.32,14.1,14.1,0,0,1-6.48,1.3,19.33,19.33,0,0,1-6.19-.91,9,9,0,0,1-4.21-2.75,7.15,7.15,0,0,1-1.51-4.66,7.51,7.51,0,0,1,.78-3.14,8.38,8.38,0,0,1,2.92-3.2,10.37,10.37,0,0,1-2-1,9.84,9.84,0,0,1-1.49-1.23V876l4.42-4.37a8.56,8.56,0,0,1-3.06-6.86,9.1,9.1,0,0,1,1.19-4.63,8.5,8.5,0,0,1,3.49-3.3,11.59,11.59,0,0,1,5.56-1.23,12.4,12.4,0,0,1,4.06.63h9.51v3.27l-4.83.21a8.71,8.71,0,0,1,1.5,5,8.89,8.89,0,0,1-1.22,4.62,8.75,8.75,0,0,1-3.48,3.31A11.6,11.6,0,0,1,1196.83,873.89Zm-7.59,11.44a4.2,4.2,0,0,0,2.18,3.87,10.71,10.71,0,0,0,5.46,1.28,8.66,8.66,0,0,0,5.18-1.41,4.38,4.38,0,0,0,2-3.74,3.8,3.8,0,0,0-1.36-2.89q-1.35-1.22-5-1.43c-1.9-.14-3.55-.31-4.94-.52a6.42,6.42,0,0,0-2.81,2.47A5.33,5.33,0,0,0,1189.24,885.33Zm7.59-15a6.44,6.44,0,0,0,4.39-1.43,6,6,0,0,0,0-8.22,6.44,6.44,0,0,0-4.39-1.43,6.57,6.57,0,0,0-4.45,1.43,6,6,0,0,0,0,8.22A6.57,6.57,0,0,0,1196.83,870.3Z" transform="translate(-376.9 -44.94)"/><path class="cls-7" d="M1226.05,882.62a13,13,0,0,1-6.55-1.66,12,12,0,0,1-4.6-4.71,14.43,14.43,0,0,1-1.69-7.15,14.28,14.28,0,0,1,1.72-7.15,12.14,12.14,0,0,1,4.65-4.7,13.11,13.11,0,0,1,6.58-1.67,13,13,0,0,1,6.55,1.67,12,12,0,0,1,4.6,4.7,14.48,14.48,0,0,1,1.69,7.15,14.33,14.33,0,0,1-1.71,7.15,12.19,12.19,0,0,1-4.66,4.71A13.1,13.1,0,0,1,1226.05,882.62Zm0-3.74a8.26,8.26,0,0,0,4.16-1.09,8,8,0,0,0,3.12-3.28,11.1,11.1,0,0,0,1.2-5.41,11.32,11.32,0,0,0-1.17-5.4,8,8,0,0,0-3.09-3.28,8.39,8.39,0,0,0-8.27,0,8.11,8.11,0,0,0-3.12,3.28,12.77,12.77,0,0,0,0,10.81,8.25,8.25,0,0,0,3.09,3.28A8,8,0,0,0,1226.05,878.88Z" transform="translate(-376.9 -44.94)"/><path class="cls-7" d="M1258.87,893.44V856.21h4l.41,4.26a12.25,12.25,0,0,1,3.57-3.38,10.65,10.65,0,0,1,5.9-1.51,12.51,12.51,0,0,1,6.71,1.77,12.14,12.14,0,0,1,4.44,4.84,14.91,14.91,0,0,1,1.59,7,14.76,14.76,0,0,1-1.59,6.94,11.91,11.91,0,0,1-4.47,4.78,12.78,12.78,0,0,1-6.73,1.74,11.92,11.92,0,0,1-5.65-1.3,9,9,0,0,1-3.77-3.64v15.76Zm13.31-14.61a8.53,8.53,0,0,0,4.57-1.22,8.68,8.68,0,0,0,3.13-3.41,12,12,0,0,0,0-10.19,8.68,8.68,0,0,0-3.13-3.41,9.19,9.19,0,0,0-9.15,0,8.65,8.65,0,0,0-3.12,3.41,12,12,0,0,0,0,10.19,8.65,8.65,0,0,0,3.12,3.41A8.57,8.57,0,0,0,1272.18,878.83Z" transform="translate(-376.9 -44.94)"/><path class="cls-7" d="M1300.1,882.62a11.63,11.63,0,0,1-5.35-1.09,7.46,7.46,0,0,1-3.18-2.91,7.85,7.85,0,0,1-1-4,7,7,0,0,1,3-6.09q3-2.13,8.22-2.13h7v-.31A6.91,6.91,0,0,0,1307,861a6.47,6.47,0,0,0-4.74-1.74,7.54,7.54,0,0,0-4.39,1.27,5.58,5.58,0,0,0-2.31,3.72h-4.48a8.33,8.33,0,0,1,1.9-4.73,10.45,10.45,0,0,1,4.08-2.94,13.39,13.39,0,0,1,5.2-1c3.61,0,6.32,1,8.14,2.89a10.7,10.7,0,0,1,2.73,7.67V882h-3.9l-.26-4.63a10.15,10.15,0,0,1-3.2,3.72A9.38,9.38,0,0,1,1300.1,882.62Zm.68-3.69a7.11,7.11,0,0,0,4.29-1.3,8.33,8.33,0,0,0,2.73-3.38,10.55,10.55,0,0,0,.93-4.37v0h-6.6q-3.86,0-5.43,1.33a4.12,4.12,0,0,0-1.59,3.3,4,4,0,0,0,1.48,3.25A6.38,6.38,0,0,0,1300.78,878.93Z" transform="translate(-376.9 -44.94)"/><path class="cls-7" d="M1319.65,882V856.21h4l.36,4.94a9.39,9.39,0,0,1,3.64-4.06,11.33,11.33,0,0,1,6-1.51v4.58h-1.19a10.8,10.8,0,0,0-4.22.81,6.31,6.31,0,0,0-3.06,2.73A10.3,10.3,0,0,0,1324,869v13Z" transform="translate(-376.9 -44.94)"/><path class="cls-7" d="M1347.11,882.62a11.68,11.68,0,0,1-5.36-1.09,7.43,7.43,0,0,1-3.17-2.91,7.85,7.85,0,0,1-1-4,7,7,0,0,1,3-6.09q3-2.13,8.21-2.13h7v-.31A6.88,6.88,0,0,0,1354,861a6.44,6.44,0,0,0-4.73-1.74,7.52,7.52,0,0,0-4.39,1.27,5.59,5.59,0,0,0-2.32,3.72h-4.47a8.26,8.26,0,0,1,1.9-4.73,10.45,10.45,0,0,1,4.08-2.94,13.36,13.36,0,0,1,5.2-1c3.61,0,6.32,1,8.14,2.89a10.7,10.7,0,0,1,2.73,7.67V882h-3.9l-.26-4.63a10.24,10.24,0,0,1-3.2,3.72A9.4,9.4,0,0,1,1347.11,882.62Zm.68-3.69a7.06,7.06,0,0,0,4.28-1.3,8.17,8.17,0,0,0,2.73-3.38,10.41,10.41,0,0,0,.94-4.37v0h-6.6q-3.86,0-5.44,1.33a4.11,4.11,0,0,0-1.58,3.3,4,4,0,0,0,1.48,3.25A6.38,6.38,0,0,0,1347.79,878.93Z" transform="translate(-376.9 -44.94)"/><path class="cls-7" d="M650,955.84V918.61h4l.41,4.26a12.21,12.21,0,0,1,3.56-3.38,10.69,10.69,0,0,1,5.91-1.51,12.45,12.45,0,0,1,6.7,1.77,12.09,12.09,0,0,1,4.45,4.84,14.91,14.91,0,0,1,1.59,7A14.76,14.76,0,0,1,675,938.5a11.91,11.91,0,0,1-4.47,4.78,12.81,12.81,0,0,1-6.74,1.74,11.91,11.91,0,0,1-5.64-1.3,9,9,0,0,1-3.77-3.64v15.76Zm13.32-14.61A8.33,8.33,0,0,0,671,936.6a11.86,11.86,0,0,0,0-10.19,8.63,8.63,0,0,0-15.39,0,12,12,0,0,0,0,10.19,8.33,8.33,0,0,0,7.7,4.63Z" transform="translate(-376.9 -44.94)"/><path class="cls-7" d="M682.66,944.4V918.61h4l.37,4.94a9.33,9.33,0,0,1,3.64-4.06,11.33,11.33,0,0,1,6-1.51v4.58h-1.2a10.75,10.75,0,0,0-4.21.81,6.33,6.33,0,0,0-3.07,2.73,10.4,10.4,0,0,0-1.14,5.3v13Z" transform="translate(-376.9 -44.94)"/><path class="cls-7" d="M710.12,945a11.68,11.68,0,0,1-5.36-1.09,7.43,7.43,0,0,1-3.17-2.91,7.75,7.75,0,0,1-1-3.95,7,7,0,0,1,3-6.09q3-2.13,8.22-2.13h7v-.31a6.88,6.88,0,0,0-1.77-5.12,6.46,6.46,0,0,0-4.73-1.74,7.55,7.55,0,0,0-4.4,1.27,5.58,5.58,0,0,0-2.31,3.72h-4.47a8.19,8.19,0,0,1,1.9-4.73,10.45,10.45,0,0,1,4.08-2.94,13.36,13.36,0,0,1,5.2-1c3.6,0,6.32,1,8.14,2.89a10.7,10.7,0,0,1,2.73,7.67V944.4h-3.9l-.26-4.63a10.24,10.24,0,0,1-3.2,3.72A9.42,9.42,0,0,1,710.12,945Zm.67-3.69a7.07,7.07,0,0,0,4.29-1.3,8.17,8.17,0,0,0,2.73-3.38,10.41,10.41,0,0,0,.94-4.37v0h-6.61q-3.84,0-5.43,1.33a4.12,4.12,0,0,0-1.59,3.3,4,4,0,0,0,1.49,3.25A6.35,6.35,0,0,0,710.79,941.33Z" transform="translate(-376.9 -44.94)"/><path class="cls-7" d="M741.52,945a13,13,0,0,1-6.63-1.69,12.11,12.11,0,0,1-4.63-4.73,15.74,15.74,0,0,1,0-14.19,12.2,12.2,0,0,1,4.63-4.74,13.13,13.13,0,0,1,6.63-1.69,12.34,12.34,0,0,1,7.72,2.4,10.37,10.37,0,0,1,4,6.39h-4.47a5.78,5.78,0,0,0-2.55-3.72,8.47,8.47,0,0,0-4.73-1.32,8.07,8.07,0,0,0-7.23,4.37,12.87,12.87,0,0,0,0,10.81,8.3,8.3,0,0,0,3.12,3.3,8,8,0,0,0,4.11,1.12A8.47,8.47,0,0,0,746.2,940a5.79,5.79,0,0,0,2.55-3.77h4.47a10.34,10.34,0,0,1-4,6.34A12.31,12.31,0,0,1,741.52,945Z" transform="translate(-376.9 -44.94)"/><path class="cls-7" d="M768.77,944.4a8.29,8.29,0,0,1-5.56-1.72c-1.36-1.14-2-3.2-2-6.18V922.3h-4.47v-3.69h4.47l.57-6.19h3.8v6.19h7.59v3.69h-7.59v14.2c0,1.63.33,2.73,1,3.3a5.41,5.41,0,0,0,3.49.86h2.7v3.74Z" transform="translate(-376.9 -44.94)"/><path class="cls-7" d="M781.35,912.89a2.92,2.92,0,0,1-2.15-.86,2.89,2.89,0,0,1-.86-2.16,2.76,2.76,0,0,1,.86-2.08,3,3,0,0,1,2.15-.83,3,3,0,0,1,2.14.83,2.74,2.74,0,0,1,.88,2.08,2.87,2.87,0,0,1-.88,2.16A3,3,0,0,1,781.35,912.89Zm-2.18,31.51V918.61h4.37V944.4Z" transform="translate(-376.9 -44.94)"/><path class="cls-7" d="M803,945a13,13,0,0,1-6.63-1.69,12,12,0,0,1-4.63-4.73,15.74,15.74,0,0,1,0-14.19,12.13,12.13,0,0,1,4.63-4.74A13.08,13.08,0,0,1,803,918a12.36,12.36,0,0,1,7.72,2.4,10.41,10.41,0,0,1,4,6.39h-4.48a5.73,5.73,0,0,0-2.54-3.72,8.51,8.51,0,0,0-4.74-1.32,8.15,8.15,0,0,0-4.1,1.09,8,8,0,0,0-3.12,3.28,12.77,12.77,0,0,0,0,10.81,8.17,8.17,0,0,0,3.12,3.3,8,8,0,0,0,4.1,1.12,8.51,8.51,0,0,0,4.74-1.32,5.74,5.74,0,0,0,2.54-3.77h4.48a10.31,10.31,0,0,1-4,6.34A12.28,12.28,0,0,1,803,945Z" transform="translate(-376.9 -44.94)"/><path class="cls-7" d="M829.35,945a11.71,11.71,0,0,1-5.36-1.09,7.49,7.49,0,0,1-3.17-2.91,7.85,7.85,0,0,1-1-3.95,7,7,0,0,1,3-6.09q3-2.13,8.21-2.13h7v-.31a6.88,6.88,0,0,0-1.77-5.12,6.43,6.43,0,0,0-4.73-1.74,7.52,7.52,0,0,0-4.39,1.27,5.62,5.62,0,0,0-2.32,3.72H820.3a8.33,8.33,0,0,1,1.9-4.73,10.45,10.45,0,0,1,4.08-2.94,13.36,13.36,0,0,1,5.2-1c3.61,0,6.32,1,8.14,2.89a10.7,10.7,0,0,1,2.73,7.67V944.4h-3.9l-.26-4.63a10.15,10.15,0,0,1-3.2,3.72A9.38,9.38,0,0,1,829.35,945Zm.68-3.69a7.11,7.11,0,0,0,4.29-1.3,8.33,8.33,0,0,0,2.73-3.38,10.55,10.55,0,0,0,.93-4.37v0h-6.6q-3.86,0-5.44,1.33a4.14,4.14,0,0,0-1.58,3.3,4,4,0,0,0,1.48,3.25A6.38,6.38,0,0,0,830,941.33Z" transform="translate(-376.9 -44.94)"/><path class="cls-7" d="M848.9,944.4V918.61h4l.37,4.94a9.33,9.33,0,0,1,3.64-4.06,11.33,11.33,0,0,1,6-1.51v4.58h-1.2a10.75,10.75,0,0,0-4.21.81,6.37,6.37,0,0,0-3.07,2.73,10.4,10.4,0,0,0-1.14,5.3v13Z" transform="translate(-376.9 -44.94)"/><path class="cls-7" d="M891.44,945a12.33,12.33,0,0,1-7.7-2.34,9.11,9.11,0,0,1-3.59-6.34h4.47a6.21,6.21,0,0,0,2.16,3.51,7,7,0,0,0,4.71,1.48,5.9,5.9,0,0,0,4-1.17,3.6,3.6,0,0,0,1.3-2.78,3.08,3.08,0,0,0-1.69-3.12,22.06,22.06,0,0,0-4.75-1.4,26.82,26.82,0,0,1-4.16-1.2,9.52,9.52,0,0,1-3.49-2.21,5.17,5.17,0,0,1-1.4-3.77,7,7,0,0,1,2.52-5.54,10.16,10.16,0,0,1,6.84-2.16,10.59,10.59,0,0,1,6.73,2.06,8.17,8.17,0,0,1,3,5.85h-4.31a4.52,4.52,0,0,0-1.69-3.1,6.09,6.09,0,0,0-3.82-1.11,5.86,5.86,0,0,0-3.62,1,3.13,3.13,0,0,0-1.27,2.6,2.7,2.7,0,0,0,1.64,2.45,17.66,17.66,0,0,0,4.44,1.51,37.76,37.76,0,0,1,4.55,1.27,8.57,8.57,0,0,1,3.54,2.24,6,6,0,0,1,1.38,4.29,7,7,0,0,1-2.63,5.74A10.87,10.87,0,0,1,891.44,945Z" transform="translate(-376.9 -44.94)"/><path class="cls-7" d="M919.31,945a12.94,12.94,0,0,1-6.55-1.66,12,12,0,0,1-4.61-4.71,14.54,14.54,0,0,1-1.69-7.15,14.39,14.39,0,0,1,1.72-7.15,12.21,12.21,0,0,1,4.65-4.7,13.14,13.14,0,0,1,6.58-1.67,13,13,0,0,1,6.55,1.67,12,12,0,0,1,4.61,4.7,14.59,14.59,0,0,1,1.69,7.15,14.33,14.33,0,0,1-1.72,7.15,12.17,12.17,0,0,1-4.65,4.71A13.13,13.13,0,0,1,919.31,945Zm0-3.74a8.07,8.07,0,0,0,7.28-4.37,11.1,11.1,0,0,0,1.19-5.41,11.32,11.32,0,0,0-1.17-5.4,8,8,0,0,0-3.09-3.28,8.16,8.16,0,0,0-4.11-1.09,8.07,8.07,0,0,0-7.28,4.37,12.87,12.87,0,0,0,0,10.81,8.2,8.2,0,0,0,3.1,3.28A8,8,0,0,0,919.31,941.28Z" transform="translate(-376.9 -44.94)"/><path class="cls-7" d="M938.34,944.4V907h4.37V944.4Z" transform="translate(-376.9 -44.94)"/><path class="cls-7" d="M961.64,945a13,13,0,0,1-6.56-1.66,12,12,0,0,1-4.6-4.71,14.43,14.43,0,0,1-1.69-7.15,14.28,14.28,0,0,1,1.72-7.15,12.14,12.14,0,0,1,4.65-4.7,13.11,13.11,0,0,1,6.58-1.67,13,13,0,0,1,6.55,1.67,12,12,0,0,1,4.6,4.7,14.48,14.48,0,0,1,1.69,7.15,14.33,14.33,0,0,1-1.71,7.15,12.19,12.19,0,0,1-4.66,4.71A13.09,13.09,0,0,1,961.64,945Zm0-3.74a8.29,8.29,0,0,0,4.16-1.09,8.18,8.18,0,0,0,3.12-3.28,13,13,0,0,0,0-10.81,8,8,0,0,0-3.09-3.28,8.18,8.18,0,0,0-11.39,3.28,12.77,12.77,0,0,0,0,10.81,8.25,8.25,0,0,0,3.09,3.28A8.06,8.06,0,0,0,961.64,941.28Z" transform="translate(-376.9 -44.94)"/><path class="cls-7" d="M1006.2,945a12.94,12.94,0,0,1-6.55-1.66,12.07,12.07,0,0,1-4.61-4.71,14.53,14.53,0,0,1-1.68-7.15,14.38,14.38,0,0,1,1.71-7.15,12.17,12.17,0,0,1,4.66-4.7,13.74,13.74,0,0,1,13.13,0,12.09,12.09,0,0,1,4.6,4.7,14.59,14.59,0,0,1,1.69,7.15,14.23,14.23,0,0,1-1.72,7.15,12.1,12.1,0,0,1-4.65,4.71A13.1,13.1,0,0,1,1006.2,945Zm0-3.74a8.07,8.07,0,0,0,7.28-4.37,11.1,11.1,0,0,0,1.2-5.41,11.32,11.32,0,0,0-1.17-5.4,8,8,0,0,0-3.1-3.28,8.16,8.16,0,0,0-4.11-1.09,8.29,8.29,0,0,0-4.16,1.09A8.18,8.18,0,0,0,999,926.1a12.87,12.87,0,0,0,0,10.81,8.2,8.2,0,0,0,3.1,3.28A8,8,0,0,0,1006.2,941.28Z" transform="translate(-376.9 -44.94)"/><path class="cls-7" d="M1050.87,945a13,13,0,0,1-6.63-1.69,12,12,0,0,1-4.63-4.73,15.74,15.74,0,0,1,0-14.19,12.13,12.13,0,0,1,4.63-4.74,13.1,13.1,0,0,1,6.63-1.69,12.36,12.36,0,0,1,7.72,2.4,10.41,10.41,0,0,1,4,6.39h-4.48a5.73,5.73,0,0,0-2.54-3.72,8.48,8.48,0,0,0-4.74-1.32,8.15,8.15,0,0,0-4.1,1.09,8,8,0,0,0-3.12,3.28,12.77,12.77,0,0,0,0,10.81,8.17,8.17,0,0,0,3.12,3.3,8,8,0,0,0,4.1,1.12,8.48,8.48,0,0,0,4.74-1.32,5.74,5.74,0,0,0,2.54-3.77h4.48a10.34,10.34,0,0,1-4,6.34A12.33,12.33,0,0,1,1050.87,945Z" transform="translate(-376.9 -44.94)"/><path class="cls-7" d="M1080.4,945a13,13,0,0,1-6.55-1.66,12,12,0,0,1-4.6-4.71,15.89,15.89,0,0,1,0-14.3,12.24,12.24,0,0,1,4.66-4.7,13.11,13.11,0,0,1,6.58-1.67,13,13,0,0,1,6.55,1.67,12.09,12.09,0,0,1,4.6,4.7,14.48,14.48,0,0,1,1.69,7.15,14.23,14.23,0,0,1-1.72,7.15,12.1,12.1,0,0,1-4.65,4.71A13.1,13.1,0,0,1,1080.4,945Zm0-3.74a8.07,8.07,0,0,0,7.28-4.37,11.1,11.1,0,0,0,1.2-5.41,11.32,11.32,0,0,0-1.17-5.4,7.94,7.94,0,0,0-3.1-3.28,8.15,8.15,0,0,0-4.1-1.09,8.26,8.26,0,0,0-4.16,1.09,8,8,0,0,0-3.12,3.28,12.77,12.77,0,0,0,0,10.81,8,8,0,0,0,7.17,4.37Z" transform="translate(-376.9 -44.94)"/><path class="cls-7" d="M1099.43,944.4V918.61h4l.26,4.63a9.3,9.3,0,0,1,3.58-3.85,10.09,10.09,0,0,1,5.31-1.41,9.73,9.73,0,0,1,7.3,2.79q2.73,2.78,2.73,8.55V944.4h-4.36V929.79q0-8.06-6.66-8.06a7.18,7.18,0,0,0-5.54,2.42q-2.21,2.42-2.21,6.89V944.4Z" transform="translate(-376.9 -44.94)"/><path class="cls-7" d="M1151.54,945a11.68,11.68,0,0,1-5.36-1.09A7.43,7.43,0,0,1,1143,941a7.85,7.85,0,0,1-1-3.95,7,7,0,0,1,3-6.09q3-2.13,8.21-2.13h7v-.31a6.88,6.88,0,0,0-1.77-5.12,6.44,6.44,0,0,0-4.73-1.74,7.52,7.52,0,0,0-4.39,1.27,5.55,5.55,0,0,0-2.32,3.72h-4.47a8.26,8.26,0,0,1,1.9-4.73,10.45,10.45,0,0,1,4.08-2.94,13.36,13.36,0,0,1,5.2-1c3.61,0,6.32,1,8.14,2.89a10.7,10.7,0,0,1,2.73,7.67V944.4h-3.9l-.26-4.63a10.24,10.24,0,0,1-3.2,3.72A9.4,9.4,0,0,1,1151.54,945Zm.67-3.69a7.07,7.07,0,0,0,4.29-1.3,8.17,8.17,0,0,0,2.73-3.38,10.41,10.41,0,0,0,.94-4.37v0h-6.6q-3.85,0-5.44,1.33a4.11,4.11,0,0,0-1.58,3.3,4,4,0,0,0,1.48,3.25A6.37,6.37,0,0,0,1152.21,941.33Z" transform="translate(-376.9 -44.94)"/><path class="cls-7" d="M1171.09,944.4V918.61h4l.31,3.74a8.79,8.79,0,0,1,3.33-3.22,9.6,9.6,0,0,1,4.68-1.15,10.58,10.58,0,0,1,5.28,1.25,8.17,8.17,0,0,1,3.4,3.8,10,10,0,0,1,3.72-3.69,10.19,10.19,0,0,1,5.12-1.36,9.92,9.92,0,0,1,7.39,2.79q2.76,2.78,2.76,8.55V944.4h-4.32V929.79q0-4-1.61-6a5.56,5.56,0,0,0-4.63-2,6.49,6.49,0,0,0-5.18,2.42c-1.36,1.61-2,3.91-2,6.89V944.4h-4.37V929.79q0-4-1.61-6a5.54,5.54,0,0,0-4.63-2,6.43,6.43,0,0,0-5.12,2.42q-2.05,2.42-2,6.89V944.4Z" transform="translate(-376.9 -44.94)"/><path class="cls-7" d="M1220.28,912.89a2.94,2.94,0,0,1-3-3,2.8,2.8,0,0,1,.86-2.08,3.19,3.19,0,0,1,4.29,0,2.75,2.75,0,0,1,.89,2.08,2.88,2.88,0,0,1-.89,2.16A3,3,0,0,1,1220.28,912.89Zm-2.18,31.51V918.61h4.36V944.4Z" transform="translate(-376.9 -44.94)"/><path class="cls-7" d="M1240.25,936.29a13.4,13.4,0,0,1-4-.57l-2.6,2.44a5.29,5.29,0,0,0,1.43.7,14.89,14.89,0,0,0,2.47.52c1.08.16,2.59.32,4.53.5,3.47.24,5.94,1,7.43,2.39a6.79,6.79,0,0,1,2.24,5.3,8.22,8.22,0,0,1-1.22,4.27,9,9,0,0,1-3.74,3.32,14.1,14.1,0,0,1-6.48,1.3,19.33,19.33,0,0,1-6.19-.91,9,9,0,0,1-4.21-2.75,7.09,7.09,0,0,1-1.51-4.66,7.54,7.54,0,0,1,.78-3.14,8.43,8.43,0,0,1,2.91-3.2,11,11,0,0,1-1.95-1,10.28,10.28,0,0,1-1.48-1.23v-1.19l4.42-4.37a8.56,8.56,0,0,1-3.07-6.86,9.11,9.11,0,0,1,1.2-4.63,8.54,8.54,0,0,1,3.48-3.3,11.64,11.64,0,0,1,5.57-1.23,12.29,12.29,0,0,1,4,.63h9.52v3.27l-4.84.21a8.65,8.65,0,0,1,1.51,5,9,9,0,0,1-1.22,4.62,8.82,8.82,0,0,1-3.48,3.31A11.6,11.6,0,0,1,1240.25,936.29Zm-7.59,11.44a4.18,4.18,0,0,0,2.18,3.87,10.71,10.71,0,0,0,5.46,1.28,8.63,8.63,0,0,0,5.17-1.41,4.35,4.35,0,0,0,2-3.74,3.79,3.79,0,0,0-1.35-2.89q-1.35-1.22-5-1.43c-1.91-.14-3.55-.31-4.94-.52a6.48,6.48,0,0,0-2.81,2.47A5.33,5.33,0,0,0,1232.66,947.73Zm7.59-15a6.44,6.44,0,0,0,4.39-1.43,6,6,0,0,0,0-8.22,6.44,6.44,0,0,0-4.39-1.43,6.55,6.55,0,0,0-4.45,1.43,6,6,0,0,0,0,8.22A6.55,6.55,0,0,0,1240.25,932.7Z" transform="translate(-376.9 -44.94)"/><path class="cls-7" d="M1269.47,945a12.94,12.94,0,0,1-6.55-1.66,12,12,0,0,1-4.6-4.71,15.89,15.89,0,0,1,0-14.3,12.24,12.24,0,0,1,4.66-4.7,13.11,13.11,0,0,1,6.58-1.67,13,13,0,0,1,6.55,1.67,12.09,12.09,0,0,1,4.6,4.7,14.48,14.48,0,0,1,1.69,7.15,14.23,14.23,0,0,1-1.72,7.15,12.1,12.1,0,0,1-4.65,4.71A13.1,13.1,0,0,1,1269.47,945Zm0-3.74a8.26,8.26,0,0,0,4.16-1.09,8.11,8.11,0,0,0,3.12-3.28,11.1,11.1,0,0,0,1.2-5.41,11.32,11.32,0,0,0-1.17-5.4,7.94,7.94,0,0,0-3.1-3.28,8.15,8.15,0,0,0-4.1-1.09,8.26,8.26,0,0,0-4.16,1.09,8,8,0,0,0-3.12,3.28,12.77,12.77,0,0,0,0,10.81,8.18,8.18,0,0,0,3.09,3.28A8,8,0,0,0,1269.47,941.28Z" transform="translate(-376.9 -44.94)"/><path class="cls-7" d="M1298.38,945a12.3,12.3,0,0,1-7.69-2.34,9.11,9.11,0,0,1-3.59-6.34h4.47a6.21,6.21,0,0,0,2.16,3.51,7,7,0,0,0,4.71,1.48,5.92,5.92,0,0,0,4-1.17,3.6,3.6,0,0,0,1.3-2.78,3.08,3.08,0,0,0-1.69-3.12,22.17,22.17,0,0,0-4.76-1.4,27.46,27.46,0,0,1-4.16-1.2,9.57,9.57,0,0,1-3.48-2.21,5.13,5.13,0,0,1-1.4-3.77,7,7,0,0,1,2.52-5.54,10.16,10.16,0,0,1,6.84-2.16,10.61,10.61,0,0,1,6.73,2.06,8.21,8.21,0,0,1,3,5.85h-4.31a4.55,4.55,0,0,0-1.69-3.1,6.1,6.1,0,0,0-3.83-1.11,5.83,5.83,0,0,0-3.61,1,3.13,3.13,0,0,0-1.27,2.6,2.71,2.71,0,0,0,1.63,2.45,17.89,17.89,0,0,0,4.45,1.51,38.28,38.28,0,0,1,4.55,1.27,8.57,8.57,0,0,1,3.54,2.24,6.09,6.09,0,0,1,1.37,4.29,7,7,0,0,1-2.62,5.74A10.9,10.9,0,0,1,1298.38,945Z" transform="translate(-376.9 -44.94)"/></svg>