<svg id="Capa_1" data-name="Capa 1" xmlns="http://www.w3.org/2000/svg" xmlns:xlink="http://www.w3.org/1999/xlink" width="1101.78" height="934.92" viewBox="0 0 1101.78 934.92"><defs><style>.cls-1{mask:url(#mask);}.cls-2{mix-blend-mode:multiply;fill:url(#linear-gradient);}.cls-3{fill:#2a55ff;}.cls-4{fill:url(#linear-gradient-2);}.cls-5{fill:url(#linear-gradient-3);}.cls-6{fill:url(#linear-gradient-4);}.cls-7{fill:url(#linear-gradient-5);}.cls-8{fill:url(#linear-gradient-6);}.cls-9{fill:url(#linear-gradient-7);}.cls-10{fill:url(#linear-gradient-8);}.cls-11{fill:url(#linear-gradient-9);}.cls-12{mask:url(#mask-2);}.cls-13{fill:url(#linear-gradient-10);}.cls-14{fill:url(#linear-gradient-11);}.cls-15{fill:url(#linear-gradient-12);}.cls-16{fill:url(#Degradado_sin_nombre_37);}.cls-17{fill:#fff;}.cls-18{fill:url(#Degradado_sin_nombre_41);}.cls-19{fill:url(#Degradado_sin_nombre_73);}.cls-20{fill:#757575;}.cls-21{fill:url(#Degradado_sin_nombre_106);}.cls-22{filter:url(#luminosity-noclip-2);}.cls-23{filter:url(#luminosity-noclip);}</style><filter id="luminosity-noclip" x="901.75" y="-8732" width="116.49" height="32766" filterUnits="userSpaceOnUse" color-interpolation-filters="sRGB"><feFlood flood-color="#fff" result="bg"/><feBlend in="SourceGraphic" in2="bg"/></filter><mask id="mask" x="901.75" y="-8732" width="116.49" height="32766" maskUnits="userSpaceOnUse"><g class="cls-23"/></mask><linearGradient id="linear-gradient" x1="901.75" y1="975.74" x2="1018.25" y2="975.74" gradientUnits="userSpaceOnUse"><stop offset="0" stop-color="#ccc"/><stop offset="0.52" stop-color="#b3b3b3"/><stop offset="0.77" stop-color="#b5b5b5"/><stop offset="0.89" stop-color="#bdbdbd"/><stop offset="0.99" stop-color="#cacaca"/><stop offset="1" stop-color="#ccc"/></linearGradient><linearGradient id="linear-gradient-2" x1="963.31" y1="969.63" x2="963.31" y2="536.41" gradientUnits="userSpaceOnUse"><stop offset="0" stop-color="#9a9a9a"/><stop offset="0.09" stop-color="#a2a2a2"/><stop offset="0.24" stop-color="#b8b8b8"/><stop offset="0.42" stop-color="#dbdbdb"/><stop offset="0.45" stop-color="#e2e2e2"/><stop offset="1" stop-color="#c5c5c5"/></linearGradient><linearGradient id="linear-gradient-3" x1="963.29" y1="556.19" x2="963.29" y2="533.58" gradientUnits="userSpaceOnUse"><stop offset="0" stop-color="#404040"/><stop offset="0.28" stop-color="#434343"/><stop offset="0.45" stop-color="#4b4b4b"/><stop offset="0.59" stop-color="#595959"/><stop offset="0.71" stop-color="#6d6d6d"/><stop offset="0.82" stop-color="#888"/><stop offset="0.92" stop-color="#a7a7a7"/><stop offset="1" stop-color="#c5c5c5"/></linearGradient><linearGradient id="linear-gradient-4" x1="143.79" y1="917.94" x2="549.82" y2="917.94" gradientUnits="userSpaceOnUse"><stop offset="0" stop-color="#929292"/><stop offset="0.01" stop-color="#c1c1c1"/><stop offset="0.03" stop-color="#b2b2b2"/><stop offset="0.05" stop-color="#9c9c9c"/><stop offset="0.07" stop-color="#a4a4a4"/><stop offset="0.09" stop-color="#afafaf"/><stop offset="1" stop-color="#cfcfcf"/></linearGradient><linearGradient id="linear-gradient-5" x1="143.79" y1="911.49" x2="955.84" y2="911.49" gradientUnits="userSpaceOnUse"><stop offset="0.01" stop-color="#f8f8f8"/><stop offset="0.06" stop-color="#d0d0d0"/><stop offset="0.5" stop-color="#f8f8f8"/><stop offset="0.87" stop-color="#d0d0d0"/><stop offset="0.88" stop-color="#d3d3d3"/><stop offset="0.95" stop-color="#e9e9e9"/><stop offset="1" stop-color="#f1f1f1"/></linearGradient><linearGradient id="linear-gradient-6" x1="549.82" y1="917.94" x2="955.84" y2="917.94" gradientUnits="userSpaceOnUse"><stop offset="0" stop-color="#cfcfcf"/><stop offset="0.91" stop-color="#afafaf"/><stop offset="0.93" stop-color="#a4a4a4"/><stop offset="0.95" stop-color="#9c9c9c"/><stop offset="0.97" stop-color="#b2b2b2"/><stop offset="0.99" stop-color="#c1c1c1"/><stop offset="1" stop-color="#929292"/></linearGradient><linearGradient id="linear-gradient-7" x1="143.79" y1="917.58" x2="549.82" y2="917.58" gradientUnits="userSpaceOnUse"><stop offset="0" stop-color="#666"/><stop offset="0.01" stop-color="#d5d5d5"/><stop offset="0.02" stop-color="#bdbdbd"/><stop offset="0.04" stop-color="#868686"/><stop offset="0.05" stop-color="#707070"/><stop offset="0.06" stop-color="#787878"/><stop offset="0.07" stop-color="#8e8e8e"/><stop offset="0.09" stop-color="#b2b2b2"/><stop offset="0.09" stop-color="#bcbcbc"/><stop offset="1" stop-color="#f1f1f1"/></linearGradient><linearGradient id="linear-gradient-8" x1="549.82" y1="917.58" x2="955.84" y2="917.58" gradientUnits="userSpaceOnUse"><stop offset="0" stop-color="#f1f1f1"/><stop offset="0.91" stop-color="#bcbcbc"/><stop offset="0.91" stop-color="#b2b2b2"/><stop offset="0.93" stop-color="#8e8e8e"/><stop offset="0.94" stop-color="#787878"/><stop offset="0.95" stop-color="#707070"/><stop offset="0.96" stop-color="#868686"/><stop offset="0.98" stop-color="#bdbdbd"/><stop offset="0.99" stop-color="#d5d5d5"/><stop offset="1" stop-color="#666"/></linearGradient><linearGradient id="linear-gradient-9" x1="902.21" y1="975.39" x2="1017.79" y2="975.39" gradientUnits="userSpaceOnUse"><stop offset="0" stop-color="#9f9f9f"/><stop offset="0.04" stop-color="#acacac"/><stop offset="0.51" stop-color="#e5e5e5"/><stop offset="0.96" stop-color="#acacac"/><stop offset="1" stop-color="#9f9f9f"/></linearGradient><filter id="luminosity-noclip-2" x="901.75" y="970.69" width="116.49" height="10.1" filterUnits="userSpaceOnUse" color-interpolation-filters="sRGB"><feFlood flood-color="#fff" result="bg"/><feBlend in="SourceGraphic" in2="bg"/></filter><mask id="mask-2" x="491.57" y="911.19" width="116.49" height="10.1" maskUnits="userSpaceOnUse"><g class="cls-22"><g transform="translate(-410.18 -59.5)"><g class="cls-1"><path class="cls-2" d="M1017.8,970.69a9.42,9.42,0,0,1-9.42,9.41H911.62a9.41,9.41,0,0,1-9.41-9.41h-.46v.7a9.41,9.41,0,0,0,9.41,9.4h97.68a9.4,9.4,0,0,0,9.41-9.4v-.7Z"/></g></g></g></mask><linearGradient id="linear-gradient-10" x1="901.75" y1="975.74" x2="1018.25" y2="975.74" gradientUnits="userSpaceOnUse"><stop offset="0" stop-color="#f7f7f7"/><stop offset="0.52" stop-color="#f8f8f8"/><stop offset="1" stop-color="#f7f7f7"/></linearGradient><linearGradient id="linear-gradient-11" x1="960" y1="994.42" x2="960" y2="983.59" gradientUnits="userSpaceOnUse"><stop offset="0" stop-color="#575757"/><stop offset="0.74" stop-color="#b9b9b9"/><stop offset="0.85" stop-color="#b6b6b6"/><stop offset="0.94" stop-color="#acacac"/><stop offset="1" stop-color="#9f9f9f"/></linearGradient><linearGradient id="linear-gradient-12" x1="300.02" y1="441.99" x2="806.19" y2="948.15" gradientUnits="userSpaceOnUse"><stop offset="0" stop-color="#f2f3f4"/><stop offset="0.36" stop-color="#edeeef"/><stop offset="0.78" stop-color="#dfe0e0"/><stop offset="1" stop-color="#d5d6d6"/></linearGradient><linearGradient id="Degradado_sin_nombre_37" x1="692.72" y1="677.08" x2="692.72" y2="538.14" gradientTransform="translate(72.29 -39.26)" gradientUnits="userSpaceOnUse"><stop offset="0" stop-color="#388659"/><stop offset="0.03" stop-color="#3d8a54"/><stop offset="0.2" stop-color="#5ea236"/><stop offset="0.39" stop-color="#77b61e"/><stop offset="0.58" stop-color="#8ac30d"/><stop offset="0.78" stop-color="#94cb03"/><stop offset="1" stop-color="#98ce00"/></linearGradient><linearGradient id="Degradado_sin_nombre_41" x1="984.59" y1="525.55" x2="984.59" y2="329.41" gradientTransform="translate(-5.34 -4.01)" gradientUnits="userSpaceOnUse"><stop offset="0" stop-color="#6a041d"/><stop offset="0.06" stop-color="#7c0427"/><stop offset="0.2" stop-color="#a4023c"/><stop offset="0.35" stop-color="#c5024e"/><stop offset="0.5" stop-color="#de015c"/><stop offset="0.65" stop-color="#f10066"/><stop offset="0.82" stop-color="#fb006c"/><stop offset="1" stop-color="#ff006e"/></linearGradient><linearGradient id="Degradado_sin_nombre_73" x1="1142.01" y1="637.75" x2="1142.01" y2="519.04" gradientTransform="translate(21.35 9.91)" gradientUnits="userSpaceOnUse"><stop offset="0" stop-color="#00487c"/><stop offset="1" stop-color="#2a8eff"/></linearGradient><linearGradient id="Degradado_sin_nombre_106" x1="549.32" y1="795.5" x2="549.32" y2="594.5" gradientUnits="userSpaceOnUse"><stop offset="0" stop-color="#2a55ff"/><stop offset="0.18" stop-color="#276ef9"/><stop offset="0.56" stop-color="#1fade9"/><stop offset="1" stop-color="#15ffd4"/></linearGradient></defs><title>banner1</title><path class="cls-3" d="M460,117.1v-56h19.68a22.53,22.53,0,0,1,9.8,1.88,13.21,13.21,0,0,1,5.8,5.12,13.92,13.92,0,0,1,1.92,7.24c0,3.63-1,6.48-2.92,8.56a15.38,15.38,0,0,1-7,4.32,13.22,13.22,0,0,1,5.68,2.48,13.91,13.91,0,0,1,4,4.8,13.71,13.71,0,0,1,1.48,6.32,14.82,14.82,0,0,1-2.08,7.72,14.52,14.52,0,0,1-6.16,5.52,22,22,0,0,1-9.92,2Zm6.72-31.52h12.48q5.35,0,8.24-2.52a8.81,8.81,0,0,0,2.88-7,8.72,8.72,0,0,0-2.84-6.8q-2.85-2.57-8.52-2.56H466.69Zm0,25.92h12.88q5.76,0,8.88-2.68a9.34,9.34,0,0,0,3.12-7.48,9.51,9.51,0,0,0-3.28-7.56q-3.29-2.84-8.88-2.84H466.69Z" transform="translate(-410.18 -59.5)"/><path class="cls-3" d="M511.81,68.62A4.51,4.51,0,0,1,507.17,64a4.27,4.27,0,0,1,1.32-3.2,4.58,4.58,0,0,1,3.32-1.28,4.63,4.63,0,0,1,3.28,1.28,4.23,4.23,0,0,1,1.36,3.2,4.46,4.46,0,0,1-1.36,3.32A4.54,4.54,0,0,1,511.81,68.62Zm-3.36,48.48V77.42h6.72V117.1Z" transform="translate(-410.18 -59.5)"/><path class="cls-3" d="M544.69,118.06a19.45,19.45,0,0,1-10.08-2.6,18.41,18.41,0,0,1-6.92-7.24,22.63,22.63,0,0,1-2.52-11,22.91,22.91,0,0,1,2.48-10.92,18,18,0,0,1,6.92-7.28,20,20,0,0,1,10.28-2.6,18.57,18.57,0,0,1,10,2.6,17.62,17.62,0,0,1,6.44,6.84A19.29,19.29,0,0,1,563.49,95c0,.59,0,1.17,0,1.76s0,1.25,0,2h-31.6a15.52,15.52,0,0,0,2.12,7.56,12.44,12.44,0,0,0,4.72,4.52,12.62,12.62,0,0,0,6,1.52,12,12,0,0,0,7-1.92,11.05,11.05,0,0,0,4.08-5.2h6.64a18,18,0,0,1-6.12,9.16Q551.72,118.07,544.69,118.06Zm0-35.92a13.4,13.4,0,0,0-8.52,2.92,11.77,11.77,0,0,0-4.28,8.52h25a11.37,11.37,0,0,0-3.68-8.4A12.34,12.34,0,0,0,544.69,82.14Z" transform="translate(-410.18 -59.5)"/><path class="cls-3" d="M572.37,117.1V77.42h6.08l.4,7.12a14.39,14.39,0,0,1,5.52-5.92,15.55,15.55,0,0,1,8.16-2.16q7,0,11.24,4.28T608,93.9v23.2h-6.72V94.62q0-12.41-10.24-12.4a11,11,0,0,0-8.52,3.72q-3.4,3.72-3.4,10.6V117.1Z" transform="translate(-410.18 -59.5)"/><path class="cls-3" d="M628.77,117.1l-15-39.68h7l11.92,33.2,12-33.2h6.87l-15,39.68Z" transform="translate(-410.18 -59.5)"/><path class="cls-3" d="M674.84,118.06a19.5,19.5,0,0,1-10.08-2.6,18.48,18.48,0,0,1-6.92-7.24,22.74,22.74,0,0,1-2.52-11,23,23,0,0,1,2.48-10.92,18,18,0,0,1,6.93-7.28A20,20,0,0,1,675,76.46a18.55,18.55,0,0,1,10,2.6,17.55,17.55,0,0,1,6.44,6.84A19.18,19.18,0,0,1,693.65,95c0,.59,0,1.17,0,1.76s0,1.25,0,2H662a15.74,15.74,0,0,0,2.12,7.56,12.48,12.48,0,0,0,10.76,6,12,12,0,0,0,7-1.92,10.93,10.93,0,0,0,4.08-5.2h6.64a17.84,17.84,0,0,1-6.12,9.16Q681.89,118.07,674.84,118.06Zm0-35.92a13.42,13.42,0,0,0-8.52,2.92A11.8,11.8,0,0,0,662,93.58h25a11.34,11.34,0,0,0-3.68-8.4A12.31,12.31,0,0,0,674.84,82.14Z" transform="translate(-410.18 -59.5)"/><path class="cls-3" d="M702.52,117.1V77.42h6.08l.4,7.12a14.39,14.39,0,0,1,5.52-5.92,15.55,15.55,0,0,1,8.16-2.16q7.05,0,11.24,4.28t4.2,13.16v23.2H731.4V94.62q0-12.41-10.24-12.4a11.07,11.07,0,0,0-8.52,3.72q-3.39,3.72-3.4,10.6V117.1Z" transform="translate(-410.18 -59.5)"/><path class="cls-3" d="M752.36,68.62A4.51,4.51,0,0,1,747.72,64a4.27,4.27,0,0,1,1.32-3.2,4.89,4.89,0,0,1,6.6,0A4.2,4.2,0,0,1,757,64a4.43,4.43,0,0,1-1.36,3.32A4.53,4.53,0,0,1,752.36,68.62ZM749,117.1V77.42h6.72V117.1Z" transform="translate(-410.18 -59.5)"/><path class="cls-3" d="M785.4,118.06A19.48,19.48,0,0,1,775,115.34a18.5,18.5,0,0,1-6.88-7.44,23.09,23.09,0,0,1-2.44-10.72A22.5,22.5,0,0,1,768.2,86.5a18.77,18.77,0,0,1,6.88-7.36,19.59,19.59,0,0,1,10.4-2.68,18.12,18.12,0,0,1,8.64,2,14.33,14.33,0,0,1,5.84,5.6V59.5h6.72v57.6H800.6l-.64-6.56a18.62,18.62,0,0,1-5.52,5.2A16.34,16.34,0,0,1,785.4,118.06Zm.72-5.84a13.33,13.33,0,0,0,7.08-1.88,12.75,12.75,0,0,0,4.8-5.24,18.73,18.73,0,0,0,0-15.68,12.75,12.75,0,0,0-4.8-5.24,14.12,14.12,0,0,0-14.08,0,12.88,12.88,0,0,0-4.8,5.24,18.73,18.73,0,0,0,0,15.68,12.88,12.88,0,0,0,4.8,5.24A13.22,13.22,0,0,0,786.12,112.22Z" transform="translate(-410.18 -59.5)"/><path class="cls-3" d="M835.72,118.06a19.94,19.94,0,0,1-10.08-2.56,18.54,18.54,0,0,1-7.08-7.24,22.34,22.34,0,0,1-2.6-11,22,22,0,0,1,2.64-11A18.73,18.73,0,0,1,825.76,79a20.14,20.14,0,0,1,10.12-2.56A19.88,19.88,0,0,1,846,79,18.47,18.47,0,0,1,853,86.26a22.34,22.34,0,0,1,2.6,11,22,22,0,0,1-2.64,11,18.73,18.73,0,0,1-7.16,7.24A20.11,20.11,0,0,1,835.72,118.06Zm0-5.76a12.72,12.72,0,0,0,6.4-1.68,12.51,12.51,0,0,0,4.8-5,17.09,17.09,0,0,0,1.84-8.32,17.44,17.44,0,0,0-1.8-8.32,12.23,12.23,0,0,0-4.76-5,12.59,12.59,0,0,0-6.32-1.68,12.78,12.78,0,0,0-6.4,1.68,12.58,12.58,0,0,0-4.8,5,17.21,17.21,0,0,0-1.84,8.32,17.21,17.21,0,0,0,1.84,8.32,12.69,12.69,0,0,0,4.76,5A12.39,12.39,0,0,0,835.72,112.3Z" transform="translate(-410.18 -59.5)"/><path class="cls-3" d="M899.4,118.06a18,18,0,0,1-8.24-1.68,11.4,11.4,0,0,1-4.88-4.48,12,12,0,0,1-1.6-6.08,10.79,10.79,0,0,1,4.64-9.36Q894,93.18,902,93.18h10.72V92.7c0-3.47-.91-6.09-2.72-7.88a9.9,9.9,0,0,0-7.28-2.68,11.58,11.58,0,0,0-6.76,2,8.6,8.6,0,0,0-3.56,5.72h-6.88a12.75,12.75,0,0,1,2.92-7.28A16.33,16.33,0,0,1,894.68,78a20.67,20.67,0,0,1,8-1.56q8.33,0,12.52,4.44t4.2,11.8v24.4h-6L913,110a15.71,15.71,0,0,1-4.92,5.72A14.45,14.45,0,0,1,899.4,118.06Zm1-5.68a11,11,0,0,0,6.6-2,12.77,12.77,0,0,0,4.2-5.2,16.17,16.17,0,0,0,1.44-6.72v-.08H902.52c-3.95,0-6.73.68-8.36,2a6.35,6.35,0,0,0-2.44,5.08,6.15,6.15,0,0,0,2.28,5A9.89,9.89,0,0,0,900.44,112.38Z" transform="translate(-410.18 -59.5)"/><path class="cls-3" d="M951.08,117.1v-56h7.84l20.16,39,20-39H1007v56h-6.72v-44l-18.72,36h-5L957.8,73.18V117.1Z" transform="translate(-410.18 -59.5)"/><path class="cls-3" d="M1031.64,118.06a18,18,0,0,1-8.24-1.68,11.4,11.4,0,0,1-4.88-4.48,12,12,0,0,1-1.6-6.08,10.79,10.79,0,0,1,4.64-9.36q4.64-3.28,12.64-3.28h10.72V92.7c0-3.47-.91-6.09-2.72-7.88a9.9,9.9,0,0,0-7.28-2.68,11.58,11.58,0,0,0-6.76,2,8.6,8.6,0,0,0-3.56,5.72h-6.88a12.75,12.75,0,0,1,2.92-7.28,16.33,16.33,0,0,1,6.28-4.52,20.67,20.67,0,0,1,8-1.56q8.32,0,12.52,4.44t4.2,11.8v24.4h-6l-.4-7.12a15.71,15.71,0,0,1-4.92,5.72A14.45,14.45,0,0,1,1031.64,118.06Zm1-5.68a11,11,0,0,0,6.6-2,12.77,12.77,0,0,0,4.2-5.2,16.17,16.17,0,0,0,1.44-6.72v-.08h-10.16c-4,0-6.73.68-8.36,2a6.35,6.35,0,0,0-2.44,5.08,6.15,6.15,0,0,0,2.28,5A9.89,9.89,0,0,0,1032.68,112.38Z" transform="translate(-410.18 -59.5)"/><path class="cls-3" d="M1076.28,117.1q-5.44,0-8.56-2.64t-3.12-9.52V83.1h-6.88V77.42h6.88l.88-9.52h5.84v9.52H1083V83.1h-11.68v21.84q0,3.77,1.52,5.08t5.36,1.32h4.16v5.76Z" transform="translate(-410.18 -59.5)"/><path class="cls-3" d="M1091.56,117.1V59.5h6.72V84.22A14.09,14.09,0,0,1,1104,78.5a16.22,16.22,0,0,1,8-2,14.73,14.73,0,0,1,11,4.28q4.15,4.28,4.16,13.16v23.2h-6.64V94.62q0-12.41-10-12.4a11.51,11.51,0,0,0-8.72,3.72q-3.52,3.72-3.52,10.6V117.1Z" transform="translate(-410.18 -59.5)"/><path class="cls-3" d="M1158.92,117.1v-56h18.4a23.75,23.75,0,0,1,10.8,2.16,14.45,14.45,0,0,1,6.28,5.84,18,18,0,0,1,0,16.56,14.49,14.49,0,0,1-6.24,5.88,23.55,23.55,0,0,1-10.88,2.2h-11.68V117.1Zm6.72-29h11.52q6.72,0,9.56-2.84a10.54,10.54,0,0,0,2.84-7.8q0-5-2.84-7.88t-9.56-2.84h-11.52Z" transform="translate(-410.18 -59.5)"/><path class="cls-3" d="M1216.2,118.06a18,18,0,0,1-8.24-1.68,11.34,11.34,0,0,1-4.88-4.48,12,12,0,0,1-1.6-6.08,10.77,10.77,0,0,1,4.64-9.36q4.64-3.28,12.64-3.28h10.72V92.7c0-3.47-.91-6.09-2.72-7.88a9.92,9.92,0,0,0-7.28-2.68,11.56,11.56,0,0,0-6.76,2,8.56,8.56,0,0,0-3.56,5.72h-6.88a12.68,12.68,0,0,1,2.92-7.28,16.33,16.33,0,0,1,6.28-4.52,20.63,20.63,0,0,1,8-1.56q8.31,0,12.52,4.44t4.2,11.8v24.4h-6l-.4-7.12a15.71,15.71,0,0,1-4.92,5.72A14.47,14.47,0,0,1,1216.2,118.06Zm1-5.68a11,11,0,0,0,6.6-2,12.77,12.77,0,0,0,4.2-5.2,16.17,16.17,0,0,0,1.44-6.72v-.08h-10.16q-5.92,0-8.36,2a6.35,6.35,0,0,0-2.44,5.08,6.15,6.15,0,0,0,2.28,5A9.87,9.87,0,0,0,1217.24,112.38Z" transform="translate(-410.18 -59.5)"/><path class="cls-3" d="M1246.28,117.1V77.42h6.08l.56,7.6a14.36,14.36,0,0,1,5.6-6.24,17.32,17.32,0,0,1,9.28-2.32v7H1266a16.52,16.52,0,0,0-6.48,1.24,9.83,9.83,0,0,0-4.72,4.2c-1.18,2-1.76,4.69-1.76,8.16v20Z" transform="translate(-410.18 -59.5)"/><path class="cls-3" d="M1288.52,118.06a18,18,0,0,1-8.24-1.68,11.34,11.34,0,0,1-4.88-4.48,12,12,0,0,1-1.6-6.08,10.77,10.77,0,0,1,4.64-9.36q4.63-3.28,12.64-3.28h10.72V92.7c0-3.47-.91-6.09-2.72-7.88a9.92,9.92,0,0,0-7.28-2.68,11.56,11.56,0,0,0-6.76,2,8.56,8.56,0,0,0-3.56,5.72h-6.88a12.68,12.68,0,0,1,2.92-7.28A16.33,16.33,0,0,1,1283.8,78a20.63,20.63,0,0,1,8-1.56q8.31,0,12.52,4.44t4.2,11.8v24.4h-6l-.4-7.12a15.71,15.71,0,0,1-4.92,5.72A14.47,14.47,0,0,1,1288.52,118.06Zm1-5.68a11,11,0,0,0,6.6-2,12.77,12.77,0,0,0,4.2-5.2,16.17,16.17,0,0,0,1.44-6.72v-.08h-10.16q-5.92,0-8.36,2a6.35,6.35,0,0,0-2.44,5.08,6.15,6.15,0,0,0,2.28,5A9.87,9.87,0,0,0,1289.56,112.38Z" transform="translate(-410.18 -59.5)"/><path class="cls-3" d="M1336.59,118.06a19.44,19.44,0,0,1-10.35-2.72,18.43,18.43,0,0,1-6.88-7.44,23,23,0,0,1-2.44-10.72,22.38,22.38,0,0,1,2.48-10.68,18.63,18.63,0,0,1,6.88-7.36,19.53,19.53,0,0,1,10.39-2.68,18.19,18.19,0,0,1,8.65,2,14.45,14.45,0,0,1,5.84,5.6V59.5h6.72v57.6h-6.09l-.63-6.56a18.54,18.54,0,0,1-5.53,5.2A16.32,16.32,0,0,1,1336.59,118.06Zm.73-5.84a13.38,13.38,0,0,0,7.08-1.88,12.88,12.88,0,0,0,4.8-5.24,18.73,18.73,0,0,0,0-15.68,12.88,12.88,0,0,0-4.8-5.24,13.38,13.38,0,0,0-7.08-1.88,13.17,13.17,0,0,0-7,1.88,12.75,12.75,0,0,0-4.8,5.24,18.63,18.63,0,0,0,0,15.68,12.75,12.75,0,0,0,4.8,5.24A13.17,13.17,0,0,0,1337.32,112.22Z" transform="translate(-410.18 -59.5)"/><path class="cls-3" d="M1372.91,68.62a4.51,4.51,0,0,1-4.64-4.64,4.27,4.27,0,0,1,1.32-3.2,4.89,4.89,0,0,1,6.6,0,4.2,4.2,0,0,1,1.36,3.2,4.43,4.43,0,0,1-1.36,3.32A4.53,4.53,0,0,1,1372.91,68.62Zm-3.36,48.48V77.42h6.72V117.1Z" transform="translate(-410.18 -59.5)"/><path class="cls-3" d="M1403.15,118.06a19,19,0,0,1-11.84-3.6,14.08,14.08,0,0,1-5.52-9.76h6.88a9.54,9.54,0,0,0,3.32,5.4,10.81,10.81,0,0,0,7.24,2.28q4.24,0,6.24-1.8a5.56,5.56,0,0,0,2-4.28q0-3.6-2.59-4.8a34.79,34.79,0,0,0-7.33-2.16,42,42,0,0,1-6.4-1.84,14.52,14.52,0,0,1-5.36-3.4,7.93,7.93,0,0,1-2.16-5.8,10.72,10.72,0,0,1,3.88-8.52q3.88-3.32,10.52-3.32a16.28,16.28,0,0,1,10.36,3.16,12.58,12.58,0,0,1,4.68,9h-6.64a6.88,6.88,0,0,0-2.6-4.76,9.24,9.24,0,0,0-5.88-1.72,8.93,8.93,0,0,0-5.56,1.52,4.84,4.84,0,0,0-2,4,4.16,4.16,0,0,0,2.52,3.76,27.06,27.06,0,0,0,6.84,2.32,59,59,0,0,1,7,2,13.13,13.13,0,0,1,5.44,3.44c1.42,1.52,2.12,3.72,2.12,6.6a10.82,10.82,0,0,1-4,8.84Q1410.2,118.06,1403.15,118.06Z" transform="translate(-410.18 -59.5)"/><path class="cls-3" d="M1445.79,118.06a19.5,19.5,0,0,1-10.08-2.6,18.48,18.48,0,0,1-6.92-7.24,22.63,22.63,0,0,1-2.52-11,23,23,0,0,1,2.48-10.92,18.06,18.06,0,0,1,6.92-7.28,20,20,0,0,1,10.28-2.6,18.63,18.63,0,0,1,10,2.6,17.59,17.59,0,0,1,6.43,6.84,19.17,19.17,0,0,1,2.24,9.12c0,.59,0,1.17,0,1.76s0,1.25,0,2h-31.59a15.52,15.52,0,0,0,2.11,7.56,12.48,12.48,0,0,0,10.76,6,12,12,0,0,0,7-1.92,10.93,10.93,0,0,0,4.08-5.2h6.64a17.84,17.84,0,0,1-6.12,9.16Q1452.84,118.07,1445.79,118.06Zm0-35.92a13.4,13.4,0,0,0-8.52,2.92,11.8,11.8,0,0,0-4.28,8.52h25a11.34,11.34,0,0,0-3.68-8.4A12.32,12.32,0,0,0,1445.79,82.14Z" transform="translate(-410.18 -59.5)"/><path class="cls-4" d="M1272.37,536.41H654.29a19.92,19.92,0,0,0-20,19.78V969.63h2.87V553.36a16.81,16.81,0,0,1,.19-2.57c0-.28.1-.55.15-.83s.12-.55.2-.82.14-.54.23-.8a16.8,16.8,0,0,1,3.41-6c.18-.2.36-.4.56-.6l.28-.29a17.33,17.33,0,0,1,2.89-2.29c.35-.22.7-.43,1.07-.62s.73-.38,1.11-.55h0c.26-.12.51-.22.77-.32h0a17.27,17.27,0,0,1,6.28-1.18h618.08a17.16,17.16,0,0,1,8.17,2c.36.19.72.4,1.07.62s.91.61,1.34.94h0l.63.52h0c.31.27.61.54.9.83.1.1.2.19.29.29l.56.6a16.75,16.75,0,0,1,4.18,11.06V969.63h2.91V555A20,20,0,0,0,1272.37,536.41Z" transform="translate(-410.18 -59.5)"/><path class="cls-5" d="M634.2,553.37a19.92,19.92,0,0,1,20-19.79h618.08a19.93,19.93,0,0,1,20.06,19.79V555a20,20,0,0,0-20-18.54H654.3a19.92,19.92,0,0,0-20.06,19.78Z" transform="translate(-410.18 -59.5)"/><rect x="226.92" y="898.55" width="652.38" height="11.58"/><path d="M1289.48,553.46V958.05H637.1V553.46a17.1,17.1,0,0,1,17.15-17h618.08A17.1,17.1,0,0,1,1289.48,553.46Z" transform="translate(-410.18 -59.5)"/><polygon points="882.2 910.13 882.2 911.18 879.3 911.18 879.3 911.18 226.92 911.18 226.92 911.18 224.05 911.18 224.05 910.13 882.2 910.13"/><rect class="cls-6" x="143.79" y="911.8" width="406.03" height="12.29"/><rect class="cls-7" x="143.79" y="911.18" width="812.05" height="0.61"/><rect class="cls-8" x="549.82" y="911.8" width="406.03" height="12.29"/><rect class="cls-9" x="143.79" y="911.8" width="406.03" height="11.56"/><rect class="cls-10" x="549.82" y="911.8" width="406.03" height="11.56"/><path class="cls-11" d="M1017.79,970.69a9.42,9.42,0,0,1-9.41,9.41H911.61a9.41,9.41,0,0,1-9.4-9.41Z" transform="translate(-410.18 -59.5)"/><g class="cls-12"><path class="cls-13" d="M1017.8,970.69a9.42,9.42,0,0,1-9.42,9.41H911.62a9.41,9.41,0,0,1-9.41-9.41h-.46v.7a9.41,9.41,0,0,0,9.41,9.4h97.68a9.4,9.4,0,0,0,9.41-9.4v-.7Z" transform="translate(-410.18 -59.5)"/></g><path class="cls-14" d="M554,983.59a362.38,362.38,0,0,0,88.2,10.83h635.66a362.38,362.38,0,0,0,88.2-10.83H554Z" transform="translate(-410.18 -59.5)"/><rect class="cls-15" x="240.42" y="501.6" width="625.38" height="386.95"/><rect class="cls-16" x="695.54" y="498.87" width="138.94" height="138.94" rx="16" transform="translate(-575.74 303.15) rotate(-24.15)"/><path class="cls-17" d="M778.06,519.78l-58,26a7.22,7.22,0,0,0-3.62,9.51l26,58a7.22,7.22,0,0,0,9.51,3.62l58-26a7.23,7.23,0,0,0,3.63-9.51l-26-58A7.21,7.21,0,0,0,778.06,519.78Zm-37.38,46.33a9.9,9.9,0,1,1,5-13.08A9.89,9.89,0,0,1,740.68,566.11Zm28.37,11.26a9.89,9.89,0,1,1,5-13.07A9.88,9.88,0,0,1,769.05,577.37Zm26.16,10a9.9,9.9,0,1,1,5-13.08A9.91,9.91,0,0,1,795.21,587.34Z" transform="translate(-410.18 -59.5)"/><rect class="cls-18" x="881.18" y="325.4" width="196.14" height="196.14" rx="16" transform="translate(-260.01 -307.51) rotate(15.62)"/><path class="cls-17" d="M995.93,363.78a62,62,0,1,0,43,76.37A62,62,0,0,0,995.93,363.78Zm10.29,97.51s-14.26,6.64-25.87-15.21l-3.51,22.05-18.07-5.05,9.48-21.26s-20.2,12.06-29.64,1.45c0,0-7.33-11.79,5.29-18.89,0,0-7.47-14.49.71-18.41,0,0,11-7.56,27.61,12.15,0,0-16.57-29.43,1.89-38.45,0,0,13-5.23,14.6,11.17,0,0,6.86-8.71,14-5.82,0,0,21.76,14.05-13,37.1,0,0,25-7.17,29.45,5.58,0,0,2.63,9.59-9.29,14.23C1009.86,441.93,1015.68,456,1006.22,461.29Z" transform="translate(-410.18 -59.5)"/><rect class="cls-19" x="1104.01" y="528.95" width="118.71" height="118.71" rx="16" transform="translate(-122.44 -437.01) rotate(20.98)"/><path class="cls-17" d="M1175,624.58l-2-.78,3.75-9.78a9.73,9.73,0,0,0-1-6.36l-5-13.4c-1.54-3.46,2.18-5.69,2.18-5.69l13.24-6.65a6.73,6.73,0,0,0,4.19-4.13l3.66-9.55,2,.78a3.6,3.6,0,0,0,3.63-2,3.78,3.78,0,0,0-1.19-4.37l-43.88-16.83a3.21,3.21,0,0,0-3.94,2.14,3.46,3.46,0,0,0,1.14,3.83l2,1-3.84,10a9.93,9.93,0,0,0,.56,4.65l5.65,15.2c.95,3-1.92,5-1.92,5l-13.33,6.88a8.39,8.39,0,0,0-4.65,4l-3.74,9.78-2-.78c-2.94.17-3.49,2.31-3.49,2.31-1,2.5,1.5,4.23,1.5,4.23l44.33,17a4.42,4.42,0,0,0,3.36-2.62C1176.93,626.36,1175,624.58,1175,624.58Zm-8.41-3.22-28-10.73,3.49-9.09,16.34-8.6s5.87-3.75,4.16-12.22l-6.29-16.24,3.57-9.32,28,10.73-3.58,9.32-15,7.81s-7.93,5-4.83,13.27l5.7,15.74Z" transform="translate(-410.18 -59.5)"/><path class="cls-20" d="M423.13,182.85a14.68,14.68,0,0,1-6.52-1.43,10.87,10.87,0,0,1-4.68-4.42,15.09,15.09,0,0,1-1.75-7.65v-22.1h4.2V169.4q0,5.1,2.45,7.4a9,9,0,0,0,6.4,2.3,8.8,8.8,0,0,0,6.35-2.3q2.4-2.3,2.4-7.4V147.25h4.2v22.1a15,15,0,0,1-1.75,7.65,10.76,10.76,0,0,1-4.7,4.42A14.94,14.94,0,0,1,423.13,182.85Z" transform="translate(-410.18 -59.5)"/><path class="cls-20" d="M443,182.25v-24.8h3.8l.25,4.45a9,9,0,0,1,3.45-3.7,9.72,9.72,0,0,1,5.1-1.35,9.41,9.41,0,0,1,7,2.67q2.63,2.68,2.62,8.23v14.5h-4.2V168.2q0-7.75-6.4-7.75a6.89,6.89,0,0,0-5.32,2.32q-2.13,2.32-2.13,6.63v12.85Z" transform="translate(-410.18 -59.5)"/><path class="cls-20" d="M479.88,182.85a11.27,11.27,0,0,1-5.15-1,7.17,7.17,0,0,1-3.05-2.8,7.6,7.6,0,0,1-1-3.8,6.75,6.75,0,0,1,2.9-5.85,13.46,13.46,0,0,1,7.9-2h6.7V167a6.6,6.6,0,0,0-1.7-4.93,6.22,6.22,0,0,0-4.55-1.67,7.28,7.28,0,0,0-4.22,1.22,5.36,5.36,0,0,0-2.23,3.58h-4.3a8,8,0,0,1,1.83-4.55,10.28,10.28,0,0,1,3.92-2.83,13,13,0,0,1,5-1q5.2,0,7.83,2.77a10.3,10.3,0,0,1,2.62,7.38v15.25h-3.75l-.25-4.45a9.78,9.78,0,0,1-3.07,3.57A9,9,0,0,1,479.88,182.85Zm.65-3.55a6.88,6.88,0,0,0,4.13-1.25,8,8,0,0,0,2.62-3.25,10.1,10.1,0,0,0,.9-4.2v0h-6.35c-2.46,0-4.21.42-5.22,1.27a4,4,0,0,0-1.53,3.18,3.84,3.84,0,0,0,1.43,3.12A6.12,6.12,0,0,0,480.53,179.3Z" transform="translate(-410.18 -59.5)"/><path class="cls-20" d="M511.93,182.25v-24.8h3.8l.25,4.45a9,9,0,0,1,3.45-3.7,9.72,9.72,0,0,1,5.1-1.35,9.41,9.41,0,0,1,7,2.67q2.63,2.68,2.62,8.23v14.5H530V168.2q0-7.75-6.4-7.75a6.89,6.89,0,0,0-5.32,2.32q-2.13,2.32-2.13,6.63v12.85Z" transform="translate(-410.18 -59.5)"/><path class="cls-20" d="M549.58,182.85a9.29,9.29,0,0,1-7-2.68Q540,177.5,540,172v-14.5h4.2V171.5q0,7.75,6.35,7.75a7,7,0,0,0,5.38-2.33A9.49,9.49,0,0,0,558,170.3V157.45h4.2v24.8h-3.8l-.3-4.45a8.66,8.66,0,0,1-3.42,3.7A9.88,9.88,0,0,1,549.58,182.85Z" transform="translate(-410.18 -59.5)"/><path class="cls-20" d="M580.28,182.85a12.07,12.07,0,0,1-6.3-1.63,11.53,11.53,0,0,1-4.32-4.52,14.15,14.15,0,0,1-1.58-6.85,14.43,14.43,0,0,1,1.55-6.83,11.3,11.3,0,0,1,4.33-4.55,12.5,12.5,0,0,1,6.42-1.62,11.63,11.63,0,0,1,6.23,1.62,11,11,0,0,1,4,4.28,12.08,12.08,0,0,1,1.4,5.7c0,.37,0,.73,0,1.1s0,.78,0,1.25H572.23a9.65,9.65,0,0,0,1.33,4.72,7.75,7.75,0,0,0,3,2.83,7.9,7.9,0,0,0,3.77,1,7.53,7.53,0,0,0,4.35-1.2,6.81,6.81,0,0,0,2.55-3.25h4.15a10.89,10.89,0,0,1-11.05,8Zm0-22.45a8.41,8.41,0,0,0-5.32,1.82,7.37,7.37,0,0,0-2.68,5.33h15.6a7.12,7.12,0,0,0-2.3-5.25A7.69,7.69,0,0,0,580.28,160.4Z" transform="translate(-410.18 -59.5)"/><path class="cls-20" d="M603.73,182.25l-9.4-24.8h4.4l7.45,20.75,7.5-20.75H618l-9.4,24.8Z" transform="translate(-410.18 -59.5)"/><path class="cls-20" d="M629.63,182.85a11.24,11.24,0,0,1-5.15-1,7.12,7.12,0,0,1-3.05-2.8,7.5,7.5,0,0,1-1-3.8,6.75,6.75,0,0,1,2.9-5.85,13.44,13.44,0,0,1,7.9-2h6.7V167a6.64,6.64,0,0,0-1.7-4.93,6.22,6.22,0,0,0-4.55-1.67,7.28,7.28,0,0,0-4.22,1.22,5.36,5.36,0,0,0-2.23,3.58h-4.3a8,8,0,0,1,1.83-4.55,10.2,10.2,0,0,1,3.92-2.83,12.91,12.91,0,0,1,5-1q5.21,0,7.83,2.77a10.3,10.3,0,0,1,2.62,7.38v15.25h-3.75l-.25-4.45a9.78,9.78,0,0,1-3.07,3.57A9,9,0,0,1,629.63,182.85Zm.65-3.55a6.88,6.88,0,0,0,4.13-1.25A8,8,0,0,0,637,174.8a10.1,10.1,0,0,0,.9-4.2v0h-6.35q-3.71,0-5.22,1.27a4,4,0,0,0-1.53,3.18,3.84,3.84,0,0,0,1.43,3.12A6.12,6.12,0,0,0,630.28,179.3Z" transform="translate(-410.18 -59.5)"/><path class="cls-20" d="M661.68,193.25v-35.8h3.8l.4,4.1a11.69,11.69,0,0,1,3.43-3.25,10.16,10.16,0,0,1,5.67-1.45,12,12,0,0,1,6.45,1.7,11.65,11.65,0,0,1,4.28,4.65,14.47,14.47,0,0,1,1.52,6.7,14.28,14.28,0,0,1-1.52,6.67,11.42,11.42,0,0,1-4.3,4.6,12.27,12.27,0,0,1-6.48,1.68,11.49,11.49,0,0,1-5.42-1.25,8.58,8.58,0,0,1-3.63-3.5v15.15Zm12.8-14.05a8,8,0,0,0,7.4-4.45,11.46,11.46,0,0,0,0-9.8,8.3,8.3,0,0,0-14.8,0,11.46,11.46,0,0,0,0,9.8,8,8,0,0,0,7.4,4.45Z" transform="translate(-410.18 -59.5)"/><path class="cls-20" d="M693.08,182.25v-36h4.2v36Z" transform="translate(-410.18 -59.5)"/><path class="cls-20" d="M712.43,182.85a11.24,11.24,0,0,1-5.15-1,7.12,7.12,0,0,1-3-2.8,7.5,7.5,0,0,1-1-3.8,6.75,6.75,0,0,1,2.9-5.85,13.44,13.44,0,0,1,7.9-2h6.7V167a6.64,6.64,0,0,0-1.7-4.93,6.22,6.22,0,0,0-4.55-1.67,7.34,7.34,0,0,0-4.23,1.22A5.38,5.38,0,0,0,708,165.2h-4.3a8,8,0,0,1,1.82-4.55,10.24,10.24,0,0,1,3.93-2.83,12.91,12.91,0,0,1,5-1c3.47,0,6.07.92,7.82,2.77a10.3,10.3,0,0,1,2.63,7.38v15.25h-3.75l-.25-4.45a9.81,9.81,0,0,1-3.08,3.57A9,9,0,0,1,712.43,182.85Zm.65-3.55a6.85,6.85,0,0,0,4.12-1.25,8,8,0,0,0,2.63-3.25,10.1,10.1,0,0,0,.9-4.2v0h-6.35q-3.71,0-5.23,1.27a4,4,0,0,0-1.52,3.18,3.83,3.83,0,0,0,1.42,3.12A6.15,6.15,0,0,0,713.08,179.3Z" transform="translate(-410.18 -59.5)"/><path class="cls-20" d="M740.33,182.25A8,8,0,0,1,735,180.6q-2-1.65-2-5.95V161h-4.3v-3.55H733l.55-5.95h3.65v5.95h7.3V161h-7.3v13.65c0,1.57.32,2.62.95,3.17a5.17,5.17,0,0,0,3.35.83h2.6v3.6Z" transform="translate(-410.18 -59.5)"/><path class="cls-20" d="M758.13,182.85a11.24,11.24,0,0,1-5.15-1,7.12,7.12,0,0,1-3.05-2.8,7.5,7.5,0,0,1-1-3.8,6.75,6.75,0,0,1,2.9-5.85,13.44,13.44,0,0,1,7.9-2h6.7V167a6.64,6.64,0,0,0-1.7-4.93,6.22,6.22,0,0,0-4.55-1.67,7.32,7.32,0,0,0-4.23,1.22,5.38,5.38,0,0,0-2.22,3.58h-4.3a8,8,0,0,1,1.82-4.55,10.24,10.24,0,0,1,3.93-2.83,12.91,12.91,0,0,1,5-1c3.47,0,6.07.92,7.82,2.77a10.3,10.3,0,0,1,2.63,7.38v15.25h-3.75l-.25-4.45a9.81,9.81,0,0,1-3.08,3.57A9,9,0,0,1,758.13,182.85Zm.65-3.55a6.85,6.85,0,0,0,4.12-1.25,8,8,0,0,0,2.63-3.25,10.1,10.1,0,0,0,.9-4.2v0h-6.35q-3.71,0-5.23,1.27a4,4,0,0,0-1.52,3.18,3.83,3.83,0,0,0,1.42,3.12A6.13,6.13,0,0,0,758.78,179.3Z" transform="translate(-410.18 -59.5)"/><path class="cls-20" d="M778.28,182.25V161h-3.75v-3.55h3.75v-4.3q0-3.6,1.8-5.25a7.51,7.51,0,0,1,5.25-1.65h2.5v3.6H786a3.84,3.84,0,0,0-2.7.77,3.55,3.55,0,0,0-.8,2.63v4.2h6.1V161h-6.1v21.25Z" transform="translate(-410.18 -59.5)"/><path class="cls-20" d="M803.88,182.85a12.4,12.4,0,0,1-6.3-1.6,11.63,11.63,0,0,1-4.43-4.53,14,14,0,0,1-1.62-6.87,13.79,13.79,0,0,1,1.65-6.88,11.7,11.7,0,0,1,4.47-4.52,12.59,12.59,0,0,1,6.33-1.6,12.45,12.45,0,0,1,6.3,1.6A11.58,11.58,0,0,1,814.7,163a13.89,13.89,0,0,1,1.63,6.88,13.75,13.75,0,0,1-1.65,6.87,11.68,11.68,0,0,1-4.48,4.53A12.55,12.55,0,0,1,803.88,182.85Zm0-3.6a8,8,0,0,0,4-1.05,7.88,7.88,0,0,0,3-3.15,10.78,10.78,0,0,0,1.15-5.2,10.9,10.9,0,0,0-1.13-5.2,7.68,7.68,0,0,0-3-3.15,8,8,0,0,0-7.95,0,7.75,7.75,0,0,0-3,3.15,12.33,12.33,0,0,0,0,10.4,7.88,7.88,0,0,0,3,3.15A7.77,7.77,0,0,0,803.88,179.25Z" transform="translate(-410.18 -59.5)"/><path class="cls-20" d="M822.18,182.25v-24.8H826l.35,4.75a9,9,0,0,1,3.5-3.9,10.81,10.81,0,0,1,5.8-1.45v4.4h-1.15a10.47,10.47,0,0,0-4.05.77,6.15,6.15,0,0,0-2.95,2.63,9.9,9.9,0,0,0-1.1,5.1v12.5Z" transform="translate(-410.18 -59.5)"/><path class="cls-20" d="M840.33,182.25v-24.8h3.8l.3,3.6a8.35,8.35,0,0,1,3.2-3.1,9.2,9.2,0,0,1,4.5-1.1,10.17,10.17,0,0,1,5.07,1.2,7.92,7.92,0,0,1,3.28,3.65,9.43,9.43,0,0,1,3.57-3.55,9.74,9.74,0,0,1,4.93-1.3,9.57,9.57,0,0,1,7.1,2.67c1.76,1.79,2.65,4.53,2.65,8.23v14.5h-4.15V168.2a9.21,9.21,0,0,0-1.55-5.8,5.36,5.36,0,0,0-4.45-2,6.26,6.26,0,0,0-5,2.32c-1.32,1.55-2,3.76-2,6.63v12.85h-4.2V168.2a9.21,9.21,0,0,0-1.55-5.8,5.36,5.36,0,0,0-4.45-2,6.21,6.21,0,0,0-4.93,2.32c-1.32,1.55-2,3.76-2,6.63v12.85Z" transform="translate(-410.18 -59.5)"/><path class="cls-20" d="M893.33,182.85a11.21,11.21,0,0,1-5.15-1,7.06,7.06,0,0,1-3-2.8,7.5,7.5,0,0,1-1-3.8,6.73,6.73,0,0,1,2.9-5.85,13.42,13.42,0,0,1,7.9-2h6.7V167a6.64,6.64,0,0,0-1.7-4.93,6.24,6.24,0,0,0-4.55-1.67,7.29,7.29,0,0,0-4.23,1.22,5.38,5.38,0,0,0-2.22,3.58h-4.3a7.9,7.9,0,0,1,1.82-4.55,10.24,10.24,0,0,1,3.93-2.83,12.88,12.88,0,0,1,5-1q5.19,0,7.82,2.77a10.3,10.3,0,0,1,2.63,7.38v15.25h-3.75l-.25-4.45a9.81,9.81,0,0,1-3.08,3.57A9,9,0,0,1,893.33,182.85Zm.65-3.55a6.85,6.85,0,0,0,4.12-1.25,8,8,0,0,0,2.63-3.25,10.1,10.1,0,0,0,.9-4.2v0h-6.35q-3.71,0-5.23,1.27a4,4,0,0,0-1.52,3.18,3.83,3.83,0,0,0,1.42,3.12A6.13,6.13,0,0,0,894,179.3Z" transform="translate(-410.18 -59.5)"/><path class="cls-20" d="M925.38,193.25v-35.8h3.8l.4,4.1A11.77,11.77,0,0,1,933,158.3a10.19,10.19,0,0,1,5.68-1.45,12.08,12.08,0,0,1,6.45,1.7,11.62,11.62,0,0,1,4.27,4.65,14.35,14.35,0,0,1,1.53,6.7,14.17,14.17,0,0,1-1.53,6.67,11.42,11.42,0,0,1-4.3,4.6,12.26,12.26,0,0,1-6.47,1.68,11.5,11.5,0,0,1-5.43-1.25,8.61,8.61,0,0,1-3.62-3.5v15.15Zm12.8-14.05a8.16,8.16,0,0,0,4.4-1.18,8.33,8.33,0,0,0,3-3.27,11.46,11.46,0,0,0,0-9.8,8.43,8.43,0,0,0-3-3.28,8.3,8.3,0,0,0-11.8,3.28,11.46,11.46,0,0,0,0,9.8,8,8,0,0,0,7.4,4.45Z" transform="translate(-410.18 -59.5)"/><path class="cls-20" d="M965,182.85a11.21,11.21,0,0,1-5.15-1,7.06,7.06,0,0,1-3-2.8,7.5,7.5,0,0,1-1-3.8,6.73,6.73,0,0,1,2.9-5.85,13.42,13.42,0,0,1,7.9-2h6.7V167a6.64,6.64,0,0,0-1.7-4.93,6.25,6.25,0,0,0-4.55-1.67,7.29,7.29,0,0,0-4.23,1.22,5.38,5.38,0,0,0-2.22,3.58h-4.3a7.9,7.9,0,0,1,1.82-4.55,10.24,10.24,0,0,1,3.93-2.83,12.88,12.88,0,0,1,5-1q5.19,0,7.82,2.77a10.3,10.3,0,0,1,2.63,7.38v15.25h-3.75l-.25-4.45a9.81,9.81,0,0,1-3.08,3.57A9,9,0,0,1,965,182.85Zm.65-3.55a6.85,6.85,0,0,0,4.12-1.25,8,8,0,0,0,2.63-3.25,10.1,10.1,0,0,0,.9-4.2v0H967q-3.69,0-5.22,1.27a4,4,0,0,0-1.52,3.18,3.83,3.83,0,0,0,1.42,3.12A6.13,6.13,0,0,0,965.68,179.3Z" transform="translate(-410.18 -59.5)"/><path class="cls-20" d="M983.82,182.25v-24.8h3.81l.34,4.75a9.09,9.09,0,0,1,3.5-3.9,10.83,10.83,0,0,1,5.8-1.45v4.4h-1.14a10.56,10.56,0,0,0-4.06.77,6.17,6.17,0,0,0-2.94,2.63,9.9,9.9,0,0,0-1.11,5.1v12.5Z" transform="translate(-410.18 -59.5)"/><path class="cls-20" d="M1010.22,182.85a11.27,11.27,0,0,1-5.15-1A7.17,7.17,0,0,1,1002,179a7.6,7.6,0,0,1-1-3.8,6.75,6.75,0,0,1,2.9-5.85,13.46,13.46,0,0,1,7.9-2h6.7V167a6.6,6.6,0,0,0-1.7-4.93,6.22,6.22,0,0,0-4.55-1.67,7.28,7.28,0,0,0-4.22,1.22,5.4,5.4,0,0,0-2.23,3.58h-4.3a8,8,0,0,1,1.83-4.55,10.28,10.28,0,0,1,3.92-2.83,13,13,0,0,1,5-1q5.21,0,7.83,2.77a10.3,10.3,0,0,1,2.62,7.38v15.25H1019l-.25-4.45a9.78,9.78,0,0,1-3.07,3.57A9,9,0,0,1,1010.22,182.85Zm.65-3.55a6.88,6.88,0,0,0,4.13-1.25,8,8,0,0,0,2.62-3.25,10.1,10.1,0,0,0,.9-4.2v0h-6.35c-2.46,0-4.21.42-5.22,1.27a4,4,0,0,0-1.53,3.18,3.84,3.84,0,0,0,1.43,3.12A6.12,6.12,0,0,0,1010.87,179.3Z" transform="translate(-410.18 -59.5)"/><path class="cls-20" d="M1050.52,182.85a11.27,11.27,0,0,1-5.15-1,7.17,7.17,0,0,1-3-2.8,7.6,7.6,0,0,1-1-3.8,6.75,6.75,0,0,1,2.9-5.85,13.46,13.46,0,0,1,7.9-2h6.7V167a6.6,6.6,0,0,0-1.7-4.93,6.22,6.22,0,0,0-4.55-1.67,7.28,7.28,0,0,0-4.22,1.22,5.36,5.36,0,0,0-2.23,3.58h-4.3a8,8,0,0,1,1.83-4.55,10.28,10.28,0,0,1,3.92-2.83,13,13,0,0,1,5-1q5.21,0,7.83,2.77A10.3,10.3,0,0,1,1063,167v15.25h-3.75l-.25-4.45a9.78,9.78,0,0,1-3.07,3.57A9,9,0,0,1,1050.52,182.85Zm.65-3.55a6.88,6.88,0,0,0,4.13-1.25,8,8,0,0,0,2.62-3.25,10.1,10.1,0,0,0,.9-4.2v0h-6.35c-2.46,0-4.21.42-5.22,1.27a4,4,0,0,0-1.53,3.18,3.84,3.84,0,0,0,1.43,3.12A6.12,6.12,0,0,0,1051.17,179.3Z" transform="translate(-410.18 -59.5)"/><path class="cls-20" d="M1069.32,193.25v-35.8h3.8l.4,4.1a11.69,11.69,0,0,1,3.43-3.25,10.16,10.16,0,0,1,5.67-1.45,12,12,0,0,1,6.45,1.7,11.58,11.58,0,0,1,4.28,4.65,14.47,14.47,0,0,1,1.52,6.7,14.28,14.28,0,0,1-1.52,6.67,11.42,11.42,0,0,1-4.3,4.6,12.27,12.27,0,0,1-6.48,1.68,11.49,11.49,0,0,1-5.42-1.25,8.64,8.64,0,0,1-3.63-3.5v15.15Zm12.8-14.05a8,8,0,0,0,7.4-4.45,11.46,11.46,0,0,0,0-9.8,8.28,8.28,0,0,0-3-3.28,8.86,8.86,0,0,0-8.8,0,8.43,8.43,0,0,0-3,3.28,11.46,11.46,0,0,0,0,9.8,8.33,8.33,0,0,0,3,3.27A8.16,8.16,0,0,0,1082.12,179.2Z" transform="translate(-410.18 -59.5)"/><path class="cls-20" d="M1100.72,182.25v-24.8h3.8l.35,4.75a9,9,0,0,1,3.5-3.9,10.83,10.83,0,0,1,5.8-1.45v4.4H1113a10.51,10.51,0,0,0-4,.77,6.19,6.19,0,0,0-3,2.63,10,10,0,0,0-1.1,5.1v12.5Z" transform="translate(-410.18 -59.5)"/><path class="cls-20" d="M1129.07,182.85a12.1,12.1,0,0,1-6.3-1.63,11.53,11.53,0,0,1-4.32-4.52,14.15,14.15,0,0,1-1.58-6.85,14.43,14.43,0,0,1,1.55-6.83,11.37,11.37,0,0,1,4.33-4.55,12.5,12.5,0,0,1,6.42-1.62,11.63,11.63,0,0,1,6.23,1.62,11,11,0,0,1,4,4.28,12.08,12.08,0,0,1,1.4,5.7c0,.37,0,.73,0,1.1s0,.78,0,1.25H1121a9.65,9.65,0,0,0,1.33,4.72,7.75,7.75,0,0,0,3,2.83,7.9,7.9,0,0,0,3.77,1,7.53,7.53,0,0,0,4.35-1.2,6.81,6.81,0,0,0,2.55-3.25h4.15a10.89,10.89,0,0,1-11,8Zm0-22.45a8.41,8.41,0,0,0-5.32,1.82,7.37,7.37,0,0,0-2.68,5.33h15.6a7.12,7.12,0,0,0-2.3-5.25A7.69,7.69,0,0,0,1129.07,160.4Z" transform="translate(-410.18 -59.5)"/><path class="cls-20" d="M1146.37,182.25v-24.8h3.8l.25,4.45a9,9,0,0,1,3.45-3.7,9.72,9.72,0,0,1,5.1-1.35,9.42,9.42,0,0,1,7,2.67q2.63,2.68,2.62,8.23v14.5h-4.2V168.2q0-7.75-6.4-7.75a6.89,6.89,0,0,0-5.32,2.32q-2.13,2.32-2.13,6.63v12.85Z" transform="translate(-410.18 -59.5)"/><path class="cls-20" d="M1186.22,182.85a12.15,12.15,0,0,1-6.47-1.7,11.49,11.49,0,0,1-4.3-4.65,14.35,14.35,0,0,1-1.53-6.7,14.1,14.1,0,0,1,1.55-6.68,11.7,11.7,0,0,1,4.3-4.6,12.3,12.3,0,0,1,6.5-1.67,11.38,11.38,0,0,1,5.4,1.25,9,9,0,0,1,3.65,3.5V146.25h4.2v36h-3.8l-.4-4.1a11.65,11.65,0,0,1-3.45,3.25A10.2,10.2,0,0,1,1186.22,182.85Zm.45-3.65a8.29,8.29,0,0,0,4.43-1.18,8,8,0,0,0,3-3.27,11.75,11.75,0,0,0,0-9.8,8.14,8.14,0,0,0-3-3.28,8.88,8.88,0,0,0-8.81,0,8.14,8.14,0,0,0-3,3.28,11.75,11.75,0,0,0,0,9.8,8,8,0,0,0,3,3.27A8.21,8.21,0,0,0,1186.67,179.2Z" transform="translate(-410.18 -59.5)"/><path class="cls-20" d="M1217.52,182.85a12.07,12.07,0,0,1-6.3-1.63,11.63,11.63,0,0,1-4.33-4.52,14.14,14.14,0,0,1-1.57-6.85,14.43,14.43,0,0,1,1.55-6.83,11.24,11.24,0,0,1,4.33-4.55,12.47,12.47,0,0,1,6.42-1.62,11.6,11.6,0,0,1,6.22,1.62,11,11,0,0,1,4,4.28,12.08,12.08,0,0,1,1.4,5.7c0,.37,0,.73,0,1.1s0,.78,0,1.25h-19.75a9.76,9.76,0,0,0,1.32,4.72,7.82,7.82,0,0,0,6.73,3.78,7.53,7.53,0,0,0,4.35-1.2,6.81,6.81,0,0,0,2.55-3.25h4.15a10.89,10.89,0,0,1-11,8Zm0-22.45a8.41,8.41,0,0,0-5.32,1.82,7.33,7.33,0,0,0-2.68,5.33h15.6a7.12,7.12,0,0,0-2.3-5.25A7.69,7.69,0,0,0,1217.52,160.4Z" transform="translate(-410.18 -59.5)"/><path class="cls-20" d="M1234.82,182.25v-24.8h3.8l.35,4.75a9,9,0,0,1,3.5-3.9,10.83,10.83,0,0,1,5.8-1.45v4.4h-1.15a10.47,10.47,0,0,0-4,.77,6.19,6.19,0,0,0-3,2.63,10,10,0,0,0-1.1,5.1v12.5Z" transform="translate(-410.18 -59.5)"/><path class="cls-20" d="M1268.92,193.25l6.15-13.4h-1.45l-9.85-22.4h4.55l8.2,19.3,8.7-19.3h4.35l-16.25,35.8Z" transform="translate(-410.18 -59.5)"/><path class="cls-20" d="M1307.27,193.25v-35.8h3.8l.4,4.1a11.77,11.77,0,0,1,3.42-3.25,10.21,10.21,0,0,1,5.68-1.45,12.05,12.05,0,0,1,6.45,1.7,11.55,11.55,0,0,1,4.27,4.65,14.35,14.35,0,0,1,1.53,6.7,14.17,14.17,0,0,1-1.53,6.67,11.35,11.35,0,0,1-4.3,4.6,12.26,12.26,0,0,1-6.47,1.68,11.53,11.53,0,0,1-5.43-1.25,8.61,8.61,0,0,1-3.62-3.5v15.15Zm12.8-14.05a8.16,8.16,0,0,0,4.4-1.18,8.33,8.33,0,0,0,3-3.27,11.46,11.46,0,0,0,0-9.8,8.43,8.43,0,0,0-3-3.28,8.3,8.3,0,0,0-11.8,3.28,11.46,11.46,0,0,0,0,9.8,8,8,0,0,0,7.4,4.45Z" transform="translate(-410.18 -59.5)"/><path class="cls-20" d="M1338.67,182.25v-24.8h3.8l.35,4.75a9,9,0,0,1,3.5-3.9,10.81,10.81,0,0,1,5.8-1.45v4.4H1351a10.47,10.47,0,0,0-4,.77,6.15,6.15,0,0,0-3,2.63,9.9,9.9,0,0,0-1.1,5.1v12.5Z" transform="translate(-410.18 -59.5)"/><path class="cls-20" d="M1365.07,182.85a11.21,11.21,0,0,1-5.15-1,7.06,7.06,0,0,1-3.05-2.8,7.5,7.5,0,0,1-1-3.8,6.73,6.73,0,0,1,2.9-5.85,13.42,13.42,0,0,1,7.9-2h6.7V167a6.64,6.64,0,0,0-1.7-4.93,6.24,6.24,0,0,0-4.55-1.67,7.32,7.32,0,0,0-4.23,1.22,5.38,5.38,0,0,0-2.22,3.58h-4.3a7.9,7.9,0,0,1,1.82-4.55,10.24,10.24,0,0,1,3.93-2.83,12.88,12.88,0,0,1,5-1q5.19,0,7.82,2.77a10.3,10.3,0,0,1,2.63,7.38v15.25h-3.75l-.25-4.45a9.81,9.81,0,0,1-3.08,3.57A9,9,0,0,1,1365.07,182.85Zm.65-3.55a6.85,6.85,0,0,0,4.12-1.25,8,8,0,0,0,2.63-3.25,10.1,10.1,0,0,0,.9-4.2v0H1367q-3.7,0-5.23,1.27a4,4,0,0,0-1.52,3.18,3.83,3.83,0,0,0,1.42,3.12A6.13,6.13,0,0,0,1365.72,179.3Z" transform="translate(-410.18 -59.5)"/><path class="cls-20" d="M1395.27,182.85a12.49,12.49,0,0,1-6.38-1.63,11.66,11.66,0,0,1-4.45-4.55,15.19,15.19,0,0,1,0-13.65,11.73,11.73,0,0,1,4.45-4.55,12.58,12.58,0,0,1,6.38-1.62,11.93,11.93,0,0,1,7.42,2.3,10,10,0,0,1,3.83,6.15h-4.3a5.55,5.55,0,0,0-2.45-3.58,8.13,8.13,0,0,0-4.55-1.27,7.87,7.87,0,0,0-4,1.05,7.75,7.75,0,0,0-3,3.15,12.33,12.33,0,0,0,0,10.4,7.86,7.86,0,0,0,3,3.17,7.7,7.7,0,0,0,4,1.08,8.14,8.14,0,0,0,4.55-1.28,5.54,5.54,0,0,0,2.45-3.62h4.3a10,10,0,0,1-3.8,6.1A11.84,11.84,0,0,1,1395.27,182.85Z" transform="translate(-410.18 -59.5)"/><path class="cls-20" d="M1421.47,182.25a8,8,0,0,1-5.35-1.65q-1.95-1.65-1.95-5.95V161h-4.3v-3.55h4.3l.55-5.95h3.65v5.95h7.3V161h-7.3v13.65c0,1.57.31,2.62,1,3.17a5.17,5.17,0,0,0,3.35.83h2.6v3.6Z" transform="translate(-410.18 -59.5)"/><path class="cls-20" d="M1433.57,152a2.82,2.82,0,0,1-2.9-2.9,2.66,2.66,0,0,1,.82-2,3.07,3.07,0,0,1,4.13,0,2.65,2.65,0,0,1,.85,2,2.79,2.79,0,0,1-.85,2.07A2.85,2.85,0,0,1,1433.57,152Zm-2.1,30.3v-24.8h4.2v24.8Z" transform="translate(-410.18 -59.5)"/><path class="cls-20" d="M1454.37,182.85a12.49,12.49,0,0,1-6.38-1.63,11.66,11.66,0,0,1-4.45-4.55,15.19,15.19,0,0,1,0-13.65,11.73,11.73,0,0,1,4.45-4.55,12.58,12.58,0,0,1,6.38-1.62,11.93,11.93,0,0,1,7.42,2.3,10,10,0,0,1,3.83,6.15h-4.3a5.55,5.55,0,0,0-2.45-3.58,8.13,8.13,0,0,0-4.55-1.27,7.87,7.87,0,0,0-4,1.05,7.75,7.75,0,0,0-3,3.15,12.33,12.33,0,0,0,0,10.4,7.86,7.86,0,0,0,3,3.17,7.7,7.7,0,0,0,4,1.08,8.14,8.14,0,0,0,4.55-1.28,5.54,5.54,0,0,0,2.45-3.62h4.3a10,10,0,0,1-3.8,6.1A11.84,11.84,0,0,1,1454.37,182.85Z" transform="translate(-410.18 -59.5)"/><path class="cls-20" d="M1479.72,182.85a11.21,11.21,0,0,1-5.15-1,7.06,7.06,0,0,1-3-2.8,7.5,7.5,0,0,1-1-3.8,6.73,6.73,0,0,1,2.9-5.85,13.42,13.42,0,0,1,7.9-2h6.7V167a6.64,6.64,0,0,0-1.7-4.93,6.24,6.24,0,0,0-4.55-1.67,7.29,7.29,0,0,0-4.23,1.22,5.38,5.38,0,0,0-2.22,3.58H1471a7.9,7.9,0,0,1,1.82-4.55,10.24,10.24,0,0,1,3.93-2.83,12.88,12.88,0,0,1,5-1q5.19,0,7.82,2.77a10.3,10.3,0,0,1,2.63,7.38v15.25h-3.75l-.25-4.45a9.81,9.81,0,0,1-3.08,3.57A9,9,0,0,1,1479.72,182.85Zm.65-3.55a6.85,6.85,0,0,0,4.12-1.25,8,8,0,0,0,2.63-3.25,10.1,10.1,0,0,0,.9-4.2v0h-6.35q-3.7,0-5.23,1.27a4,4,0,0,0-1.52,3.18,3.83,3.83,0,0,0,1.42,3.12A6.13,6.13,0,0,0,1480.37,179.3Z" transform="translate(-410.18 -59.5)"/><path class="cls-20" d="M1498.52,182.25v-24.8h3.8l.35,4.75a9,9,0,0,1,3.5-3.9,10.81,10.81,0,0,1,5.8-1.45v4.4h-1.15a10.47,10.47,0,0,0-4,.77,6.15,6.15,0,0,0-3,2.63,9.9,9.9,0,0,0-1.1,5.1v12.5Z" transform="translate(-410.18 -59.5)"/><path class="cls-20" d="M522.91,242.25v-24.8h3.8l.3,3.6a8.35,8.35,0,0,1,3.2-3.1,9.2,9.2,0,0,1,4.5-1.1,10.17,10.17,0,0,1,5.07,1.2,7.92,7.92,0,0,1,3.28,3.65,9.43,9.43,0,0,1,3.57-3.55,9.74,9.74,0,0,1,4.93-1.3,9.57,9.57,0,0,1,7.1,2.67c1.76,1.79,2.65,4.53,2.65,8.23v14.5h-4.15V228.2a9.21,9.21,0,0,0-1.55-5.8,5.36,5.36,0,0,0-4.45-2,6.26,6.26,0,0,0-5,2.32c-1.32,1.55-2,3.76-2,6.63v12.85H540V228.2a9.21,9.21,0,0,0-1.55-5.8,5.36,5.36,0,0,0-4.45-2,6.21,6.21,0,0,0-4.93,2.32c-1.32,1.55-2,3.76-2,6.63v12.85Z" transform="translate(-410.18 -59.5)"/><path class="cls-20" d="M575.91,242.85a11.21,11.21,0,0,1-5.15-1,7.06,7.06,0,0,1-3-2.8,7.5,7.5,0,0,1-1-3.8,6.73,6.73,0,0,1,2.9-5.85,13.42,13.42,0,0,1,7.9-2h6.7V227a6.64,6.64,0,0,0-1.7-4.93A6.24,6.24,0,0,0,578,220.4a7.29,7.29,0,0,0-4.23,1.22,5.38,5.38,0,0,0-2.22,3.58h-4.3a7.9,7.9,0,0,1,1.82-4.55,10.24,10.24,0,0,1,3.93-2.83,12.88,12.88,0,0,1,5-1q5.19,0,7.82,2.77a10.3,10.3,0,0,1,2.63,7.38v15.25h-3.75l-.25-4.45a9.81,9.81,0,0,1-3.08,3.57A9,9,0,0,1,575.91,242.85Zm.65-3.55a6.85,6.85,0,0,0,4.12-1.25,8,8,0,0,0,2.63-3.25,10.1,10.1,0,0,0,.9-4.2v0h-6.35q-3.71,0-5.23,1.27a4,4,0,0,0-1.52,3.18,3.83,3.83,0,0,0,1.42,3.12A6.13,6.13,0,0,0,576.56,239.3Z" transform="translate(-410.18 -59.5)"/><path class="cls-20" d="M603.81,242.25a8,8,0,0,1-5.35-1.65q-2-1.65-2-5.95V221h-4.3v-3.55h4.3l.55-5.95h3.65v5.95H608V221h-7.3v13.65c0,1.57.31,2.62.95,3.17a5.17,5.17,0,0,0,3.35.83h2.6v3.6Z" transform="translate(-410.18 -59.5)"/><path class="cls-20" d="M623.81,242.85a12.07,12.07,0,0,1-6.3-1.63,11.49,11.49,0,0,1-4.33-4.52,14.14,14.14,0,0,1-1.57-6.85,14.31,14.31,0,0,1,1.55-6.83,11.28,11.28,0,0,1,4.32-4.55,12.51,12.51,0,0,1,6.43-1.62,11.6,11.6,0,0,1,6.22,1.62,11.11,11.11,0,0,1,4,4.28,12.08,12.08,0,0,1,1.4,5.7c0,.37,0,.73,0,1.1s0,.78,0,1.25H615.76a9.76,9.76,0,0,0,1.32,4.72,7.82,7.82,0,0,0,2.95,2.83,7.91,7.91,0,0,0,3.78,1,7.53,7.53,0,0,0,4.35-1.2,6.93,6.93,0,0,0,2.55-3.25h4.15a10.92,10.92,0,0,1-11.05,8Zm0-22.45a8.44,8.44,0,0,0-5.33,1.82,7.36,7.36,0,0,0-2.67,5.33h15.6a7.12,7.12,0,0,0-2.3-5.25A7.71,7.71,0,0,0,623.81,220.4Z" transform="translate(-410.18 -59.5)"/><path class="cls-20" d="M641.11,242.25v-24.8h3.8l.3,3.6a8.35,8.35,0,0,1,3.2-3.1,9.2,9.2,0,0,1,4.5-1.1,10.17,10.17,0,0,1,5.07,1.2,7.92,7.92,0,0,1,3.28,3.65,9.43,9.43,0,0,1,3.57-3.55,9.74,9.74,0,0,1,4.93-1.3,9.57,9.57,0,0,1,7.1,2.67c1.76,1.79,2.65,4.53,2.65,8.23v14.5h-4.15V228.2a9.21,9.21,0,0,0-1.55-5.8,5.36,5.36,0,0,0-4.45-2,6.26,6.26,0,0,0-5,2.32c-1.32,1.55-2,3.76-2,6.63v12.85h-4.2V228.2a9.21,9.21,0,0,0-1.55-5.8,5.36,5.36,0,0,0-4.45-2,6.21,6.21,0,0,0-4.93,2.32c-1.32,1.55-2,3.76-2,6.63v12.85Z" transform="translate(-410.18 -59.5)"/><path class="cls-20" d="M694.1,242.85a11.27,11.27,0,0,1-5.15-1,7.17,7.17,0,0,1-3.05-2.8,7.6,7.6,0,0,1-1-3.8,6.75,6.75,0,0,1,2.9-5.85,13.46,13.46,0,0,1,7.9-2h6.7V227a6.6,6.6,0,0,0-1.7-4.93,6.22,6.22,0,0,0-4.55-1.67,7.28,7.28,0,0,0-4.22,1.22,5.4,5.4,0,0,0-2.23,3.58h-4.3a8,8,0,0,1,1.83-4.55,10.28,10.28,0,0,1,3.92-2.83,13,13,0,0,1,5-1q5.21,0,7.83,2.77A10.3,10.3,0,0,1,706.6,227v15.25h-3.75l-.25-4.45a9.78,9.78,0,0,1-3.07,3.57A9,9,0,0,1,694.1,242.85Zm.65-3.55a6.88,6.88,0,0,0,4.13-1.25,8,8,0,0,0,2.62-3.25,10.1,10.1,0,0,0,.9-4.2v0h-6.35q-3.69,0-5.22,1.27A4,4,0,0,0,689.3,235a3.84,3.84,0,0,0,1.43,3.12A6.12,6.12,0,0,0,694.75,239.3Zm.1-23.9v-3.15l10.5-6.35v3.65Z" transform="translate(-410.18 -59.5)"/><path class="cls-20" d="M722,242.25a8.05,8.05,0,0,1-5.35-1.65c-1.3-1.1-1.94-3.08-1.94-5.95V221H710.4v-3.55h4.31l.54-5.95h3.65v5.95h7.31V221H718.9v13.65c0,1.57.32,2.62,1,3.17a5.2,5.2,0,0,0,3.36.83h2.59v3.6Z" transform="translate(-410.18 -59.5)"/><path class="cls-20" d="M734.1,212a2.84,2.84,0,0,1-2.9-2.9,2.67,2.67,0,0,1,.83-2,3.05,3.05,0,0,1,4.12,0,2.62,2.62,0,0,1,.85,2,2.75,2.75,0,0,1-.85,2.07A2.83,2.83,0,0,1,734.1,212Zm-2.1,30.3v-24.8h4.2v24.8Z" transform="translate(-410.18 -59.5)"/><path class="cls-20" d="M754.9,242.85a12.48,12.48,0,0,1-6.37-1.63,11.66,11.66,0,0,1-4.45-4.55,15.1,15.1,0,0,1,0-13.65,11.73,11.73,0,0,1,4.45-4.55,12.57,12.57,0,0,1,6.37-1.62,11.94,11.94,0,0,1,7.43,2.3,10,10,0,0,1,3.82,6.15h-4.3a5.52,5.52,0,0,0-2.45-3.58,8.11,8.11,0,0,0-4.55-1.27,7.77,7.77,0,0,0-7,4.2,12.33,12.33,0,0,0,0,10.4,8,8,0,0,0,3,3.17,7.73,7.73,0,0,0,4,1.08A8.11,8.11,0,0,0,759.4,238a5.5,5.5,0,0,0,2.45-3.62h4.3a9.91,9.91,0,0,1-3.8,6.1A11.8,11.8,0,0,1,754.9,242.85Z" transform="translate(-410.18 -59.5)"/><path class="cls-20" d="M780.25,242.85a11.27,11.27,0,0,1-5.15-1,7.17,7.17,0,0,1-3.05-2.8,7.6,7.6,0,0,1-1-3.8,6.75,6.75,0,0,1,2.9-5.85,13.46,13.46,0,0,1,7.9-2h6.7V227a6.6,6.6,0,0,0-1.7-4.93,6.22,6.22,0,0,0-4.55-1.67,7.28,7.28,0,0,0-4.22,1.22,5.4,5.4,0,0,0-2.23,3.58h-4.3a8,8,0,0,1,1.83-4.55,10.28,10.28,0,0,1,3.92-2.83,13,13,0,0,1,5-1q5.21,0,7.83,2.77a10.3,10.3,0,0,1,2.62,7.38v15.25H789l-.25-4.45a9.78,9.78,0,0,1-3.07,3.57A9,9,0,0,1,780.25,242.85Zm.65-3.55a6.88,6.88,0,0,0,4.13-1.25,8,8,0,0,0,2.62-3.25,10.1,10.1,0,0,0,.9-4.2v0H782.2q-3.69,0-5.22,1.27a4,4,0,0,0-1.53,3.18,3.84,3.84,0,0,0,1.43,3.12A6.12,6.12,0,0,0,780.9,239.3Z" transform="translate(-410.18 -59.5)"/><path class="cls-20" d="M808.55,242.85a11.87,11.87,0,0,1-7.4-2.25,8.81,8.81,0,0,1-3.45-6.1H802a5.93,5.93,0,0,0,2.08,3.37,6.73,6.73,0,0,0,4.52,1.43,5.69,5.69,0,0,0,3.9-1.13,3.46,3.46,0,0,0,1.25-2.67,3,3,0,0,0-1.62-3,21.75,21.75,0,0,0-4.58-1.35,26.49,26.49,0,0,1-4-1.15,9.08,9.08,0,0,1-3.35-2.13,4.93,4.93,0,0,1-1.35-3.62,6.7,6.7,0,0,1,2.43-5.33,9.78,9.78,0,0,1,6.57-2.07,10.25,10.25,0,0,1,6.48,2,7.89,7.89,0,0,1,2.92,5.63H813.1a4.33,4.33,0,0,0-1.62-3,5.85,5.85,0,0,0-3.68-1.07,5.55,5.55,0,0,0-3.47.95,3,3,0,0,0-1.23,2.5,2.61,2.61,0,0,0,1.58,2.35,16.73,16.73,0,0,0,4.27,1.45,37.32,37.32,0,0,1,4.38,1.22,8.4,8.4,0,0,1,3.4,2.15,5.87,5.87,0,0,1,1.32,4.13,6.77,6.77,0,0,1-2.52,5.52A10.47,10.47,0,0,1,808.55,242.85Z" transform="translate(-410.18 -59.5)"/><path class="cls-20" d="M848.55,242.85a12.17,12.17,0,0,1-6.47-1.7,11.49,11.49,0,0,1-4.3-4.65,14.35,14.35,0,0,1-1.53-6.7,14.1,14.1,0,0,1,1.55-6.68,11.77,11.77,0,0,1,4.3-4.6,12.33,12.33,0,0,1,6.5-1.67,11.33,11.33,0,0,1,5.4,1.25,8.93,8.93,0,0,1,3.65,3.5V206.25h4.2v36h-3.8l-.4-4.1a11.65,11.65,0,0,1-3.45,3.25A10.2,10.2,0,0,1,848.55,242.85Zm.45-3.65a8.29,8.29,0,0,0,4.43-1.18,8,8,0,0,0,3-3.27,11.75,11.75,0,0,0,0-9.8,8.14,8.14,0,0,0-3-3.28A8.38,8.38,0,0,0,849,220.5a8.24,8.24,0,0,0-4.37,1.17,8,8,0,0,0-3,3.28,11.66,11.66,0,0,0,0,9.8,7.91,7.91,0,0,0,3,3.27A8.15,8.15,0,0,0,849,239.2Z" transform="translate(-410.18 -59.5)"/><path class="cls-20" d="M879.85,242.85a12.12,12.12,0,0,1-6.3-1.63,11.53,11.53,0,0,1-4.32-4.52,14.15,14.15,0,0,1-1.58-6.85A14.43,14.43,0,0,1,869.2,223a11.37,11.37,0,0,1,4.33-4.55,12.5,12.5,0,0,1,6.42-1.62,11.63,11.63,0,0,1,6.23,1.62,11,11,0,0,1,4,4.28,12,12,0,0,1,1.4,5.7c0,.37,0,.73,0,1.1s0,.78,0,1.25H871.8a9.65,9.65,0,0,0,1.33,4.72,7.75,7.75,0,0,0,3,2.83,7.9,7.9,0,0,0,3.77,1,7.48,7.48,0,0,0,4.35-1.2,6.81,6.81,0,0,0,2.55-3.25h4.15a10.89,10.89,0,0,1-11,8Zm0-22.45a8.41,8.41,0,0,0-5.32,1.82,7.4,7.4,0,0,0-2.68,5.33h15.6a7.08,7.08,0,0,0-2.3-5.25A7.69,7.69,0,0,0,879.85,220.4Z" transform="translate(-410.18 -59.5)"/><path class="cls-20" d="M919.45,242.85a9.29,9.29,0,0,1-7-2.68q-2.6-2.67-2.6-8.22v-14.5h4.2V231.5q0,7.75,6.35,7.75a7,7,0,0,0,5.38-2.33,9.49,9.49,0,0,0,2.12-6.62V217.45h4.2v24.8h-3.8l-.3-4.45a8.66,8.66,0,0,1-3.42,3.7A9.88,9.88,0,0,1,919.45,242.85Z" transform="translate(-410.18 -59.5)"/><path class="cls-20" d="M939,242.25v-24.8h3.8l.25,4.45a9,9,0,0,1,3.45-3.7,9.72,9.72,0,0,1,5.1-1.35,9.42,9.42,0,0,1,7,2.67q2.63,2.68,2.62,8.23v14.5h-4.2V228.2q0-7.75-6.4-7.75a6.89,6.89,0,0,0-5.32,2.32q-2.13,2.32-2.13,6.63v12.85Z" transform="translate(-410.18 -59.5)"/><path class="cls-20" d="M975.85,242.85a11.24,11.24,0,0,1-5.15-1,7.12,7.12,0,0,1-3.05-2.8,7.5,7.5,0,0,1-1-3.8,6.75,6.75,0,0,1,2.9-5.85,13.44,13.44,0,0,1,7.9-2h6.7V227a6.64,6.64,0,0,0-1.7-4.93,6.22,6.22,0,0,0-4.55-1.67,7.28,7.28,0,0,0-4.22,1.22,5.36,5.36,0,0,0-2.23,3.58h-4.3a8,8,0,0,1,1.83-4.55,10.2,10.2,0,0,1,3.92-2.83,12.91,12.91,0,0,1,5-1q5.21,0,7.83,2.77a10.3,10.3,0,0,1,2.62,7.38v15.25H984.6l-.25-4.45a9.78,9.78,0,0,1-3.07,3.57A9,9,0,0,1,975.85,242.85Zm.65-3.55a6.88,6.88,0,0,0,4.13-1.25,8,8,0,0,0,2.62-3.25,10.1,10.1,0,0,0,.9-4.2v0H977.8q-3.7,0-5.22,1.27a4,4,0,0,0-1.53,3.18,3.84,3.84,0,0,0,1.43,3.12A6.12,6.12,0,0,0,976.5,239.3Z" transform="translate(-410.18 -59.5)"/><path class="cls-20" d="M1007.9,242.25v-24.8h3.8l.3,3.6a8.42,8.42,0,0,1,3.2-3.1,9.2,9.2,0,0,1,4.5-1.1,10.18,10.18,0,0,1,5.08,1.2,8,8,0,0,1,3.27,3.65,9.53,9.53,0,0,1,3.58-3.55,9.68,9.68,0,0,1,4.92-1.3,9.55,9.55,0,0,1,7.1,2.67q2.65,2.68,2.65,8.23v14.5h-4.15V228.2a9.21,9.21,0,0,0-1.55-5.8,5.35,5.35,0,0,0-4.45-2,6.23,6.23,0,0,0-5,2.32q-2,2.32-2,6.63v12.85H1025V228.2a9.21,9.21,0,0,0-1.55-5.8,5.35,5.35,0,0,0-4.45-2,6.17,6.17,0,0,0-4.92,2.32q-2,2.32-2,6.63v12.85Z" transform="translate(-410.18 -59.5)"/><path class="cls-20" d="M1060.9,242.85a11.24,11.24,0,0,1-5.15-1,7.12,7.12,0,0,1-3-2.8,7.5,7.5,0,0,1-1-3.8,6.75,6.75,0,0,1,2.9-5.85,13.44,13.44,0,0,1,7.9-2h6.7V227a6.64,6.64,0,0,0-1.7-4.93,6.22,6.22,0,0,0-4.55-1.67,7.34,7.34,0,0,0-4.23,1.22,5.38,5.38,0,0,0-2.22,3.58h-4.3a7.91,7.91,0,0,1,1.83-4.55,10.13,10.13,0,0,1,3.92-2.83,12.91,12.91,0,0,1,5-1q5.21,0,7.83,2.77a10.3,10.3,0,0,1,2.62,7.38v15.25h-3.75l-.25-4.45a9.81,9.81,0,0,1-3.08,3.57A9,9,0,0,1,1060.9,242.85Zm.65-3.55a6.83,6.83,0,0,0,4.12-1.25,8,8,0,0,0,2.63-3.25,10.1,10.1,0,0,0,.9-4.2v0h-6.35q-3.7,0-5.22,1.27a4,4,0,0,0-1.53,3.18,3.81,3.81,0,0,0,1.43,3.12A6.1,6.1,0,0,0,1061.55,239.3Z" transform="translate(-410.18 -59.5)"/><path class="cls-20" d="M1079.7,242.25v-24.8h3.8l.25,4.45a9,9,0,0,1,3.45-3.7,9.72,9.72,0,0,1,5.1-1.35,9.4,9.4,0,0,1,7,2.67q2.63,2.68,2.63,8.23v14.5h-4.2V228.2q0-7.75-6.4-7.75a6.91,6.91,0,0,0-5.33,2.32,9.51,9.51,0,0,0-2.12,6.63v12.85Z" transform="translate(-410.18 -59.5)"/><path class="cls-20" d="M1119.45,242.85a12.07,12.07,0,0,1-6.3-1.63,11.49,11.49,0,0,1-4.33-4.52,14.14,14.14,0,0,1-1.57-6.85,14.43,14.43,0,0,1,1.55-6.83,11.28,11.28,0,0,1,4.32-4.55,12.54,12.54,0,0,1,6.43-1.62,11.6,11.6,0,0,1,6.22,1.62,11,11,0,0,1,4,4.28,12.08,12.08,0,0,1,1.4,5.7c0,.37,0,.73,0,1.1s0,.78,0,1.25H1111.4a9.76,9.76,0,0,0,1.32,4.72,7.79,7.79,0,0,0,6.73,3.78,7.53,7.53,0,0,0,4.35-1.2,6.93,6.93,0,0,0,2.55-3.25h4.15a10.92,10.92,0,0,1-11,8Zm0-22.45a8.44,8.44,0,0,0-5.33,1.82,7.36,7.36,0,0,0-2.67,5.33h15.6a7.12,7.12,0,0,0-2.3-5.25A7.71,7.71,0,0,0,1119.45,220.4Z" transform="translate(-410.18 -59.5)"/><path class="cls-20" d="M1136.75,242.25v-24.8h3.8l.35,4.75a9,9,0,0,1,3.5-3.9,10.81,10.81,0,0,1,5.8-1.45v4.4h-1.15a10.47,10.47,0,0,0-4,.77,6.15,6.15,0,0,0-3,2.63,9.9,9.9,0,0,0-1.1,5.1v12.5Z" transform="translate(-410.18 -59.5)"/><path class="cls-20" d="M1163.15,242.85a11.21,11.21,0,0,1-5.15-1,7.06,7.06,0,0,1-3-2.8,7.5,7.5,0,0,1-1-3.8,6.73,6.73,0,0,1,2.9-5.85,13.42,13.42,0,0,1,7.9-2h6.7V227a6.64,6.64,0,0,0-1.7-4.93,6.24,6.24,0,0,0-4.55-1.67,7.32,7.32,0,0,0-4.23,1.22,5.38,5.38,0,0,0-2.22,3.58h-4.3a7.9,7.9,0,0,1,1.82-4.55,10.24,10.24,0,0,1,3.93-2.83,12.88,12.88,0,0,1,5-1q5.19,0,7.82,2.77a10.3,10.3,0,0,1,2.63,7.38v15.25h-3.75l-.25-4.45a9.81,9.81,0,0,1-3.08,3.57A9,9,0,0,1,1163.15,242.85Zm.65-3.55a6.85,6.85,0,0,0,4.12-1.25,8,8,0,0,0,2.63-3.25,10.1,10.1,0,0,0,.9-4.2v0h-6.35q-3.7,0-5.23,1.27a4,4,0,0,0-1.52,3.18,3.83,3.83,0,0,0,1.42,3.12A6.13,6.13,0,0,0,1163.8,239.3Z" transform="translate(-410.18 -59.5)"/><path class="cls-20" d="M1206.45,242.85a12.19,12.19,0,0,1-6.48-1.7,11.55,11.55,0,0,1-4.3-4.65,14.34,14.34,0,0,1-1.52-6.7,14,14,0,0,1,1.55-6.68,11.63,11.63,0,0,1,4.3-4.6,12.3,12.3,0,0,1,6.5-1.67,11.38,11.38,0,0,1,5.4,1.25,9,9,0,0,1,3.65,3.5V206.25h4.2v36H1216l-.4-4.1a11.65,11.65,0,0,1-3.45,3.25A10.22,10.22,0,0,1,1206.45,242.85Zm.45-3.65a8.26,8.26,0,0,0,4.42-1.18,8,8,0,0,0,3-3.27,11.66,11.66,0,0,0,0-9.8,8.14,8.14,0,0,0-3-3.28,8.34,8.34,0,0,0-4.42-1.17,8.25,8.25,0,0,0-4.38,1.17,8.14,8.14,0,0,0-3,3.28,11.75,11.75,0,0,0,0,9.8,8,8,0,0,0,3,3.27A8.16,8.16,0,0,0,1206.9,239.2Z" transform="translate(-410.18 -59.5)"/><path class="cls-20" d="M1229.15,212a2.82,2.82,0,0,1-2.9-2.9,2.66,2.66,0,0,1,.82-2,3.07,3.07,0,0,1,4.13,0,2.65,2.65,0,0,1,.85,2,2.79,2.79,0,0,1-.85,2.07A2.85,2.85,0,0,1,1229.15,212Zm-2.1,30.3v-24.8h4.2v24.8Z" transform="translate(-410.18 -59.5)"/><path class="cls-20" d="M1239.9,242.25V221h-3.75v-3.55h3.75v-4.3q0-3.6,1.8-5.25a7.51,7.51,0,0,1,5.25-1.65h2.5v3.6h-1.85a3.84,3.84,0,0,0-2.7.77,3.55,3.55,0,0,0-.8,2.63v4.2h6.1V221h-6.1v21.25Z" transform="translate(-410.18 -59.5)"/><path class="cls-20" d="M1265.34,242.85a12.12,12.12,0,0,1-6.3-1.63,11.53,11.53,0,0,1-4.32-4.52,14.14,14.14,0,0,1-1.57-6.85,14.31,14.31,0,0,1,1.55-6.83,11.28,11.28,0,0,1,4.32-4.55,12.51,12.51,0,0,1,6.43-1.62,11.62,11.62,0,0,1,6.22,1.62,11.11,11.11,0,0,1,4,4.28,12.07,12.07,0,0,1,1.39,5.7c0,.37,0,.73,0,1.1s0,.78,0,1.25h-19.75a9.87,9.87,0,0,0,1.33,4.72,7.82,7.82,0,0,0,3,2.83,7.9,7.9,0,0,0,3.77,1,7.54,7.54,0,0,0,4.36-1.2,6.93,6.93,0,0,0,2.55-3.25h4.15a10.92,10.92,0,0,1-11.06,8Zm0-22.45a8.41,8.41,0,0,0-5.32,1.82,7.4,7.4,0,0,0-2.68,5.33H1273a7.15,7.15,0,0,0-2.3-5.25A7.72,7.72,0,0,0,1265.34,220.4Z" transform="translate(-410.18 -59.5)"/><path class="cls-20" d="M1282.64,242.25v-24.8h3.8l.35,4.75a9.09,9.09,0,0,1,3.5-3.9,10.83,10.83,0,0,1,5.8-1.45v4.4h-1.15a10.55,10.55,0,0,0-4,.77,6.24,6.24,0,0,0-3,2.63,10,10,0,0,0-1.1,5.1v12.5Z" transform="translate(-410.18 -59.5)"/><path class="cls-20" d="M1311,242.85a12.12,12.12,0,0,1-6.3-1.63,11.53,11.53,0,0,1-4.32-4.52,14.15,14.15,0,0,1-1.58-6.85,14.43,14.43,0,0,1,1.55-6.83,11.37,11.37,0,0,1,4.33-4.55,12.5,12.5,0,0,1,6.42-1.62,11.63,11.63,0,0,1,6.23,1.62,11,11,0,0,1,4,4.28,12,12,0,0,1,1.4,5.7c0,.37,0,.73,0,1.1s0,.78,0,1.25h-19.75a9.76,9.76,0,0,0,1.33,4.72,7.82,7.82,0,0,0,3,2.83,7.9,7.9,0,0,0,3.77,1,7.48,7.48,0,0,0,4.35-1.2,6.81,6.81,0,0,0,2.55-3.25H1322a10.89,10.89,0,0,1-11,8Zm0-22.45a8.41,8.41,0,0,0-5.32,1.82,7.4,7.4,0,0,0-2.68,5.33h15.6a7.08,7.08,0,0,0-2.3-5.25A7.69,7.69,0,0,0,1311,220.4Z" transform="translate(-410.18 -59.5)"/><path class="cls-20" d="M1328.29,242.25v-24.8h3.8l.25,4.45a9,9,0,0,1,3.45-3.7,9.72,9.72,0,0,1,5.1-1.35,9.41,9.41,0,0,1,7,2.67q2.63,2.68,2.62,8.23v14.5h-4.2V228.2q0-7.75-6.4-7.75a6.91,6.91,0,0,0-5.32,2.32q-2.13,2.32-2.13,6.63v12.85Z" transform="translate(-410.18 -59.5)"/><path class="cls-20" d="M1366.69,242.25a8,8,0,0,1-5.35-1.65q-2-1.65-1.95-5.95V221h-4.3v-3.55h4.3l.55-5.95h3.65v5.95h7.3V221h-7.3v13.65c0,1.57.32,2.62,1,3.17a5.19,5.19,0,0,0,3.35.83h2.6v3.6Z" transform="translate(-410.18 -59.5)"/><path class="cls-20" d="M1386.69,242.85a12.12,12.12,0,0,1-6.3-1.63,11.53,11.53,0,0,1-4.32-4.52,14.15,14.15,0,0,1-1.58-6.85A14.43,14.43,0,0,1,1376,223a11.37,11.37,0,0,1,4.33-4.55,12.5,12.5,0,0,1,6.42-1.62,11.63,11.63,0,0,1,6.23,1.62,11,11,0,0,1,4,4.28,12,12,0,0,1,1.4,5.7c0,.37,0,.73,0,1.1s0,.78,0,1.25h-19.75a9.65,9.65,0,0,0,1.33,4.72,7.75,7.75,0,0,0,3,2.83,7.9,7.9,0,0,0,3.77,1,7.48,7.48,0,0,0,4.35-1.2,6.81,6.81,0,0,0,2.55-3.25h4.15a10.89,10.89,0,0,1-11,8Zm0-22.45a8.41,8.41,0,0,0-5.32,1.82,7.4,7.4,0,0,0-2.68,5.33h15.6a7.08,7.08,0,0,0-2.3-5.25A7.69,7.69,0,0,0,1386.69,220.4Z" transform="translate(-410.18 -59.5)"/><rect class="cls-21" x="448.82" y="594.5" width="201" height="201" rx="25"/><path class="cls-17" d="M909,805.15s.59,11,10.65,11,10.06-11,10.06-11V705.61s.6-12.35-10.06-12.35S909,705.61,909,705.61Z" transform="translate(-410.18 -59.5)"/><path class="cls-17" d="M989,805.18s.59,11,10.65,11,10.06-11,10.06-11V705.67s.6-12.35-10.06-12.35S989,705.67,989,705.67Z" transform="translate(-410.18 -59.5)"/><path class="cls-17" d="M949.05,711.14s-.56-9.95,10.24-9.79,10.48,9.79,10.48,9.79v43.92s-.08,9.27-10.48,9.26-10.24-9.26-10.24-9.26Z" transform="translate(-410.18 -59.5)"/></svg>