<svg id="Capa_1" data-name="Capa 1" xmlns="http://www.w3.org/2000/svg" xmlns:xlink="http://www.w3.org/1999/xlink" width="898.39" height="532.31" viewBox="0 0 898.39 532.31"><defs><style>.cls-1{fill:#2a55ff;}.cls-2{fill:#818284;}.cls-3{fill:url(#Degradado_sin_nombre_13);}.cls-4{fill:#fff;}</style><linearGradient id="Degradado_sin_nombre_13" x1="445.76" x2="445.76" y2="270" gradientUnits="userSpaceOnUse"><stop offset="0" stop-color="#15ffd4"/><stop offset="1" stop-color="#2a55ff"/></linearGradient></defs><title>error404_banner</title><path class="cls-1" d="M513.31,708.51v-140h91.4v20.6h-65.8v38.4h59.8v20h-59.8v40.4h65.8v20.6Z" transform="translate(-513.31 -273.85)"/><path class="cls-1" d="M628.3,708.51v-99.2h22.8l2.4,18.6a41.51,41.51,0,0,1,14.7-15.3q9.3-5.7,21.9-5.7v27h-7.2a40.74,40.74,0,0,0-15,2.6,20.28,20.28,0,0,0-10.3,9q-3.71,6.4-3.7,17.8v45.2Z" transform="translate(-513.31 -273.85)"/><path class="cls-1" d="M707.5,708.51v-99.2h22.8l2.4,18.6a41.51,41.51,0,0,1,14.7-15.3q9.3-5.7,21.9-5.7v27h-7.2a40.74,40.74,0,0,0-15,2.6,20.28,20.28,0,0,0-10.3,9q-3.7,6.4-3.7,17.8v45.2Z" transform="translate(-513.31 -273.85)"/><path class="cls-1" d="M832.5,710.91a51.1,51.1,0,0,1-25.9-6.6A48.53,48.53,0,0,1,788.4,686q-6.69-11.7-6.7-27.1t6.8-27.1a49.29,49.29,0,0,1,18.3-18.3,53.73,53.73,0,0,1,51.6,0,48.39,48.39,0,0,1,18.2,18.3q6.71,11.7,6.7,27.1T876.6,686a48.15,48.15,0,0,1-18.3,18.3A51.23,51.23,0,0,1,832.5,710.91Zm0-22.2a23.65,23.65,0,0,0,17.4-7.5q7.41-7.5,7.4-22.3t-7.4-22.3a23.82,23.82,0,0,0-34.7,0q-7.29,7.5-7.3,22.3t7.3,22.3A23.35,23.35,0,0,0,832.5,688.71Z" transform="translate(-513.31 -273.85)"/><path class="cls-1" d="M906.1,708.51v-99.2h22.8l2.4,18.6a41.51,41.51,0,0,1,14.7-15.3q9.3-5.7,21.9-5.7v27h-7.2a40.74,40.74,0,0,0-15,2.6,20.28,20.28,0,0,0-10.3,9q-3.71,6.4-3.7,17.8v45.2Z" transform="translate(-513.31 -273.85)"/><path class="cls-1" d="M1097.5,708.51v-26h-69v-20.4l65.6-93.6h29v91.8h18.4v22.2h-18.4v26Zm-41.6-48.2h43.2v-63.6Z" transform="translate(-513.31 -273.85)"/><path class="cls-1" d="M1219.1,710.91q-19.41,0-33.2-9.1t-21.3-25.4q-7.5-16.3-7.5-37.9,0-21.39,7.5-37.8t21.3-25.5q13.8-9.11,33.2-9.1t33.2,9.1q13.8,9.1,21.3,25.5t7.5,37.8q0,21.6-7.5,37.9t-21.3,25.4Q1238.5,710.92,1219.1,710.91Zm0-23q15.8,0,25.8-13.2t10-36.2q0-23-10-36.2t-25.8-13.2q-16,0-25.9,13.2t-9.9,36.2q0,23,9.9,36.2T1219.1,687.91Z" transform="translate(-513.31 -273.85)"/><path class="cls-1" d="M1367.7,708.51v-26h-69v-20.4l65.6-93.6h29v91.8h18.4v22.2h-18.4v26Zm-41.6-48.2h43.2v-63.6Z" transform="translate(-513.31 -273.85)"/><path class="cls-2" d="M712.62,789.91v-49h18.13a21.43,21.43,0,0,1,9.73,2,13.18,13.18,0,0,1,5.74,5.39,15.71,15.71,0,0,1,1.89,7.7,15.45,15.45,0,0,1-1.82,7.46,13.37,13.37,0,0,1-5.67,5.46,20.83,20.83,0,0,1-9.87,2.06h-9.17v19Zm9-26.25h8.61q4.69,0,6.76-2.06a8.83,8.83,0,0,0,0-11.34q-2.07-2.07-6.76-2.07h-8.61Z" transform="translate(-513.31 -273.85)"/><path class="cls-2" d="M764.7,790.75a16.56,16.56,0,0,1-7.35-1.43,10,10,0,0,1-4.27-3.82,10.16,10.16,0,0,1-1.4-5.25,9.56,9.56,0,0,1,3.78-7.84q3.78-3,11.34-3h8.82v-.84c0-2.38-.67-4.13-2-5.25a7.63,7.63,0,0,0-5-1.68,8.62,8.62,0,0,0-4.76,1.3,5.58,5.58,0,0,0-2.52,3.81h-8.75a12.28,12.28,0,0,1,2.56-6.58,14.33,14.33,0,0,1,5.7-4.3,19.58,19.58,0,0,1,7.84-1.51q7.43,0,11.69,3.71t4.27,10.5v21.35H777l-.84-5.6a12.84,12.84,0,0,1-4.3,4.62A12.66,12.66,0,0,1,764.7,790.75Zm2-7a7.43,7.43,0,0,0,6-2.52,12.21,12.21,0,0,0,2.69-6.23h-7.63q-3.57,0-5.11,1.3a4,4,0,0,0-1.54,3.18,3.67,3.67,0,0,0,1.54,3.15A6.73,6.73,0,0,0,766.73,783.75Z" transform="translate(-513.31 -273.85)"/><path class="cls-2" d="M807.82,779.55a18.44,18.44,0,0,1-4.69-.56l-2.59,2.59a12.51,12.51,0,0,0,3.22,1q2,.42,6.58.84,6.93.63,10.08,3.29a9.12,9.12,0,0,1,3.15,7.35,11.1,11.1,0,0,1-1.68,5.85,12.06,12.06,0,0,1-5.18,4.48,20.42,20.42,0,0,1-9,1.71q-7.41,0-12-2.76a9.1,9.1,0,0,1-4.55-8.3q0-4.68,4.55-8.12a14.9,14.9,0,0,1-2.41-1.33,12.11,12.11,0,0,1-1.79-1.47v-1.61l6.09-6.44a11.67,11.67,0,0,1-4.06-9.17A12.11,12.11,0,0,1,800.19,756a16,16,0,0,1,7.63-1.68,17.17,17.17,0,0,1,5.46.84h13.16v5.46l-6,.42a13,13,0,0,1-.28,12.25,11.89,11.89,0,0,1-4.86,4.55A15.94,15.94,0,0,1,807.82,779.55Zm-8.4,14.63a4.18,4.18,0,0,0,2.42,3.89,12.41,12.41,0,0,0,5.91,1.29,9.86,9.86,0,0,0,5.46-1.36,4.2,4.2,0,0,0,2.1-3.68,4.1,4.1,0,0,0-1.36-3.15q-1.37-1.26-5.43-1.54c-1.91-.14-3.68-.35-5.32-.63a8.09,8.09,0,0,0-2.9,2.45A4.88,4.88,0,0,0,799.42,794.18Zm8.4-21.49a6.88,6.88,0,0,0,4.52-1.47,5.85,5.85,0,0,0,0-8.4,6.88,6.88,0,0,0-4.52-1.47,7,7,0,0,0-4.62,1.47,5.91,5.91,0,0,0,0,8.4A7,7,0,0,0,807.82,772.69Z" transform="translate(-513.31 -273.85)"/><path class="cls-2" d="M848.42,790.75a19,19,0,0,1-9.31-2.24,16.21,16.21,0,0,1-6.37-6.3,18.61,18.61,0,0,1-2.31-9.38,19.79,19.79,0,0,1,2.28-9.59,16.39,16.39,0,0,1,6.3-6.54,18.42,18.42,0,0,1,9.48-2.35,17.89,17.89,0,0,1,9,2.24,16.11,16.11,0,0,1,6.13,6.13,17.19,17.19,0,0,1,2.2,8.64c0,.52,0,1,0,1.61s-.06,1.15-.11,1.75H839.32a9,9,0,0,0,2.84,6.37,8.9,8.9,0,0,0,6.19,2.31,8.14,8.14,0,0,0,4.59-1.22A7.59,7.59,0,0,0,855.7,779h9.1a16.53,16.53,0,0,1-3.25,6,16.13,16.13,0,0,1-5.6,4.23A17.69,17.69,0,0,1,848.42,790.75Zm.07-29.12a9.53,9.53,0,0,0-5.81,1.86,8.58,8.58,0,0,0-3.22,5.63h17.29a7.58,7.58,0,0,0-2.52-5.46A8.39,8.39,0,0,0,848.49,761.63Z" transform="translate(-513.31 -273.85)"/><path class="cls-2" d="M890.07,789.91V755.19H898l.7,5.88a12.26,12.26,0,0,1,4.66-4.9,13.74,13.74,0,0,1,7.17-1.82q6.45,0,10,4.06t3.57,11.9v19.6h-9V771.15q0-4.47-1.82-6.86c-1.21-1.58-3.1-2.38-5.67-2.38a8,8,0,0,0-6.19,2.66A10.66,10.66,0,0,0,899,772v17.92Z" transform="translate(-513.31 -273.85)"/><path class="cls-2" d="M949.29,790.75a17.85,17.85,0,0,1-9.06-2.31,16.88,16.88,0,0,1-6.37-6.4,18.69,18.69,0,0,1-2.35-9.49,18.49,18.49,0,0,1,2.38-9.48,17.22,17.22,0,0,1,6.41-6.41,18.8,18.8,0,0,1,18.06,0,17,17,0,0,1,6.37,6.41,20.39,20.39,0,0,1,0,19,16.91,16.91,0,0,1-6.41,6.4A18,18,0,0,1,949.29,790.75Zm0-7.77a8.29,8.29,0,0,0,6.09-2.62q2.6-2.62,2.59-7.81t-2.59-7.8a8.32,8.32,0,0,0-12.14,0q-2.57,2.63-2.56,7.8t2.56,7.81A8.15,8.15,0,0,0,949.29,783Z" transform="translate(-513.31 -273.85)"/><path class="cls-2" d="M989.12,789.91a13.46,13.46,0,0,1-8.75-2.66q-3.29-2.65-3.29-9.45V762.68h-6v-7.49h6l1-9.31H986v9.31h9.38v7.49H986v15.19c0,1.68.36,2.84,1.09,3.47a5.73,5.73,0,0,0,3.74.94h4.34v7.63Z" transform="translate(-513.31 -273.85)"/><path class="cls-2" d="M1021.39,789.91V762.68h-4.76v-7.49h4.76v-4.06q0-6.3,3.18-9t8.65-2.66h3.85v7.63h-2.45a4.81,4.81,0,0,0-3.29.91,4.09,4.09,0,0,0-1,3.08v4.06h7.49v7.49h-7.49v27.23Z" transform="translate(-513.31 -273.85)"/><path class="cls-2" d="M1060.17,790.75a17.92,17.92,0,0,1-9.07-2.31,16.92,16.92,0,0,1-6.36-6.4,18.69,18.69,0,0,1-2.35-9.49,18.49,18.49,0,0,1,2.38-9.48,17.27,17.27,0,0,1,6.4-6.41,18.82,18.82,0,0,1,18.07,0,17,17,0,0,1,6.36,6.41,20.32,20.32,0,0,1,0,19,16.81,16.81,0,0,1-6.4,6.4A18,18,0,0,1,1060.17,790.75Zm0-7.77a8.29,8.29,0,0,0,6.09-2.62q2.6-2.62,2.59-7.81t-2.59-7.8a8.32,8.32,0,0,0-12.14,0q-2.56,2.63-2.56,7.8t2.56,7.81A8.15,8.15,0,0,0,1060.17,783Z" transform="translate(-513.31 -273.85)"/><path class="cls-2" d="M1099,790.75q-6.51,0-10-4.06t-3.53-11.9v-19.6h8.89V774q0,4.49,1.82,6.86c1.21,1.59,3.13,2.38,5.74,2.38a7.88,7.88,0,0,0,6.12-2.66q2.41-2.65,2.42-7.42V755.19h9v34.72h-7.91l-.7-5.88a12.2,12.2,0,0,1-4.66,4.9A13.49,13.49,0,0,1,1099,790.75Z" transform="translate(-513.31 -273.85)"/><path class="cls-2" d="M1128.49,789.91V755.19h7.91l.7,5.88a12.24,12.24,0,0,1,4.65-4.9,13.76,13.76,0,0,1,7.18-1.82q6.43,0,10,4.06t3.57,11.9v19.6h-9V771.15q0-4.47-1.82-6.86c-1.22-1.58-3.11-2.38-5.67-2.38a8,8,0,0,0-6.2,2.66q-2.41,2.67-2.41,7.42v17.92Z" transform="translate(-513.31 -273.85)"/><path class="cls-2" d="M1187,790.75a16.24,16.24,0,0,1-8.75-2.38,16.91,16.91,0,0,1-6.09-6.51,19.27,19.27,0,0,1-2.24-9.38,19.06,19.06,0,0,1,2.24-9.34,16.78,16.78,0,0,1,6.09-6.44,16.4,16.4,0,0,1,8.75-2.35,15.17,15.17,0,0,1,6.86,1.47,12.44,12.44,0,0,1,4.76,4.13V739.51h9v50.4h-8l-1-5a15.92,15.92,0,0,1-4.45,4.06A13.17,13.17,0,0,1,1187,790.75Zm1.89-7.84a9.38,9.38,0,0,0,7.1-2.9,11.42,11.42,0,0,0,0-14.91,9.36,9.36,0,0,0-7.1-2.91,9.46,9.46,0,0,0-7.07,2.87,10.18,10.18,0,0,0-2.8,7.42,10.4,10.4,0,0,0,2.8,7.49A9.33,9.33,0,0,0,1188.9,782.91Z" transform="translate(-513.31 -273.85)"/><ellipse class="cls-3" cx="445.76" cy="135" rx="134.66" ry="135"/><path class="cls-4" d="M913.14,475.74a.47.47,0,0,1-.35-.15l-18.1-18.46a.5.5,0,0,1-.14-.35.47.47,0,0,1,.15-.35L942,410l-46.4-47.34a.5.5,0,0,1-.14-.35.47.47,0,0,1,.15-.35l18.46-18.1a.47.47,0,0,1,.35-.14.51.51,0,0,1,.36.15l46.4,47.33L1007,346.34a.51.51,0,0,1,.35-.15h0a.56.56,0,0,1,.35.15l18.1,18.47a.49.49,0,0,1,0,.7L980,410.4l44.9,45.8a.5.5,0,0,1,.14.35.53.53,0,0,1-.15.36L1006.43,475a.5.5,0,0,1-.35.15.51.51,0,0,1-.36-.15l-44.89-45.8L913.5,475.6a.52.52,0,0,1-.35.14Z" transform="translate(-513.31 -273.85)"/><path class="cls-4" d="M914.45,344.25l46.75,47.69,46.15-45.25,18.1,18.47L979.3,410.4l45.24,46.15-18.46,18.1-45.24-46.16-47.69,46.75-18.1-18.46L942.74,410,896,362.34l18.46-18.09m0-1a1,1,0,0,0-.7.28l-18.46,18.1a1,1,0,0,0,0,1.41l46.06,47-47,46.05a1,1,0,0,0-.3.7,1,1,0,0,0,.28.71l18.1,18.46a1,1,0,0,0,1.42,0l47-46,44.54,45.44a1,1,0,0,0,.71.3h0a1,1,0,0,0,.7-.29l18.46-18.1a1,1,0,0,0,0-1.41l-44.54-45.44,45.44-44.54a1,1,0,0,0,.3-.7,1,1,0,0,0-.29-.71L1008.07,346a1,1,0,0,0-1.42,0l-45.44,44.54-46.05-47a1,1,0,0,0-.7-.3Z" transform="translate(-513.31 -273.85)"/></svg>