<svg xmlns="http://www.w3.org/2000/svg" xmlns:xlink="http://www.w3.org/1999/xlink" width="144.04" height="128.48" viewBox="0 0 144.04 128.48"><defs><style>.cls-1{fill:url(#Degradado_sin_nombre_32);}.cls-2{fill:#fff;}.cls-3{fill:#79c037;}</style><linearGradient id="Degradado_sin_nombre_32" x1="72.02" y1="124.74" x2="72.02" y2="3.74" gradientUnits="userSpaceOnUse"><stop offset="0" stop-color="#4c4c4c"/><stop offset="0.02" stop-color="#4f4f4f"/><stop offset="0.23" stop-color="#676767"/><stop offset="0.45" stop-color="#787878"/><stop offset="0.7" stop-color="#828282"/><stop offset="1" stop-color="#858585"/></linearGradient></defs><title>2nd_icon</title><g id="Capa_2" data-name="Capa 2"><g id="Capa_1-2" data-name="Capa 1"><circle class="cls-1" cx="72.02" cy="64.24" r="60.5"/><path class="cls-2" d="M55.15,89.16V82.65q4.47-3.7,8.71-7.35a91.16,91.16,0,0,0,7.56-7.21,40.34,40.34,0,0,0,5.32-7,13.07,13.07,0,0,0,2-6.62,8.93,8.93,0,0,0-1.65-5.32q-1.64-2.31-5.42-2.31a6.9,6.9,0,0,0-5.81,2.52,9.6,9.6,0,0,0-2,6.09H55.22a17.53,17.53,0,0,1,2.38-9,14,14,0,0,1,5.95-5.39,19,19,0,0,1,8.33-1.79q7.49,0,11.65,4.1A14.2,14.2,0,0,1,87.7,54a18,18,0,0,1-1.86,7.91A35.17,35.17,0,0,1,81,69.35,66.31,66.31,0,0,1,74.47,76q-3.51,3.1-6.79,5.77H88.89v7.35Z"/><path class="cls-3" d="M24.94,11.64S25.89,2.27,37.33,0C37.33,0,35.89,7.83,24.94,11.64Z"/><path class="cls-3" d="M21.37,2.31s-8.16,6.31-5.22,19L12.67,28s-.1,1.45,1.27.44l3.47-5.93s12.36-.3,17.42-11c0,0-10.76,1.76-15.85,7.93C19,19.5,23.78,8,21.37,2.31Z"/><path class="cls-3" d="M8.18,20s-6,8.4.47,19.65l-1.36,7.5s.32,1.41,1.34,0l1.61-6.68S22,36.65,23.73,25c0,0-9.78,4.8-12.87,12.18C10.86,37.14,12.14,24.78,8.18,20Z"/><path class="cls-3" d="M.8,41.47S-2.3,51.31,7.33,60l1,7.55s.74,1.25,1.29-.36l-.53-6.85s10-7.31,8-19c0,0-7.82,7.59-8.48,15.57C8.65,57,6.05,44.8.8,41.47Z"/><path class="cls-3" d="M0,63.87S-.42,74.18,11.15,80.06l3,7s1,1,1.15-.69L13,79.92s7.72-9.65,2.79-20.39c0,0-5.57,9.37-4.12,17.23C11.63,76.76,5.94,65.71,0,63.87Z"/><path class="cls-3" d="M5.09,86.58s2.81,10.68,16.51,13l5.23,6.26s1.39.7,1-1.07l-4.4-5.9s4.85-12.31-3.58-21.74c0,0-2.74,11.34,1.22,18.93C21,96.11,11.75,86.59,5.09,86.58Z"/><path class="cls-3" d="M14.6,106.11s6.49,10.15,21.5,8l7.53,4.76s1.68.26.65-1.44l-6.54-4.65s.93-14.42-11-21.4c0,0,.93,12.69,7.58,19.26C34.35,110.68,21.52,103.9,14.6,106.11Z"/><path class="cls-3" d="M30.24,122.21s9.7,9.31,25.44,3.09l9.41,3.18s1.89-.15.33-1.72l-8.32-3.34s-2.76-15.88-17.51-20.34c0,0,4.34,13.53,13.27,18.91C52.86,122,37.17,118,30.24,122.21Z"/><path class="cls-3" d="M119.1,11.64S118.15,2.27,106.71,0C106.71,0,108.15,7.83,119.1,11.64Z"/><path class="cls-3" d="M122.67,2.31s8.16,6.31,5.22,19L131.37,28s.1,1.45-1.28.44l-3.47-5.93s-12.36-.3-17.41-11c0,0,10.76,1.76,15.85,7.93C125.06,19.5,120.25,8,122.67,2.31Z"/><path class="cls-3" d="M135.86,20s6,8.4-.48,19.65l1.37,7.5s-.32,1.41-1.35,0l-1.6-6.68S122.05,36.65,120.3,25c0,0,9.79,4.8,12.88,12.18C133.18,37.14,131.89,24.78,135.86,20Z"/><path class="cls-3" d="M143.24,41.47s3.1,9.84-6.53,18.54l-1,7.55s-.74,1.25-1.3-.36l.54-6.85s-10-7.31-8-19c0,0,7.82,7.59,8.48,15.57C135.39,57,138,44.8,143.24,41.47Z"/><path class="cls-3" d="M144,63.87s.42,10.31-11.15,16.19l-2.95,7s-1.05,1-1.16-.69l2.31-6.48s-7.72-9.65-2.79-20.39c0,0,5.57,9.37,4.12,17.23C132.41,76.76,138.09,65.71,144,63.87Z"/><path class="cls-3" d="M139,86.58s-2.82,10.68-16.51,13l-5.24,6.26s-1.38.7-1-1.07l4.4-5.9s-4.86-12.31,3.57-21.74c0,0,2.75,11.34-1.21,18.93C123,96.11,132.29,86.59,139,86.58Z"/><path class="cls-3" d="M129.44,106.11s-6.49,10.15-21.51,8l-7.53,4.76s-1.67.26-.64-1.44l6.54-4.65s-.94-14.42,11-21.4c0,0-.94,12.69-7.58,19.26C109.69,110.68,122.52,103.9,129.44,106.11Z"/><path class="cls-3" d="M113.8,122.21s-9.7,9.31-25.44,3.09l-9.42,3.18s-1.88-.15-.32-1.72l8.32-3.34s2.76-15.88,17.51-20.34c0,0-4.34,13.53-13.28,18.91C91.17,122,106.87,118,113.8,122.21Z"/></g></g></svg>