<svg xmlns="http://www.w3.org/2000/svg" xmlns:xlink="http://www.w3.org/1999/xlink" viewBox="0 0 169.32 169.32"><defs><style>.cls-1{fill:url(#Degradado_sin_nombre_41);}.cls-2{fill:#fff;}</style><linearGradient id="Degradado_sin_nombre_41" x1="84.66" y1="169.32" x2="84.66" gradientUnits="userSpaceOnUse"><stop offset="0" stop-color="#6a041d"/><stop offset="0.06" stop-color="#7c0427"/><stop offset="0.2" stop-color="#a4023c"/><stop offset="0.35" stop-color="#c5024e"/><stop offset="0.5" stop-color="#de015c"/><stop offset="0.65" stop-color="#f10066"/><stop offset="0.82" stop-color="#fb006c"/><stop offset="1" stop-color="#ff006e"/></linearGradient></defs><title>arcade_icon_1</title><g id="Capa_2" data-name="Capa 2"><g id="Capa_1-2" data-name="Capa 1"><rect class="cls-1" width="169.32" height="169.32" rx="16"/><path class="cls-2" d="M84.66,31.16a53.5,53.5,0,1,0,53.5,53.5A53.5,53.5,0,0,0,84.66,31.16Zm31.21,78.67s-10.31,8.84-25-6.62L93,122.35H76.84l3-19.88s-14,14.73-24.31,8.1c0,0-8.84-8.1,0-16.94,0,0-9.57-10.31-3.68-15.46,0,0,7.36-8.84,25.78,3.68,0,0-20.62-20.62-7.37-32.41,0,0,9.58-7.36,14.73,5.9,0,0,3.68-8.84,10.31-8.1,0,0,21.36,6.62-2.21,33.87,0,0,19.15-11.78,25.78-2.21,0,0,4.42,7.37-4.42,14C114.4,92.9,122.5,103.21,115.87,109.83Z"/></g></g></svg>