<svg xmlns="http://www.w3.org/2000/svg" viewBox="0 0 107 107"><defs><style>.cls-1{fill:#fff;}</style></defs><title>arcade_icon_white</title><g id="Capa_2" data-name="Capa 2"><g id="Capa_1-2" data-name="Capa 1"><path class="cls-1" d="M53.5,0A53.5,53.5,0,1,0,107,53.5,53.5,53.5,0,0,0,53.5,0ZM84.71,78.67s-10.31,8.84-25-6.62l2.21,19.14H45.68l2.94-19.88s-14,14.73-24.3,8.1c0,0-8.84-8.1,0-16.94,0,0-9.57-10.31-3.68-15.46,0,0,7.36-8.84,25.77,3.68,0,0-20.62-20.62-7.36-32.41,0,0,9.57-7.36,14.73,5.9,0,0,3.68-8.84,10.31-8.11,0,0,21.36,6.63-2.21,33.88,0,0,19.15-11.78,25.78-2.21,0,0,4.42,7.37-4.42,14C83.24,61.73,91.34,72.05,84.71,78.67Z"/></g></g></svg>