<svg xmlns="http://www.w3.org/2000/svg" xmlns:xlink="http://www.w3.org/1999/xlink" viewBox="0 0 169.32 169.32"><defs><style>.cls-1{fill:url(#Degradado_sin_nombre_14);}.cls-2{fill:#fff;}</style><linearGradient id="Degradado_sin_nombre_14" x1="84.66" y1="169.32" x2="84.66" gradientUnits="userSpaceOnUse"><stop offset="0" stop-color="#730017"/><stop offset="1" stop-color="#ff0009"/></linearGradient></defs><title>deathmatch_icon_1</title><g id="Capa_2" data-name="Capa 2"><g id="Capa_1-2" data-name="Capa 1"><rect class="cls-1" width="169.32" height="169.32" rx="16"/><path class="cls-2" d="M129.16,113.64l-3.22,2.51L112.7,102.9l7.16-7.51a6.84,6.84,0,0,0,0-2.87,6.06,6.06,0,0,0-3.94-3.93s-.36-.36-2.87,0L106.25,95,97.6,85.37l31.82-28.52A3.85,3.85,0,0,0,130.86,54l1.07-16.83-17.18,1.08a6,6,0,0,0-2.15,1.43L84.71,71,56.85,39.9A3.85,3.85,0,0,0,54,38.47L37.16,37.39l1.08,17.19a6,6,0,0,0,1.43,2.14L71.88,85.4,63.2,95.15l-6.81-6.44a5.46,5.46,0,0,0-2.86-.36,16.72,16.72,0,0,0-4.3,3.94,4.49,4.49,0,0,0,0,3.22L56.39,103,43.15,116.28l-2.87-2.51s-3.22-1.07-2.86,2.86l15,15.4s3.93,1.07,3.22-2.87l-2.51-3.22L66.42,112.7l7.52,7.16a6.78,6.78,0,0,0,2.86,0,6.09,6.09,0,0,0,3.94-3.94s.36-.36,0-2.87l-6.45-6.8,10.47-9.38,10.39,9.26-6.44,6.8a5.46,5.46,0,0,0-.36,2.86,16.55,16.55,0,0,0,3.94,4.3,4.49,4.49,0,0,0,3.22,0l7.52-7.16,13.25,13.24L113.77,129s-1.07,3.22,2.86,2.86l15.4-15S133.1,112.93,129.16,113.64Z"/></g></g></svg>