<svg xmlns="http://www.w3.org/2000/svg" viewBox="0 0 94.35 94.35"><defs><style>.cls-1{fill:#fff;}</style></defs><title>deathmatch_icon_white</title><g id="Capa_2" data-name="Capa 2"><g id="Capa_1-2" data-name="Capa 1"><path class="cls-1" d="M91.37,76l-3.2,2.49L75,65.29l7.11-7.46a6.55,6.55,0,0,0,0-2.85,6,6,0,0,0-3.91-3.91s-.36-.35-2.85,0l-6.75,6.4L60,47.88,91.63,19.55a3.82,3.82,0,0,0,1.42-2.84L94.12,0,77.05,1.07a6.05,6.05,0,0,0-2.13,1.42L47.22,33.6,19.55,2.72A3.82,3.82,0,0,0,16.71,1.3L0,.23,1.07,17.3a6.05,6.05,0,0,0,1.42,2.13l32,28.48L25.86,57.6,19.1,51.2a5.39,5.39,0,0,0-2.84-.36A16.51,16.51,0,0,0,12,54.75,4.44,4.44,0,0,0,12,58l7.11,7.47L6,78.57,3.1,76.09S-.1,75,.26,78.93L15.19,94.22s3.91,1.06,3.2-2.85l-2.49-3.2L29.06,75l7.46,7.11a6.56,6.56,0,0,0,2.85,0,6,6,0,0,0,3.91-3.91s.35-.36,0-2.85l-6.4-6.75L47.27,59.3,57.6,68.49l-6.4,6.76a5.39,5.39,0,0,0-.36,2.84,16.51,16.51,0,0,0,3.91,4.27,4.44,4.44,0,0,0,3.2,0l7.47-7.11L78.57,88.4l-2.48,2.85s-1.07,3.2,2.84,2.84L94.22,79.16S95.28,75.25,91.37,76Z"/></g></g></svg>