<svg xmlns="http://www.w3.org/2000/svg" xmlns:xlink="http://www.w3.org/1999/xlink" width="169.32" height="169.32" viewBox="0 0 169.32 169.32"><defs><style>.cls-1{fill:url(#Degradado_sin_nombre_8);}.cls-2{fill:#fff;}</style><linearGradient id="Degradado_sin_nombre_8" x1="84.66" y1="169.32" x2="84.66" gradientUnits="userSpaceOnUse"><stop offset="0" stop-color="#ffbe0b"/><stop offset="0.11" stop-color="#ffc80b"/><stop offset="0.39" stop-color="#ffda0a"/><stop offset="0.67" stop-color="#ffe40a"/><stop offset="1" stop-color="#ffe80a"/></linearGradient></defs><title>leaderboard_icon</title><g id="Capa_2" data-name="Capa 2"><g id="Capa_1-2" data-name="Capa 1"><rect class="cls-1" width="169.32" height="169.32" rx="16"/><path class="cls-2" d="M132.52,70.52V41.45a1.1,1.1,0,0,0-1.1-1.1H115.68a1.11,1.11,0,0,1-1.11-1.1V31.76a1.1,1.1,0,0,0-1.1-1.1H55.8a1.1,1.1,0,0,0-1.1,1.07l-.22,7.55a1.11,1.11,0,0,1-1.11,1.07H37.88a1.1,1.1,0,0,0-1.1,1.1v29a.57.57,0,0,0,0,.13,31.41,31.41,0,0,0,14.44,23,.61.61,0,0,1,.16.12c6.21,5.58,22.38,6.83,25.58,7a1.11,1.11,0,0,1,.87.52,12.34,12.34,0,0,1,1.66,4,.75.75,0,0,1,0,.21v24.16a1.1,1.1,0,0,1-1.1,1.1H58.91a1,1,0,0,0-.37.07,6.16,6.16,0,0,0-3.78,4.36,1,1,0,0,0,0,.24v2.21a1.1,1.1,0,0,0,1.1,1.1h57.64a1.1,1.1,0,0,0,1.1-1.1v-2.75a1.33,1.33,0,0,0,0-.28c-.54-2.05-2.73-3.16-3.45-3.47a1.12,1.12,0,0,0-.44-.09H91.45a1.11,1.11,0,0,1-1.1-1.11v-24c-.21-1.69.83-3.69,1.38-4.61a1.13,1.13,0,0,1,.91-.54c18.18-.64,25.16-6.42,25.86-7a.71.71,0,0,1,.14-.1c14.56-9.39,13.94-22.22,13.89-23C132.53,70.57,132.52,70.54,132.52,70.52ZM45,70.18V49.72a1.11,1.11,0,0,1,1.1-1.11h7.2a1.11,1.11,0,0,1,1.11,1.11V69.06a.76.76,0,0,0,0,.15c.12.9,1.57,9.69,12.24,20.07a1.1,1.1,0,0,1-1,1.87c-6.14-1.26-18.3-5.65-20.65-20.79A1.1,1.1,0,0,1,45,70.18Zm79.21.46c-2.36,15.14-14.52,19.53-20.66,20.79a1.1,1.1,0,0,1-1-1.87c10.66-10.38,12.11-19.17,12.24-20.07,0,0,0-.1,0-.14V50a1.1,1.1,0,0,1,1.1-1.1h7.2a1.1,1.1,0,0,1,1.1,1.1V70.47A.91.91,0,0,1,124.25,70.64Z"/></g></g></svg>