<svg xmlns="http://www.w3.org/2000/svg" viewBox="0 0 161 161"><defs><style>.cls-1{fill:#00b76f;}.cls-2{fill:#fff;}</style></defs><title>ok_icon</title><g id="Capa_2" data-name="Capa 2"><g id="Capa_1-2" data-name="Capa 1"><circle class="cls-1" cx="80.5" cy="80.5" r="80.5"/></g><g id="Capa_2-2" data-name="Capa 2"><path class="cls-2" d="M68.06,123.14a.47.47,0,0,1-.35-.15L29.28,83.79a.5.5,0,0,1-.14-.35.45.45,0,0,1,.15-.35L40.23,72.36a.5.5,0,0,1,.35-.14.47.47,0,0,1,.35.15l27.35,27.9,50.9-50.62a.47.47,0,0,1,.35-.15.5.5,0,0,1,.34.13l11.83,11a.51.51,0,0,1,0,.73L79.35,112.28,68.42,123a.52.52,0,0,1-.35.14Z"/><path class="cls-2" d="M119.53,50l11.83,11L79,111.92,68.07,122.64,57.34,111.7,29.64,83.44,40.58,72.72,68.28,101l51.25-51m0-1a1,1,0,0,0-.71.29L68.29,99.56,41.29,72a1,1,0,0,0-1.41,0L28.94,82.73a1,1,0,0,0,0,1.41L56.63,112.4l10.72,10.94a1,1,0,0,0,.71.3h0a1,1,0,0,0,.7-.28L79.7,112.63l52.36-50.91a1,1,0,0,0,0-1.45l-11.83-11a1,1,0,0,0-.68-.27Z"/></g></g></svg>