<svg xmlns="http://www.w3.org/2000/svg" xmlns:xlink="http://www.w3.org/1999/xlink" viewBox="0 0 169.32 169.32"><defs><style>.cls-1{fill:url(#Degradado_sin_nombre_23);}.cls-2{fill:#fff;}</style><linearGradient id="Degradado_sin_nombre_23" x1="84.66" y1="169.32" x2="84.66" gradientUnits="userSpaceOnUse"><stop offset="0" stop-color="#49006a"/><stop offset="1" stop-color="#6100bf"/></linearGradient></defs><title>practice_icon</title><g id="Capa_2" data-name="Capa 2"><g id="Capa_1-2" data-name="Capa 1"><rect class="cls-1" width="169.32" height="169.32" rx="16"/><path class="cls-2" d="M104.49,129.86a5.27,5.27,0,1,0,5.26,5.27,5.27,5.27,0,0,0-5.26-5.27Z"/><path class="cls-2" d="M89.24,140.39H70.57c-4.48-.24-11.13-3.81-11.18-12.69,0-1.27,0-6.38,3.51-10a10.71,10.71,0,0,1,7.93-3.23H93.52c1.42-.06,5-.86,5.16-6.93v-6.08c-.5-2.81.63-7.52,9.07-13.82a30.69,30.69,0,0,0,6.12-12c2.35-9.54-.82-18.91-9.4-27.85l-.08-.1c-.07-.07-8.37-8.86-20.08-8.72C75.78,39,64.93,43.69,59,53c-3.28,6.17-7.32,14-4.53,23.37,1.42,4.82,4.63,10.06,10.63,15.74,1.87,1.27,4.93,4.56,5,12.51a5.16,5.16,0,0,1-4.57,5.27,5,5,0,0,1-5.43-5c0-3.06-.62-4.31-.82-4.65a5,5,0,0,1-.62-.49C38.34,81,41,56.32,57.39,40.4c7.8-7.59,18.33-11.4,27-11.47h.25c15.66,0,26.18,10.9,27.13,11.93,27,28.17,3.27,53.7,3,54a5.34,5.34,0,0,1-.67.59c-3.84,2.81-5.06,4.55-5.41,5.17a2.44,2.44,0,0,1,0,.27v6.92c-.35,12.26-9.26,16.71-15.16,16.71H70.83a1,1,0,0,0-.71.16,5.16,5.16,0,0,0-.73,2.76v.21c0,1.25.21,2.55,1.72,2.79H89.46a5,5,0,0,1,5,5.49A5.15,5.15,0,0,1,89.24,140.39ZM60,100.67Zm0,0h0Zm0,0h0Zm0,0Zm0,0h0Zm48.3-1.83.06.14Zm0,0h0Z"/><path class="cls-2" d="M64.06,74.69a5.78,5.78,0,0,1-.71,0A5,5,0,0,1,59.11,69C60.38,60,67.45,43.36,85,44.37a5,5,0,1,1-.57,10C71.52,53.61,69.1,69.71,69,70.39A5,5,0,0,1,64.06,74.69Z"/></g></g></svg>