<svg xmlns="http://www.w3.org/2000/svg" viewBox="0 0 80.37 111.46"><defs><style>.cls-1{fill:#fff;}</style></defs><title>practice_icon_1</title><g id="Capa_2" data-name="Capa 2"><g id="Capa_1-2" data-name="Capa 1"><path class="cls-1" d="M60.24,100.93a5.27,5.27,0,1,0,5.26,5.26,5.27,5.27,0,0,0-5.26-5.26Z"/><path class="cls-1" d="M45,111.45H26.31c-4.47-.24-11.12-3.81-11.17-12.69,0-1.27,0-6.38,3.51-10a10.67,10.67,0,0,1,7.93-3.23H49.27c1.42-.06,5-.86,5.16-6.93V72.53c-.51-2.82.63-7.53,9.06-13.82a30.8,30.8,0,0,0,6.13-12c2.34-9.54-.82-18.92-9.4-27.86l-.09-.09c-.06-.07-8.37-8.87-20.07-8.72-8.53.1-19.39,4.76-25.34,14.07-3.28,6.17-7.32,14-4.53,23.37,1.42,4.81,4.63,10.06,10.63,15.73,1.87,1.28,4.92,4.57,5,12.51A5.17,5.17,0,0,1,21.25,81a5,5,0,0,1-5.43-5c0-3-.62-4.31-.83-4.64a5.8,5.8,0,0,1-.62-.49C-5.92,52.06-3.24,27.39,13.14,11.47,20.94,3.88,31.47.06,40.09,0h.24C56,0,66.52,10.9,67.47,11.92c27,28.18,3.27,53.7,3,54a5.26,5.26,0,0,1-.67.58C66,69.27,64.77,71,64.42,71.63c0,.1,0,.19,0,.28v6.92c-.36,12.26-9.26,16.71-15.16,16.71H26.58c-.38,0-.62,0-.71.15a5.12,5.12,0,0,0-.73,2.77v.21c0,1.24.21,2.54,1.72,2.78H45.2a5,5,0,0,1,5,5.5A5.14,5.14,0,0,1,45,111.45ZM15.73,71.74h0Zm0,0h0Zm0,0h0Zm0,0h0Zm0,0ZM64,69.89l.06.14Zm0,0h0Z"/><path class="cls-1" d="M19.81,45.75a4.24,4.24,0,0,1-.71,0,5,5,0,0,1-4.25-5.65c1.28-9,8.34-25.62,25.9-24.61a5,5,0,1,1-.58,10c-12.9-.74-15.32,15.35-15.42,16A5,5,0,0,1,19.81,45.75Z"/></g></g></svg>