<svg xmlns="http://www.w3.org/2000/svg" viewBox="0 0 161 161"><defs><style>.cls-1{fill:#654597;}.cls-2{fill:#fff;}</style></defs><title>question_icon</title><g id="Capa_2" data-name="Capa 2"><g id="Capa_1-2" data-name="Capa 1"><circle class="cls-1" cx="80.5" cy="80.5" r="80.5"/><path class="cls-2" d="M79.37,24.1c18.75,0,30.6,12.6,32.1,27.45C112.82,64,106.37,78.4,90.62,84.7v7.8c0,12-19.05,12.75-19.05,0V79.6c0-5.4,2.85-8.1,6.45-9.45,9.15-3.3,14.55-6.75,14.55-15.75,0-6.6-6.6-11.7-13.2-11.7-6.3,0-11.7,1.8-15.75,8.55-6.29,9.3-20.69,0-15.74-9.9C53.28,33.25,59.87,24.1,79.37,24.1Zm-7.8,94.65c0-12.15,19.65-12,19.65,0v2.55c0,12-19.65,12.15-19.65,0Z"/></g></g></svg>