<svg xmlns="http://www.w3.org/2000/svg" viewBox="0 0 76.58 106.35"><defs><style>.cls-1{fill:#fff;}</style></defs><title>rush_icon_white</title><g id="Capa_2" data-name="Capa 2"><g id="Capa_1-2" data-name="Capa 1"><path class="cls-1" d="M73,96.42H69.85V81.18A14.23,14.23,0,0,0,65.24,73L51.41,57.43c-3.9-3.9,0-8.86,0-8.86L66,32.61a9.79,9.79,0,0,0,3.54-7.79V9.93h3.19c3.55-.71,3.9-4.61,3.9-4.61A5.51,5.51,0,0,0,72.68,0H4.26A4.67,4.67,0,0,0,0,5C0,8.51,3.55,9.57,3.55,9.57l3.19.36V25.52a14.58,14.58,0,0,0,3.19,6l15.6,17.73c2.84,3.54,0,7.79,0,7.79L11,73.38a12.23,12.23,0,0,0-4.26,7.8V96.42H3.55c-3.9,1.78-3.54,5-3.54,5,0,3.9,4.25,5,4.25,5H73.39A6.45,6.45,0,0,0,76.58,101C76.58,97.84,73,96.42,73,96.42Zm-13.12,0H16.32V82.24L34,62s6-8.16-.71-18.79l-17-18.79V9.93h43.6V24.46L43.61,42.89s-8.15,11,.36,20.57l16,18.43Z"/></g></g></svg>