<svg xmlns="http://www.w3.org/2000/svg" viewBox="0 0 161 161"><defs><style>.cls-1{fill:#ff3636;}.cls-2{fill:#fff;}</style></defs><title>x_icon</title><g id="Capa_2" data-name="Capa 2"><g id="Capa_1-2" data-name="Capa 1"><circle class="cls-1" cx="80.5" cy="80.5" r="80.5"/></g><g id="Capa_2-2" data-name="Capa 2"><path class="cls-2" d="M52.59,119.85a.51.51,0,0,1-.36-.15L41.51,108.76a.5.5,0,0,1,0-.71L69.42,80.7,42.06,52.79a.49.49,0,0,1,0-.7L53,41.36a.5.5,0,0,1,.35-.14h0a.49.49,0,0,1,.36.15l27.35,27.9,27-26.46a.52.52,0,0,1,.35-.14h0a.47.47,0,0,1,.35.15l10.72,10.94a.5.5,0,0,1,0,.71l-27,26.46,26.46,27a.47.47,0,0,1,.15.35.53.53,0,0,1-.15.36L108,119.35a.54.54,0,0,1-.35.14.51.51,0,0,1-.36-.15l-26.46-27L52.94,119.7A.5.5,0,0,1,52.59,119.85Z"/><path class="cls-2" d="M53.36,41.72,81.06,70l27.35-26.81,10.73,10.94L91.79,80.92l26.81,27.35L107.66,119,80.85,91.64,52.59,119.35,41.86,108.41,70.12,80.7,42.42,52.44,53.36,41.72m0-1a1,1,0,0,0-.7.28L41.72,51.73a1,1,0,0,0,0,1.41l27,27.55-27.55,27a1,1,0,0,0,0,1.42l10.72,10.94a1,1,0,0,0,.71.3h0a1,1,0,0,0,.7-.29l27.54-27,26.11,26.63a1,1,0,0,0,.71.3h0a1,1,0,0,0,.7-.28L119.3,109a1,1,0,0,0,0-1.41L93.2,80.93l26.64-26.11a1,1,0,0,0,.3-.7,1,1,0,0,0-.29-.71L109.13,42.47a1,1,0,0,0-1.42,0L81.08,68.57,54.07,41a1,1,0,0,0-.7-.3Z"/></g></g></svg>