<svg xmlns="http://www.w3.org/2000/svg" viewBox="0 0 95 95"><defs><style>.cls-1{fill:#fff;}</style></defs><title>classic_icon_white</title><g id="Capa_2" data-name="Capa 2"><g id="Capa_1-2" data-name="Capa 1"><path class="cls-1" d="M86.23,0H8.77A8.8,8.8,0,0,0,0,8.77V86.23A8.8,8.8,0,0,0,8.77,95H86.23A8.8,8.8,0,0,0,95,86.23V8.77A8.8,8.8,0,0,0,86.23,0ZM21.56,32.88A12.06,12.06,0,1,1,33.62,20.83,12.05,12.05,0,0,1,21.56,32.88ZM47.5,59.56A12.06,12.06,0,1,1,59.56,47.5,12.06,12.06,0,0,1,47.5,59.56ZM71.62,83.67a12.06,12.06,0,1,1,12-12A12.06,12.06,0,0,1,71.62,83.67Z"/></g></g></svg>