<svg xmlns="http://www.w3.org/2000/svg" xmlns:xlink="http://www.w3.org/1999/xlink" viewBox="0 0 169.32 169.32"><defs><style>.cls-1{fill:url(#Degradado_sin_nombre_37);}.cls-2{fill:#fff;}</style><linearGradient id="Degradado_sin_nombre_37" x1="84.66" y1="169.32" x2="84.66" gradientUnits="userSpaceOnUse"><stop offset="0" stop-color="#388659"/><stop offset="0.03" stop-color="#3d8a54"/><stop offset="0.2" stop-color="#5ea236"/><stop offset="0.39" stop-color="#77b61e"/><stop offset="0.58" stop-color="#8ac30d"/><stop offset="0.78" stop-color="#94cb03"/><stop offset="1" stop-color="#98ce00"/></linearGradient></defs><title>classic_icon_1</title><g id="Capa_2" data-name="Capa 2"><g id="Capa_1-2" data-name="Capa 1"><rect class="cls-1" width="169.32" height="169.32" rx="16"/><path class="cls-2" d="M123.39,37.16H45.93a8.8,8.8,0,0,0-8.77,8.77v77.46a8.79,8.79,0,0,0,8.77,8.77h77.46a8.79,8.79,0,0,0,8.77-8.77V45.93A8.79,8.79,0,0,0,123.39,37.16ZM58.72,70.05A12.06,12.06,0,1,1,70.78,58,12.06,12.06,0,0,1,58.72,70.05ZM84.66,96.72A12.06,12.06,0,1,1,96.72,84.66,12.06,12.06,0,0,1,84.66,96.72Zm24.12,24.11a12.06,12.06,0,1,1,12-12A12.05,12.05,0,0,1,108.78,120.83Z"/></g></g></svg>