<svg xmlns="http://www.w3.org/2000/svg" xmlns:xlink="http://www.w3.org/1999/xlink" viewBox="0 0 169.32 169.32"><defs><style>.cls-1{fill:url(#Degradado_sin_nombre_73);}.cls-2{fill:#fff;}</style><linearGradient id="Degradado_sin_nombre_73" x1="84.66" y1="169.32" x2="84.66" gradientUnits="userSpaceOnUse"><stop offset="0" stop-color="#00487c"/><stop offset="1" stop-color="#2a8eff"/></linearGradient></defs><title>rush_icon_1</title><g id="Capa_2" data-name="Capa 2"><g id="Capa_1-2" data-name="Capa 1"><rect class="cls-1" width="169.32" height="169.32" rx="16"/><path class="cls-2" d="M118.7,127h-3.13V112.1a13.94,13.94,0,0,0-4.51-8L97.52,88.83c-3.83-3.82,0-8.68,0-8.68l14.23-15.63a9.64,9.64,0,0,0,3.48-7.64V42.29h3.12c3.48-.69,3.82-4.51,3.82-4.51a5.39,5.39,0,0,0-3.82-5.21h-67a4.58,4.58,0,0,0-4.17,4.86c0,3.47,3.47,4.51,3.47,4.51l3.13.35V57.57a14.23,14.23,0,0,0,3.12,5.91L72.16,80.84c2.78,3.47,0,7.64,0,7.64l-14.24,16a11.91,11.91,0,0,0-4.16,7.64V127H50.63c-3.82,1.74-3.47,4.86-3.47,4.86,0,3.82,4.17,4.87,4.17,4.87h67.72a6.33,6.33,0,0,0,3.12-5.21C122.17,128.42,118.7,127,118.7,127Zm-12.85,0H63.13V113.14L80.5,93.34s5.9-8-.7-18.4L63.13,56.53V42.29h42.72V56.53l-16,18.06s-8,10.77.35,20.14l15.63,18.06Z"/></g></g></svg>