<svg xmlns="http://www.w3.org/2000/svg" viewBox="0 0 114.78 76.32"><defs><style>.cls-1{fill:#fff;}</style></defs><title>play_icon_white</title><g id="Capa_2" data-name="Capa 2"><g id="Capa_1-2" data-name="Capa 1"><path class="cls-1" d="M111.49,29.37C102.26-1.24,85.16.11,85.16.11c-9.23-1.12-20,6.53-20,6.53C57,10,48.93,6.41,48.93,6.41,37.68-2.14,26.65.34,26.65.34,9.77,3.49,3,29.37,3,29.37-6.65,78.87,10,76,10,76,16.75,79.32,33.18,58.4,33.18,58.4c1.57-2.71,5.62-2.93,5.62-2.93H75.93c4.73,1.12,5.85,3.6,5.85,3.6C98.66,80.45,105.86,75.5,105.86,75.5,121.84,70.1,111.49,29.37,111.49,29.37ZM45.55,31.84H37v8.55H27.78V31.84H19.22v-9h8.56V14.29h9v8.55h8.77Zm34,10.8a6.53,6.53,0,1,1,6.53-6.52A6.52,6.52,0,0,1,79.53,42.64Zm0-17.1A6.53,6.53,0,1,1,86.06,19,6.52,6.52,0,0,1,79.53,25.54Zm15.53,9.23a6.53,6.53,0,1,1,6.52-6.53A6.53,6.53,0,0,1,95.06,34.77Z"/></g></g></svg>