<svg xmlns="http://www.w3.org/2000/svg" width="192.05" height="182.22" viewBox="0 0 192.05 182.22"><defs><style>.cls-1{isolation:isolate;}.cls-2{fill:gray;}.cls-3{fill:#ebebeb;}</style></defs><title>challenge_icon</title><g id="Capa_2" data-name="Capa 2"><g id="Capa_2-2" data-name="Capa 2"><g class="cls-1"><polygon class="cls-2" points="71.26 57.98 63.49 64.08 90.85 6.09 98.62 0 71.26 57.98"/><polygon class="cls-2" points="158.94 176.13 151.18 182.22 93.66 152.14 101.42 146.04 158.94 176.13"/><polygon class="cls-2" points="54.7 112.4 46.94 118.5 0 73.37 7.76 67.27 54.7 112.4"/><polygon class="cls-2" points="45.05 176.13 37.28 182.22 46.94 118.5 54.7 112.4 45.05 176.13"/><polygon class="cls-2" points="101.42 146.04 93.66 152.14 37.28 182.22 45.05 176.13 101.42 146.04"/><polygon class="cls-3" points="98.62 0 128.2 57.98 192.05 67.27 146.85 112.4 158.94 176.13 101.42 146.04 45.05 176.13 54.7 112.4 7.76 67.27 71.26 57.98 98.62 0"/></g></g></g></svg>