<svg xmlns="http://www.w3.org/2000/svg" xmlns:xlink="http://www.w3.org/1999/xlink" width="219.37" height="187.27" viewBox="0 0 219.37 187.27"><defs><style>.cls-1{fill:none;}.cls-2{isolation:isolate;}.cls-3{clip-path:url(#clip-path);}.cls-4{fill:#858585;}.cls-5{fill:gray;}.cls-6{clip-path:url(#clip-path-2);}.cls-7{clip-path:url(#clip-path-3);}.cls-8{clip-path:url(#clip-path-4);}.cls-9{clip-path:url(#clip-path-5);}.cls-10{clip-path:url(#clip-path-6);}.cls-11{clip-path:url(#clip-path-7);}.cls-12{clip-path:url(#clip-path-8);}.cls-13{clip-path:url(#clip-path-9);}.cls-14{clip-path:url(#clip-path-10);}.cls-15{fill:#ebebeb;}.cls-16{clip-path:url(#clip-path-11);}.cls-17{clip-path:url(#clip-path-12);}.cls-18{clip-path:url(#clip-path-13);}.cls-19{clip-path:url(#clip-path-14);}.cls-20{clip-path:url(#clip-path-15);}.cls-21{clip-path:url(#clip-path-16);}.cls-22{clip-path:url(#clip-path-17);}</style><clipPath id="clip-path" transform="translate(0)"><path class="cls-1" d="M165,7.09,172.78,1a8,8,0,0,0-.77.7l-7.77,6.09A7.84,7.84,0,0,1,165,7.09Z"/></clipPath><clipPath id="clip-path-2" transform="translate(0)"><path class="cls-1" d="M179.13,79.75l-7.77,6.09A5.77,5.77,0,0,1,168,87.37c-2.48,0-2.88-3.3-2.9-3.48l7.77-6.09c0,.17.41,3.48,2.9,3.48A5.86,5.86,0,0,0,179.13,79.75Z"/></clipPath><clipPath id="clip-path-3" transform="translate(0)"><path class="cls-1" d="M167.09,107.44l7.76-6.1a3,3,0,0,0-.91,1.19l-7.76,6.1A2.9,2.9,0,0,1,167.09,107.44Z"/></clipPath><clipPath id="clip-path-4" transform="translate(0)"><path class="cls-1" d="M116.34,65.22l7.76-6.09a23.88,23.88,0,0,1,13.56-5.43l-7.76,6.09A23.92,23.92,0,0,0,116.34,65.22Z"/></clipPath><clipPath id="clip-path-5" transform="translate(0)"><path class="cls-1" d="M96.83,44.13l7.76-6.1a44.84,44.84,0,0,0-7.48,7.42l-7.76,6.1A43.73,43.73,0,0,1,96.83,44.13Z"/></clipPath><clipPath id="clip-path-6" transform="translate(0)"><path class="cls-1" d="M80.87,50.89l7.76-6.1a7.63,7.63,0,0,1,.88-.6l-7.76,6.09A7,7,0,0,0,80.87,50.89Z"/></clipPath><clipPath id="clip-path-7" transform="translate(0)"><path class="cls-1" d="M181.75,180.54,174,186.63a7.8,7.8,0,0,1-2.91.64c-1.5,0-3.09-.64-3.45-3.17l7.76-6.09c.37,2.53,2,3.16,3.45,3.16A7.89,7.89,0,0,0,181.75,180.54Z"/></clipPath><clipPath id="clip-path-8" transform="translate(0)"><path class="cls-1" d="M88.28,52.19,96,46.1c-2.56,2-9.26,10.08-15.79,41.85L72.49,94C79,62.27,85.71,54.2,88.28,52.19Z"/></clipPath><clipPath id="clip-path-9" transform="translate(0)"><path class="cls-1" d="M75.53,72.09l-7.76,6.1c-6-15.86-24.07-20.68-25-20.93l7.77-6.1C51.47,51.42,69.55,56.24,75.53,72.09Z"/></clipPath><clipPath id="clip-path-10" transform="translate(0)"><path class="cls-1" d="M102,136.15l-7.77,6.09c.41-.47,8-9.51,12.69-29.81l7.76-6.09C110,126.64,102.41,135.67,102,136.15Z"/></clipPath><clipPath id="clip-path-11" transform="translate(0)"><path class="cls-1" d="M143.4,155.18l-7.77,6.09c-1.16,0-23.35,0-41.39-19l7.77-6.09C120,155.18,142.23,155.18,143.4,155.18Z"/></clipPath><clipPath id="clip-path-12" transform="translate(0)"><path class="cls-1" d="M1.5,30.68l7.77-6.1a5.29,5.29,0,0,0-1.51,1.85L0,32.52A5.14,5.14,0,0,1,1.5,30.68Z"/></clipPath><clipPath id="clip-path-13" transform="translate(0)"><path class="cls-1" d="M12,51.16l-7.77,6.1A4.63,4.63,0,0,1,.43,54.72l7.76-6.1A4.65,4.65,0,0,0,12,51.16Z"/></clipPath><clipPath id="clip-path-14" transform="translate(0)"><path class="cls-1" d="M61.87,124.78l-7.76,6.09c17-13.34,18.3-35.46,18.38-36.83L80.25,88C80.17,89.31,78.87,111.44,61.87,124.78Z"/></clipPath><clipPath id="clip-path-15" transform="translate(0)"><path class="cls-1" d="M80,147.79l-7.76,6.09C59.41,164,47.06,165.58,46.1,165.7l7.76-6.09C54.82,159.48,67.18,157.86,80,147.79Z"/></clipPath><clipPath id="clip-path-16" transform="translate(0)"><path class="cls-1" d="M3.11,138.48l7.76-6.09a2.87,2.87,0,0,0-1,2.49L2.08,141A2.91,2.91,0,0,1,3.11,138.48Z"/></clipPath><clipPath id="clip-path-17" transform="translate(0)"><path class="cls-1" d="M13.48,159.61,5.71,165.7a3.08,3.08,0,0,1-3.21-3.16l7.76-6.09A3.09,3.09,0,0,0,13.48,159.61Z"/></clipPath></defs><title>random_excercise_icon</title><g id="Capa_2" data-name="Capa 2"><g id="Capa_3" data-name="Capa 3"><g class="cls-2"><g class="cls-2"><g class="cls-3"><g class="cls-2"><path class="cls-4" d="M172,1.69l-7.77,6.09a7.84,7.84,0,0,1,.77-.69L172.78,1a8,8,0,0,0-.77.7" transform="translate(0)"/></g></g></g><polygon class="cls-5" points="172.44 24.52 164.68 30.62 164.24 7.79 172 1.69 172.44 24.52"/><polygon class="cls-5" points="172.84 77.8 165.07 83.89 164.61 59.79 172.37 53.7 172.84 77.8"/><g class="cls-2"><g class="cls-6"><g class="cls-2"><path class="cls-4" d="M179.13,79.75l-7.77,6.09A5.77,5.77,0,0,1,168,87.37c-2.48,0-2.88-3.3-2.9-3.48l7.77-6.09c0,.17.41,3.48,2.9,3.48a5.86,5.86,0,0,0,3.39-1.53" transform="translate(0)"/></g></g></g><polygon class="cls-5" points="172.37 53.7 164.61 59.79 129.9 59.79 137.66 53.7 172.37 53.7"/><g class="cls-2"><g class="cls-7"><g class="cls-2"><path class="cls-4" d="M173.94,102.53l-7.76,6.1a2.9,2.9,0,0,1,.91-1.19l7.76-6.1a3,3,0,0,0-.91,1.19" transform="translate(0)"/></g></g></g><g class="cls-2"><g class="cls-8"><g class="cls-2"><path class="cls-4" d="M137.66,53.7l-7.76,6.09a23.92,23.92,0,0,0-13.56,5.43l7.76-6.09a23.88,23.88,0,0,1,13.56-5.43" transform="translate(0)"/></g></g></g><polygon class="cls-5" points="174.42 127.27 166.65 133.36 166.18 108.63 173.94 102.53 174.42 127.27"/><g class="cls-2"><g class="cls-9"><g class="cls-2"><path class="cls-4" d="M97.11,45.45l-7.76,6.1a43.73,43.73,0,0,1,7.48-7.42l7.76-6.1a44.84,44.84,0,0,0-7.48,7.42" transform="translate(0)"/></g></g></g><g class="cls-2"><g class="cls-10"><g class="cls-2"><path class="cls-4" d="M89.51,44.19l-7.76,6.09a7,7,0,0,0-.88.61l7.76-6.1a7.63,7.63,0,0,1,.88-.6" transform="translate(0)"/></g></g></g><polygon class="cls-5" points="175.39 178.01 167.63 184.1 167.82 161.27 175.58 155.18 175.39 178.01"/><g class="cls-2"><g class="cls-11"><g class="cls-2"><path class="cls-4" d="M181.75,180.54,174,186.63a7.8,7.8,0,0,1-2.91.64c-1.5,0-3.09-.64-3.45-3.17l7.76-6.09c.37,2.53,2,3.16,3.45,3.16a7.89,7.89,0,0,0,2.91-.63" transform="translate(0)"/></g></g></g><polygon class="cls-5" points="175.58 155.18 167.82 161.27 135.63 161.27 143.4 155.18 175.58 155.18"/><g class="cls-2"><g class="cls-12"><g class="cls-2"><path class="cls-4" d="M80.25,88,72.49,94C79,62.27,85.71,54.2,88.28,52.19L96,46.1c-2.56,2-9.26,10.08-15.79,41.85" transform="translate(0)"/></g></g></g><g class="cls-2"><g class="cls-13"><g class="cls-2"><path class="cls-4" d="M75.53,72.09l-7.76,6.1c-6-15.86-24.07-20.68-25-20.93l7.77-6.1c.95.26,19,5.08,25,20.93" transform="translate(0)"/></g></g></g><g class="cls-2"><g class="cls-14"><g class="cls-2"><path class="cls-4" d="M102,136.15l-7.77,6.09c.41-.47,8-9.51,12.69-29.81l7.76-6.09c-4.66,20.3-12.28,29.33-12.68,29.81" transform="translate(0)"/></g></g></g><path class="cls-15" d="M177,100.66a6.63,6.63,0,0,1,2.59.61l38.56,36.15a5,5,0,0,1,.12,6.34l-36.53,36.78a7.89,7.89,0,0,1-2.91.63c-1.5,0-3.08-.63-3.45-3.16l.19-22.83H143.4c-1.17,0-23.36,0-41.39-19,.4-.48,8-9.51,12.68-29.81.36.86,7.27,17.12,25.65,20.93h34.08l-.48-24.74A3.13,3.13,0,0,1,177,100.66Z" transform="translate(0)"/><g class="cls-2"><g class="cls-16"><g class="cls-2"><path class="cls-4" d="M143.4,155.18l-7.77,6.09c-1.16,0-23.35,0-41.39-19l7.77-6.09c18,19,40.22,19,41.39,19" transform="translate(0)"/></g></g></g><g class="cls-2"><g class="cls-17"><g class="cls-2"><path class="cls-4" d="M7.76,26.43,0,32.52a5.14,5.14,0,0,1,1.5-1.84l7.77-6.1a5.29,5.29,0,0,0-1.51,1.85" transform="translate(0)"/></g></g></g><polygon class="cls-5" points="50.52 51.16 42.75 57.26 4.26 57.26 12.03 51.16 50.52 51.16"/><polygon class="cls-5" points="8.19 48.63 0.43 54.72 0 32.52 7.76 26.43 8.19 48.63"/><path class="cls-15" d="M51.24,23.26c22.77,2.53,37.5,20,38.27,20.93-7.49,4.43-13.65,26.73-14,27.9-6-15.85-24.06-20.67-25-20.93H12a4.65,4.65,0,0,1-3.84-2.54L7.76,26.43a6.48,6.48,0,0,1,4.36-3.17Z" transform="translate(0)"/><g class="cls-2"><g class="cls-18"><g class="cls-2"><path class="cls-4" d="M12,51.16l-7.77,6.1A4.63,4.63,0,0,1,.43,54.72l7.76-6.1A4.65,4.65,0,0,0,12,51.16" transform="translate(0)"/></g></g></g><g class="cls-2"><g class="cls-19"><g class="cls-2"><path class="cls-4" d="M61.87,124.78l-7.76,6.09c17-13.34,18.3-35.46,18.38-36.83L80.25,88c-.08,1.36-1.38,23.49-18.38,36.83" transform="translate(0)"/></g></g></g><g class="cls-2"><g class="cls-20"><g class="cls-2"><path class="cls-4" d="M80,147.79l-7.76,6.09C59.41,164,47.06,165.58,46.1,165.7l7.76-6.09c1-.13,13.32-1.75,26.15-11.82" transform="translate(0)"/></g></g></g><g class="cls-2"><g class="cls-21"><g class="cls-2"><path class="cls-4" d="M9.85,134.88,2.08,141a2.91,2.91,0,0,1,1-2.49l7.76-6.09a2.87,2.87,0,0,0-1,2.49" transform="translate(0)"/></g></g></g><polygon class="cls-5" points="53.86 159.61 46.1 165.7 5.71 165.7 13.48 159.61 53.86 159.61"/><polygon class="cls-5" points="10.26 156.44 2.5 162.54 2.08 140.97 9.85 134.88 10.26 156.44"/><path class="cls-15" d="M175.29,0a4,4,0,0,1,3,1.69l37.93,36.15a5.09,5.09,0,0,1,.11,5.71L179.18,79.7a5.87,5.87,0,0,1-3.44,1.58c-2.49,0-2.88-3.31-2.9-3.48l-.47-24.1H137.66c-13.24.63-21.38,13.89-21.81,14.59-4.31,5.7-8.11,26.19-8.31,27.27-1.63,14-8.54,28.41-8.91,29.17-15.81,31.08-43.32,34.69-44.77,34.88H13.48a3.09,3.09,0,0,1-3.22-3.16l-.41-21.57a3,3,0,0,1,3.09-3.17l37.85-.63C78.35,120.29,80.16,89.56,80.25,88c8.08-39.33,16.42-42.34,16.86-42.5C110.05,29,134,25.35,135.22,25.16l37.22-.64L172,1.69A4.64,4.64,0,0,1,175.29,0Z" transform="translate(0)"/><g class="cls-2"><g class="cls-22"><g class="cls-2"><path class="cls-4" d="M13.48,159.61,5.71,165.7a3.08,3.08,0,0,1-3.21-3.16l7.76-6.09a3.09,3.09,0,0,0,3.22,3.16" transform="translate(0)"/></g></g></g></g></g></g></svg>