<svg xmlns="http://www.w3.org/2000/svg" xmlns:xlink="http://www.w3.org/1999/xlink" width="118.28" height="187.71" viewBox="0 0 118.28 187.71"><defs><style>.cls-1{fill:none;}.cls-2{isolation:isolate;}.cls-3{clip-path:url(#clip-path);}.cls-4{fill:#858585;}.cls-5{clip-path:url(#clip-path-2);}.cls-6{clip-path:url(#clip-path-3);}.cls-7{clip-path:url(#clip-path-4);}.cls-8{clip-path:url(#clip-path-5);}.cls-9{fill:#ebebeb;}.cls-10{clip-path:url(#clip-path-6);}.cls-11{fill:gray;}.cls-12{clip-path:url(#clip-path-7);}</style><clipPath id="clip-path"><path class="cls-1" d="M77.49,70.76l-7.76,6.09c5.53-4.34,8.5-10.07,8.32-19-.21-11.28-11.61-20-22.83-20-7.11,0-13.52,1.35-19,5.63L44,37.43c5.45-4.28,11.86-5.64,19-5.64,11.23,0,22.62,8.72,22.84,20C86,60.69,83,66.42,77.49,70.76Z"/></clipPath><clipPath id="clip-path-2"><path class="cls-1" d="M97.92,95.3l-7.76,6.09a59.19,59.19,0,0,1-14.43,8.28l7.77-6.09A59.3,59.3,0,0,0,97.92,95.3Z"/></clipPath><clipPath id="clip-path-3"><path class="cls-1" d="M17.14,17l7.76-6.09C18,16.37,13.46,23.12,9.36,29.48L1.6,35.57C5.7,29.21,10.22,22.46,17.14,17Z"/></clipPath><clipPath id="clip-path-4"><path class="cls-1" d="M33.08,50.16l-7.76,6.09a13,13,0,0,1-8.18,2.81C6.65,59.06-4.14,47.58,1.6,35.57l7.76-6.09C3.62,41.48,14.42,53,24.9,53A13,13,0,0,0,33.08,50.16Z"/></clipPath><clipPath id="clip-path-5"><path class="cls-1" d="M78.2,129.23l-7.77,6.09a17.41,17.41,0,0,1-10.7,3.55c-8,0-15.94-5.13-16.14-15.86-.47-24.62-.16-8.47-.43-22.06-.12-6.46,2.18-10.67,5.65-13.39l7.77-6.1c-3.48,2.73-5.78,6.93-5.65,13.4.26,13.59,0-2.57.42,22,.21,10.73,8.16,15.87,16.14,15.87A17.41,17.41,0,0,0,78.2,129.23Z"/></clipPath><clipPath id="clip-path-6"><path class="cls-1" d="M49.79,156l7.76-6.09a14.19,14.19,0,0,0-5.34,11.91l-7.76,6.1A14.17,14.17,0,0,1,49.79,156Z"/></clipPath><clipPath id="clip-path-7"><path class="cls-1" d="M80.35,178l-7.76,6.1a18.13,18.13,0,0,1-11.13,3.61c-8.33,0-16.73-5.13-16.93-15.48l7.77-6.1c.2,10.36,8.6,15.48,16.93,15.48A18,18,0,0,0,80.35,178Z"/></clipPath></defs><title>random_event_icon</title><g id="Capa_2" data-name="Capa 2"><g id="Capa_1-2" data-name="Capa 1"><g class="cls-2"><g class="cls-2"><g class="cls-3"><g class="cls-2"><path class="cls-4" d="M77.49,70.76l-7.76,6.09c5.53-4.34,8.5-10.07,8.32-19-.21-11.28-11.61-20-22.83-20-7.11,0-13.52,1.35-19,5.63L44,37.43c5.45-4.28,11.86-5.64,19-5.64,11.23,0,22.62,8.72,22.84,20,.17,8.91-2.8,14.64-8.33,19"/></g></g></g><g class="cls-2"><g class="cls-5"><g class="cls-2"><path class="cls-4" d="M97.92,95.3l-7.76,6.09a59.19,59.19,0,0,1-14.43,8.28l7.77-6.09A59.3,59.3,0,0,0,97.92,95.3"/></g></g></g><g class="cls-2"><g class="cls-6"><g class="cls-2"><path class="cls-4" d="M9.36,29.48,1.6,35.57C5.7,29.21,10.22,22.46,17.14,17l7.76-6.09C18,16.37,13.46,23.12,9.36,29.48"/></g></g></g><g class="cls-2"><g class="cls-7"><g class="cls-2"><path class="cls-4" d="M33.08,50.16l-7.76,6.09a13,13,0,0,1-8.18,2.81C6.65,59.06-4.14,47.58,1.6,35.57l7.76-6.09C3.62,41.48,14.42,53,24.9,53a13,13,0,0,0,8.18-2.8"/></g></g></g><g class="cls-2"><g class="cls-8"><g class="cls-2"><path class="cls-4" d="M78.2,129.23l-7.77,6.09a17.41,17.41,0,0,1-10.7,3.55c-8,0-15.94-5.13-16.14-15.86-.47-24.62-.16-8.47-.43-22.06-.12-6.46,2.18-10.67,5.65-13.39l7.77-6.1c-3.48,2.73-5.78,6.93-5.65,13.4.26,13.59,0-2.57.42,22,.21,10.73,8.16,15.87,16.14,15.87a17.41,17.41,0,0,0,10.71-3.55"/></g></g></g><path class="cls-9" d="M117.87,46.92c2.71,21.27-7.8,45.89-34.37,56.66l.25,13.33c.2,10.41-8,15.87-16.26,15.87-8,0-15.93-5.14-16.14-15.87-.47-24.62-.16-8.46-.42-22C50.75,85.63,55.51,81,61.59,78.71,77,73.07,86.11,67.17,85.82,51.78c-.22-11.27-11.61-20-22.84-20-10.71,0-19.84,3.08-26.5,14.62A13.52,13.52,0,0,1,24.9,53C14.42,53,3.62,41.48,9.36,29.48,18.28,15.64,29.2,0,62.37,0,94.26,0,114.83,21.54,117.87,46.92Z"/></g><g class="cls-2"><g class="cls-2"><g class="cls-10"><g class="cls-2"><path class="cls-4" d="M52.21,161.77l-7.76,6.1A14.17,14.17,0,0,1,49.79,156l7.76-6.09a14.19,14.19,0,0,0-5.34,11.91"/></g></g></g><polygon class="cls-11" points="52.3 166.13 44.53 172.23 44.45 167.87 52.21 161.78 52.3 166.13"/><g class="cls-2"><g class="cls-12"><g class="cls-2"><path class="cls-4" d="M80.35,178l-7.76,6.1a18.13,18.13,0,0,1-11.13,3.61c-8.33,0-16.73-5.13-16.93-15.48l7.77-6.1c.2,10.36,8.6,15.48,16.93,15.48A18,18,0,0,0,80.35,178"/></g></g></g><path class="cls-9" d="M68.55,146.3c8.38,0,16.89,5.19,17.09,15.47l.08,4.36c.2,10.29-8.11,15.48-16.49,15.48S52.5,176.49,52.3,166.13l-.09-4.36C52,151.43,60.22,146.3,68.55,146.3Z"/></g></g></g></svg>