<svg xmlns="http://www.w3.org/2000/svg" xmlns:xlink="http://www.w3.org/1999/xlink" width="115.69" height="190.24" viewBox="0 0 115.69 190.24"><defs><style>.cls-1{fill:none;}.cls-2{isolation:isolate;}.cls-3{clip-path:url(#clip-path);}.cls-4{fill:#858585;}.cls-5{fill:gray;}.cls-6{clip-path:url(#clip-path-2);}.cls-7{fill:#ebebeb;}</style><clipPath id="clip-path"><path class="cls-1" d="M1.82,7.15,9.58,1.06A4.79,4.79,0,0,0,7.76,5L0,11.07A4.76,4.76,0,0,1,1.82,7.15Z"/></clipPath><clipPath id="clip-path-2"><path class="cls-1" d="M19.1,183.14l-7.76,6.09a4.71,4.71,0,0,1-2.92,1,5.06,5.06,0,0,1-5.07-5l7.76-6.1a5.06,5.06,0,0,0,5.07,5A4.71,4.71,0,0,0,19.1,183.14Z"/></clipPath></defs><title>start_icon</title><g id="Capa_2" data-name="Capa 2"><g id="Capa_4" data-name="Capa 4"><g class="cls-2"><g class="cls-2"><g class="cls-3"><g class="cls-2"><path class="cls-4" d="M7.76,5,0,11.07A4.76,4.76,0,0,1,1.82,7.15L9.58,1.06A4.79,4.79,0,0,0,7.76,5"/></g></g></g><polygon class="cls-5" points="9.44 92.08 1.67 98.17 0 11.07 7.76 4.97 9.44 92.08"/><polygon class="cls-5" points="11.11 179.17 3.35 185.27 1.67 98.17 9.44 92.08 11.11 179.17"/><g class="cls-2"><g class="cls-6"><g class="cls-2"><path class="cls-4" d="M19.1,183.14l-7.76,6.09a4.71,4.71,0,0,1-2.92,1,5.06,5.06,0,0,1-5.07-5l7.76-6.1a5.06,5.06,0,0,0,5.07,5,4.71,4.71,0,0,0,2.92-1"/></g></g></g><path class="cls-7" d="M12.64,0a4.9,4.9,0,0,1,3.52,1.5L114,88.39a5,5,0,0,1,.15,7.38L19.64,182.65a4.75,4.75,0,0,1-3.46,1.5,5.06,5.06,0,0,1-5.07-5L9.44,92.08,7.76,5A4.84,4.84,0,0,1,12.64,0Z"/></g></g></g></svg>