<svg xmlns="http://www.w3.org/2000/svg" width="256" height="256" viewBox="0 0 256 256"><defs><style>.cls-1{fill:#fff;}</style></defs><title>dice_side6</title><g id="Capa_2" data-name="Capa 2"><g id="Capa_6" data-name="Capa 6"><rect class="cls-1" x="2.5" y="2.5" width="251" height="251" rx="37.5"/><path d="M216,5a35,35,0,0,1,35,35V216a35,35,0,0,1-35,35H40A35,35,0,0,1,5,216V40A35,35,0,0,1,40,5H216m0-5H40A40,40,0,0,0,0,40V216a40,40,0,0,0,40,40H216a40,40,0,0,0,40-40V40A40,40,0,0,0,216,0Z"/><circle cx="52" cy="52.5" r="35"/><circle cx="52" cy="128" r="35"/><circle cx="52" cy="203.5" r="35"/><circle cx="201" cy="52.5" r="35"/><circle cx="201" cy="128" r="35"/><circle cx="201" cy="203.5" r="35"/></g></g></svg>