<svg xmlns="http://www.w3.org/2000/svg" width="256" height="256" viewBox="0 0 256 256"><defs><style>.cls-1{fill:#fff;}</style></defs><title>dice_side3</title><g id="Capa_2" data-name="Capa 2"><g id="Capa_3" data-name="Capa 3"><rect class="cls-1" x="2.5" y="2.5" width="251" height="251" rx="37.5"/><path d="M216,5a35,35,0,0,1,35,35V216a35,35,0,0,1-35,35H40A35,35,0,0,1,5,216V40A35,35,0,0,1,40,5H216m0-5H40A40,40,0,0,0,0,40V216a40,40,0,0,0,40,40H216a40,40,0,0,0,40-40V40A40,40,0,0,0,216,0Z"/><circle cx="56.5" cy="52.5" r="35"/><circle cx="200.5" cy="202.5" r="35"/><circle cx="131.5" cy="128.5" r="35"/></g></g></svg>