<svg xmlns="http://www.w3.org/2000/svg" xmlns:xlink="http://www.w3.org/1999/xlink" viewBox="0 0 512 512"><defs><style>.cls-1{fill:url(#Degradado_sin_nombre_106);}.cls-2{fill:#fff;}</style><linearGradient id="Degradado_sin_nombre_106" x1="256" y1="512" x2="256" gradientUnits="userSpaceOnUse"><stop offset="0" stop-color="#2a55ff"/><stop offset="0.18" stop-color="#276ef9"/><stop offset="0.56" stop-color="#1fade9"/><stop offset="1" stop-color="#15ffd4"/></linearGradient></defs><title>math_icon</title><g id="Capa_2" data-name="Capa 2"><g id="Capa_1-2" data-name="Capa 1"><rect class="cls-1" width="512" height="512" rx="50"/><path class="cls-2" d="M127.33,385s1.5,28,27.14,28,25.63-28,25.63-28V131.47S181.61,100,154.47,100s-27.14,31.47-27.14,31.47Z"/><path class="cls-2" d="M331.21,385.09s1.51,28,27.14,28,25.63-28,25.63-28V131.62s1.51-31.47-25.63-31.47-27.14,31.47-27.14,31.47Z"/><path class="cls-2" d="M229.39,145.54S228,120.21,255.47,120.6s26.69,24.94,26.69,24.94V257.43S282,281.05,255.47,281s-26.08-23.59-26.08-23.59Z"/></g></g></svg>