<svg id="Capa_1" data-name="Capa 1" xmlns="http://www.w3.org/2000/svg" xmlns:xlink="http://www.w3.org/1999/xlink" viewBox="0 0 914.29 221"><defs><style>.cls-1{fill:url(#Degradado_sin_nombre_106);}.cls-2{fill:#fff;}.cls-3{fill:#36f;}</style><linearGradient id="Degradado_sin_nombre_106" x1="110.5" y1="221" x2="110.5" gradientUnits="userSpaceOnUse"><stop offset="0" stop-color="#2a55ff"/><stop offset="0.18" stop-color="#276ef9"/><stop offset="0.56" stop-color="#1fade9"/><stop offset="1" stop-color="#15ffd4"/></linearGradient></defs><title>MathParadiseLogo</title><rect class="cls-1" width="221" height="221" rx="20"/><path class="cls-2" d="M277,396.69s.65,12.08,11.72,12.08,11.06-12.08,11.06-12.08V287.25s.65-13.59-11.06-13.59S277,287.25,277,287.25Z" transform="translate(-222 -230.5)"/><path class="cls-2" d="M365,396.72s.65,12.07,11.72,12.07,11.06-12.07,11.06-12.07V287.31s.65-13.58-11.06-13.58S365,287.31,365,287.31Z" transform="translate(-222 -230.5)"/><path class="cls-2" d="M321,293.32s-.62-10.93,11.26-10.76,11.52,10.76,11.52,10.76v48.3s-.09,10.19-11.52,10.18S321,341.62,321,341.62Z" transform="translate(-222 -230.5)"/><path class="cls-3" d="M494.4,376.5v-70h9.8l25.2,48.8,25-48.8h9.9v70h-8.4v-55l-23.4,45h-6.3l-23.4-44.9v54.9Z" transform="translate(-222 -230.5)"/><path class="cls-3" d="M595.1,377.7a22.45,22.45,0,0,1-10.3-2.1,14.24,14.24,0,0,1-6.1-5.6,15,15,0,0,1-2-7.6q0-7.61,5.8-11.7t15.8-4.1h13.4V346q0-6.5-3.4-9.85a12.42,12.42,0,0,0-9.1-3.35,14.51,14.51,0,0,0-8.45,2.45,10.72,10.72,0,0,0-4.45,7.15h-8.6a15.9,15.9,0,0,1,3.65-9.1,20.31,20.31,0,0,1,7.85-5.65,25.8,25.8,0,0,1,10-1.95q10.39,0,15.65,5.55T620.1,346v30.5h-7.5l-.5-8.9a19.7,19.7,0,0,1-6.15,7.15Q601.9,377.69,595.1,377.7Zm1.3-7.1a13.66,13.66,0,0,0,8.25-2.5,16,16,0,0,0,5.25-6.5,20.27,20.27,0,0,0,1.8-8.4v-.1H599q-7.41,0-10.45,2.55a7.94,7.94,0,0,0-3,6.35,7.7,7.7,0,0,0,2.85,6.25Q591.2,370.61,596.4,370.6Z" transform="translate(-222 -230.5)"/><path class="cls-3" d="M650.9,376.5q-6.81,0-10.7-3.3t-3.9-11.9V334h-8.6v-7.1h8.6l1.1-11.9h7.3v11.9h14.6V334H644.7v27.3q0,4.69,1.9,6.35c1.26,1.1,3.5,1.65,6.7,1.65h5.2v7.2Z" transform="translate(-222 -230.5)"/><path class="cls-3" d="M670,376.5v-72h8.4v30.9a17.58,17.58,0,0,1,7.1-7.15,20.27,20.27,0,0,1,10-2.55q8.6,0,13.8,5.35t5.2,16.45v29h-8.3V348.4q0-15.5-12.5-15.5a14.39,14.39,0,0,0-10.9,4.65q-4.41,4.65-4.4,13.25v25.7Z" transform="translate(-222 -230.5)"/><path class="cls-3" d="M754.2,376.5v-70h23q8.19,0,13.5,2.7a18,18,0,0,1,7.85,7.3,21.09,21.09,0,0,1,2.55,10.4,21.3,21.3,0,0,1-2.5,10.3,18,18,0,0,1-7.8,7.35q-5.31,2.74-13.6,2.75H762.6v29.2Zm8.4-36.3H777q8.4,0,12-3.55t3.55-9.75q0-6.3-3.55-9.85t-12-3.55H762.6Z" transform="translate(-222 -230.5)"/><path class="cls-3" d="M825.8,377.7a22.45,22.45,0,0,1-10.3-2.1,14.24,14.24,0,0,1-6.1-5.6,15,15,0,0,1-2-7.6q0-7.61,5.8-11.7t15.8-4.1h13.4V346q0-6.5-3.4-9.85a12.42,12.42,0,0,0-9.1-3.35,14.51,14.51,0,0,0-8.45,2.45A10.72,10.72,0,0,0,817,342.4h-8.6a15.9,15.9,0,0,1,3.65-9.1,20.31,20.31,0,0,1,7.85-5.65,25.8,25.8,0,0,1,10-1.95q10.4,0,15.65,5.55T850.8,346v30.5h-7.5l-.5-8.9a19.7,19.7,0,0,1-6.15,7.15Q832.6,377.69,825.8,377.7Zm1.3-7.1a13.66,13.66,0,0,0,8.25-2.5,16,16,0,0,0,5.25-6.5,20.27,20.27,0,0,0,1.8-8.4v-.1H829.7q-7.41,0-10.45,2.55a7.94,7.94,0,0,0-3,6.35,7.7,7.7,0,0,0,2.85,6.25Q821.9,370.61,827.1,370.6Z" transform="translate(-222 -230.5)"/><path class="cls-3" d="M863.39,376.5V326.9H871l.7,9.5a18,18,0,0,1,7-7.8,21.75,21.75,0,0,1,11.6-2.9v8.8H888a20.84,20.84,0,0,0-8.1,1.55,12.31,12.31,0,0,0-5.9,5.25q-2.19,3.7-2.2,10.2v25Z" transform="translate(-222 -230.5)"/><path class="cls-3" d="M916.19,377.7a22.51,22.51,0,0,1-10.3-2.1,14.35,14.35,0,0,1-6.1-5.6,15.09,15.09,0,0,1-2-7.6q0-7.61,5.8-11.7t15.8-4.1h13.4V346q0-6.5-3.4-9.85a12.4,12.4,0,0,0-9.1-3.35,14.55,14.55,0,0,0-8.45,2.45,10.76,10.76,0,0,0-4.45,7.15h-8.6a16,16,0,0,1,3.65-9.1,20.39,20.39,0,0,1,7.85-5.65,25.87,25.87,0,0,1,10-1.95q10.41,0,15.65,5.55T941.19,346v30.5h-7.5l-.5-8.9a19.7,19.7,0,0,1-6.15,7.15Q923,377.69,916.19,377.7Zm1.3-7.1a13.66,13.66,0,0,0,8.25-2.5,16,16,0,0,0,5.25-6.5,20.27,20.27,0,0,0,1.8-8.4v-.1h-12.7q-7.4,0-10.45,2.55a8,8,0,0,0-3,6.35,7.7,7.7,0,0,0,2.85,6.25C911.34,369.82,914,370.6,917.49,370.6Z" transform="translate(-222 -230.5)"/><path class="cls-3" d="M976.29,377.7a24.36,24.36,0,0,1-12.95-3.4,23.24,23.24,0,0,1-8.6-9.3,28.78,28.78,0,0,1-3-13.4,28.15,28.15,0,0,1,3.1-13.35,23.4,23.4,0,0,1,8.6-9.2,24.54,24.54,0,0,1,13-3.35,22.59,22.59,0,0,1,10.8,2.5,18,18,0,0,1,7.3,7V304.5h8.4v72h-7.6l-.8-8.2a23.18,23.18,0,0,1-6.9,6.5A20.48,20.48,0,0,1,976.29,377.7Zm.9-7.3a16.58,16.58,0,0,0,8.85-2.35,16,16,0,0,0,6-6.55,23.41,23.41,0,0,0,0-19.6,16,16,0,0,0-6-6.55,17.65,17.65,0,0,0-17.6,0,16.18,16.18,0,0,0-6,6.55,23.41,23.41,0,0,0,0,19.6,16.18,16.18,0,0,0,6,6.55A16.45,16.45,0,0,0,977.19,370.4Z" transform="translate(-222 -230.5)"/><path class="cls-3" d="M1021.69,315.9a5.64,5.64,0,0,1-5.8-5.8,5.35,5.35,0,0,1,1.65-4,6.12,6.12,0,0,1,8.25,0,5.28,5.28,0,0,1,1.7,4,5.55,5.55,0,0,1-1.7,4.15A5.67,5.67,0,0,1,1021.69,315.9Zm-4.2,60.6V326.9h8.4v49.6Z" transform="translate(-222 -230.5)"/><path class="cls-3" d="M1059.49,377.7q-8.9,0-14.8-4.5a17.58,17.58,0,0,1-6.9-12.2h8.6a11.86,11.86,0,0,0,4.15,6.75q3.35,2.85,9,2.85,5.29,0,7.8-2.25a7,7,0,0,0,2.5-5.35q0-4.5-3.25-6a43.38,43.38,0,0,0-9.15-2.7,51.21,51.21,0,0,1-8-2.3,18.19,18.19,0,0,1-6.7-4.25,9.9,9.9,0,0,1-2.7-7.25,13.4,13.4,0,0,1,4.85-10.65q4.85-4.16,13.15-4.15,7.9,0,13,3.95t5.85,11.25h-8.3a8.65,8.65,0,0,0-3.25-5.95,11.62,11.62,0,0,0-7.35-2.15q-4.5,0-7,1.9a6,6,0,0,0-2.45,5q0,3,3.15,4.7a34,34,0,0,0,8.55,2.9,74.47,74.47,0,0,1,8.75,2.45,16.57,16.57,0,0,1,6.8,4.3q2.65,2.85,2.65,8.25a13.55,13.55,0,0,1-5,11.05Q1068.3,377.7,1059.49,377.7Z" transform="translate(-222 -230.5)"/><path class="cls-3" d="M1112.79,377.7a24.38,24.38,0,0,1-12.6-3.25,23.05,23.05,0,0,1-8.65-9.05,28.29,28.29,0,0,1-3.15-13.7,28.7,28.7,0,0,1,3.1-13.65,22.58,22.58,0,0,1,8.65-9.1A24.92,24.92,0,0,1,1113,325.7a23.15,23.15,0,0,1,12.45,3.25,22.09,22.09,0,0,1,8,8.55,24,24,0,0,1,2.8,11.4c0,.73,0,1.47,0,2.2s0,1.57,0,2.5h-39.5a19.45,19.45,0,0,0,2.65,9.45,15.6,15.6,0,0,0,13.45,7.55,15,15,0,0,0,8.7-2.4,13.79,13.79,0,0,0,5.1-6.5h8.3a22.33,22.33,0,0,1-7.65,11.45Q1121.59,377.7,1112.79,377.7Zm0-44.9a16.79,16.79,0,0,0-10.65,3.65q-4.65,3.65-5.35,10.65H1128q-.3-6.71-4.6-10.5A15.45,15.45,0,0,0,1112.79,332.8Z" transform="translate(-222 -230.5)"/></svg>