<svg xmlns="http://www.w3.org/2000/svg" xmlns:xlink="http://www.w3.org/1999/xlink" width="914.29" height="222" viewBox="0 0 914.29 222"><defs><style>.cls-1{fill:#fff;}.cls-2{fill:url(#Degradado_sin_nombre_106);}.cls-3{fill:url(#Degradado_sin_nombre_106-2);}.cls-4{fill:url(#Degradado_sin_nombre_106-3);}</style><linearGradient id="Degradado_sin_nombre_106" x1="66.35" y1="179.07" x2="66.35" y2="43.36" gradientTransform="matrix(1, 0, 0, 1, 0.36, -0.36)" gradientUnits="userSpaceOnUse"><stop offset="0" stop-color="#2a55ff"/><stop offset="0.18" stop-color="#276ef9"/><stop offset="0.56" stop-color="#1fade9"/><stop offset="1" stop-color="#15ffd4"/></linearGradient><linearGradient id="Degradado_sin_nombre_106-2" x1="154.36" y1="179.1" x2="154.36" y2="43.43" xlink:href="#Degradado_sin_nombre_106"/><linearGradient id="Degradado_sin_nombre_106-3" x1="110.4" y1="121.85" x2="110.4" y2="52.29" xlink:href="#Degradado_sin_nombre_106"/></defs><title>MathParadiseLogoInverted</title><g id="Capa_2" data-name="Capa 2"><g id="Capa_1-2" data-name="Capa 1"><path class="cls-1" d="M272.4,146.5v-70h9.8l25.2,48.8,25-48.8h9.9v70h-8.4v-55l-23.4,45h-6.3L280.8,91.6v54.9Z"/><path class="cls-1" d="M373.1,147.7a22.45,22.45,0,0,1-10.3-2.1,14.24,14.24,0,0,1-6.1-5.6,15,15,0,0,1-2-7.6q0-7.61,5.8-11.7t15.8-4.1h13.4V116q0-6.5-3.4-9.85a12.42,12.42,0,0,0-9.1-3.35,14.51,14.51,0,0,0-8.45,2.45,10.72,10.72,0,0,0-4.45,7.15h-8.6a15.9,15.9,0,0,1,3.65-9.1,20.31,20.31,0,0,1,7.85-5.65,25.8,25.8,0,0,1,10-2q10.4,0,15.65,5.55T398.1,116v30.5h-7.5l-.5-8.9a19.7,19.7,0,0,1-6.15,7.15Q379.9,147.69,373.1,147.7Zm1.3-7.1a13.66,13.66,0,0,0,8.25-2.5,16,16,0,0,0,5.25-6.5,20.27,20.27,0,0,0,1.8-8.4v-.1H377q-7.41,0-10.45,2.55A7.94,7.94,0,0,0,363.5,132a7.7,7.7,0,0,0,2.85,6.25Q369.2,140.6,374.4,140.6Z"/><path class="cls-1" d="M428.9,146.5q-6.81,0-10.7-3.3t-3.9-11.9V104h-8.6V96.9h8.6L415.4,85h7.3V96.9h14.6V104H422.7v27.3q0,4.69,1.9,6.35c1.26,1.1,3.5,1.65,6.7,1.65h5.2v7.2Z"/><path class="cls-1" d="M448,146.5v-72h8.4v30.9a17.58,17.58,0,0,1,7.1-7.15,20.27,20.27,0,0,1,10-2.55q8.6,0,13.8,5.35t5.2,16.45v29h-8.3V118.4q0-15.5-12.5-15.5a14.39,14.39,0,0,0-10.9,4.65q-4.41,4.65-4.4,13.25v25.7Z"/><path class="cls-1" d="M532.2,146.5v-70h23q8.19,0,13.5,2.7a18,18,0,0,1,7.85,7.3,21.09,21.09,0,0,1,2.55,10.4,21.3,21.3,0,0,1-2.5,10.3,18,18,0,0,1-7.8,7.35q-5.31,2.74-13.6,2.75H540.6v29.2Zm8.4-36.3H555q8.4,0,12-3.55t3.55-9.75q0-6.3-3.55-9.85T555,83.5H540.6Z"/><path class="cls-1" d="M603.8,147.7a22.45,22.45,0,0,1-10.3-2.1,14.24,14.24,0,0,1-6.1-5.6,15,15,0,0,1-2-7.6q0-7.61,5.8-11.7t15.8-4.1h13.4V116q0-6.5-3.4-9.85a12.42,12.42,0,0,0-9.1-3.35,14.51,14.51,0,0,0-8.45,2.45A10.72,10.72,0,0,0,595,112.4h-8.6a15.9,15.9,0,0,1,3.65-9.1,20.31,20.31,0,0,1,7.85-5.65,25.8,25.8,0,0,1,10-2q10.4,0,15.65,5.55T628.8,116v30.5h-7.5l-.5-8.9a19.7,19.7,0,0,1-6.15,7.15Q610.6,147.69,603.8,147.7Zm1.3-7.1a13.66,13.66,0,0,0,8.25-2.5,16,16,0,0,0,5.25-6.5,20.27,20.27,0,0,0,1.8-8.4v-.1H607.7q-7.41,0-10.45,2.55a7.94,7.94,0,0,0-3,6.35,7.7,7.7,0,0,0,2.85,6.25Q599.9,140.6,605.1,140.6Z"/><path class="cls-1" d="M641.39,146.5V96.9H649l.7,9.5a18,18,0,0,1,7-7.8,21.75,21.75,0,0,1,11.6-2.9v8.8H666a20.84,20.84,0,0,0-8.1,1.55,12.31,12.31,0,0,0-5.9,5.25q-2.19,3.7-2.2,10.2v25Z"/><path class="cls-1" d="M694.19,147.7a22.51,22.51,0,0,1-10.3-2.1,14.35,14.35,0,0,1-6.1-5.6,15.09,15.09,0,0,1-2-7.6q0-7.61,5.8-11.7t15.8-4.1h13.4V116q0-6.5-3.4-9.85a12.4,12.4,0,0,0-9.1-3.35,14.55,14.55,0,0,0-8.45,2.45,10.76,10.76,0,0,0-4.45,7.15h-8.6a16,16,0,0,1,3.65-9.1,20.39,20.39,0,0,1,7.85-5.65,25.87,25.87,0,0,1,10-2q10.41,0,15.65,5.55T719.19,116v30.5h-7.5l-.5-8.9a19.7,19.7,0,0,1-6.15,7.15Q701,147.69,694.19,147.7Zm1.3-7.1a13.66,13.66,0,0,0,8.25-2.5,16,16,0,0,0,5.25-6.5,20.27,20.27,0,0,0,1.8-8.4v-.1h-12.7q-7.4,0-10.45,2.55a8,8,0,0,0-3,6.35,7.7,7.7,0,0,0,2.85,6.25C689.34,139.82,692,140.6,695.49,140.6Z"/><path class="cls-1" d="M754.29,147.7a24.36,24.36,0,0,1-12.95-3.4,23.24,23.24,0,0,1-8.6-9.3,28.78,28.78,0,0,1-3-13.4,28.15,28.15,0,0,1,3.1-13.35,23.4,23.4,0,0,1,8.6-9.2,24.54,24.54,0,0,1,13-3.35,22.59,22.59,0,0,1,10.8,2.5,18,18,0,0,1,7.3,7V74.5h8.4v72h-7.6l-.8-8.2a23.18,23.18,0,0,1-6.9,6.5A20.48,20.48,0,0,1,754.29,147.7Zm.9-7.3a16.58,16.58,0,0,0,8.85-2.35,16,16,0,0,0,6-6.55,23.41,23.41,0,0,0,0-19.6,16,16,0,0,0-6-6.55,17.65,17.65,0,0,0-17.6,0,16.18,16.18,0,0,0-6,6.55,23.41,23.41,0,0,0,0,19.6,16.18,16.18,0,0,0,6,6.55A16.45,16.45,0,0,0,755.19,140.4Z"/><path class="cls-1" d="M799.69,85.9a5.64,5.64,0,0,1-5.8-5.8,5.35,5.35,0,0,1,1.65-4,6.12,6.12,0,0,1,8.25,0,5.28,5.28,0,0,1,1.7,4,5.55,5.55,0,0,1-1.7,4.15A5.67,5.67,0,0,1,799.69,85.9Zm-4.2,60.6V96.9h8.4v49.6Z"/><path class="cls-1" d="M837.49,147.7q-8.9,0-14.8-4.5a17.58,17.58,0,0,1-6.9-12.2h8.6a11.86,11.86,0,0,0,4.15,6.75q3.35,2.85,9.05,2.85,5.29,0,7.8-2.25a7,7,0,0,0,2.5-5.35q0-4.5-3.25-6a43.38,43.38,0,0,0-9.15-2.7,51.21,51.21,0,0,1-8-2.3,18.19,18.19,0,0,1-6.7-4.25,9.9,9.9,0,0,1-2.7-7.25,13.4,13.4,0,0,1,4.85-10.65q4.84-4.16,13.15-4.15,7.9,0,12.95,4t5.85,11.25h-8.3a8.65,8.65,0,0,0-3.25-6A11.62,11.62,0,0,0,836,102.8q-4.5,0-7,1.9a6,6,0,0,0-2.45,5q0,3,3.15,4.7a34,34,0,0,0,8.55,2.9,74.47,74.47,0,0,1,8.75,2.45,16.57,16.57,0,0,1,6.8,4.3q2.65,2.85,2.65,8.25a13.55,13.55,0,0,1-5,11Q846.3,147.7,837.49,147.7Z"/><path class="cls-1" d="M890.79,147.7a24.38,24.38,0,0,1-12.6-3.25,23.05,23.05,0,0,1-8.65-9,28.29,28.29,0,0,1-3.15-13.7,28.7,28.7,0,0,1,3.1-13.65,22.58,22.58,0,0,1,8.65-9.1A24.92,24.92,0,0,1,891,95.7,23.15,23.15,0,0,1,903.44,99a22.09,22.09,0,0,1,8,8.55,24,24,0,0,1,2.8,11.4c0,.73,0,1.47,0,2.2s0,1.57,0,2.5h-39.5a19.45,19.45,0,0,0,2.65,9.45,15.6,15.6,0,0,0,13.45,7.55,15,15,0,0,0,8.7-2.4,13.79,13.79,0,0,0,5.1-6.5h8.3a22.33,22.33,0,0,1-7.65,11.45Q899.59,147.7,890.79,147.7Zm0-44.9a16.79,16.79,0,0,0-10.65,3.65q-4.65,3.64-5.35,10.65H906q-.3-6.7-4.6-10.5A15.45,15.45,0,0,0,890.79,102.8Z"/><rect class="cls-1" width="221" height="222" rx="22"/><path class="cls-2" d="M54.78,166.76s.61,12.14,11.67,12.17,11.11-12.09,11.11-12.09L77.92,56.9s.69-13.64-11-13.68S55.14,56.83,55.14,56.83Z"/><path class="cls-3" d="M142.78,167.08s.61,12.13,11.68,12.16,11.1-12.09,11.1-12.09l.36-109.9s.7-13.64-11-13.68-11.76,13.61-11.76,13.61Z"/><path class="cls-4" d="M99.17,63.07s-.59-11,11.3-10.78S122,63.14,122,63.14l-.16,48.52s-.13,10.24-11.55,10.19S99,111.58,99,111.58Z"/></g></g></svg>