<svg id="Capa_1" data-name="Capa 1" xmlns="http://www.w3.org/2000/svg" xmlns:xlink="http://www.w3.org/1999/xlink" width="641.89" height="341.7" viewBox="0 0 641.89 341.7"><defs><style>.cls-1{fill:#fff;}.cls-2{fill:url(#Degradado_sin_nombre_106);}.cls-3{fill:url(#Degradado_sin_nombre_106-2);}.cls-4{fill:url(#Degradado_sin_nombre_106-3);}</style><linearGradient id="Degradado_sin_nombre_106" x1="629.35" y1="357.77" x2="629.35" y2="222.66" gradientUnits="userSpaceOnUse"><stop offset="0" stop-color="#2a55ff"/><stop offset="0.18" stop-color="#276ef9"/><stop offset="0.56" stop-color="#1fade9"/><stop offset="1" stop-color="#15ffd4"/></linearGradient><linearGradient id="Degradado_sin_nombre_106-2" x1="717.36" y1="357.79" x2="717.36" y2="222.73" xlink:href="#Degradado_sin_nombre_106"/><linearGradient id="Degradado_sin_nombre_106-3" x1="673.4" y1="300.8" x2="673.4" y2="231.56" xlink:href="#Degradado_sin_nombre_106"/></defs><title>MathParadiseLogo Inverted_vertical</title><path class="cls-1" d="M353.07,520V450h9.8l25.2,48.8,25-48.8H423v70h-8.4V465l-23.4,45h-6.3l-23.4-44.9V520Z" transform="translate(-353.07 -179.5)"/><path class="cls-1" d="M453.77,521.2a22.45,22.45,0,0,1-10.3-2.1,14.24,14.24,0,0,1-6.1-5.6,15,15,0,0,1-2-7.6q0-7.61,5.8-11.7t15.8-4.1h13.4v-.6q0-6.5-3.4-9.85a12.42,12.42,0,0,0-9.1-3.35,14.51,14.51,0,0,0-8.45,2.45A10.72,10.72,0,0,0,445,485.9h-8.6a15.9,15.9,0,0,1,3.65-9.1,20.31,20.31,0,0,1,7.85-5.65,25.8,25.8,0,0,1,10-1.95q10.39,0,15.65,5.55t5.25,14.75V520h-7.5l-.5-8.9a19.7,19.7,0,0,1-6.15,7.15Q460.57,521.19,453.77,521.2Zm1.3-7.1a13.66,13.66,0,0,0,8.25-2.5,16,16,0,0,0,5.25-6.5,20.27,20.27,0,0,0,1.8-8.4v-.1h-12.7q-7.41,0-10.45,2.55a7.94,7.94,0,0,0-3.05,6.35,7.7,7.7,0,0,0,2.85,6.25Q449.87,514.11,455.07,514.1Z" transform="translate(-353.07 -179.5)"/><path class="cls-1" d="M509.56,520q-6.8,0-10.7-3.3T495,504.8V477.5h-8.6v-7.1H495l1.1-11.9h7.3v11.9H518v7.1h-14.6v27.3c0,3.13.64,5.25,1.9,6.35s3.5,1.65,6.7,1.65h5.2V520Z" transform="translate(-353.07 -179.5)"/><path class="cls-1" d="M528.66,520V448h8.4v30.9a17.71,17.71,0,0,1,7.1-7.15,20.3,20.3,0,0,1,10-2.55q8.61,0,13.8,5.35t5.2,16.45v29h-8.3V491.9q0-15.5-12.5-15.5a14.42,14.42,0,0,0-10.9,4.65q-4.4,4.65-4.4,13.25V520Z" transform="translate(-353.07 -179.5)"/><path class="cls-1" d="M612.86,520V450h23q8.21,0,13.5,2.7a17.94,17.94,0,0,1,7.85,7.3,22.48,22.48,0,0,1,0,20.7,17.86,17.86,0,0,1-7.8,7.35q-5.3,2.74-13.6,2.75h-14.6V520Zm8.4-36.3h14.4q8.4,0,12-3.55t3.55-9.75q0-6.3-3.55-9.85t-12-3.55h-14.4Z" transform="translate(-353.07 -179.5)"/><path class="cls-1" d="M684.46,521.2a22.51,22.51,0,0,1-10.3-2.1,14.35,14.35,0,0,1-6.1-5.6,15.09,15.09,0,0,1-2-7.6q0-7.61,5.8-11.7t15.8-4.1h13.4v-.6q0-6.5-3.4-9.85a12.4,12.4,0,0,0-9.1-3.35,14.55,14.55,0,0,0-8.45,2.45,10.76,10.76,0,0,0-4.45,7.15h-8.6a16,16,0,0,1,3.65-9.1,20.39,20.39,0,0,1,7.85-5.65,25.87,25.87,0,0,1,10-1.95q10.41,0,15.65,5.55t5.25,14.75V520H702l-.5-8.9a19.7,19.7,0,0,1-6.15,7.15Q691.26,521.19,684.46,521.2Zm1.3-7.1a13.66,13.66,0,0,0,8.25-2.5,16,16,0,0,0,5.25-6.5,20.27,20.27,0,0,0,1.8-8.4v-.1h-12.7q-7.4,0-10.45,2.55a8,8,0,0,0-3,6.35,7.7,7.7,0,0,0,2.85,6.25C679.61,513.32,682.3,514.1,685.76,514.1Z" transform="translate(-353.07 -179.5)"/><path class="cls-1" d="M722.06,520V470.4h7.6l.7,9.5a17.94,17.94,0,0,1,7-7.8,21.72,21.72,0,0,1,11.6-2.9V478h-2.3a20.84,20.84,0,0,0-8.1,1.55,12.27,12.27,0,0,0-5.9,5.25q-2.2,3.7-2.2,10.2v25Z" transform="translate(-353.07 -179.5)"/><path class="cls-1" d="M774.86,521.2a22.48,22.48,0,0,1-10.3-2.1,14.29,14.29,0,0,1-6.1-5.6,15.09,15.09,0,0,1-2-7.6q0-7.61,5.8-11.7t15.8-4.1h13.4v-.6q0-6.5-3.4-9.85a12.42,12.42,0,0,0-9.1-3.35,14.53,14.53,0,0,0-8.45,2.45,10.72,10.72,0,0,0-4.45,7.15h-8.6a15.9,15.9,0,0,1,3.65-9.1,20.39,20.39,0,0,1,7.85-5.65,25.83,25.83,0,0,1,10-1.95q10.39,0,15.65,5.55t5.25,14.75V520h-7.5l-.5-8.9a19.7,19.7,0,0,1-6.15,7.15Q781.66,521.19,774.86,521.2Zm1.3-7.1a13.66,13.66,0,0,0,8.25-2.5,16,16,0,0,0,5.25-6.5,20.27,20.27,0,0,0,1.8-8.4v-.1h-12.7q-7.39,0-10.45,2.55a8,8,0,0,0-3,6.35,7.7,7.7,0,0,0,2.85,6.25Q771,514.11,776.16,514.1Z" transform="translate(-353.07 -179.5)"/><path class="cls-1" d="M835,521.2a24.36,24.36,0,0,1-13-3.4,23.17,23.17,0,0,1-8.6-9.3,28.78,28.78,0,0,1-3-13.4,28,28,0,0,1,3.1-13.35,23.33,23.33,0,0,1,8.6-9.2,24.54,24.54,0,0,1,13-3.35,22.59,22.59,0,0,1,10.8,2.5,18.1,18.1,0,0,1,7.3,7V448h8.4v72H854l-.8-8.2a23.18,23.18,0,0,1-6.9,6.5A20.51,20.51,0,0,1,835,521.2Zm.9-7.3a16.63,16.63,0,0,0,8.85-2.35,16,16,0,0,0,6-6.55,23.41,23.41,0,0,0,0-19.6,16,16,0,0,0-6-6.55,16.63,16.63,0,0,0-8.85-2.35,16.4,16.4,0,0,0-8.75,2.35,16,16,0,0,0-6,6.55,23.41,23.41,0,0,0,0,19.6,16,16,0,0,0,6,6.55A16.4,16.4,0,0,0,835.86,513.9Z" transform="translate(-353.07 -179.5)"/><path class="cls-1" d="M880.36,459.4a5.64,5.64,0,0,1-5.8-5.8,5.35,5.35,0,0,1,1.65-4,5.7,5.7,0,0,1,4.15-1.6,5.76,5.76,0,0,1,4.1,1.6,5.28,5.28,0,0,1,1.7,4,5.55,5.55,0,0,1-1.7,4.15A5.68,5.68,0,0,1,880.36,459.4Zm-4.2,60.6V470.4h8.4V520Z" transform="translate(-353.07 -179.5)"/><path class="cls-1" d="M918.16,521.2q-8.91,0-14.8-4.5a17.5,17.5,0,0,1-6.9-12.2h8.6a11.81,11.81,0,0,0,4.15,6.75q3.35,2.85,9,2.85,5.29,0,7.8-2.25a7,7,0,0,0,2.5-5.35c0-3-1.09-5-3.25-6a43.38,43.38,0,0,0-9.15-2.7,50.9,50.9,0,0,1-8-2.3,18.19,18.19,0,0,1-6.7-4.25,9.9,9.9,0,0,1-2.7-7.25,13.37,13.37,0,0,1,4.85-10.65q4.85-4.16,13.15-4.15,7.89,0,13,3.95t5.85,11.25h-8.3a8.69,8.69,0,0,0-3.25-5.95,11.66,11.66,0,0,0-7.35-2.15q-4.5,0-6.95,1.9a6,6,0,0,0-2.45,5q0,3,3.15,4.7a34,34,0,0,0,8.55,2.9,75,75,0,0,1,8.75,2.45,16.64,16.64,0,0,1,6.8,4.3c1.76,1.9,2.65,4.65,2.65,8.25a13.57,13.57,0,0,1-5,11.05Q927,521.2,918.16,521.2Z" transform="translate(-353.07 -179.5)"/><path class="cls-1" d="M971.46,521.2a24.33,24.33,0,0,1-12.6-3.25,23.05,23.05,0,0,1-8.65-9.05,28.29,28.29,0,0,1-3.15-13.7,28.7,28.7,0,0,1,3.1-13.65,22.52,22.52,0,0,1,8.65-9.1,24.92,24.92,0,0,1,12.85-3.25,23.15,23.15,0,0,1,12.45,3.25,22.09,22.09,0,0,1,8,8.55,24.1,24.1,0,0,1,2.8,11.4c0,.73,0,1.47-.05,2.2s0,1.57,0,2.5h-39.5a19.45,19.45,0,0,0,2.65,9.45,15.6,15.6,0,0,0,13.45,7.55,15.06,15.06,0,0,0,8.7-2.4,13.79,13.79,0,0,0,5.1-6.5h8.3a22.45,22.45,0,0,1-7.65,11.45Q980.26,521.19,971.46,521.2Zm0-44.9A16.79,16.79,0,0,0,960.81,480q-4.65,3.65-5.35,10.65h31.2q-.3-6.71-4.6-10.5A15.45,15.45,0,0,0,971.46,476.3Z" transform="translate(-353.07 -179.5)"/><rect class="cls-1" x="209.93" width="221" height="221" rx="20"/><path class="cls-2" d="M618,345.69s.65,12.08,11.72,12.08,11.06-12.08,11.06-12.08V236.25s.65-13.59-11.06-13.59S618,236.25,618,236.25Z" transform="translate(-353.07 -179.5)"/><path class="cls-3" d="M706,345.72s.65,12.07,11.72,12.07,11.06-12.07,11.06-12.07V236.31s.65-13.58-11.06-13.58S706,236.31,706,236.31Z" transform="translate(-353.07 -179.5)"/><path class="cls-4" d="M662,242.32s-.62-10.93,11.26-10.76,11.52,10.76,11.52,10.76v48.3s-.09,10.19-11.52,10.18S662,290.62,662,290.62Z" transform="translate(-353.07 -179.5)"/></svg>