<svg xmlns="http://www.w3.org/2000/svg" viewBox="0 0 1275.21 312.9"><defs><style>.cls-1{fill:#e4333b;}.cls-2{fill:#9f398f;}.cls-3{fill:#308e99;}.cls-4{fill:#1f81bd;}.cls-5{fill:#a8cb46;}.cls-6{fill:#fdcc29;}</style></defs><g id="Capa_2" data-name="Capa 2"><g id="Capa_1-2" data-name="Capa 1"><path class="cls-1" d="M290,146c2.45-5.52,4.89-9.59,9.34-12.81a22.62,22.62,0,0,1,27.06.09c13.28,10.07,12.85,31.1-1.47,40.29-4.25,2.72-9.83,5.41-16.27,3.07-5-1.82-6.88-.06-6.89,3.67,0,6.29,0,12.59.12,18.88.52,24.08-11.37,44.89-28.1,64.44a16.74,16.74,0,0,1-2.28,2.25c-1.56,1.23-3.25,2.61-5.73,1.6s-2.45-2.88-1.72-4.54c2.52-5.76,5.6-11.39,7.86-17.2,9.4-24.21,10.39-48.49,2.71-73.24-5.27-17-15.44-31.62-29.51-44.84C238,121,228.65,116.18,219,112c-3.7-1.59-6.77-3.73-10.38-5.31-2.24-1-3-2.43-2.72-4.31.28-2.2,2.06-3.33,4.6-4a17.46,17.46,0,0,1,7.27-.21c24.08,3.89,43.67,12.71,57.51,29.1C280.07,133,284.17,139,290,146Z"/><path class="cls-2" d="M119.38,270.59c-7.66-1.34-7.76,1.09-5.8,5.15,4.77,9.89,3.86,19.39-4.22,28.14-8.37,9.08-24,9-32.41-.16-10.43-11.37-9.71-24.57,2.43-35.93,3-2.78,3.18-4.33-1-6.19A79,79,0,0,1,44,232.44c-6.88-10.33-11.76-21.34-16-32.48a2.78,2.78,0,0,1-.17-.56c-.54-3.25-3.71-7.8,1.35-9.24,5.32-1.52,6.56,3.53,8.32,6.45a106.71,106.71,0,0,0,26.88,30.53c21.65,16.58,47.36,22.65,76.83,17.75a69.15,69.15,0,0,0,29.66-12.06q9.34-6.9,18.88-13.65c2.19-1.57,4.77-3.32,7.83-1.78s1.1,3.91.16,5.7c-11.12,21.28-29,37.49-58,44.87C133,269.68,125.68,269.82,119.38,270.59Z"/><path class="cls-3" d="M45.14,163.56c-3.26,6.86-7.36,12.68-16.66,15.83-6.32,2.15-11,.79-15.73-1.75-16.71-9-17.07-32.91-.64-42.1,6-3.33,12.68-2.95,19.05-.88,4.9,1.59,5.28.42,4.81-3.06-3.95-29.42,8-55.58,27.91-80,1.41-1.72,3-4.2,6.11-3.32,3.51,1,2.78,3.93,2.1,6-1.91,5.91-5.71,11.3-7.87,17.21a107.68,107.68,0,0,0-3.12,66c5.1,19.32,15.27,36.39,32.73,50.89,8.55,7.1,19.06,11.9,29.6,16.77a28,28,0,0,1,3.89,1.62c2.32,1.57,6.15,2.77,5.14,5.71-1.12,3.28-5.3,3-8.68,3-24.38-.21-42.2-10-57-23.85-7-6.5-11.91-14-16.55-21.59C48.82,167.83,47.71,165.52,45.14,163.56Z"/><path class="cls-4" d="M120.93,27.17c5.84-3.67,10.77-7,16-10,20-11.52,42.05-12.51,65.25-7.76a14.41,14.41,0,0,1,2.72.88c2.4,1,5,2.15,4.39,4.72-.49,2.19-2.83,3-5.37,3.38-5.34.72-10.7,1.34-16,2C168.11,23,152.48,31,139.18,42.32a96.59,96.59,0,0,0-31.14,48c-4.32,15-7.13,30.25-2.16,45.72,1.34,4.15.56,8.73.61,13.11,0,1.3,0,2.9-2.21,3.22-2,.3-3.06-1-4.07-2.09-4.54-4.7-6.33-10.38-8.17-15.84C82.78,107,85.22,80.08,100.17,54c.4-.7.88-1.37,1.28-2.06,2.27-3.84,2.51-6.66-4.79-5.91A16.87,16.87,0,0,1,83,41.46c-11.34-10.91-12.77-27.18,2-37.78,8.42-6.07,22.47-4.34,29,3.05C119.23,12.73,120.74,19.53,120.93,27.17Z"/><path class="cls-5" d="M247.63,3.56c10-1.06,14.45,5,18.17,10.7,6.81,10.33,3.35,23.27-7.41,31.65-2.81,2.19-4.71,3.86.28,6,20.79,9.1,32.54,23.93,41.42,40.35,3.71,6.85,7.13,13.83,9.07,21.17a34.13,34.13,0,0,1,1,3.92,3.58,3.58,0,0,1-2.78,4.27c-3,.85-3.67-1.22-4.58-2.74-5-8.51-10.58-16.79-18.21-24.15C271.5,82.16,255.89,71.93,235.38,68c-18.25-3.46-36.4-2.31-53.67,4.81-11.11,4.58-20,11-28.54,17.79a66.1,66.1,0,0,1-5.3,4c-2,1.3-4.3,3.32-7.08,1.92s-1.47-3.91-.45-5.76c12.24-22.24,31.09-39.13,62.33-45.95,6.54-1.43,13.2-1.15,19.83-1.12,5.57,0,7.21-1.58,4.76-5.6-4.77-7.85-5.09-15.73-.65-23.81C230.64,7,236.78,3.54,247.63,3.56Z"/><path class="cls-6" d="M250,211.79c1,16.66-3.3,33.14-13.08,48.72-2.36,3.76-2,6,4.29,6.63,8.66.89,16.42,7.51,17.81,14.11,1.08,5.17,2.77,9.92.56,15.54-3.79,9.66-10.88,16-21.2,16.11a22.33,22.33,0,0,1-21.66-16.12c-2.58-9-2.38-8.79-11.34-2.89-11.55,7.61-24.57,12.65-40.29,12.23-10.31-.28-20.73.75-30.83-1.82-3.56-.9-7.91-1.62-7.69-5.12s4.82-3.25,8.11-3.43c45.94-2.55,72.15-24.38,88.09-55.22,9.1-17.62,12.86-36.2,9.94-55.37-.86-5.66-.5-11.44-.5-17.17,0-1.78-1-4.44,2-5s3.9,2,4.85,3.68c6.16,10.9,10.07,22.25,10.91,34.17C250.21,204.27,250,207.72,250,211.79Z"/><path d="M370.1,21.28a127.4,127.4,0,0,1,21.08-1.48c9.84,0,17,1.61,22,5.64,4.75,3.68,7.59,9.9,7.59,16.75,0,7.5-2.47,13.68-6.85,17.73-5.42,4.93-13.46,7.1-21.82,7.1-1.51,0-2.91-.11-4-.16V91.32H370.1Zm18.06,31.41a21.2,21.2,0,0,0,3.61.21c7.14,0,11-4.13,11-10,0-5.41-3.15-9.18-9.8-9.18a19.27,19.27,0,0,0-4.83.47Z"/><path d="M428.37,56.68c0-7.42-.16-12.61-.43-17.21h15.57l.73,8.76h.43c2.69-7.24,8.52-9.83,12.66-9.83a14.79,14.79,0,0,1,3.7.32V56a21.09,21.09,0,0,0-4.46-.43c-4.5,0-8.34,1.89-9.58,6.34a15.74,15.74,0,0,0-.41,3.89V91.32H428.37Z"/><path d="M516.64,65c0,19.86-13.35,27.43-25.85,27.43-15,0-25.62-10-25.62-26.67,0-17.07,10.72-27.32,26.33-27.32C506.93,38.4,516.64,49.36,516.64,65Zm-32.91.38c0,8.13,2.2,14,7.48,14,4.59,0,6.87-5.94,6.87-14,0-7.07-1.94-13.88-7-13.88C485.51,51.46,483.73,58.55,483.73,65.34Z"/><path d="M574,39.47c-.26,3.83-.48,8.68-.48,16.16V84.4c0,9.4-1.93,17.33-7.68,22.43-5.39,4.63-12.63,6.24-20.79,6.24-6.44,0-12.91-1.18-17.52-3.42l3.34-13.77a30.64,30.64,0,0,0,13.45,3.27c6.89,0,11.26-4,11.26-11.56V85.32h-.21a14.33,14.33,0,0,1-11.78,5.47c-12.7,0-20.25-11.21-20.25-25.1,0-16.38,9.58-27.29,21.84-27.29,5.47,0,9.6,2.19,12.2,6.46h.21l.68-5.39ZM555.32,60.3a12,12,0,0,0-.36-2.86c-.75-3.12-2.84-4.95-5.65-4.95-4.53,0-7.73,4.95-7.73,12.89,0,7.12,2.89,11.93,7.63,11.93a5.79,5.79,0,0,0,5.64-4.26,13.21,13.21,0,0,0,.47-3.9Z"/><path d="M584.26,56.68c0-7.42-.16-12.61-.43-17.21H599.4l.73,8.76h.43c2.69-7.24,8.52-9.83,12.66-9.83a14.79,14.79,0,0,1,3.7.32V56a21.12,21.12,0,0,0-4.47-.43c-4.49,0-8.33,1.89-9.57,6.34a15.74,15.74,0,0,0-.41,3.89V91.32H584.26Z"/><path d="M651.15,91.32l-.95-4.67h-.32c-3.45,4.11-8.33,5.74-13.63,5.74C626.37,92.39,620,85,620,76.15c0-13.91,12.53-19.89,28.38-19.94v-.62c0-2.35-1.91-4.61-8-4.61a28.56,28.56,0,0,0-13.65,3.66L623.52,43a44.43,44.43,0,0,1,20.36-4.55c17.91,0,22.75,10.81,22.75,22.87V78.91a71.7,71.7,0,0,0,.84,12.41ZM649,67.37c-6.85,0-11.37,2.12-11.37,6.93,0,3.65,2.31,5.34,5.09,5.34a6.47,6.47,0,0,0,6-4.27,9.19,9.19,0,0,0,.26-2.5Z"/><path d="M677.54,56.79c0-6.48-.21-12.39-.42-17.32h15.39l.79,6.29h.32a17.68,17.68,0,0,1,14.53-7.36c6.5,0,11.19,3,13.26,7.8h.21a21.45,21.45,0,0,1,6.59-5.79,18.31,18.31,0,0,1,8.6-2c10.89,0,16.47,8.16,16.47,21.89v31H735.5V63c0-6.15-1.47-9.93-5.4-9.93-2.73,0-4.48,1.71-5.33,4.09a12.84,12.84,0,0,0-.47,3.66V91.32H706.52V62c0-4.95-1.27-8.93-5.35-8.93A5.79,5.79,0,0,0,695.89,57a11,11,0,0,0-.57,3.8V91.32H677.54Z"/><path d="M792.39,91.32l-.95-4.67h-.32c-3.45,4.11-8.33,5.74-13.63,5.74-9.88,0-16.27-7.41-16.27-16.24,0-13.91,12.53-19.89,28.38-19.94v-.62c0-2.35-1.91-4.61-8-4.61a28.56,28.56,0,0,0-13.65,3.66L764.76,43a44.43,44.43,0,0,1,20.36-4.55c17.91,0,22.75,10.81,22.75,22.87V78.91a71.7,71.7,0,0,0,.84,12.41Zm-2.2-23.95c-6.85,0-11.37,2.12-11.37,6.93,0,3.65,2.31,5.34,5.09,5.34a6.45,6.45,0,0,0,6-4.27,8.8,8.8,0,0,0,.27-2.5Z"/><path d="M887.27,17.06V74.89c0,6.14.21,12.39.42,16.43h-16l-.79-6.58h-.21c-3,5.18-8.7,7.65-14.18,7.65-12.07,0-20.42-11.34-20.42-26.72C836,48.08,846.14,38.4,857.41,38.4c5.51,0,9.54,1.92,11.48,5h.21V17.06ZM869.1,61.15a15.07,15.07,0,0,0-.15-2.57c-.64-3.21-2.92-5.92-6.4-5.92-5.66,0-8.13,5.78-8.13,12.82,0,8.38,3.52,12.35,8.08,12.35a6.33,6.33,0,0,0,6.24-5.12,13.27,13.27,0,0,0,.36-3.38Z"/><path d="M913.21,72.08c.48,4.3,5.87,6.76,12.42,6.76a43.26,43.26,0,0,0,13.09-1.91L941,89.3a51.27,51.27,0,0,1-18.21,3c-17.24,0-26.95-9.74-26.95-26.13,0-13.78,8.41-27.76,25.46-27.76,15.14,0,22.4,11,22.4,26.13a37.37,37.37,0,0,1-.63,7.55ZM927.06,59.7c0-3.62-1.23-9.1-6.66-9.1-5.16,0-7.14,5.45-7.36,9.1Z"/><path d="M407.16,161.65h-39V124.2h122v37.45H450.53V293.3H407.16Z"/><path d="M560.7,293.3l-2.27-11.13h-.76c-8.2,9.8-19.82,13.67-32.44,13.67-23.52,0-38.75-17.63-38.75-38.65,0-33.12,29.85-47.35,67.58-47.47v-1.47c0-5.59-4.56-11-19.08-11A68.12,68.12,0,0,0,502.49,206l-7.57-27.82c7.79-4.14,24.8-10.82,48.46-10.82,42.64,0,54.15,25.73,54.15,54.44v42c0,11.61.64,22.58,2,29.53Zm-5.25-57c-16.3.12-27.05,5-27.05,16.5,0,8.69,5.48,12.71,12.12,12.71a15.35,15.35,0,0,0,14.3-10.18,21.28,21.28,0,0,0,.63-5.94Z"/><path d="M623.5,116.52h43.37V293.3H623.5Z"/><path d="M728.61,247.51c1.16,10.24,14,16.09,29.58,16.09a103.4,103.4,0,0,0,31.16-4.54l5.43,29.44c-13.12,5.11-28.62,7.1-43.35,7.1-41,0-64.16-23.17-64.16-62.19,0-32.8,20-66.08,60.6-66.08,36,0,53.34,26.07,53.34,62.2a87.74,87.74,0,0,1-1.52,18Zm33-29.48c0-8.62-2.93-21.67-15.86-21.67-12.29,0-17,13-17.52,21.67Z"/><path d="M821,211.1c0-15.42-.5-29.48-1-41.24h37.32l2,15.24h.77a42.5,42.5,0,0,1,35.09-17.77c27.93,0,41.36,20.14,41.36,51.74V293.3H893.14v-70c0-12.48-4.11-20.77-14-20.77-7.43,0-11.22,5-13.34,9.78-1,2.26-1.48,6-1.48,9.83V293.3H821Z"/><path d="M1009.27,135.31v34.55h25.26v31.31h-25.26v39.57c0,14.33,4.18,19.57,13.75,19.57a56,56,0,0,0,10.22-.88v33.12c-5.15,1.65-14.63,3.05-25.61,3.05-12.4,0-22.88-4-29.4-10.27-7.53-7.3-11.53-18.78-11.53-38V201.17h-15V169.86h15v-25Z"/><path d="M1169.33,230.55c0,47.28-31.77,65.29-61.53,65.29-35.65,0-61-23.8-61-63.49,0-40.62,25.51-65,62.68-65C1146.23,167.33,1169.33,193.42,1169.33,230.55Zm-78.33.91c0,19.35,5.24,33.3,17.82,33.3,10.92,0,16.33-14.15,16.33-33.3,0-16.83-4.62-33.05-16.57-33.05C1095.24,198.41,1091,215.29,1091,231.46Z"/><path d="M1190.58,256.65c6.46,3.94,20.6,8.5,31,8.5,8.86,0,12.74-2.24,12.74-7.1s-3.1-7-15.38-11.58c-25.52-9.55-33-24-32.86-37.07,0-24.14,19.6-42.07,50.39-42.07,13.83,0,25.91,3,33.59,6.57l-6.82,29.95c-5.55-2.78-15.4-6.22-24.41-6.22-7.66,0-11.84,2.58-11.84,7.36,0,4.13,3.55,6.64,17.21,11.86,23,8.81,30.91,21.7,31,37.94,0,24.14-18.43,40.81-53.39,40.81-15.27,0-29.9-3.42-38.44-8.21Z"/></g></g></svg>