<svg id="Capa_1" data-name="Capa 1" xmlns="http://www.w3.org/2000/svg" width="1621.21" height="664.65" viewBox="0 0 1621.21 664.65"><defs><style>.cls-1{fill:#97bf0d;}.cls-2{fill:#585759;}</style></defs><title>uteq_logo</title><path class="cls-1" d="M172.54,477.72A28.15,28.15,0,1,1,200.68,506,28.2,28.2,0,0,1,172.54,477.72Z" transform="translate(-149.79 -203.68)"/><path class="cls-2" d="M1750.43,683.25l20.57,44.1h-4.76l-6.94-14.51h-19l-6.87,14.51h-4.92l20.84-44.1Zm-.55,9.37-7.56,16h15.07Z" transform="translate(-149.79 -203.68)"/><path class="cls-1" d="M1076.5,495.31q0,35.35-4.9,47.89t-17.69,20.65q-12.78,8.11-30.47,8.12-16.73,0-28.56-7.29a41.3,41.3,0,0,1-17-19.46q-5.14-12.18-5.14-41.55V276.32H905.61V485.93q0,62.87,12.19,89.27t40.51,44q28.32,17.57,66.56,17.57,29.16,0,51.15-9.2a106.05,106.05,0,0,0,38.84-28.32q16.85-19.12,22.83-39.68t6-73.61V370.64H1076.5Z" transform="translate(-149.79 -203.68)"/><polygon class="cls-1" points="1123.16 166.97 1123.16 424.22 1315.09 424.22 1315.09 358.49 1189.61 358.49 1189.61 266 1315.09 266 1315.09 201.7 1189.61 201.7 1189.61 166.97 1123.16 166.97"/><polygon class="cls-1" points="926.7 72.64 926.67 72.64 926.67 138.61 1027.32 138.61 1027.32 424.22 1092.63 424.22 1092.63 138.61 1315.09 138.61 1315.09 72.64 926.7 72.64"/><path class="cls-1" d="M1708.12,576.52q46.37-51.87,46.37-123.33,0-77.68-53.69-131.7t-128.55-54a178.66,178.66,0,0,0-84.2,20.72v80.48c.55-.59,1.09-1.2,1.66-1.78Q1523,333,1572.25,333q47.85,0,81.59,34.89t33.73,84.84a122.13,122.13,0,0,1-21.27,69.79l-31.6-40.86h-79.84l63,81a109.9,109.9,0,0,1-45,9.34q-41.65,0-74.45-26.53a118.94,118.94,0,0,1-10.3-9.38v81.15q37.76,19.47,85,19.53T1659,615.62l31.08,40h79.23Z" transform="translate(-149.79 -203.68)"/><path class="cls-2" d="M914.52,683.25h4.41v26.62a52.4,52.4,0,0,0,.18,5.91,9.66,9.66,0,0,0,1.53,4.36,9,9,0,0,0,3.68,2.94,11.55,11.55,0,0,0,5,1.18,9.88,9.88,0,0,0,4.2-.92,9.34,9.34,0,0,0,3.36-2.58,10.68,10.68,0,0,0,2-4,33,33,0,0,0,.45-6.9V683.25h4.41v26.62a32.38,32.38,0,0,1-1.16,9.55,13,13,0,0,1-4.62,6.35,13.27,13.27,0,0,1-8.38,2.69,16.07,16.07,0,0,1-9.15-2.55,12.25,12.25,0,0,1-5.09-6.74q-.81-2.58-.81-9.3Z" transform="translate(-149.79 -203.68)"/><path class="cls-2" d="M954.61,727.35v-44.1h1l29.35,33.81V683.25h4.35v44.1h-1L959.17,694v33.39Z" transform="translate(-149.79 -203.68)"/><path class="cls-2" d="M999.38,683.25h4.4v44.1h-4.4Z" transform="translate(-149.79 -203.68)"/><path class="cls-2" d="M1010.53,683.25h4.8L1030,717.32l14.85-34.07h4.8l-19.19,44.1h-1Z" transform="translate(-149.79 -203.68)"/><path class="cls-2" d="M1057,683.25h25.28v4.31h-20.87v13.83h20.69v4.31h-20.69V723h20.69v4.31H1057Z" transform="translate(-149.79 -203.68)"/><path class="cls-2" d="M1090.18,683.25H1099a54.52,54.52,0,0,1,10,.59,11.37,11.37,0,0,1,6.38,3.86,11,11,0,0,1,2.46,7.28,11.76,11.76,0,0,1-1.69,6.34,10.59,10.59,0,0,1-4.85,4.13,22.22,22.22,0,0,1-8.69,1.43l15.86,20.47h-5.45l-15.86-20.47h-2.5v20.47h-4.4Zm4.4,4.31v15l7.6.06a18.59,18.59,0,0,0,6.53-.85,6.71,6.71,0,0,0,3.31-2.68,7.43,7.43,0,0,0,1.18-4.12,7.14,7.14,0,0,0-1.2-4,6.7,6.7,0,0,0-3.15-2.6,19.14,19.14,0,0,0-6.49-.78Z" transform="translate(-149.79 -203.68)"/><path class="cls-2" d="M1122.65,719.14l3.75-2.25q4,7.29,9.14,7.28a8.76,8.76,0,0,0,4.17-1,7.31,7.31,0,0,0,3-2.77,7.18,7.18,0,0,0,1-3.69,7.48,7.48,0,0,0-1.5-4.35,35.94,35.94,0,0,0-7.56-7.08q-5.52-4.17-6.86-6a11,11,0,0,1-2.34-6.75,10.24,10.24,0,0,1,1.38-5.25,9.82,9.82,0,0,1,3.88-3.73,11.18,11.18,0,0,1,5.45-1.36,11.55,11.55,0,0,1,5.82,1.54,20,20,0,0,1,5.75,5.68l-3.6,2.73a17.44,17.44,0,0,0-4.24-4.35,7.33,7.33,0,0,0-3.83-1,6,6,0,0,0-4.36,1.62,5.3,5.3,0,0,0-1.69,4,6.8,6.8,0,0,0,.6,2.79,9.93,9.93,0,0,0,2.19,2.94q.86.84,5.69,4.41,5.73,4.21,7.86,7.52a12.13,12.13,0,0,1,2.13,6.63,11.22,11.22,0,0,1-3.65,8.34,12.25,12.25,0,0,1-8.86,3.53,13,13,0,0,1-7.28-2.14A19.6,19.6,0,0,1,1122.65,719.14Z" transform="translate(-149.79 -203.68)"/><path class="cls-2" d="M1157.16,683.25h4.41v44.1h-4.41Z" transform="translate(-149.79 -203.68)"/><path class="cls-2" d="M1171.68,727.35v-44.1h9.14q9.9,0,14.36,1.58a19.27,19.27,0,0,1,10,7.8,23.78,23.78,0,0,1,3.61,13.23,23.19,23.19,0,0,1-2.87,11.66,18.28,18.28,0,0,1-7.43,7.44q-4.58,2.38-12.82,2.39Zm4.22-4.16h5.1c6.1,0,10.32-.38,12.69-1.14a14.64,14.64,0,0,0,7.82-5.83,17.94,17.94,0,0,0,2.85-10.29,18.85,18.85,0,0,0-3.09-10.9,15.57,15.57,0,0,0-8.6-6.21q-4.14-1.26-13.65-1.26h-3.12Z" transform="translate(-149.79 -203.68)"/><path class="cls-2" d="M1235.4,683.25l20.57,44.1h-4.77l-6.93-14.51h-19l-6.87,14.51h-4.91l20.84-44.1Zm-.56,9.37-7.56,16h15.08Z" transform="translate(-149.79 -203.68)"/><path class="cls-2" d="M1262.8,727.35v-44.1H1272q9.88,0,14.36,1.58a19.24,19.24,0,0,1,10,7.8,23.7,23.7,0,0,1,3.62,13.23,23.19,23.19,0,0,1-2.87,11.66,18.36,18.36,0,0,1-7.44,7.44c-3,1.59-7.32,2.39-12.81,2.39Zm4.23-4.16h5.1q9.13,0,12.68-1.14a14.63,14.63,0,0,0,7.83-5.83,17.94,17.94,0,0,0,2.85-10.29,18.85,18.85,0,0,0-3.09-10.9,15.56,15.56,0,0,0-8.61-6.21q-4.14-1.26-13.64-1.26H1267Z" transform="translate(-149.79 -203.68)"/><path class="cls-2" d="M1321.12,687.56v-4.31h24.17v4.31h-9.84v39.79H1331V687.56Z" transform="translate(-149.79 -203.68)"/><path class="cls-2" d="M1351.68,683.25H1377v4.31h-20.87v13.83h20.69v4.31h-20.69V723h20.69v4.31h-25.1Z" transform="translate(-149.79 -203.68)"/><path class="cls-2" d="M1425.65,691.43l-3.47,2.67a19.11,19.11,0,0,0-6.92-5.68,20.18,20.18,0,0,0-8.86-1.94,19.59,19.59,0,0,0-9.77,2.54,18.16,18.16,0,0,0-7,6.8,18.76,18.76,0,0,0-2.48,9.62,18.08,18.08,0,0,0,5.53,13.46,19.21,19.21,0,0,0,14,5.4,19.63,19.63,0,0,0,15.5-7.26l3.47,2.64a22.13,22.13,0,0,1-8.23,6.49,25.81,25.81,0,0,1-11,2.29q-11.57,0-18.26-7.7a23.26,23.26,0,0,1-5.61-15.71,21.84,21.84,0,0,1,6.8-16.3,23.4,23.4,0,0,1,17-6.61,25,25,0,0,1,11.16,2.44A21.62,21.62,0,0,1,1425.65,691.43Z" transform="translate(-149.79 -203.68)"/><path class="cls-2" d="M1434.53,727.35v-44.1h1l29.35,33.81V683.25h4.35v44.1h-1L1439.09,694v33.39Z" transform="translate(-149.79 -203.68)"/><path class="cls-2" d="M1500.93,682.14a22.91,22.91,0,0,1,16.78,6.68,23.19,23.19,0,0,1-16.41,39.64,22.6,22.6,0,0,1-16.57-6.71,22.1,22.1,0,0,1-6.75-16.26,23.42,23.42,0,0,1,3.08-11.78,22.29,22.29,0,0,1,8.38-8.5A22.53,22.53,0,0,1,1500.93,682.14Zm.2,4.28a18.25,18.25,0,0,0-9.28,2.55,18.46,18.46,0,0,0-6.85,6.88,19.11,19.11,0,0,0-2.46,9.63,18.54,18.54,0,0,0,18.59,18.69,18.92,18.92,0,0,0,9.5-2.48,17.8,17.8,0,0,0,6.82-6.82,19.15,19.15,0,0,0,2.45-9.6,18.7,18.7,0,0,0-2.45-9.5,18.36,18.36,0,0,0-6.89-6.8A18.76,18.76,0,0,0,1501.13,686.42Z" transform="translate(-149.79 -203.68)"/><path class="cls-2" d="M1533.3,683.25h4.41V723.1h17v4.25H1533.3Z" transform="translate(-149.79 -203.68)"/><path class="cls-2" d="M1582.67,682.14a22.91,22.91,0,0,1,16.78,6.68A23.19,23.19,0,0,1,1583,728.46a22.6,22.6,0,0,1-16.57-6.71,22.1,22.1,0,0,1-6.75-16.26,23.52,23.52,0,0,1,3.08-11.78,22.69,22.69,0,0,1,19.87-11.57Zm.2,4.28a18.27,18.27,0,0,0-9.28,2.55,18.53,18.53,0,0,0-6.85,6.88,19.11,19.11,0,0,0-2.46,9.63,18.54,18.54,0,0,0,18.59,18.69,19,19,0,0,0,9.51-2.48,17.85,17.85,0,0,0,6.81-6.82,19,19,0,0,0,2.45-9.6,18.6,18.6,0,0,0-2.45-9.5,18.36,18.36,0,0,0-6.89-6.8A18.73,18.73,0,0,0,1582.87,686.42Zm2.19-15.89h6.45l-8.85,9.24h-4.14Z" transform="translate(-149.79 -203.68)"/><path class="cls-2" d="M1657.59,690.65l-3.41,3.24a26.19,26.19,0,0,0-8.08-5.5,21.77,21.77,0,0,0-8.56-1.88,20.44,20.44,0,0,0-9.89,2.55,18.55,18.55,0,0,0-7.27,6.91,17.86,17.86,0,0,0-2.57,9.23,18.22,18.22,0,0,0,2.66,9.46,19,19,0,0,0,7.38,7,21.21,21.21,0,0,0,10.31,2.56,17.63,17.63,0,0,0,11.52-3.83,15.16,15.16,0,0,0,5.58-10H1641.2v-4.25h19q-.06,10.21-6.07,16.23t-16.09,6q-12.22,0-19.37-8.33a22.16,22.16,0,0,1-5.48-14.85,22.75,22.75,0,0,1,3.15-11.66,22.36,22.36,0,0,1,8.63-8.44,25.16,25.16,0,0,1,12.41-3,27.61,27.61,0,0,1,10.56,2A31.34,31.34,0,0,1,1657.59,690.65Z" transform="translate(-149.79 -203.68)"/><path class="cls-2" d="M1668,683.25h4.41v44.1H1668Z" transform="translate(-149.79 -203.68)"/><path class="cls-2" d="M1723.56,691.43l-3.48,2.67a19,19,0,0,0-6.91-5.68,20.18,20.18,0,0,0-8.86-1.94,19.53,19.53,0,0,0-9.77,2.54,18.16,18.16,0,0,0-7,6.8,18.86,18.86,0,0,0-2.48,9.62,18.08,18.08,0,0,0,5.53,13.46,19.19,19.19,0,0,0,14,5.4,19.62,19.62,0,0,0,15.5-7.26l3.48,2.64a22.21,22.21,0,0,1-8.23,6.49,25.81,25.81,0,0,1-11,2.29q-11.57,0-18.26-7.7a23.26,23.26,0,0,1-5.61-15.71,21.86,21.86,0,0,1,6.79-16.3,23.41,23.41,0,0,1,17-6.61,25,25,0,0,1,11.16,2.44A21.69,21.69,0,0,1,1723.56,691.43Z" transform="translate(-149.79 -203.68)"/><path class="cls-2" d="M914.52,805.35V761.24h9.15q9.89,0,14.36,1.59a19.2,19.2,0,0,1,10,7.8,23.69,23.69,0,0,1,3.62,13.22,23.21,23.21,0,0,1-2.87,11.67,18.28,18.28,0,0,1-7.44,7.43q-4.56,2.4-12.82,2.4Zm4.23-4.16h5.1q9.14,0,12.68-1.14a14.68,14.68,0,0,0,7.83-5.83,18,18,0,0,0,2.84-10.29A18.87,18.87,0,0,0,944.12,773a15.59,15.59,0,0,0-8.61-6.2q-4.14-1.26-13.64-1.26h-3.12Z" transform="translate(-149.79 -203.68)"/><path class="cls-2" d="M960.25,761.24h25.28v4.32H964.66v13.82h20.69v4.32H964.66V801h20.69v4.32h-25.1Z" transform="translate(-149.79 -203.68)"/><path class="cls-2" d="M1047.11,800.56l6.54,8.27h-5.42l-4.5-5.7a23.78,23.78,0,0,1-28.7-3.39,22.05,22.05,0,0,1-6.74-16.25,23.59,23.59,0,0,1,3.08-11.8,22.3,22.3,0,0,1,8.41-8.5,23,23,0,0,1,11.67-3.05,22.92,22.92,0,0,1,23.25,23.17,23.09,23.09,0,0,1-1.84,9.33A24.4,24.4,0,0,1,1047.11,800.56Zm-2.73-3.45a19.54,19.54,0,0,0,3.32-23.34,18.7,18.7,0,0,0-32.4.06,19.21,19.21,0,0,0-2.45,9.65,18.51,18.51,0,0,0,18.53,18.7,18.7,18.7,0,0,0,9.6-2.56l-9.83-12.47h5.35Z" transform="translate(-149.79 -203.68)"/><path class="cls-2" d="M1063.79,761.24h4.4v26.63a54,54,0,0,0,.19,5.91,9.78,9.78,0,0,0,1.53,4.36,8.89,8.89,0,0,0,3.69,2.94,11.48,11.48,0,0,0,5,1.18,9.88,9.88,0,0,0,4.2-.92,9.45,9.45,0,0,0,3.36-2.58,10.53,10.53,0,0,0,2-4,33,33,0,0,0,.45-6.9V761.24H1093v26.63a32.38,32.38,0,0,1-1.16,9.55,12.94,12.94,0,0,1-4.62,6.34,13.21,13.21,0,0,1-8.38,2.7,16,16,0,0,1-9.14-2.55,12.29,12.29,0,0,1-5.1-6.74q-.81-2.58-.81-9.3Z" transform="translate(-149.79 -203.68)"/><path class="cls-2" d="M1103.88,761.24h25.28v4.32h-20.87v13.82H1129v4.32h-20.69V801H1129v4.32h-25.1Z" transform="translate(-149.79 -203.68)"/><path class="cls-2" d="M1137,761.24h8.78a53.32,53.32,0,0,1,10,.6,11.46,11.46,0,0,1,6.39,3.86,11,11,0,0,1,2.45,7.28,11.76,11.76,0,0,1-1.69,6.34,10.49,10.49,0,0,1-4.84,4.12,22.13,22.13,0,0,1-8.7,1.43l15.86,20.48h-5.45l-15.86-20.48h-2.5v20.48H1137Zm4.4,4.32v15l7.6.07a18.62,18.62,0,0,0,6.54-.85,6.78,6.78,0,0,0,3.3-2.68,7.46,7.46,0,0,0,1.19-4.12,7.11,7.11,0,0,0-1.21-4,6.74,6.74,0,0,0-3.15-2.59,19.18,19.18,0,0,0-6.49-.78Z" transform="translate(-149.79 -203.68)"/><path class="cls-2" d="M1174.08,761.24h25.27v4.32h-20.86v13.82h20.69v4.32h-20.69V801h20.69v4.32h-25.1ZM1189,748.53h6.45l-8.85,9.24h-4.14Z" transform="translate(-149.79 -203.68)"/><path class="cls-2" d="M1202.59,765.56v-4.32h24.17v4.32h-9.83v39.79h-4.5V765.56Z" transform="translate(-149.79 -203.68)"/><path class="cls-2" d="M1251.14,761.24l20.57,44.11H1267L1260,790.84h-19l-6.87,14.51h-4.92l20.84-44.11Zm-.55,9.38-7.57,16h15.08Z" transform="translate(-149.79 -203.68)"/><path class="cls-2" d="M1278.79,761.24h8.78a53.32,53.32,0,0,1,10,.6,11.37,11.37,0,0,1,6.38,3.86,11,11,0,0,1,2.46,7.28,11.76,11.76,0,0,1-1.69,6.34,10.49,10.49,0,0,1-4.84,4.12,22.09,22.09,0,0,1-8.7,1.43L1307,805.35h-5.45l-15.86-20.48h-2.5v20.48h-4.4Zm4.4,4.32v15l7.61.07a18.56,18.56,0,0,0,6.52-.85,6.76,6.76,0,0,0,3.31-2.68,7.46,7.46,0,0,0,1.19-4.12,7.18,7.18,0,0,0-1.21-4,6.74,6.74,0,0,0-3.15-2.59,19.18,19.18,0,0,0-6.49-.78Z" transform="translate(-149.79 -203.68)"/><path class="cls-2" d="M1336.82,760.14a22.89,22.89,0,0,1,16.78,6.68,23.19,23.19,0,0,1-16.41,39.64,22.59,22.59,0,0,1-16.57-6.72,22.06,22.06,0,0,1-6.75-16.25,23.49,23.49,0,0,1,3.08-11.78,22.69,22.69,0,0,1,19.87-11.57Zm.2,4.28a18.82,18.82,0,0,0-16.13,9.43,19.11,19.11,0,0,0-2.46,9.63,18.56,18.56,0,0,0,18.59,18.7,18.9,18.9,0,0,0,9.51-2.5,17.82,17.82,0,0,0,6.81-6.81,19.15,19.15,0,0,0,2.45-9.6,18.7,18.7,0,0,0-2.45-9.5,18.29,18.29,0,0,0-6.89-6.8A18.63,18.63,0,0,0,1337,764.42Z" transform="translate(-149.79 -203.68)"/><path class="cls-1" d="M494.17,840.07a28.15,28.15,0,1,1,28.15,28.25A28.2,28.2,0,0,1,494.17,840.07Z" transform="translate(-149.79 -203.68)"/><path class="cls-1" d="M763.84,478.09A28.15,28.15,0,1,1,792,506.34,28.2,28.2,0,0,1,763.84,478.09Z" transform="translate(-149.79 -203.68)"/><path class="cls-2" d="M539,578l20,25.84H533.08l-10.15-13.07a57.42,57.42,0,0,1-28.07,6.9q-25.87,0-43-17.84a60.46,60.46,0,0,1,12.76-94.67,58.52,58.52,0,0,1,30-8.12q24.45,0,42,17.64t17.54,43Q554.12,561,539,578Zm-13.66-17.66a39.9,39.9,0,0,0,6.94-22.79,38.39,38.39,0,0,0-11-27.72,35.7,35.7,0,0,0-26.65-11.4q-16.11,0-27,11.09t-10.86,28.18q0,19.07,13.69,30.14a37.61,37.61,0,0,0,24.32,8.67,35.94,35.94,0,0,0,14.7-3.05L488.91,547H515Z" transform="translate(-149.79 -203.68)"/><path class="cls-2" d="M235.64,371.24l.36,5.86q-10.62,1.62-15.92,11.46a20.39,20.39,0,0,0-2,15.78,18.76,18.76,0,0,0,9.49,11.81,19.71,19.71,0,0,0,10.14,2.37,19,19,0,0,0,10-3.09,22.52,22.52,0,0,0,8.1-27.66l5.25-2.83a23.52,23.52,0,0,1,2.75,12.16A30,30,0,0,1,260,410.33q-5.49,10.2-15.6,13.43A24,24,0,0,1,225,422a25.69,25.69,0,0,1-9.92-9.4,25.18,25.18,0,0,1-3.71-13.14A28.64,28.64,0,0,1,215,385.53a29.67,29.67,0,0,1,5.75-7.55,25.9,25.9,0,0,1,7-4.91A21.13,21.13,0,0,1,235.64,371.24Z" transform="translate(-149.79 -203.68)"/><path class="cls-2" d="M254.28,329.81a24.41,24.41,0,0,1,18.6-8.88,26.49,26.49,0,0,1,26.88,23.77q1.13,10.51-6.27,19.06t-18,9a26.41,26.41,0,0,1-27.34-23.17A24.38,24.38,0,0,1,254.28,329.81ZM259,333.9A18.3,18.3,0,0,0,254.47,348a19.58,19.58,0,0,0,7,13.56,20.18,20.18,0,0,0,9.24,4.57,18.33,18.33,0,0,0,10-.63,19.91,19.91,0,0,0,12.69-14.65,18.47,18.47,0,0,0-.82-10,20,20,0,0,0-5.84-8.49,19.57,19.57,0,0,0-14.43-4.94A18.34,18.34,0,0,0,259,333.9Z" transform="translate(-149.79 -203.68)"/><path class="cls-2" d="M290,297.52l5-3.78,5.26,7a26.23,26.23,0,0,1,2.18-11,20.57,20.57,0,0,1,6.5-8,17.45,17.45,0,0,1,9.46-3.61,16.56,16.56,0,0,1,9.53,2.26q4.45,2.56,10.44,10.56l15.1,20.16-5,3.78-14-18.69c-3.37-4.51-5.82-7.39-7.32-8.62a12.4,12.4,0,0,0-7.75-3.33,12.64,12.64,0,0,0-7.95,2.89,15.56,15.56,0,0,0-5.93,9.16,17.72,17.72,0,0,0,.84,11.06q1.47,3.47,7.26,11.2l10.76,14.37-5,3.77Z" transform="translate(-149.79 -203.68)"/><path class="cls-2" d="M364.65,249.39a24.49,24.49,0,0,1,20.63-.31,26.49,26.49,0,0,1,14.51,32.83q-3.36,10-13.65,14.71t-20.1.64a26.43,26.43,0,0,1-15.19-32.46A24.47,24.47,0,0,1,364.65,249.39Zm2.56,5.67a18.26,18.26,0,0,0-10,11,19.52,19.52,0,0,0,.68,15.24,20,20,0,0,0,6.49,8,18.38,18.38,0,0,0,9.34,3.6,19.9,19.9,0,0,0,17.64-8,18.45,18.45,0,0,0,3.42-9.4,20,20,0,0,0-1.77-10.16A19.5,19.5,0,0,0,382,254.76,18.37,18.37,0,0,0,367.21,255.06Z" transform="translate(-149.79 -203.68)"/><path class="cls-2" d="M458.71,234.44l-4.21,4q-8.06-7-18.93-4.73a20.32,20.32,0,0,0-13.25,8.65,18.58,18.58,0,0,0-2.88,14.79,19.68,19.68,0,0,0,4.71,9.23,18.9,18.9,0,0,0,8.76,5.58,22.39,22.39,0,0,0,26.22-11.61l5.53,2.16a23.46,23.46,0,0,1-7.48,9.91,30,30,0,0,1-12.5,5.6q-11.28,2.38-20.23-3.22A23.84,23.84,0,0,1,413.33,259a25.4,25.4,0,0,1,.76-13.56,25.12,25.12,0,0,1,7.6-11.27,28.58,28.58,0,0,1,12.9-6.2,29.33,29.33,0,0,1,9.42-.48,25.91,25.91,0,0,1,8.25,2.18A20.77,20.77,0,0,1,458.71,234.44Z" transform="translate(-149.79 -203.68)"/><path class="cls-2" d="M478.26,203.68a5.23,5.23,0,0,1,.35,10.45,4.94,4.94,0,0,1-3.7-1.42,5,5,0,0,1-1.65-3.61,5.09,5.09,0,0,1,1.4-3.76A5,5,0,0,1,478.26,203.68Zm-2.46,20.37,6.33-.21,1.65,49.21-6.33.21Z" transform="translate(-149.79 -203.68)"/><path class="cls-2" d="M504.83,221l6.17,1-1.31,8.29a24.11,24.11,0,0,1,7.68-5.66,19,19,0,0,1,10.28-1.27,16.66,16.66,0,0,1,6.4,2.4,14.5,14.5,0,0,1,4.54,4.44,19.77,19.77,0,0,1,2.42,7.05,23.11,23.11,0,0,1,9-7.37,18.45,18.45,0,0,1,10.39-1.36,15.66,15.66,0,0,1,8.37,3.89,15.15,15.15,0,0,1,4.55,7.89q1.14,4.78-.28,13.78L569,280.25l-6.3-1,4.12-26.17q1.2-7.71.56-10.77a9.69,9.69,0,0,0-3-5.24,11.27,11.27,0,0,0-6.07-2.76,14,14,0,0,0-8.61,1.35,15.41,15.41,0,0,0-6.53,6.2q-2.4,4.14-4,14.45l-3,18.76-6.17-1,3.86-24.55q1.36-8.67.78-11.95a10,10,0,0,0-3-5.58,11,11,0,0,0-6.09-2.87,14,14,0,0,0-8.41,1.32,15.41,15.41,0,0,0-6.59,6.07q-2.48,4.08-3.89,13.07l-3.19,20.31-6.17-1Z" transform="translate(-149.79 -203.68)"/><path class="cls-2" d="M596.55,240.77l6.05,2-15.7,47-6-2ZM606,222.42a5.26,5.26,0,0,1-3.34,10,5.27,5.27,0,0,1-3.28-6.62,5.08,5.08,0,0,1,2.64-3.05A5,5,0,0,1,606,222.42Z" transform="translate(-149.79 -203.68)"/><path class="cls-2" d="M642.68,297.29l3.45,5a29.12,29.12,0,0,1-9.28,4.59,24.21,24.21,0,0,1-9.15.68,27.08,27.08,0,0,1-9.45-3.06q-10.72-5.61-13.1-15.82a26.81,26.81,0,0,1,2.26-19.07,26.46,26.46,0,0,1,12.91-12.19q10.84-4.91,21.73.79,11.22,5.87,13.47,17.88,1.62,8.49-3,17.53L613.05,273a20.17,20.17,0,0,0-1.67,15.09,17.56,17.56,0,0,0,9.11,11,21.21,21.21,0,0,0,7.13,2.25,19.3,19.3,0,0,0,7-.27A29.75,29.75,0,0,0,642.68,297.29Zm6.18-11.81a21,21,0,0,0,.48-8.94,17.53,17.53,0,0,0-3.42-7.34,19.92,19.92,0,0,0-6.61-5.56A18.15,18.15,0,0,0,626,262q-5,1.25-9.87,6.39Z" transform="translate(-149.79 -203.68)"/><path class="cls-2" d="M680.59,284.14l4.88,3.94L680,294.87a26.2,26.2,0,0,1,11.19-.61,20.44,20.44,0,0,1,9.3,4.3,17.25,17.25,0,0,1,5.81,8.24,16.5,16.5,0,0,1,.17,9.74q-1.38,4.93-7.61,12.67l-15.73,19.53-4.88-3.94,14.57-18.09q5.28-6.56,6.51-9.19a12.35,12.35,0,0,0,1.31-8.29,12.62,12.62,0,0,0-4.75-7,15.44,15.44,0,0,0-10.29-3.46,17.61,17.61,0,0,0-10.46,3.53q-3,2.27-9,9.76L654.91,326,650,322.08Z" transform="translate(-149.79 -203.68)"/><path class="cls-2" d="M746.5,319.3l4.24,4.72-13.61,12.22,6.72,7.48-4.08,3.66-6.71-7.47-32.58,29.27-4.23-4.72,32.57-29.27L723,328.76l4.08-3.67,5.77,6.44Z" transform="translate(-149.79 -203.68)"/><path class="cls-2" d="M767.94,375.29a24.41,24.41,0,0,1,3.1,20.39,26.49,26.49,0,0,1-30.57,18.82q-10.38-2-16.41-11.54t-3.36-19.82a26.44,26.44,0,0,1,30.12-19.45A24.46,24.46,0,0,1,767.94,375.29Zm-5.27,3.3a18.25,18.25,0,0,0-12.21-8.39,19.55,19.55,0,0,0-15,2.73,20.19,20.19,0,0,0-7.05,7.52,18.34,18.34,0,0,0-2.3,9.74,19.89,19.89,0,0,0,10.34,16.39,18.35,18.35,0,0,0,9.78,2.12,20,20,0,0,0,9.82-3.13A19.5,19.5,0,0,0,765,393.19,18.3,18.3,0,0,0,762.67,378.59Z" transform="translate(-149.79 -203.68)"/><path class="cls-2" d="M806.86,585l-4-4.62q5.58-4.87,6-10a7.87,7.87,0,0,0-1.67-5.7,6.63,6.63,0,0,0-4.78-2.71,7.35,7.35,0,0,0-4.93,1.5q-2.48,1.71-6.1,7.51-4.44,7.08-8.21,9.44a13.48,13.48,0,0,1-8.31,1.94,14.55,14.55,0,0,1-10.36-5.34,15.25,15.25,0,0,1-3.48-11.5,19.49,19.49,0,0,1,2.64-8.34,18.55,18.55,0,0,1,5.9-6.26l4.39,4.55q-6.15,4.61-6.62,10.29a9.67,9.67,0,0,0,2,7,7.87,7.87,0,0,0,11,1.87q2.33-1.68,6.17-7.89,4.17-6.67,7.88-8.89a13.34,13.34,0,0,1,8.2-1.85,13.06,13.06,0,0,1,9.42,4.8,14,14,0,0,1,3,10.44Q814.41,578.41,806.86,585Z" transform="translate(-149.79 -203.68)"/><path class="cls-2" d="M765.75,636.63l-4.28,4.66a30.45,30.45,0,0,1-6.81-8.39,25.32,25.32,0,0,1-2.8-9.15,28.33,28.33,0,0,1,.94-10.32q3.24-12.21,13.08-17a27.93,27.93,0,0,1,19.92-2.09,27.61,27.61,0,0,1,15.38,10.32q7.49,9.9,4.2,22.3-3.39,12.76-15.09,17.82-8.28,3.6-18.53,1l11.92-44.91q-8.74-2.13-15.73,1.77a18.33,18.33,0,0,0-9.08,11.8,22.1,22.1,0,0,0-.65,7.77,20.24,20.24,0,0,0,1.9,7.07A30.75,30.75,0,0,0,765.75,636.63Zm13.44,3.57a22,22,0,0,0,9.2-1.57,18.24,18.24,0,0,0,6.68-5.18,20.61,20.61,0,0,0,4.14-8,18.9,18.9,0,0,0-1.38-13.88q-2.42-4.77-8.77-8.58Z" transform="translate(-149.79 -203.68)"/><path class="cls-2" d="M790.75,666.77,788,673l-6.89-3.08a23.85,23.85,0,0,1,3.47,8.57,12.63,12.63,0,0,1-.85,7.31,12.11,12.11,0,0,1-4,4.66L776,685a9.21,9.21,0,0,0,2.25-2.84,9.57,9.57,0,0,0,.13-7q-1.24-3.93-5.83-7.74-3.51-2.94-15.78-8.41l-15.95-7.12,2.77-6.2Z" transform="translate(-149.79 -203.68)"/><path class="cls-2" d="M777.86,696l-3.78,6L733,696.52l22.66,34.6-3.81,6-31-47.57.66-1Z" transform="translate(-149.79 -203.68)"/><path class="cls-2" d="M742.76,747.4l-4.23,5.12L698.74,719.6l4.24-5.12ZM757,763.5a5.48,5.48,0,0,1-8.45-7,5.5,5.5,0,0,1,7.67-.71,5.3,5.3,0,0,1,2,3.72A5.22,5.22,0,0,1,757,763.5Z" transform="translate(-149.79 -203.68)"/><path class="cls-2" d="M682.19,792.9l1.7-6q11.15,2.13,19.89-5.79a21.51,21.51,0,0,0,7.54-15A19.8,19.8,0,0,0,706.05,751a20.9,20.9,0,0,0-9.26-5.94,20,20,0,0,0-11-.45,23.8,23.8,0,0,0-17.85,24.68l-6.23,1a25,25,0,0,1,1.57-13.09,31.57,31.57,0,0,1,8.47-11.81q9.07-8.22,20.28-7.87a25.3,25.3,0,0,1,18.69,8.62A26.94,26.94,0,0,1,717.26,759a26.57,26.57,0,0,1-.94,14.4A30.27,30.27,0,0,1,707.79,786a31.48,31.48,0,0,1-8.38,5.48,27.72,27.72,0,0,1-8.74,2.41A22.26,22.26,0,0,1,682.19,792.9Z" transform="translate(-149.79 -203.68)"/><path class="cls-2" d="M675.1,809.94l-5.51,3.71-28.8-42.86,5.51-3.71Zm9.12,19.48a5.25,5.25,0,0,1-4.11.83,5.36,5.36,0,0,1-3.51-2.34,5.45,5.45,0,0,1,5.59-8.38A5.47,5.47,0,0,1,686.5,826,5.2,5.2,0,0,1,684.22,829.42Z" transform="translate(-149.79 -203.68)"/><path class="cls-2" d="M632.4,836.12a25.54,25.54,0,0,1-21.57.73A27.72,27.72,0,0,1,595,802.79q3.32-10.54,14-15.65t21-1.08a27.67,27.67,0,0,1,16.54,33.68A25.55,25.55,0,0,1,632.4,836.12Zm-2.79-5.88a19.12,19.12,0,0,0,10.21-11.66,20.46,20.46,0,0,0-1-15.93,21.15,21.15,0,0,0-6.95-8.25,19.31,19.31,0,0,0-9.84-3.58,20.87,20.87,0,0,0-18.31,8.75,19.24,19.24,0,0,0-3.39,9.91,21,21,0,0,0,2,10.59,20.42,20.42,0,0,0,11.78,10.78A19.19,19.19,0,0,0,629.61,830.24Z" transform="translate(-149.79 -203.68)"/><path class="cls-2" d="M444.08,863.77l-6.89-1.59-8.4-40.58-25.17,32.81-6.93-1.61,34.67-45,1.2.27Z" transform="translate(-149.79 -203.68)"/><path class="cls-2" d="M357.45,838.14A25.53,25.53,0,0,1,343.11,822a27.72,27.72,0,0,1,16.09-33.94q10.23-4.19,21,.77t14.25,15.48a27.64,27.64,0,0,1-15.34,34.23A25.57,25.57,0,0,1,357.45,838.14Zm2.74-5.9a19.17,19.17,0,0,0,15.5.41,20.47,20.47,0,0,0,11.6-11,20.92,20.92,0,0,0,1.91-10.62,19.21,19.21,0,0,0-3.53-9.85,20.87,20.87,0,0,0-18.43-8.5,19.26,19.26,0,0,0-9.78,3.72,20.9,20.9,0,0,0-6.84,8.34,20.35,20.35,0,0,0-.77,16A19.1,19.1,0,0,0,360.19,832.24Z" transform="translate(-149.79 -203.68)"/><path class="cls-2" d="M309.11,832.93l-5.57-3.62,39-60,5.57,3.62Z" transform="translate(-149.79 -203.68)"/><path class="cls-2" d="M299.47,803.05l-5-4.34,15.76-18.24q5.76-6.69,7.22-9.82a13.57,13.57,0,0,0,.78-9.23,16.5,16.5,0,0,0-5.45-8.35,16.16,16.16,0,0,0-8.89-4.13,13.66,13.66,0,0,0-8.66,1.84q-2.7,1.61-9,8.93L270.41,778l-5.14-4.43,16.57-19.19q7-8.07,12.4-10.54a19,19,0,0,1,11.21-1.51c3.86.63,7.7,2.6,11.5,5.88a24,24,0,0,1,7.54,10.56,18.84,18.84,0,0,1,.13,11.39q-1.71,5.79-8.9,14.11Z" transform="translate(-149.79 -203.68)"/><path class="cls-2" d="M250.06,757.38l-4-5.28,7.36-5.61a27.85,27.85,0,0,1-11.67-2.2,21.7,21.7,0,0,1-8.49-6.78,18.29,18.29,0,0,1-3.89-10,17.52,17.52,0,0,1,2.29-10.07q2.66-4.72,11-11.11l21.13-16.12,4,5.28-19.58,14.94q-7.09,5.41-9,7.81a13.13,13.13,0,0,0-3.45,8.2,13.31,13.31,0,0,0,3.13,8.36,16.34,16.34,0,0,0,9.72,6.17,18.67,18.67,0,0,0,11.66-1q3.63-1.59,11.74-7.77l15.06-11.48,4,5.28Z" transform="translate(-149.79 -203.68)"/><path class="cls-2" d="M193.23,708l-3.12-5.86,16.91-9-5-9.29,5.07-2.71,5,9.3,40.5-21.58,3.13,5.86-40.5,21.59,4.26,8-5.07,2.7-4.26-8Z" transform="translate(-149.79 -203.68)"/><path class="cls-2" d="M178.83,620.61l49.06-16.07,2,6.22-8.43,2.76a28.7,28.7,0,0,1,10.18,6.53,26.2,26.2,0,0,1,4.25,30.27,26.68,26.68,0,0,1-16,13.4,26.19,26.19,0,0,1-20.56-1.5A25.54,25.54,0,0,1,186,646.78,24.3,24.3,0,0,1,185,635a26.14,26.14,0,0,1,4.89-11.12l-9,3Zm13.09,23.66a20,20,0,0,0,15.38,13.59,20.9,20.9,0,0,0,19.81-6.52,20.4,20.4,0,0,0,5-9.55,19.73,19.73,0,0,0-.52-10.48,20.71,20.71,0,0,0-5.83-9,19.23,19.23,0,0,0-9.41-4.82,21.29,21.29,0,0,0-10.87.79,20.63,20.63,0,0,0-12.4,10.27A19.61,19.61,0,0,0,191.92,644.27Z" transform="translate(-149.79 -203.68)"/><path class="cls-2" d="M149.79,548.25l71.3-6.21.57,6.53-8.84.77a28.42,28.42,0,0,1,8.42,8.68,26.19,26.19,0,0,1-2.75,30.44,26.65,26.65,0,0,1-18.6,9.4,26.14,26.14,0,0,1-19.68-6.14,25.51,25.51,0,0,1-9.53-18.09,24.46,24.46,0,0,1,1.69-11.7,26.28,26.28,0,0,1,7.31-9.71l-29.32,2.55ZM177,572.53a20,20,0,0,0,11.88,16.74,20.92,20.92,0,0,0,20.78-1.83,20.27,20.27,0,0,0,7.06-8.15A19.59,19.59,0,0,0,218.62,569,20.71,20.71,0,0,0,215,558.9a19.3,19.3,0,0,0-8.07-6.84,21.28,21.28,0,0,0-10.75-1.7,20.57,20.57,0,0,0-14.42,7.18A19.53,19.53,0,0,0,177,572.53Z" transform="translate(-149.79 -203.68)"/><path class="cls-2" d="M374.79,542.6l10.74,18.34L314.31,577l5.31,9.76,48-11,10.48,17.92L321,606.65c-13.44,3-15.64-1.67-15.64-1.67s-20.61-34-21.42-35.38-2.38-7.29,9.57-10.18Z" transform="translate(-149.79 -203.68)"/><path class="cls-2" d="M400,450.6l1.28,21.22-70.8-17.88.33,11.11L378.61,477l1.23,20.72-56.76-14.33c-13.36-3.37-13.19-8.56-13.19-8.56s-3-39.66-3.09-41.25,1.18-7.58,13.14-4.74Z" transform="translate(-149.79 -203.68)"/><path class="cls-2" d="M495.39,419.76,476.88,430.2,462,358.71l-9.84,5.16L462.29,412,444.2,422.21s-9.14-43.82-12-57.31,1.93-15.61,1.93-15.61,34.36-20,35.74-20.82,7.33-2.26,10,9.73Z" transform="translate(-149.79 -203.68)"/><path class="cls-2" d="M585.24,448.71l-21.25,0,22.28-69.54-11.11-.37-14.9,46.92-20.76-.07,17.86-55.75c4.2-13.12,9.37-12.63,9.37-12.63l41.36-.5c1.59,0,7.49,1.66,3.91,13.41C607.35,383.8,585.24,448.71,585.24,448.71Z" transform="translate(-149.79 -203.68)"/><path class="cls-2" d="M615.84,539,606,520.21l71.89-12.81-4.87-10-48.44,8.76-9.64-18.39,57.63-10.27c13.57-2.42,15.55,2.38,15.55,2.38s19,34.93,19.77,36.34,2,7.38-10,9.72Z" transform="translate(-149.79 -203.68)"/><path class="cls-2" d="M591.58,630.31l-1.17-21.22,70.71,18.24-.27-11.11L613.15,604,612,583.31l56.69,14.62c13.34,3.44,13.15,8.64,13.15,8.64s2.77,39.67,2.87,41.26-1.22,7.57-13.16,4.68Z" transform="translate(-149.79 -203.68)"/><path class="cls-2" d="M496.92,661.67l18.63-10.22,14.09,71.65,9.9-5-9.62-48.28,18.22-10s8.63,43.92,11.29,57.44-2.1,15.59-2.1,15.59-34.59,19.64-36,20.41-7.35,2.17-9.9-9.85C508.92,729.18,496.92,661.67,496.92,661.67Z" transform="translate(-149.79 -203.68)"/><path class="cls-2" d="M406.75,632.31l21.25.08L405.62,701.9l11.1.39,15-46.9,20.76.1s-13.73,42.61-17.95,55.73-9.4,12.61-9.4,12.61-39.77.42-41.36.42-7.48-1.65-3.89-13.4Z" transform="translate(-149.79 -203.68)"/><polygon class="cls-2" points="230.98 294.03 230.98 305.63 159.91 287.2 160.92 310.69 233.21 327.5 234.73 353.21 257.31 364.05 253.58 299.78 230.98 294.03"/><polygon class="cls-2" points="303.73 450.29 315.12 450.11 292.81 520.58 315.17 520.58 337.2 450.11 362.96 450.11 375.01 428.71 310.63 428.63 303.73 450.29"/><polygon class="cls-2" points="398.59 453.52 408.41 447.77 423.56 520.12 443.04 509.15 427.65 436.93 450.1 424.29 450.09 400.14 394.08 431.83 398.59 453.52"/><polygon class="cls-2" points="230.81 389.34 235.97 399.74 164.9 416.24 176.05 436.39 247.68 418.34 260.47 440.7 285.51 440.37 252.49 384.69 230.81 389.34"/><polygon class="cls-2" points="293.86 219.83 283.73 225.44 268.14 153.55 248.5 164.85 264.26 237.03 242.1 249.28 242.19 273.42 298.4 242.06 293.86 219.83"/><polygon class="cls-2" points="464.24 285.17 458.81 274.95 531.46 261.51 520.51 241.68 447.56 255.27 435.7 232.9 411.57 232.56 441.94 289.32 464.24 285.17"/><polygon class="cls-2" points="461.08 379.54 460.39 367.98 532.05 385.93 530.33 363.34 458.32 345.42 456.83 320.14 435.01 309.81 439.07 374.06 461.08 379.54"/><polygon class="cls-2" points="388.48 224.01 376.67 223.91 399.54 153.58 376.57 153.55 354.91 223.94 329.55 223.9 317.37 244.87 381.75 245.03 388.48 224.01"/></svg>